%TF.GenerationSoftware,KiCad,Pcbnew,8.0.4*%
%TF.CreationDate,2024-12-15T23:05:05+02:00*%
%TF.ProjectId,Little Boy - External,4c697474-6c65-4204-926f-79202d204578,rev?*%
%TF.SameCoordinates,Original*%
%TF.FileFunction,Copper,L2,Inr*%
%TF.FilePolarity,Positive*%
%FSLAX46Y46*%
G04 Gerber Fmt 4.6, Leading zero omitted, Abs format (unit mm)*
G04 Created by KiCad (PCBNEW 8.0.4) date 2024-12-15 23:05:05*
%MOMM*%
%LPD*%
G01*
G04 APERTURE LIST*
G04 Aperture macros list*
%AMRoundRect*
0 Rectangle with rounded corners*
0 $1 Rounding radius*
0 $2 $3 $4 $5 $6 $7 $8 $9 X,Y pos of 4 corners*
0 Add a 4 corners polygon primitive as box body*
4,1,4,$2,$3,$4,$5,$6,$7,$8,$9,$2,$3,0*
0 Add four circle primitives for the rounded corners*
1,1,$1+$1,$2,$3*
1,1,$1+$1,$4,$5*
1,1,$1+$1,$6,$7*
1,1,$1+$1,$8,$9*
0 Add four rect primitives between the rounded corners*
20,1,$1+$1,$2,$3,$4,$5,0*
20,1,$1+$1,$4,$5,$6,$7,0*
20,1,$1+$1,$6,$7,$8,$9,0*
20,1,$1+$1,$8,$9,$2,$3,0*%
%AMRotRect*
0 Rectangle, with rotation*
0 The origin of the aperture is its center*
0 $1 length*
0 $2 width*
0 $3 Rotation angle, in degrees counterclockwise*
0 Add horizontal line*
21,1,$1,$2,0,0,$3*%
G04 Aperture macros list end*
%TA.AperFunction,ComponentPad*%
%ADD10C,0.600000*%
%TD*%
%TA.AperFunction,ComponentPad*%
%ADD11RoundRect,0.250000X-1.125000X-1.125000X1.125000X-1.125000X1.125000X1.125000X-1.125000X1.125000X0*%
%TD*%
%TA.AperFunction,ComponentPad*%
%ADD12RotRect,1.600000X1.600000X30.000000*%
%TD*%
%TA.AperFunction,ComponentPad*%
%ADD13C,1.600000*%
%TD*%
%TA.AperFunction,HeatsinkPad*%
%ADD14C,0.500000*%
%TD*%
%TA.AperFunction,ComponentPad*%
%ADD15R,3.000000X3.000000*%
%TD*%
%TA.AperFunction,ComponentPad*%
%ADD16C,3.000000*%
%TD*%
%TA.AperFunction,ComponentPad*%
%ADD17R,1.000000X1.000000*%
%TD*%
%TA.AperFunction,ComponentPad*%
%ADD18O,1.000000X1.000000*%
%TD*%
%TA.AperFunction,ComponentPad*%
%ADD19RoundRect,0.250000X0.750000X-0.600000X0.750000X0.600000X-0.750000X0.600000X-0.750000X-0.600000X0*%
%TD*%
%TA.AperFunction,ComponentPad*%
%ADD20O,2.000000X1.700000*%
%TD*%
%TA.AperFunction,ViaPad*%
%ADD21C,0.600000*%
%TD*%
G04 APERTURE END LIST*
D10*
%TO.N,GND*%
%TO.C,U2*%
X128850001Y-59250001D03*
X126250000Y-59250000D03*
X127550000Y-59250000D03*
X124949998Y-59249999D03*
X128850002Y-57950001D03*
X126250000Y-57950000D03*
X127550000Y-57950000D03*
X124949999Y-57949999D03*
%TD*%
D11*
%TO.N,Net-(J11-Pin_1)*%
%TO.C,J11*%
X129500000Y-66500000D03*
%TD*%
D12*
%TO.N,+12V*%
%TO.C,C8*%
X134468912Y-72749999D03*
D13*
%TO.N,GND*%
X137500000Y-71000000D03*
%TD*%
D14*
%TO.N,GND*%
%TO.C,U4*%
X133137501Y-49859176D03*
X133137501Y-48759178D03*
%TD*%
D15*
%TO.N,GND*%
%TO.C,J9*%
X150249999Y-79250002D03*
D16*
%TO.N,+12V*%
X145249999Y-79250002D03*
%TD*%
D17*
%TO.N,+3V3*%
%TO.C,SWD*%
X156979999Y-72250000D03*
D18*
%TO.N,SWDIO*%
X156979999Y-70979999D03*
%TO.N,GND*%
X158250000Y-72250000D03*
%TO.N,SWCLK*%
X158249999Y-70980002D03*
%TO.N,GND*%
X159520000Y-72250001D03*
%TO.N,NRST*%
X159519998Y-70980000D03*
%TD*%
D15*
%TO.N,GND*%
%TO.C,J8*%
X133250000Y-79250000D03*
D16*
%TO.N,+12V*%
X138250000Y-79250000D03*
%TD*%
D19*
%TO.N,Net-(J13-Pin_1)*%
%TO.C,J13*%
X138972499Y-48955001D03*
D20*
%TO.N,Net-(J13-Pin_2)*%
X138972500Y-46455001D03*
%TD*%
D11*
%TO.N,N/C*%
%TO.C,J10*%
X125250000Y-66500000D03*
%TD*%
D19*
%TO.N,Net-(J13-Pin_1)*%
%TO.C,J14*%
X145972498Y-48955001D03*
D20*
%TO.N,Net-(J13-Pin_2)*%
X145972497Y-46455001D03*
%TD*%
D21*
%TO.N,GND*%
X151500000Y-64400000D03*
X139000000Y-44000000D03*
X156100000Y-73250000D03*
X129000000Y-82000000D03*
X146500000Y-50400000D03*
X162000000Y-52000000D03*
X143500000Y-71000000D03*
X140000000Y-82000000D03*
X162000000Y-48000000D03*
X124000000Y-47000000D03*
X136000000Y-44000000D03*
X125500000Y-50300000D03*
X142000000Y-44000000D03*
X131560000Y-75360000D03*
X124000000Y-76000000D03*
X161800000Y-44200000D03*
X141895683Y-55346796D03*
X132000000Y-44000000D03*
X129500000Y-73250000D03*
X141980921Y-69532367D03*
X152930000Y-53590000D03*
X128000000Y-51250000D03*
X153500000Y-70850000D03*
X162000000Y-64000000D03*
X147000000Y-44000000D03*
X152750000Y-55050000D03*
X155000000Y-44000000D03*
X148500000Y-65750000D03*
X136000000Y-82000000D03*
X162004999Y-73000000D03*
X126250000Y-73750000D03*
X133060000Y-53470000D03*
X155200000Y-49200000D03*
X162000000Y-74000000D03*
X157400000Y-46200000D03*
X149000000Y-44000000D03*
X145000000Y-44000000D03*
X127000000Y-82000000D03*
X124000000Y-56000000D03*
X139500000Y-57500000D03*
X159000000Y-82000000D03*
X155400000Y-50800000D03*
X160450000Y-70200000D03*
X143550000Y-69900000D03*
X148500000Y-61400000D03*
X130250000Y-74250000D03*
X141000000Y-44000000D03*
X154950000Y-74900000D03*
X154000000Y-82000000D03*
X144000000Y-82000000D03*
X149800000Y-61450000D03*
X138200000Y-67400000D03*
X146750000Y-69000000D03*
X162000000Y-76000000D03*
X145100000Y-52250000D03*
X152800000Y-56350000D03*
X154000000Y-44000000D03*
X162000000Y-67000000D03*
X151000000Y-82000000D03*
X153607712Y-66333822D03*
X135741841Y-51408159D03*
X152000000Y-44000000D03*
X134887498Y-47909178D03*
X157200000Y-47800000D03*
X144400000Y-49050000D03*
X129250000Y-50500000D03*
X128000000Y-82000000D03*
X130000000Y-82000000D03*
X138000000Y-44000000D03*
X129000000Y-44000000D03*
X137150000Y-49050000D03*
X124000000Y-58000000D03*
X134726644Y-76786644D03*
X158000000Y-44000000D03*
X124000000Y-49000000D03*
X150650000Y-73800000D03*
X162000000Y-56000000D03*
X132000000Y-82000000D03*
X159400000Y-52700000D03*
X130340000Y-76796000D03*
X159000000Y-79000000D03*
X147000000Y-82000000D03*
X132600000Y-50950000D03*
X136250000Y-54850000D03*
X149500000Y-70650000D03*
X154450000Y-61500000D03*
X155600000Y-70600000D03*
X128250000Y-73750000D03*
X148925449Y-59520000D03*
X144750000Y-65850000D03*
X140200000Y-64950000D03*
X146000000Y-44000000D03*
X139250000Y-54250000D03*
X130850000Y-53000000D03*
X130100000Y-60050000D03*
X162000000Y-61000000D03*
X147910000Y-55770000D03*
X127250000Y-72750000D03*
X159000000Y-47000000D03*
X162000000Y-51000000D03*
X159250000Y-66000000D03*
X156000000Y-44000000D03*
X135000000Y-82000000D03*
X162000000Y-78000000D03*
X162000000Y-62000000D03*
X156850000Y-69850000D03*
X162000000Y-55000000D03*
X126750000Y-73250000D03*
X127250000Y-73750000D03*
X143550000Y-72950000D03*
X140000000Y-44000000D03*
X132050000Y-58550000D03*
X147430000Y-59370000D03*
X155399999Y-45980001D03*
X148000000Y-44000000D03*
X145800000Y-64750000D03*
X152800000Y-76650000D03*
X157000000Y-82000000D03*
X137250000Y-46400000D03*
X137100000Y-58700000D03*
X137350000Y-63400000D03*
X127750000Y-72250000D03*
X145960000Y-55040000D03*
X143000000Y-44000000D03*
X161800000Y-81800000D03*
X151000000Y-53640000D03*
X127000000Y-47000000D03*
X137000000Y-57050000D03*
X129500000Y-78250000D03*
X143500000Y-53500000D03*
X146900000Y-67450000D03*
X124000000Y-59000000D03*
X139550000Y-68250000D03*
X124000000Y-57000000D03*
X138000000Y-82000000D03*
X126250000Y-72750000D03*
X148000000Y-82000000D03*
X141000000Y-82000000D03*
X146000000Y-82000000D03*
X126750000Y-72250000D03*
X157050000Y-75800000D03*
X127000000Y-44000000D03*
X154000000Y-67650000D03*
X162000000Y-70000000D03*
X162000000Y-59000000D03*
X134000000Y-44000000D03*
X149000000Y-82000000D03*
X146250000Y-71550000D03*
X162000000Y-57000000D03*
X131000000Y-82000000D03*
X162000000Y-77000000D03*
X141100000Y-60100000D03*
X144000000Y-44000000D03*
X151800000Y-61200000D03*
X130550000Y-78050000D03*
X137000000Y-44000000D03*
X158700000Y-69550000D03*
X135000000Y-44000000D03*
X124000000Y-60000000D03*
X137000000Y-58050000D03*
X157600000Y-54600000D03*
X128250000Y-72750000D03*
X162000000Y-79000000D03*
X162000000Y-75000000D03*
X133000000Y-82000000D03*
X124000000Y-62250000D03*
X137400000Y-61500000D03*
X159250000Y-59750000D03*
X127250000Y-71750000D03*
X144350000Y-46300000D03*
X149550000Y-74950000D03*
X155750000Y-57250000D03*
X143750000Y-60850000D03*
X145000000Y-82000000D03*
X124200000Y-81800000D03*
X141790000Y-73400000D03*
X140300000Y-63500000D03*
X162000000Y-47000000D03*
X151750000Y-67250000D03*
X137450000Y-68100000D03*
X162000000Y-53000000D03*
X151000000Y-55000000D03*
X159500000Y-51100000D03*
X133000000Y-54650000D03*
X124000000Y-73000000D03*
X156400000Y-45200000D03*
X124000000Y-77000000D03*
X143000000Y-82000000D03*
X155000000Y-82000000D03*
X138000000Y-51400000D03*
X140800000Y-46300000D03*
X126994049Y-78981861D03*
X124000000Y-48000000D03*
X156000000Y-82000000D03*
X153600000Y-73000000D03*
X150410000Y-57350000D03*
X162000000Y-60000000D03*
X125500000Y-76750000D03*
X128000000Y-44000000D03*
X142000000Y-82000000D03*
X124000000Y-75000000D03*
X133949692Y-81989056D03*
X124000000Y-55000000D03*
X140150000Y-57550000D03*
X162000000Y-49000000D03*
X151000000Y-56250000D03*
X158000000Y-82000000D03*
X155950000Y-66800000D03*
X162000000Y-58000000D03*
X155850000Y-65050000D03*
X152000000Y-82000000D03*
X162000000Y-69000000D03*
X147440000Y-57350000D03*
X138200000Y-66550000D03*
X135050000Y-59050000D03*
X126250000Y-71750000D03*
X162000000Y-68000000D03*
X124000000Y-78000000D03*
X124000000Y-74000000D03*
X154250000Y-58700000D03*
X145700000Y-61250000D03*
X159000000Y-44000000D03*
X143100000Y-75000000D03*
X124000000Y-61000000D03*
X151000000Y-52250000D03*
X156400000Y-50400000D03*
X157250000Y-63250000D03*
X162000000Y-63000000D03*
X124200000Y-44200000D03*
X153000000Y-82000000D03*
X124000000Y-79000000D03*
X140650000Y-49050000D03*
X140250000Y-61600000D03*
X151000000Y-44000000D03*
X155800000Y-47800000D03*
X157000000Y-44000000D03*
X162000000Y-54000000D03*
X140800000Y-74250000D03*
X133000000Y-44000000D03*
X127750000Y-73250000D03*
X162000000Y-50000000D03*
X155490000Y-67620000D03*
X124000000Y-72000000D03*
X128250000Y-71750000D03*
X146400000Y-74850000D03*
X133300000Y-60600000D03*
X129700000Y-55000000D03*
X162000000Y-66000000D03*
X147800000Y-71150000D03*
X128750000Y-73250000D03*
X131500000Y-49250000D03*
X139000000Y-82000000D03*
X150000000Y-82000000D03*
X150600000Y-59700000D03*
X150000000Y-44000000D03*
X141000000Y-53750000D03*
X153600000Y-50600000D03*
X153000000Y-44000000D03*
X134550000Y-54650000D03*
X137000000Y-82000000D03*
X131000000Y-44000000D03*
X130000000Y-44000000D03*
X162000000Y-65000000D03*
X154283911Y-65127865D03*
%TO.N,+3V3*%
X149750000Y-60500000D03*
X136250000Y-69156714D03*
X136887000Y-59623001D03*
X130588081Y-74975056D03*
X144259953Y-59959952D03*
%TO.N,NRST*%
X141013288Y-57600000D03*
X154297000Y-65927761D03*
%TO.N,+12V*%
X132250000Y-70250000D03*
X133500000Y-63000000D03*
X132750000Y-62250000D03*
X133000000Y-70500000D03*
X132750000Y-63000000D03*
X133000000Y-71250000D03*
X131500000Y-69500000D03*
X130750000Y-70250000D03*
X132000000Y-62250000D03*
X131500000Y-70250000D03*
X132000000Y-63000000D03*
X133498327Y-62237619D03*
X132250000Y-69500000D03*
X132750000Y-61500000D03*
X133000000Y-69750000D03*
%TO.N,Net-(J10-Pin_1)*%
X124000000Y-69500000D03*
X124700000Y-69500000D03*
X125250000Y-68750000D03*
X126000000Y-68750000D03*
X124000000Y-68750000D03*
%TO.N,+5V*%
X134007034Y-47959178D03*
X147900000Y-54700000D03*
%TO.N,DRV_IN2*%
X127250000Y-77250000D03*
X142800000Y-69500000D03*
%TO.N,ISEN*%
X135200000Y-62150000D03*
%TO.N,DRV_IN1*%
X141406642Y-68956645D03*
X128250000Y-76623000D03*
%TO.N,Net-(J11-Pin_1)*%
X132250000Y-67750000D03*
X132250000Y-67000000D03*
X131500000Y-67000000D03*
X132250000Y-66250000D03*
X131500000Y-66250000D03*
X131500000Y-65500000D03*
X132250000Y-65500000D03*
X131500000Y-67750000D03*
%TO.N,FLASH_MISO*%
X148052983Y-70391051D03*
X140850001Y-68299388D03*
%TD*%
%TA.AperFunction,Conductor*%
%TO.N,GND*%
G36*
X161004418Y-43500816D02*
G01*
X161204561Y-43515130D01*
X161222063Y-43517647D01*
X161413797Y-43559355D01*
X161430755Y-43564334D01*
X161614609Y-43632909D01*
X161630701Y-43640259D01*
X161802904Y-43734288D01*
X161817784Y-43743849D01*
X161974867Y-43861441D01*
X161988237Y-43873027D01*
X162126972Y-44011762D01*
X162138558Y-44025132D01*
X162256146Y-44182210D01*
X162265711Y-44197095D01*
X162359740Y-44369298D01*
X162367090Y-44385390D01*
X162435662Y-44569236D01*
X162440646Y-44586212D01*
X162482351Y-44777931D01*
X162484869Y-44795442D01*
X162499184Y-44995580D01*
X162499500Y-45004427D01*
X162499500Y-80995572D01*
X162499184Y-81004419D01*
X162484869Y-81204557D01*
X162482351Y-81222068D01*
X162440646Y-81413787D01*
X162435662Y-81430763D01*
X162367090Y-81614609D01*
X162359740Y-81630701D01*
X162265711Y-81802904D01*
X162256146Y-81817789D01*
X162138558Y-81974867D01*
X162126972Y-81988237D01*
X161988237Y-82126972D01*
X161974867Y-82138558D01*
X161817789Y-82256146D01*
X161802904Y-82265711D01*
X161630701Y-82359740D01*
X161614609Y-82367090D01*
X161430763Y-82435662D01*
X161413787Y-82440646D01*
X161222068Y-82482351D01*
X161204557Y-82484869D01*
X161023779Y-82497799D01*
X161004417Y-82499184D01*
X160995572Y-82499500D01*
X125004428Y-82499500D01*
X124995582Y-82499184D01*
X124973622Y-82497613D01*
X124795442Y-82484869D01*
X124777931Y-82482351D01*
X124586212Y-82440646D01*
X124569236Y-82435662D01*
X124385390Y-82367090D01*
X124369298Y-82359740D01*
X124197095Y-82265711D01*
X124182210Y-82256146D01*
X124025132Y-82138558D01*
X124011762Y-82126972D01*
X123873027Y-81988237D01*
X123861441Y-81974867D01*
X123820007Y-81919518D01*
X123743849Y-81817784D01*
X123734288Y-81802904D01*
X123640259Y-81630701D01*
X123632909Y-81614609D01*
X123611552Y-81557349D01*
X123564334Y-81430755D01*
X123559355Y-81413797D01*
X123517647Y-81222063D01*
X123515130Y-81204556D01*
X123500816Y-81004418D01*
X123500500Y-80995572D01*
X123500500Y-80393713D01*
X124149500Y-80393713D01*
X124149500Y-80606287D01*
X124182754Y-80816243D01*
X124243896Y-81004419D01*
X124248444Y-81018414D01*
X124344951Y-81207820D01*
X124469890Y-81379786D01*
X124620213Y-81530109D01*
X124792179Y-81655048D01*
X124792181Y-81655049D01*
X124792184Y-81655051D01*
X124981588Y-81751557D01*
X125183757Y-81817246D01*
X125393713Y-81850500D01*
X125393714Y-81850500D01*
X125606286Y-81850500D01*
X125606287Y-81850500D01*
X125816243Y-81817246D01*
X126018412Y-81751557D01*
X126207816Y-81655051D01*
X126263480Y-81614609D01*
X126379786Y-81530109D01*
X126379788Y-81530106D01*
X126379792Y-81530104D01*
X126530104Y-81379792D01*
X126530106Y-81379788D01*
X126530109Y-81379786D01*
X126655048Y-81207820D01*
X126655047Y-81207820D01*
X126655051Y-81207816D01*
X126751557Y-81018412D01*
X126817246Y-80816243D01*
X126850500Y-80606287D01*
X126850500Y-80393713D01*
X126817246Y-80183757D01*
X126751557Y-79981588D01*
X126655051Y-79792184D01*
X126655049Y-79792181D01*
X126655048Y-79792179D01*
X126530109Y-79620213D01*
X126379786Y-79469890D01*
X126207820Y-79344951D01*
X126018414Y-79248444D01*
X126018413Y-79248443D01*
X126018412Y-79248443D01*
X125816243Y-79182754D01*
X125816241Y-79182753D01*
X125816240Y-79182753D01*
X125654957Y-79157208D01*
X125606287Y-79149500D01*
X125393713Y-79149500D01*
X125345042Y-79157208D01*
X125183760Y-79182753D01*
X124981585Y-79248444D01*
X124792179Y-79344951D01*
X124620213Y-79469890D01*
X124469890Y-79620213D01*
X124344951Y-79792179D01*
X124248444Y-79981585D01*
X124182753Y-80183760D01*
X124149500Y-80393713D01*
X123500500Y-80393713D01*
X123500500Y-77250000D01*
X126694750Y-77250000D01*
X126708107Y-77351458D01*
X126713670Y-77393708D01*
X126713671Y-77393712D01*
X126769137Y-77527622D01*
X126769138Y-77527624D01*
X126769139Y-77527625D01*
X126857379Y-77642621D01*
X126972375Y-77730861D01*
X127106291Y-77786330D01*
X127233280Y-77803048D01*
X127249999Y-77805250D01*
X127250000Y-77805250D01*
X127250001Y-77805250D01*
X127264977Y-77803278D01*
X127393709Y-77786330D01*
X127469391Y-77754982D01*
X135595144Y-77754982D01*
X135595144Y-77754989D01*
X135595144Y-77754992D01*
X135595521Y-77786330D01*
X135638165Y-81326568D01*
X135638165Y-81326582D01*
X135641198Y-81362876D01*
X135646635Y-81397723D01*
X135648200Y-81406699D01*
X135648201Y-81406702D01*
X135685798Y-81499024D01*
X135720192Y-81551168D01*
X135724270Y-81557351D01*
X135752638Y-81592987D01*
X135834186Y-81650330D01*
X135898082Y-81678597D01*
X135968100Y-81698254D01*
X136038512Y-81707524D01*
X136060820Y-81710461D01*
X136092084Y-81718837D01*
X136097467Y-81721066D01*
X136133691Y-81736070D01*
X136161722Y-81752253D01*
X136203049Y-81783965D01*
X136213952Y-81794242D01*
X136214343Y-81793841D01*
X136218173Y-81797558D01*
X136218184Y-81797571D01*
X136286171Y-81853030D01*
X136347091Y-81887243D01*
X136388632Y-81905917D01*
X136487391Y-81919518D01*
X136557137Y-81915364D01*
X136602184Y-81908614D01*
X136692618Y-81866662D01*
X136749046Y-81825459D01*
X136766396Y-81808514D01*
X136777530Y-81798866D01*
X136804179Y-81778418D01*
X136804182Y-81778417D01*
X136813075Y-81771592D01*
X136820416Y-81765960D01*
X136820417Y-81765960D01*
X136838281Y-81752251D01*
X136866307Y-81736069D01*
X136907911Y-81718837D01*
X136939168Y-81710462D01*
X136983813Y-81704585D01*
X137016183Y-81704585D01*
X137038503Y-81707524D01*
X137038504Y-81707524D01*
X137060833Y-81710463D01*
X137092092Y-81718839D01*
X137133688Y-81736069D01*
X137161720Y-81752252D01*
X137203050Y-81783965D01*
X137213952Y-81794242D01*
X137214343Y-81793841D01*
X137218173Y-81797558D01*
X137218184Y-81797571D01*
X137286171Y-81853030D01*
X137347091Y-81887243D01*
X137388632Y-81905917D01*
X137487391Y-81919518D01*
X137557137Y-81915364D01*
X137602184Y-81908614D01*
X137692618Y-81866662D01*
X137749046Y-81825459D01*
X137766396Y-81808514D01*
X137777530Y-81798866D01*
X137804179Y-81778418D01*
X137804182Y-81778417D01*
X137813075Y-81771592D01*
X137820416Y-81765960D01*
X137820417Y-81765960D01*
X137838281Y-81752251D01*
X137866307Y-81736069D01*
X137907911Y-81718837D01*
X137939168Y-81710462D01*
X137983813Y-81704585D01*
X138016183Y-81704585D01*
X138038503Y-81707524D01*
X138038504Y-81707524D01*
X138060833Y-81710463D01*
X138092092Y-81718839D01*
X138133688Y-81736069D01*
X138161720Y-81752252D01*
X138203050Y-81783965D01*
X138213952Y-81794242D01*
X138214343Y-81793841D01*
X138218173Y-81797558D01*
X138218184Y-81797571D01*
X138286171Y-81853030D01*
X138347091Y-81887243D01*
X138388632Y-81905917D01*
X138487391Y-81919518D01*
X138557137Y-81915364D01*
X138602184Y-81908614D01*
X138692618Y-81866662D01*
X138749046Y-81825459D01*
X138766396Y-81808514D01*
X138777530Y-81798866D01*
X138804179Y-81778418D01*
X138804182Y-81778417D01*
X138813075Y-81771592D01*
X138820416Y-81765960D01*
X138820417Y-81765960D01*
X138838281Y-81752251D01*
X138866307Y-81736069D01*
X138907911Y-81718837D01*
X138939168Y-81710462D01*
X138983813Y-81704585D01*
X139016183Y-81704585D01*
X139038503Y-81707524D01*
X139038504Y-81707524D01*
X139060833Y-81710463D01*
X139092092Y-81718839D01*
X139133688Y-81736069D01*
X139161720Y-81752252D01*
X139203050Y-81783965D01*
X139213952Y-81794242D01*
X139214343Y-81793841D01*
X139218173Y-81797558D01*
X139218184Y-81797571D01*
X139286171Y-81853030D01*
X139347091Y-81887243D01*
X139388632Y-81905917D01*
X139487391Y-81919518D01*
X139557137Y-81915364D01*
X139602184Y-81908614D01*
X139692618Y-81866662D01*
X139749046Y-81825459D01*
X139766396Y-81808514D01*
X139777530Y-81798866D01*
X139804179Y-81778418D01*
X139804182Y-81778417D01*
X139813075Y-81771592D01*
X139820416Y-81765960D01*
X139820417Y-81765960D01*
X139838281Y-81752251D01*
X139866307Y-81736069D01*
X139907911Y-81718837D01*
X139939168Y-81710462D01*
X139983813Y-81704585D01*
X140016183Y-81704585D01*
X140038503Y-81707524D01*
X140038504Y-81707524D01*
X140060833Y-81710463D01*
X140092092Y-81718839D01*
X140133688Y-81736069D01*
X140161720Y-81752252D01*
X140203050Y-81783965D01*
X140213952Y-81794242D01*
X140214343Y-81793841D01*
X140218173Y-81797558D01*
X140218184Y-81797571D01*
X140286171Y-81853030D01*
X140347091Y-81887243D01*
X140388632Y-81905917D01*
X140487391Y-81919518D01*
X140557137Y-81915364D01*
X140602184Y-81908614D01*
X140692618Y-81866662D01*
X140749046Y-81825459D01*
X140766396Y-81808514D01*
X140777530Y-81798866D01*
X140804179Y-81778418D01*
X140804182Y-81778417D01*
X140813075Y-81771592D01*
X140820416Y-81765960D01*
X140820417Y-81765960D01*
X140838281Y-81752251D01*
X140866307Y-81736069D01*
X140907911Y-81718837D01*
X140939168Y-81710462D01*
X140983813Y-81704585D01*
X141016183Y-81704585D01*
X141038503Y-81707524D01*
X141038504Y-81707524D01*
X141060833Y-81710463D01*
X141092092Y-81718839D01*
X141133688Y-81736069D01*
X141161720Y-81752252D01*
X141203050Y-81783965D01*
X141213952Y-81794242D01*
X141214343Y-81793841D01*
X141218173Y-81797558D01*
X141218184Y-81797571D01*
X141286171Y-81853030D01*
X141347091Y-81887243D01*
X141388632Y-81905917D01*
X141487391Y-81919518D01*
X141557137Y-81915364D01*
X141602184Y-81908614D01*
X141692618Y-81866662D01*
X141749046Y-81825459D01*
X141766396Y-81808514D01*
X141777530Y-81798866D01*
X141804179Y-81778418D01*
X141804182Y-81778417D01*
X141813075Y-81771592D01*
X141820416Y-81765960D01*
X141820417Y-81765960D01*
X141838281Y-81752251D01*
X141866307Y-81736069D01*
X141907911Y-81718837D01*
X141939168Y-81710462D01*
X141983813Y-81704585D01*
X142016183Y-81704585D01*
X142038503Y-81707524D01*
X142038504Y-81707524D01*
X142060833Y-81710463D01*
X142092092Y-81718839D01*
X142133688Y-81736069D01*
X142161720Y-81752252D01*
X142203050Y-81783965D01*
X142213952Y-81794242D01*
X142214343Y-81793841D01*
X142218173Y-81797558D01*
X142218184Y-81797571D01*
X142286171Y-81853030D01*
X142347091Y-81887243D01*
X142388632Y-81905917D01*
X142487391Y-81919518D01*
X142557137Y-81915364D01*
X142602184Y-81908614D01*
X142692618Y-81866662D01*
X142749046Y-81825459D01*
X142766396Y-81808514D01*
X142777530Y-81798866D01*
X142804179Y-81778418D01*
X142804182Y-81778417D01*
X142813075Y-81771592D01*
X142820416Y-81765960D01*
X142820417Y-81765960D01*
X142838281Y-81752251D01*
X142866307Y-81736069D01*
X142907911Y-81718837D01*
X142939168Y-81710462D01*
X142983813Y-81704585D01*
X143016183Y-81704585D01*
X143038503Y-81707524D01*
X143038504Y-81707524D01*
X143060833Y-81710463D01*
X143092092Y-81718839D01*
X143133688Y-81736069D01*
X143161720Y-81752252D01*
X143203050Y-81783965D01*
X143213952Y-81794242D01*
X143214343Y-81793841D01*
X143218173Y-81797558D01*
X143218184Y-81797571D01*
X143286171Y-81853030D01*
X143347091Y-81887243D01*
X143388632Y-81905917D01*
X143487391Y-81919518D01*
X143557137Y-81915364D01*
X143602184Y-81908614D01*
X143692618Y-81866662D01*
X143749046Y-81825459D01*
X143766396Y-81808514D01*
X143777530Y-81798866D01*
X143804179Y-81778418D01*
X143804182Y-81778417D01*
X143813075Y-81771592D01*
X143820416Y-81765960D01*
X143820417Y-81765960D01*
X143838281Y-81752251D01*
X143866307Y-81736069D01*
X143907911Y-81718837D01*
X143939168Y-81710462D01*
X143983813Y-81704585D01*
X144016183Y-81704585D01*
X144038503Y-81707524D01*
X144038504Y-81707524D01*
X144060833Y-81710463D01*
X144092092Y-81718839D01*
X144133688Y-81736069D01*
X144161720Y-81752252D01*
X144203050Y-81783965D01*
X144213952Y-81794242D01*
X144214343Y-81793841D01*
X144218173Y-81797558D01*
X144218184Y-81797571D01*
X144286171Y-81853030D01*
X144347091Y-81887243D01*
X144388632Y-81905917D01*
X144487391Y-81919518D01*
X144557137Y-81915364D01*
X144602184Y-81908614D01*
X144692618Y-81866662D01*
X144749046Y-81825459D01*
X144766396Y-81808514D01*
X144777530Y-81798866D01*
X144804179Y-81778418D01*
X144804182Y-81778417D01*
X144813075Y-81771592D01*
X144820416Y-81765960D01*
X144820417Y-81765960D01*
X144838281Y-81752251D01*
X144866307Y-81736069D01*
X144907911Y-81718837D01*
X144939168Y-81710462D01*
X144983813Y-81704585D01*
X145016183Y-81704585D01*
X145038503Y-81707524D01*
X145038504Y-81707524D01*
X145060833Y-81710463D01*
X145092092Y-81718839D01*
X145133688Y-81736069D01*
X145161720Y-81752252D01*
X145203050Y-81783965D01*
X145213952Y-81794242D01*
X145214343Y-81793841D01*
X145218173Y-81797558D01*
X145218184Y-81797571D01*
X145286171Y-81853030D01*
X145347091Y-81887243D01*
X145388632Y-81905917D01*
X145487391Y-81919518D01*
X145557137Y-81915364D01*
X145602184Y-81908614D01*
X145692618Y-81866662D01*
X145749046Y-81825459D01*
X145766396Y-81808514D01*
X145777530Y-81798866D01*
X145804179Y-81778418D01*
X145804182Y-81778417D01*
X145813075Y-81771592D01*
X145820416Y-81765960D01*
X145820417Y-81765960D01*
X145838281Y-81752251D01*
X145866307Y-81736069D01*
X145907911Y-81718837D01*
X145939168Y-81710462D01*
X145983813Y-81704585D01*
X146016183Y-81704585D01*
X146038503Y-81707524D01*
X146038504Y-81707524D01*
X146060833Y-81710463D01*
X146092092Y-81718839D01*
X146133688Y-81736069D01*
X146161720Y-81752252D01*
X146203050Y-81783965D01*
X146213952Y-81794242D01*
X146214343Y-81793841D01*
X146218173Y-81797558D01*
X146218184Y-81797571D01*
X146286171Y-81853030D01*
X146347091Y-81887243D01*
X146388632Y-81905917D01*
X146487391Y-81919518D01*
X146557137Y-81915364D01*
X146602184Y-81908614D01*
X146692618Y-81866662D01*
X146749046Y-81825459D01*
X146766396Y-81808514D01*
X146777530Y-81798866D01*
X146804179Y-81778418D01*
X146804182Y-81778417D01*
X146813075Y-81771592D01*
X146820416Y-81765960D01*
X146820417Y-81765960D01*
X146838281Y-81752251D01*
X146866307Y-81736069D01*
X146907911Y-81718837D01*
X146939167Y-81710462D01*
X147013316Y-81700700D01*
X147028382Y-81699645D01*
X147053043Y-81699426D01*
X147120740Y-81689281D01*
X147163561Y-81679028D01*
X147250191Y-81629697D01*
X147302995Y-81583942D01*
X147334620Y-81551168D01*
X147380828Y-81462833D01*
X147400513Y-81395794D01*
X147410863Y-81323809D01*
X147410863Y-80393713D01*
X159149500Y-80393713D01*
X159149500Y-80606287D01*
X159182754Y-80816243D01*
X159243896Y-81004419D01*
X159248444Y-81018414D01*
X159344951Y-81207820D01*
X159469890Y-81379786D01*
X159620213Y-81530109D01*
X159792179Y-81655048D01*
X159792181Y-81655049D01*
X159792184Y-81655051D01*
X159981588Y-81751557D01*
X160183757Y-81817246D01*
X160393713Y-81850500D01*
X160393714Y-81850500D01*
X160606286Y-81850500D01*
X160606287Y-81850500D01*
X160816243Y-81817246D01*
X161018412Y-81751557D01*
X161207816Y-81655051D01*
X161263480Y-81614609D01*
X161379786Y-81530109D01*
X161379788Y-81530106D01*
X161379792Y-81530104D01*
X161530104Y-81379792D01*
X161530106Y-81379788D01*
X161530109Y-81379786D01*
X161655048Y-81207820D01*
X161655047Y-81207820D01*
X161655051Y-81207816D01*
X161751557Y-81018412D01*
X161817246Y-80816243D01*
X161850500Y-80606287D01*
X161850500Y-80393713D01*
X161817246Y-80183757D01*
X161751557Y-79981588D01*
X161655051Y-79792184D01*
X161655049Y-79792181D01*
X161655048Y-79792179D01*
X161530109Y-79620213D01*
X161379786Y-79469890D01*
X161207820Y-79344951D01*
X161018414Y-79248444D01*
X161018413Y-79248443D01*
X161018412Y-79248443D01*
X160816243Y-79182754D01*
X160816241Y-79182753D01*
X160816240Y-79182753D01*
X160654957Y-79157208D01*
X160606287Y-79149500D01*
X160393713Y-79149500D01*
X160345042Y-79157208D01*
X160183760Y-79182753D01*
X159981585Y-79248444D01*
X159792179Y-79344951D01*
X159620213Y-79469890D01*
X159469890Y-79620213D01*
X159344951Y-79792179D01*
X159248444Y-79981585D01*
X159182753Y-80183760D01*
X159149500Y-80393713D01*
X147410863Y-80393713D01*
X147410863Y-77610007D01*
X147406280Y-77561833D01*
X147397464Y-77515914D01*
X147392637Y-77495387D01*
X147347614Y-77406442D01*
X147337630Y-77393708D01*
X147304504Y-77351457D01*
X147251944Y-77301196D01*
X147180268Y-77249999D01*
X145584705Y-76110311D01*
X145584684Y-76110296D01*
X145582272Y-76108593D01*
X145580058Y-76107050D01*
X145580054Y-76107047D01*
X145580050Y-76107045D01*
X145512335Y-76073464D01*
X145512332Y-76073463D01*
X145512327Y-76073461D01*
X145445834Y-76052021D01*
X145374146Y-76039782D01*
X145374147Y-76039782D01*
X137509339Y-75832814D01*
X137509320Y-75832815D01*
X137478107Y-75833906D01*
X137478082Y-75833907D01*
X137447977Y-75836810D01*
X137444039Y-75837220D01*
X137349034Y-75867428D01*
X137349027Y-75867431D01*
X137287853Y-75901185D01*
X137229838Y-75945014D01*
X137229831Y-75945021D01*
X136078753Y-77106287D01*
X135705086Y-77483261D01*
X135705080Y-77483268D01*
X135686284Y-77504462D01*
X135686279Y-77504468D01*
X135669185Y-77526044D01*
X135669184Y-77526043D01*
X135668646Y-77526724D01*
X135668641Y-77526733D01*
X135623503Y-77615613D01*
X135623502Y-77615616D01*
X135604626Y-77682887D01*
X135604624Y-77682893D01*
X135595144Y-77754982D01*
X127469391Y-77754982D01*
X127527625Y-77730861D01*
X127642621Y-77642621D01*
X127730861Y-77527625D01*
X127786330Y-77393709D01*
X127805250Y-77250000D01*
X127803295Y-77235150D01*
X127814060Y-77166116D01*
X127860440Y-77113860D01*
X127927708Y-77094974D01*
X127973685Y-77104403D01*
X128106291Y-77159330D01*
X128233280Y-77176048D01*
X128249999Y-77178250D01*
X128250000Y-77178250D01*
X128250001Y-77178250D01*
X128264977Y-77176278D01*
X128393709Y-77159330D01*
X128527625Y-77103861D01*
X128642621Y-77015621D01*
X128730861Y-76900625D01*
X128786330Y-76766709D01*
X128805250Y-76623000D01*
X128786330Y-76479291D01*
X128730861Y-76345375D01*
X128642621Y-76230379D01*
X128527625Y-76142139D01*
X128527624Y-76142138D01*
X128527622Y-76142137D01*
X128393712Y-76086671D01*
X128393710Y-76086670D01*
X128393709Y-76086670D01*
X128321854Y-76077210D01*
X128250001Y-76067750D01*
X128249999Y-76067750D01*
X128106291Y-76086670D01*
X128106287Y-76086671D01*
X127972377Y-76142137D01*
X127857379Y-76230379D01*
X127769137Y-76345377D01*
X127713671Y-76479287D01*
X127713670Y-76479291D01*
X127694750Y-76622999D01*
X127696705Y-76637852D01*
X127685937Y-76706887D01*
X127639556Y-76759142D01*
X127572286Y-76778025D01*
X127526313Y-76768595D01*
X127393712Y-76713671D01*
X127393710Y-76713670D01*
X127393709Y-76713670D01*
X127321854Y-76704210D01*
X127250001Y-76694750D01*
X127249999Y-76694750D01*
X127106291Y-76713670D01*
X127106287Y-76713671D01*
X126972377Y-76769137D01*
X126857379Y-76857379D01*
X126769137Y-76972377D01*
X126713671Y-77106287D01*
X126713670Y-77106291D01*
X126712674Y-77113860D01*
X126694750Y-77250000D01*
X123500500Y-77250000D01*
X123500500Y-74975055D01*
X130032831Y-74975055D01*
X130032831Y-74975056D01*
X130051751Y-75118764D01*
X130051752Y-75118768D01*
X130107218Y-75252678D01*
X130107219Y-75252680D01*
X130107220Y-75252681D01*
X130195460Y-75367677D01*
X130310456Y-75455917D01*
X130444372Y-75511386D01*
X130571361Y-75528104D01*
X130588080Y-75530306D01*
X130588081Y-75530306D01*
X130588082Y-75530306D01*
X130603058Y-75528334D01*
X130731790Y-75511386D01*
X130865706Y-75455917D01*
X130980702Y-75367677D01*
X131068942Y-75252681D01*
X131124411Y-75118765D01*
X131143331Y-74975056D01*
X131124411Y-74831347D01*
X131068942Y-74697431D01*
X130980702Y-74582435D01*
X130865706Y-74494195D01*
X130865705Y-74494194D01*
X130865703Y-74494193D01*
X130731793Y-74438727D01*
X130731791Y-74438726D01*
X130731790Y-74438726D01*
X130659935Y-74429266D01*
X130588082Y-74419806D01*
X130588080Y-74419806D01*
X130444372Y-74438726D01*
X130444368Y-74438727D01*
X130310458Y-74494193D01*
X130195460Y-74582435D01*
X130107218Y-74697433D01*
X130051752Y-74831343D01*
X130051751Y-74831347D01*
X130032831Y-74975055D01*
X123500500Y-74975055D01*
X123500500Y-72490518D01*
X133122869Y-72490518D01*
X133146813Y-72561054D01*
X133146817Y-72561064D01*
X133971487Y-73989435D01*
X133971489Y-73989438D01*
X134020609Y-74045448D01*
X134109987Y-74089525D01*
X134209429Y-74096042D01*
X134279973Y-74072096D01*
X135708351Y-73247422D01*
X135764361Y-73198302D01*
X135808438Y-73108924D01*
X135814955Y-73009482D01*
X135791009Y-72938938D01*
X134966335Y-71510560D01*
X134917215Y-71454550D01*
X134827837Y-71410473D01*
X134728395Y-71403956D01*
X134728394Y-71403956D01*
X134728392Y-71403956D01*
X134657856Y-71427900D01*
X134657846Y-71427904D01*
X133229475Y-72252574D01*
X133173463Y-72301695D01*
X133173463Y-72301696D01*
X133129386Y-72391073D01*
X133122869Y-72490518D01*
X123500500Y-72490518D01*
X123500500Y-70250000D01*
X130194750Y-70250000D01*
X130213118Y-70389520D01*
X130213670Y-70393708D01*
X130213671Y-70393712D01*
X130269137Y-70527622D01*
X130269138Y-70527624D01*
X130269139Y-70527625D01*
X130357379Y-70642621D01*
X130472375Y-70730861D01*
X130472376Y-70730861D01*
X130472377Y-70730862D01*
X130517013Y-70749350D01*
X130606291Y-70786330D01*
X130733280Y-70803048D01*
X130749999Y-70805250D01*
X130750000Y-70805250D01*
X130750001Y-70805250D01*
X130764977Y-70803278D01*
X130893709Y-70786330D01*
X131027625Y-70730861D01*
X131049514Y-70714065D01*
X131114683Y-70688871D01*
X131183128Y-70702909D01*
X131200487Y-70714065D01*
X131222375Y-70730861D01*
X131356291Y-70786330D01*
X131483280Y-70803048D01*
X131499999Y-70805250D01*
X131500000Y-70805250D01*
X131500001Y-70805250D01*
X131514977Y-70803278D01*
X131643709Y-70786330D01*
X131777625Y-70730861D01*
X131799514Y-70714065D01*
X131864683Y-70688871D01*
X131933128Y-70702909D01*
X131950487Y-70714065D01*
X131972375Y-70730861D01*
X132106291Y-70786330D01*
X132233280Y-70803048D01*
X132249999Y-70805250D01*
X132250000Y-70805250D01*
X132250001Y-70805250D01*
X132293568Y-70799514D01*
X132393709Y-70786330D01*
X132393710Y-70786329D01*
X132396409Y-70785974D01*
X132465444Y-70796739D01*
X132517700Y-70843119D01*
X132536586Y-70910388D01*
X132521705Y-70964640D01*
X132522249Y-70964866D01*
X132520457Y-70969190D01*
X132519988Y-70970903D01*
X132519139Y-70972372D01*
X132463671Y-71106287D01*
X132463670Y-71106291D01*
X132444750Y-71250000D01*
X132463162Y-71389854D01*
X132463670Y-71393708D01*
X132463671Y-71393712D01*
X132519137Y-71527622D01*
X132519138Y-71527624D01*
X132519139Y-71527625D01*
X132607379Y-71642621D01*
X132722375Y-71730861D01*
X132722376Y-71730861D01*
X132722377Y-71730862D01*
X132767013Y-71749350D01*
X132856291Y-71786330D01*
X132983280Y-71803048D01*
X132999999Y-71805250D01*
X133000000Y-71805250D01*
X133000001Y-71805250D01*
X133014977Y-71803278D01*
X133143709Y-71786330D01*
X133277625Y-71730861D01*
X133392621Y-71642621D01*
X133480861Y-71527625D01*
X133536330Y-71393709D01*
X133555250Y-71250000D01*
X133536330Y-71106291D01*
X133484018Y-70979996D01*
X156224750Y-70979996D01*
X156224750Y-70980001D01*
X156243684Y-71148055D01*
X156299544Y-71307693D01*
X156299546Y-71307696D01*
X156351170Y-71389854D01*
X156370171Y-71457090D01*
X156349804Y-71523925D01*
X156315070Y-71558926D01*
X156299400Y-71569396D01*
X156244032Y-71652260D01*
X156244031Y-71652264D01*
X156229499Y-71725321D01*
X156229499Y-72774678D01*
X156244031Y-72847735D01*
X156244032Y-72847739D01*
X156244033Y-72847740D01*
X156299398Y-72930601D01*
X156382259Y-72985966D01*
X156382263Y-72985967D01*
X156455320Y-73000499D01*
X156455323Y-73000500D01*
X156455325Y-73000500D01*
X157504675Y-73000500D01*
X157504676Y-73000499D01*
X157577739Y-72985966D01*
X157660600Y-72930601D01*
X157715965Y-72847740D01*
X157730499Y-72774674D01*
X157730499Y-71764297D01*
X157750184Y-71697258D01*
X157802988Y-71651503D01*
X157872146Y-71641559D01*
X157915935Y-71657638D01*
X157916033Y-71657436D01*
X157918121Y-71658441D01*
X157920475Y-71659306D01*
X157921884Y-71660191D01*
X157922309Y-71660458D01*
X158027478Y-71697258D01*
X158081942Y-71716316D01*
X158249996Y-71735251D01*
X158249999Y-71735251D01*
X158250002Y-71735251D01*
X158418055Y-71716316D01*
X158418064Y-71716313D01*
X158577689Y-71660458D01*
X158577691Y-71660456D01*
X158577693Y-71660456D01*
X158577696Y-71660454D01*
X158720883Y-71570483D01*
X158720883Y-71570482D01*
X158720889Y-71570479D01*
X158797321Y-71494046D01*
X158858640Y-71460564D01*
X158928332Y-71465548D01*
X158972680Y-71494049D01*
X159049107Y-71570476D01*
X159049113Y-71570481D01*
X159192300Y-71660452D01*
X159192303Y-71660454D01*
X159192307Y-71660455D01*
X159192308Y-71660456D01*
X159192314Y-71660458D01*
X159351941Y-71716314D01*
X159519995Y-71735249D01*
X159519998Y-71735249D01*
X159520001Y-71735249D01*
X159688054Y-71716314D01*
X159742513Y-71697258D01*
X159847688Y-71660456D01*
X159847690Y-71660454D01*
X159847692Y-71660454D01*
X159847695Y-71660452D01*
X159990882Y-71570481D01*
X159990883Y-71570480D01*
X159990888Y-71570477D01*
X160110475Y-71450890D01*
X160124918Y-71427904D01*
X160200450Y-71307697D01*
X160200452Y-71307694D01*
X160200452Y-71307692D01*
X160200454Y-71307690D01*
X160256311Y-71148059D01*
X160256311Y-71148058D01*
X160256312Y-71148056D01*
X160275247Y-70980002D01*
X160275247Y-70979997D01*
X160256312Y-70811943D01*
X160213247Y-70688871D01*
X160200454Y-70652310D01*
X160200453Y-70652309D01*
X160200452Y-70652305D01*
X160200450Y-70652302D01*
X160110479Y-70509115D01*
X160110474Y-70509109D01*
X159990888Y-70389523D01*
X159990882Y-70389518D01*
X159847695Y-70299547D01*
X159847692Y-70299545D01*
X159688054Y-70243685D01*
X159520001Y-70224751D01*
X159519995Y-70224751D01*
X159351941Y-70243685D01*
X159192303Y-70299545D01*
X159192300Y-70299547D01*
X159049113Y-70389518D01*
X158972678Y-70465953D01*
X158911354Y-70499437D01*
X158841663Y-70494452D01*
X158797316Y-70465952D01*
X158720889Y-70389525D01*
X158720883Y-70389520D01*
X158577696Y-70299549D01*
X158577693Y-70299547D01*
X158418055Y-70243687D01*
X158250002Y-70224753D01*
X158249996Y-70224753D01*
X158081942Y-70243687D01*
X157922304Y-70299547D01*
X157922301Y-70299549D01*
X157779114Y-70389520D01*
X157702681Y-70465953D01*
X157641357Y-70499437D01*
X157571666Y-70494452D01*
X157527319Y-70465952D01*
X157450889Y-70389522D01*
X157450883Y-70389517D01*
X157307696Y-70299546D01*
X157307693Y-70299544D01*
X157148055Y-70243684D01*
X156980002Y-70224750D01*
X156979996Y-70224750D01*
X156811942Y-70243684D01*
X156652304Y-70299544D01*
X156652301Y-70299546D01*
X156509114Y-70389517D01*
X156509108Y-70389522D01*
X156389522Y-70509108D01*
X156389517Y-70509114D01*
X156299546Y-70652301D01*
X156299544Y-70652304D01*
X156243684Y-70811942D01*
X156224750Y-70979996D01*
X133484018Y-70979996D01*
X133480861Y-70972375D01*
X133464065Y-70950486D01*
X133438871Y-70885317D01*
X133452909Y-70816872D01*
X133464065Y-70799514D01*
X133474182Y-70786329D01*
X133480861Y-70777625D01*
X133536330Y-70643709D01*
X133555250Y-70500000D01*
X133540906Y-70391050D01*
X147497733Y-70391050D01*
X147497733Y-70391051D01*
X147516653Y-70534759D01*
X147516654Y-70534763D01*
X147572120Y-70668673D01*
X147572121Y-70668675D01*
X147572122Y-70668676D01*
X147660362Y-70783672D01*
X147775358Y-70871912D01*
X147909274Y-70927381D01*
X148036263Y-70944099D01*
X148052982Y-70946301D01*
X148052983Y-70946301D01*
X148052984Y-70946301D01*
X148067960Y-70944329D01*
X148196692Y-70927381D01*
X148330608Y-70871912D01*
X148445604Y-70783672D01*
X148533844Y-70668676D01*
X148589313Y-70534760D01*
X148608233Y-70391051D01*
X148608031Y-70389520D01*
X148596186Y-70299549D01*
X148589313Y-70247342D01*
X148552333Y-70158064D01*
X148533845Y-70113428D01*
X148533844Y-70113427D01*
X148533844Y-70113426D01*
X148445604Y-69998430D01*
X148330608Y-69910190D01*
X148330607Y-69910189D01*
X148330605Y-69910188D01*
X148196695Y-69854722D01*
X148196693Y-69854721D01*
X148196692Y-69854721D01*
X148124837Y-69845261D01*
X148052984Y-69835801D01*
X148052982Y-69835801D01*
X147909274Y-69854721D01*
X147909270Y-69854722D01*
X147775360Y-69910188D01*
X147660362Y-69998430D01*
X147572120Y-70113428D01*
X147516654Y-70247338D01*
X147516653Y-70247342D01*
X147497733Y-70391050D01*
X133540906Y-70391050D01*
X133536330Y-70356291D01*
X133480861Y-70222375D01*
X133464065Y-70200486D01*
X133438871Y-70135317D01*
X133452909Y-70066872D01*
X133464065Y-70049514D01*
X133474182Y-70036329D01*
X133480861Y-70027625D01*
X133536330Y-69893709D01*
X133555250Y-69750000D01*
X133536330Y-69606291D01*
X133492304Y-69500002D01*
X133480862Y-69472377D01*
X133480861Y-69472376D01*
X133480861Y-69472375D01*
X133392621Y-69357379D01*
X133277625Y-69269139D01*
X133277624Y-69269138D01*
X133277622Y-69269137D01*
X133143712Y-69213671D01*
X133143710Y-69213670D01*
X133143709Y-69213670D01*
X133061973Y-69202909D01*
X133000001Y-69194750D01*
X132999999Y-69194750D01*
X132856287Y-69213670D01*
X132843944Y-69218783D01*
X132774474Y-69226249D01*
X132711996Y-69194971D01*
X132698121Y-69179707D01*
X132680477Y-69156714D01*
X135694750Y-69156714D01*
X135711814Y-69286329D01*
X135713670Y-69300422D01*
X135713671Y-69300426D01*
X135769137Y-69434336D01*
X135769138Y-69434338D01*
X135769139Y-69434339D01*
X135857379Y-69549335D01*
X135972375Y-69637575D01*
X135972376Y-69637575D01*
X135972377Y-69637576D01*
X135987184Y-69643709D01*
X136106291Y-69693044D01*
X136233280Y-69709762D01*
X136249999Y-69711964D01*
X136250000Y-69711964D01*
X136250001Y-69711964D01*
X136264977Y-69709992D01*
X136393709Y-69693044D01*
X136527625Y-69637575D01*
X136642621Y-69549335D01*
X136730861Y-69434339D01*
X136786330Y-69300423D01*
X136805250Y-69156714D01*
X136786330Y-69013005D01*
X136730861Y-68879089D01*
X136642621Y-68764093D01*
X136527625Y-68675853D01*
X136527624Y-68675852D01*
X136527622Y-68675851D01*
X136393712Y-68620385D01*
X136393710Y-68620384D01*
X136393709Y-68620384D01*
X136321854Y-68610924D01*
X136250001Y-68601464D01*
X136249999Y-68601464D01*
X136106291Y-68620384D01*
X136106287Y-68620385D01*
X135972377Y-68675851D01*
X135857379Y-68764093D01*
X135769137Y-68879091D01*
X135713671Y-69013001D01*
X135713670Y-69013005D01*
X135696606Y-69142620D01*
X135694750Y-69156714D01*
X132680477Y-69156714D01*
X132669663Y-69142621D01*
X132642621Y-69107379D01*
X132527625Y-69019139D01*
X132527624Y-69019138D01*
X132527622Y-69019137D01*
X132393712Y-68963671D01*
X132393710Y-68963670D01*
X132393709Y-68963670D01*
X132280299Y-68948739D01*
X132250001Y-68944750D01*
X132249999Y-68944750D01*
X132106291Y-68963670D01*
X132106287Y-68963671D01*
X131972375Y-69019138D01*
X131950485Y-69035935D01*
X131885315Y-69061128D01*
X131816871Y-69047089D01*
X131799515Y-69035935D01*
X131777624Y-69019138D01*
X131777625Y-69019138D01*
X131643712Y-68963671D01*
X131643710Y-68963670D01*
X131643709Y-68963670D01*
X131530299Y-68948739D01*
X131500001Y-68944750D01*
X131499999Y-68944750D01*
X131356291Y-68963670D01*
X131356287Y-68963671D01*
X131222377Y-69019137D01*
X131107379Y-69107379D01*
X131019137Y-69222377D01*
X130963671Y-69356287D01*
X130963670Y-69356291D01*
X130944750Y-69499999D01*
X130944750Y-69500002D01*
X130953183Y-69564059D01*
X130942417Y-69633094D01*
X130896037Y-69685350D01*
X130828768Y-69704235D01*
X130814059Y-69703183D01*
X130750002Y-69694750D01*
X130749999Y-69694750D01*
X130606291Y-69713670D01*
X130606287Y-69713671D01*
X130472377Y-69769137D01*
X130357379Y-69857379D01*
X130269137Y-69972377D01*
X130213671Y-70106287D01*
X130213670Y-70106291D01*
X130195582Y-70243684D01*
X130194750Y-70250000D01*
X123500500Y-70250000D01*
X123500500Y-70062057D01*
X123520185Y-69995018D01*
X123572989Y-69949263D01*
X123642147Y-69939319D01*
X123699987Y-69963682D01*
X123722373Y-69980860D01*
X123722374Y-69980860D01*
X123722375Y-69980861D01*
X123856291Y-70036330D01*
X123983280Y-70053048D01*
X123999999Y-70055250D01*
X124000000Y-70055250D01*
X124000001Y-70055250D01*
X124014977Y-70053278D01*
X124143709Y-70036330D01*
X124277625Y-69980861D01*
X124277631Y-69980856D01*
X124284664Y-69976797D01*
X124285857Y-69978863D01*
X124339678Y-69958054D01*
X124408124Y-69972090D01*
X124416436Y-69977432D01*
X124422371Y-69980858D01*
X124422375Y-69980861D01*
X124556291Y-70036330D01*
X124683280Y-70053048D01*
X124699999Y-70055250D01*
X124700000Y-70055250D01*
X124700001Y-70055250D01*
X124714977Y-70053278D01*
X124843709Y-70036330D01*
X124977625Y-69980861D01*
X125092621Y-69892621D01*
X125180861Y-69777625D01*
X125236330Y-69643709D01*
X125255250Y-69500000D01*
X125246143Y-69430827D01*
X125256908Y-69361793D01*
X125303288Y-69309537D01*
X125352894Y-69291703D01*
X125393709Y-69286330D01*
X125527625Y-69230861D01*
X125549514Y-69214065D01*
X125614683Y-69188871D01*
X125683128Y-69202909D01*
X125700487Y-69214065D01*
X125722375Y-69230861D01*
X125856291Y-69286330D01*
X125983280Y-69303048D01*
X125999999Y-69305250D01*
X126000000Y-69305250D01*
X126000001Y-69305250D01*
X126014977Y-69303278D01*
X126143709Y-69286330D01*
X126277625Y-69230861D01*
X126392621Y-69142621D01*
X126480861Y-69027625D01*
X126536330Y-68893709D01*
X126555250Y-68750000D01*
X126536330Y-68606291D01*
X126480861Y-68472375D01*
X126392621Y-68357379D01*
X126392619Y-68357377D01*
X126392618Y-68357376D01*
X126377014Y-68345403D01*
X126335811Y-68288975D01*
X126331657Y-68219229D01*
X126365870Y-68158309D01*
X126427588Y-68125556D01*
X126439241Y-68123739D01*
X126482483Y-68119091D01*
X126617331Y-68068796D01*
X126732546Y-67982546D01*
X126818796Y-67867331D01*
X126869091Y-67732483D01*
X126875500Y-67672873D01*
X126875499Y-65327135D01*
X127874500Y-65327135D01*
X127874500Y-67672870D01*
X127874501Y-67672876D01*
X127880908Y-67732483D01*
X127931202Y-67867328D01*
X127931206Y-67867335D01*
X128017452Y-67982544D01*
X128017455Y-67982547D01*
X128132664Y-68068793D01*
X128132671Y-68068797D01*
X128267517Y-68119091D01*
X128267516Y-68119091D01*
X128274444Y-68119835D01*
X128327127Y-68125500D01*
X130672872Y-68125499D01*
X130732483Y-68119091D01*
X130867331Y-68068796D01*
X130885723Y-68055027D01*
X130951185Y-68030608D01*
X131019459Y-68045458D01*
X131058409Y-68078802D01*
X131107379Y-68142621D01*
X131222375Y-68230861D01*
X131356291Y-68286330D01*
X131483280Y-68303048D01*
X131499999Y-68305250D01*
X131500000Y-68305250D01*
X131500001Y-68305250D01*
X131514977Y-68303278D01*
X131643709Y-68286330D01*
X131777625Y-68230861D01*
X131799514Y-68214065D01*
X131864683Y-68188871D01*
X131933128Y-68202909D01*
X131950487Y-68214065D01*
X131972375Y-68230861D01*
X132106291Y-68286330D01*
X132233280Y-68303048D01*
X132249999Y-68305250D01*
X132250000Y-68305250D01*
X132250001Y-68305250D01*
X132264977Y-68303278D01*
X132294532Y-68299387D01*
X140294751Y-68299387D01*
X140294751Y-68299388D01*
X140313671Y-68443096D01*
X140313672Y-68443100D01*
X140369138Y-68577010D01*
X140369139Y-68577012D01*
X140369140Y-68577013D01*
X140457380Y-68692009D01*
X140572376Y-68780249D01*
X140706292Y-68835718D01*
X140743578Y-68840626D01*
X140807473Y-68868891D01*
X140845945Y-68927216D01*
X140849170Y-68948739D01*
X140850331Y-68948587D01*
X140870312Y-69100353D01*
X140870313Y-69100357D01*
X140925779Y-69234267D01*
X140925780Y-69234269D01*
X140925781Y-69234270D01*
X141014021Y-69349266D01*
X141129017Y-69437506D01*
X141262933Y-69492975D01*
X141389922Y-69509693D01*
X141406641Y-69511895D01*
X141406642Y-69511895D01*
X141406643Y-69511895D01*
X141421619Y-69509923D01*
X141496991Y-69500000D01*
X142244750Y-69500000D01*
X142262862Y-69637575D01*
X142263670Y-69643708D01*
X142263671Y-69643712D01*
X142319137Y-69777622D01*
X142319138Y-69777624D01*
X142319139Y-69777625D01*
X142407379Y-69892621D01*
X142522375Y-69980861D01*
X142522376Y-69980861D01*
X142522377Y-69980862D01*
X142564791Y-69998430D01*
X142656291Y-70036330D01*
X142783280Y-70053048D01*
X142799999Y-70055250D01*
X142800000Y-70055250D01*
X142800001Y-70055250D01*
X142814977Y-70053278D01*
X142943709Y-70036330D01*
X143077625Y-69980861D01*
X143192621Y-69892621D01*
X143280861Y-69777625D01*
X143336330Y-69643709D01*
X143355250Y-69500000D01*
X143336330Y-69356291D01*
X143285787Y-69234267D01*
X143280862Y-69222377D01*
X143280861Y-69222376D01*
X143280861Y-69222375D01*
X143192621Y-69107379D01*
X143077625Y-69019139D01*
X143077624Y-69019138D01*
X143077622Y-69019137D01*
X142943712Y-68963671D01*
X142943710Y-68963670D01*
X142943709Y-68963670D01*
X142830299Y-68948739D01*
X142800001Y-68944750D01*
X142799999Y-68944750D01*
X142656291Y-68963670D01*
X142656287Y-68963671D01*
X142522377Y-69019137D01*
X142407379Y-69107379D01*
X142319137Y-69222377D01*
X142263671Y-69356287D01*
X142263670Y-69356291D01*
X142252978Y-69437507D01*
X142244750Y-69500000D01*
X141496991Y-69500000D01*
X141550351Y-69492975D01*
X141684267Y-69437506D01*
X141799263Y-69349266D01*
X141887503Y-69234270D01*
X141942972Y-69100354D01*
X141961892Y-68956645D01*
X141942972Y-68812936D01*
X141887503Y-68679020D01*
X141799263Y-68564024D01*
X141684267Y-68475784D01*
X141684266Y-68475783D01*
X141684264Y-68475782D01*
X141550354Y-68420316D01*
X141550352Y-68420315D01*
X141550351Y-68420315D01*
X141513063Y-68415405D01*
X141449168Y-68387139D01*
X141410698Y-68328814D01*
X141407473Y-68307294D01*
X141406312Y-68307447D01*
X141403532Y-68286329D01*
X141386331Y-68155679D01*
X141330862Y-68021763D01*
X141242622Y-67906767D01*
X141127626Y-67818527D01*
X141127625Y-67818526D01*
X141127623Y-67818525D01*
X140993713Y-67763059D01*
X140993711Y-67763058D01*
X140993710Y-67763058D01*
X140921855Y-67753598D01*
X140850002Y-67744138D01*
X140850000Y-67744138D01*
X140706292Y-67763058D01*
X140706288Y-67763059D01*
X140572378Y-67818525D01*
X140457380Y-67906767D01*
X140369138Y-68021765D01*
X140313672Y-68155675D01*
X140313671Y-68155679D01*
X140294751Y-68299387D01*
X132294532Y-68299387D01*
X132393709Y-68286330D01*
X132527625Y-68230861D01*
X132642621Y-68142621D01*
X132730861Y-68027625D01*
X132786330Y-67893709D01*
X132805250Y-67750000D01*
X132786330Y-67606291D01*
X132730861Y-67472375D01*
X132714065Y-67450486D01*
X132688871Y-67385317D01*
X132702909Y-67316872D01*
X132714065Y-67299514D01*
X132716135Y-67296815D01*
X132730861Y-67277625D01*
X132786330Y-67143709D01*
X132805250Y-67000000D01*
X132786330Y-66856291D01*
X132730861Y-66722375D01*
X132714065Y-66700486D01*
X132688871Y-66635317D01*
X132702909Y-66566872D01*
X132714065Y-66549514D01*
X132716135Y-66546815D01*
X132730861Y-66527625D01*
X132786330Y-66393709D01*
X132805250Y-66250000D01*
X132786330Y-66106291D01*
X132730861Y-65972375D01*
X132714065Y-65950486D01*
X132705279Y-65927760D01*
X153741750Y-65927760D01*
X153741750Y-65927761D01*
X153760670Y-66071469D01*
X153760671Y-66071473D01*
X153816137Y-66205383D01*
X153816138Y-66205385D01*
X153816139Y-66205386D01*
X153904379Y-66320382D01*
X154019375Y-66408622D01*
X154153291Y-66464091D01*
X154280280Y-66480809D01*
X154296999Y-66483011D01*
X154297000Y-66483011D01*
X154297001Y-66483011D01*
X154311977Y-66481039D01*
X154440709Y-66464091D01*
X154574625Y-66408622D01*
X154689621Y-66320382D01*
X154777861Y-66205386D01*
X154833330Y-66071470D01*
X154852250Y-65927761D01*
X154833330Y-65784052D01*
X154777861Y-65650136D01*
X154689621Y-65535140D01*
X154574625Y-65446900D01*
X154574624Y-65446899D01*
X154574622Y-65446898D01*
X154440712Y-65391432D01*
X154440710Y-65391431D01*
X154440709Y-65391431D01*
X154368854Y-65381971D01*
X154297001Y-65372511D01*
X154296999Y-65372511D01*
X154153291Y-65391431D01*
X154153287Y-65391432D01*
X154019377Y-65446898D01*
X153904379Y-65535140D01*
X153816137Y-65650138D01*
X153760671Y-65784048D01*
X153760670Y-65784052D01*
X153741750Y-65927760D01*
X132705279Y-65927760D01*
X132688871Y-65885317D01*
X132702909Y-65816872D01*
X132714065Y-65799514D01*
X132725932Y-65784048D01*
X132730861Y-65777625D01*
X132786330Y-65643709D01*
X132805250Y-65500000D01*
X132786330Y-65356291D01*
X132730861Y-65222375D01*
X132642621Y-65107379D01*
X132527625Y-65019139D01*
X132527624Y-65019138D01*
X132527622Y-65019137D01*
X132393712Y-64963671D01*
X132393710Y-64963670D01*
X132393709Y-64963670D01*
X132321854Y-64954210D01*
X132250001Y-64944750D01*
X132249999Y-64944750D01*
X132106291Y-64963670D01*
X132106287Y-64963671D01*
X131972375Y-65019138D01*
X131950485Y-65035935D01*
X131885315Y-65061128D01*
X131816871Y-65047089D01*
X131799515Y-65035935D01*
X131777624Y-65019138D01*
X131777625Y-65019138D01*
X131643712Y-64963671D01*
X131643710Y-64963670D01*
X131643709Y-64963670D01*
X131571854Y-64954210D01*
X131500001Y-64944750D01*
X131499999Y-64944750D01*
X131356291Y-64963670D01*
X131356287Y-64963671D01*
X131222376Y-65019138D01*
X131222374Y-65019139D01*
X131170400Y-65059020D01*
X131105230Y-65084214D01*
X131036785Y-65070175D01*
X130995648Y-65034956D01*
X130982546Y-65017454D01*
X130982544Y-65017453D01*
X130982544Y-65017452D01*
X130867335Y-64931206D01*
X130867328Y-64931202D01*
X130732482Y-64880908D01*
X130732483Y-64880908D01*
X130672883Y-64874501D01*
X130672881Y-64874500D01*
X130672873Y-64874500D01*
X130672864Y-64874500D01*
X128327129Y-64874500D01*
X128327123Y-64874501D01*
X128267516Y-64880908D01*
X128132671Y-64931202D01*
X128132664Y-64931206D01*
X128017455Y-65017452D01*
X128017452Y-65017455D01*
X127931206Y-65132664D01*
X127931202Y-65132671D01*
X127880908Y-65267517D01*
X127874501Y-65327116D01*
X127874501Y-65327123D01*
X127874500Y-65327135D01*
X126875499Y-65327135D01*
X126875499Y-65327128D01*
X126869091Y-65267517D01*
X126825068Y-65149486D01*
X126818797Y-65132671D01*
X126818793Y-65132664D01*
X126732547Y-65017455D01*
X126732544Y-65017452D01*
X126617335Y-64931206D01*
X126617328Y-64931202D01*
X126482482Y-64880908D01*
X126482483Y-64880908D01*
X126422883Y-64874501D01*
X126422881Y-64874500D01*
X126422873Y-64874500D01*
X126422864Y-64874500D01*
X124077129Y-64874500D01*
X124077123Y-64874501D01*
X124017516Y-64880908D01*
X123882671Y-64931202D01*
X123882664Y-64931206D01*
X123767455Y-65017452D01*
X123723766Y-65075813D01*
X123667832Y-65117683D01*
X123598140Y-65122667D01*
X123536817Y-65089181D01*
X123503333Y-65027857D01*
X123500500Y-65001501D01*
X123500500Y-62249999D01*
X131444750Y-62249999D01*
X131444750Y-62250000D01*
X131463670Y-62393708D01*
X131463671Y-62393712D01*
X131519138Y-62527624D01*
X131535935Y-62549515D01*
X131561128Y-62614685D01*
X131547089Y-62683129D01*
X131535935Y-62700485D01*
X131519138Y-62722375D01*
X131463671Y-62856287D01*
X131463670Y-62856291D01*
X131444750Y-62999999D01*
X131444750Y-63000000D01*
X131463670Y-63143708D01*
X131463671Y-63143712D01*
X131519137Y-63277622D01*
X131519138Y-63277624D01*
X131519139Y-63277625D01*
X131607379Y-63392621D01*
X131722375Y-63480861D01*
X131856291Y-63536330D01*
X131983280Y-63553048D01*
X131999999Y-63555250D01*
X132000000Y-63555250D01*
X132000001Y-63555250D01*
X132014977Y-63553278D01*
X132143709Y-63536330D01*
X132277625Y-63480861D01*
X132299514Y-63464065D01*
X132364683Y-63438871D01*
X132433128Y-63452909D01*
X132450487Y-63464065D01*
X132472375Y-63480861D01*
X132606291Y-63536330D01*
X132733280Y-63553048D01*
X132749999Y-63555250D01*
X132750000Y-63555250D01*
X132750001Y-63555250D01*
X132764977Y-63553278D01*
X132893709Y-63536330D01*
X133027625Y-63480861D01*
X133049514Y-63464065D01*
X133114683Y-63438871D01*
X133183128Y-63452909D01*
X133200487Y-63464065D01*
X133222375Y-63480861D01*
X133356291Y-63536330D01*
X133483280Y-63553048D01*
X133499999Y-63555250D01*
X133500000Y-63555250D01*
X133500001Y-63555250D01*
X133514977Y-63553278D01*
X133643709Y-63536330D01*
X133777625Y-63480861D01*
X133892621Y-63392621D01*
X133980861Y-63277625D01*
X134036330Y-63143709D01*
X134055250Y-63000000D01*
X134036330Y-62856291D01*
X133980861Y-62722375D01*
X133958477Y-62693204D01*
X133933284Y-62628036D01*
X133947322Y-62559592D01*
X133958474Y-62542237D01*
X133979188Y-62515244D01*
X134034657Y-62381328D01*
X134053577Y-62237619D01*
X134042042Y-62150000D01*
X134644750Y-62150000D01*
X134657915Y-62250000D01*
X134663670Y-62293708D01*
X134663671Y-62293712D01*
X134719137Y-62427622D01*
X134719138Y-62427624D01*
X134719139Y-62427625D01*
X134807379Y-62542621D01*
X134922375Y-62630861D01*
X135056291Y-62686330D01*
X135183280Y-62703048D01*
X135199999Y-62705250D01*
X135200000Y-62705250D01*
X135200001Y-62705250D01*
X135214977Y-62703278D01*
X135343709Y-62686330D01*
X135477625Y-62630861D01*
X135592621Y-62542621D01*
X135680861Y-62427625D01*
X135736330Y-62293709D01*
X135755250Y-62150000D01*
X135736330Y-62006291D01*
X135680861Y-61872375D01*
X135592621Y-61757379D01*
X135477625Y-61669139D01*
X135477624Y-61669138D01*
X135477622Y-61669137D01*
X135343712Y-61613671D01*
X135343710Y-61613670D01*
X135343709Y-61613670D01*
X135271854Y-61604210D01*
X135200001Y-61594750D01*
X135199999Y-61594750D01*
X135056291Y-61613670D01*
X135056287Y-61613671D01*
X134922377Y-61669137D01*
X134807379Y-61757379D01*
X134719137Y-61872377D01*
X134663671Y-62006287D01*
X134663670Y-62006291D01*
X134650505Y-62106291D01*
X134644750Y-62150000D01*
X134042042Y-62150000D01*
X134034657Y-62093910D01*
X133979188Y-61959994D01*
X133890948Y-61844998D01*
X133775952Y-61756758D01*
X133775951Y-61756757D01*
X133775949Y-61756756D01*
X133642039Y-61701290D01*
X133642037Y-61701289D01*
X133642036Y-61701289D01*
X133520970Y-61685350D01*
X133498328Y-61682369D01*
X133498325Y-61682369D01*
X133437628Y-61690360D01*
X133368593Y-61679594D01*
X133316337Y-61633215D01*
X133297452Y-61565946D01*
X133298503Y-61551247D01*
X133305250Y-61500000D01*
X133286330Y-61356291D01*
X133230861Y-61222375D01*
X133142621Y-61107379D01*
X133027625Y-61019139D01*
X133027624Y-61019138D01*
X133027622Y-61019137D01*
X132893712Y-60963671D01*
X132893710Y-60963670D01*
X132893709Y-60963670D01*
X132821854Y-60954210D01*
X132750001Y-60944750D01*
X132749999Y-60944750D01*
X132606291Y-60963670D01*
X132606287Y-60963671D01*
X132472377Y-61019137D01*
X132357379Y-61107379D01*
X132269137Y-61222377D01*
X132213671Y-61356287D01*
X132213670Y-61356291D01*
X132194750Y-61499999D01*
X132194750Y-61500002D01*
X132203183Y-61564059D01*
X132192417Y-61633094D01*
X132146037Y-61685350D01*
X132078768Y-61704235D01*
X132064059Y-61703183D01*
X132000002Y-61694750D01*
X131999999Y-61694750D01*
X131856291Y-61713670D01*
X131856287Y-61713671D01*
X131722377Y-61769137D01*
X131607379Y-61857379D01*
X131519137Y-61972377D01*
X131463671Y-62106287D01*
X131463670Y-62106291D01*
X131444750Y-62249999D01*
X123500500Y-62249999D01*
X123500500Y-59623000D01*
X136331750Y-59623000D01*
X136331750Y-59623001D01*
X136350670Y-59766709D01*
X136350671Y-59766713D01*
X136406137Y-59900623D01*
X136406138Y-59900625D01*
X136406139Y-59900626D01*
X136494379Y-60015622D01*
X136609375Y-60103862D01*
X136743291Y-60159331D01*
X136870280Y-60176049D01*
X136886999Y-60178251D01*
X136887000Y-60178251D01*
X136887001Y-60178251D01*
X136901977Y-60176279D01*
X137030709Y-60159331D01*
X137164625Y-60103862D01*
X137279621Y-60015622D01*
X137322339Y-59959951D01*
X143704703Y-59959951D01*
X143704703Y-59959952D01*
X143723623Y-60103660D01*
X143723624Y-60103664D01*
X143779090Y-60237574D01*
X143779091Y-60237576D01*
X143779092Y-60237577D01*
X143867332Y-60352573D01*
X143982328Y-60440813D01*
X144116244Y-60496282D01*
X144243233Y-60513000D01*
X144259952Y-60515202D01*
X144259953Y-60515202D01*
X144259954Y-60515202D01*
X144274930Y-60513230D01*
X144375429Y-60499999D01*
X149194750Y-60499999D01*
X149194750Y-60500000D01*
X149213670Y-60643708D01*
X149213671Y-60643712D01*
X149269137Y-60777622D01*
X149269138Y-60777624D01*
X149269139Y-60777625D01*
X149357379Y-60892621D01*
X149472375Y-60980861D01*
X149606291Y-61036330D01*
X149733280Y-61053048D01*
X149749999Y-61055250D01*
X149750000Y-61055250D01*
X149750001Y-61055250D01*
X149764977Y-61053278D01*
X149893709Y-61036330D01*
X150027625Y-60980861D01*
X150142621Y-60892621D01*
X150230861Y-60777625D01*
X150286330Y-60643709D01*
X150305250Y-60500000D01*
X150286330Y-60356291D01*
X150230861Y-60222375D01*
X150142621Y-60107379D01*
X150027625Y-60019139D01*
X150027624Y-60019138D01*
X150027622Y-60019137D01*
X149893712Y-59963671D01*
X149893710Y-59963670D01*
X149893709Y-59963670D01*
X149821854Y-59954210D01*
X149750001Y-59944750D01*
X149749999Y-59944750D01*
X149606291Y-59963670D01*
X149606287Y-59963671D01*
X149472377Y-60019137D01*
X149357379Y-60107379D01*
X149269137Y-60222377D01*
X149213671Y-60356287D01*
X149213670Y-60356291D01*
X149194750Y-60499999D01*
X144375429Y-60499999D01*
X144403662Y-60496282D01*
X144537578Y-60440813D01*
X144652574Y-60352573D01*
X144740814Y-60237577D01*
X144796283Y-60103661D01*
X144815203Y-59959952D01*
X144796283Y-59816243D01*
X144740814Y-59682327D01*
X144652574Y-59567331D01*
X144537578Y-59479091D01*
X144537577Y-59479090D01*
X144537575Y-59479089D01*
X144403665Y-59423623D01*
X144403663Y-59423622D01*
X144403662Y-59423622D01*
X144331807Y-59414162D01*
X144259954Y-59404702D01*
X144259952Y-59404702D01*
X144116244Y-59423622D01*
X144116240Y-59423623D01*
X143982330Y-59479089D01*
X143867332Y-59567331D01*
X143779090Y-59682329D01*
X143723624Y-59816239D01*
X143723623Y-59816243D01*
X143704703Y-59959951D01*
X137322339Y-59959951D01*
X137367861Y-59900626D01*
X137423330Y-59766710D01*
X137442250Y-59623001D01*
X137423330Y-59479292D01*
X137367861Y-59345376D01*
X137279621Y-59230380D01*
X137164625Y-59142140D01*
X137164624Y-59142139D01*
X137164622Y-59142138D01*
X137030712Y-59086672D01*
X137030710Y-59086671D01*
X137030709Y-59086671D01*
X136958854Y-59077211D01*
X136887001Y-59067751D01*
X136886999Y-59067751D01*
X136743291Y-59086671D01*
X136743287Y-59086672D01*
X136609377Y-59142138D01*
X136494379Y-59230380D01*
X136406137Y-59345378D01*
X136350671Y-59479288D01*
X136350670Y-59479292D01*
X136331750Y-59623000D01*
X123500500Y-59623000D01*
X123500500Y-57599999D01*
X140458038Y-57599999D01*
X140458038Y-57600000D01*
X140476958Y-57743708D01*
X140476959Y-57743712D01*
X140532425Y-57877622D01*
X140532426Y-57877624D01*
X140532427Y-57877625D01*
X140620667Y-57992621D01*
X140735663Y-58080861D01*
X140869579Y-58136330D01*
X140996568Y-58153048D01*
X141013287Y-58155250D01*
X141013288Y-58155250D01*
X141013289Y-58155250D01*
X141028265Y-58153278D01*
X141156997Y-58136330D01*
X141290913Y-58080861D01*
X141405909Y-57992621D01*
X141494149Y-57877625D01*
X141549618Y-57743709D01*
X141568538Y-57600000D01*
X141549618Y-57456291D01*
X141494149Y-57322375D01*
X141405909Y-57207379D01*
X141290913Y-57119139D01*
X141290912Y-57119138D01*
X141290910Y-57119137D01*
X141157000Y-57063671D01*
X141156998Y-57063670D01*
X141156997Y-57063670D01*
X141085142Y-57054210D01*
X141013289Y-57044750D01*
X141013287Y-57044750D01*
X140869579Y-57063670D01*
X140869575Y-57063671D01*
X140735665Y-57119137D01*
X140620667Y-57207379D01*
X140532425Y-57322377D01*
X140476959Y-57456287D01*
X140476958Y-57456291D01*
X140458038Y-57599999D01*
X123500500Y-57599999D01*
X123500500Y-54699999D01*
X147344750Y-54699999D01*
X147344750Y-54700000D01*
X147363670Y-54843708D01*
X147363671Y-54843712D01*
X147419137Y-54977622D01*
X147419138Y-54977624D01*
X147419139Y-54977625D01*
X147507379Y-55092621D01*
X147622375Y-55180861D01*
X147756291Y-55236330D01*
X147883280Y-55253048D01*
X147899999Y-55255250D01*
X147900000Y-55255250D01*
X147900001Y-55255250D01*
X147914977Y-55253278D01*
X148043709Y-55236330D01*
X148177625Y-55180861D01*
X148292621Y-55092621D01*
X148380861Y-54977625D01*
X148436330Y-54843709D01*
X148455250Y-54700000D01*
X148436330Y-54556291D01*
X148380861Y-54422375D01*
X148292621Y-54307379D01*
X148177625Y-54219139D01*
X148177624Y-54219138D01*
X148177622Y-54219137D01*
X148043712Y-54163671D01*
X148043710Y-54163670D01*
X148043709Y-54163670D01*
X147971854Y-54154210D01*
X147900001Y-54144750D01*
X147899999Y-54144750D01*
X147756291Y-54163670D01*
X147756287Y-54163671D01*
X147622377Y-54219137D01*
X147507379Y-54307379D01*
X147419137Y-54422377D01*
X147363671Y-54556287D01*
X147363670Y-54556291D01*
X147344750Y-54699999D01*
X123500500Y-54699999D01*
X123500500Y-47959178D01*
X133451784Y-47959178D01*
X133456823Y-47997456D01*
X133470704Y-48102886D01*
X133470705Y-48102890D01*
X133526171Y-48236800D01*
X133526172Y-48236802D01*
X133526173Y-48236803D01*
X133614413Y-48351799D01*
X133729409Y-48440039D01*
X133863325Y-48495508D01*
X133990314Y-48512226D01*
X134007033Y-48514428D01*
X134007034Y-48514428D01*
X134007035Y-48514428D01*
X134022011Y-48512456D01*
X134150743Y-48495508D01*
X134284659Y-48440039D01*
X134399655Y-48351799D01*
X134433926Y-48307136D01*
X137721999Y-48307136D01*
X137721999Y-49602871D01*
X137722000Y-49602877D01*
X137728407Y-49662484D01*
X137778701Y-49797329D01*
X137778705Y-49797336D01*
X137864951Y-49912545D01*
X137864954Y-49912548D01*
X137980163Y-49998794D01*
X137980170Y-49998798D01*
X138115016Y-50049092D01*
X138115015Y-50049092D01*
X138121943Y-50049836D01*
X138174626Y-50055501D01*
X139770371Y-50055500D01*
X139829982Y-50049092D01*
X139964830Y-49998797D01*
X140080045Y-49912547D01*
X140166295Y-49797332D01*
X140216590Y-49662484D01*
X140222999Y-49602874D01*
X140222998Y-48307136D01*
X144721998Y-48307136D01*
X144721998Y-49602871D01*
X144721999Y-49602877D01*
X144728406Y-49662484D01*
X144778700Y-49797329D01*
X144778704Y-49797336D01*
X144864950Y-49912545D01*
X144864953Y-49912548D01*
X144980162Y-49998794D01*
X144980169Y-49998798D01*
X145115015Y-50049092D01*
X145115014Y-50049092D01*
X145121942Y-50049836D01*
X145174625Y-50055501D01*
X146770370Y-50055500D01*
X146829981Y-50049092D01*
X146964829Y-49998797D01*
X147080044Y-49912547D01*
X147166294Y-49797332D01*
X147216589Y-49662484D01*
X147222998Y-49602874D01*
X147222997Y-48307129D01*
X147216589Y-48247518D01*
X147212591Y-48236800D01*
X147166295Y-48112672D01*
X147166291Y-48112665D01*
X147080045Y-47997456D01*
X147080042Y-47997453D01*
X146964833Y-47911207D01*
X146964826Y-47911203D01*
X146829980Y-47860909D01*
X146829981Y-47860909D01*
X146770381Y-47854502D01*
X146770379Y-47854501D01*
X146770371Y-47854501D01*
X146770362Y-47854501D01*
X145174627Y-47854501D01*
X145174621Y-47854502D01*
X145115014Y-47860909D01*
X144980169Y-47911203D01*
X144980162Y-47911207D01*
X144864953Y-47997453D01*
X144864950Y-47997456D01*
X144778704Y-48112665D01*
X144778700Y-48112672D01*
X144728406Y-48247518D01*
X144721999Y-48307117D01*
X144721999Y-48307124D01*
X144721998Y-48307136D01*
X140222998Y-48307136D01*
X140222998Y-48307129D01*
X140216590Y-48247518D01*
X140212592Y-48236800D01*
X140166296Y-48112672D01*
X140166292Y-48112665D01*
X140080046Y-47997456D01*
X140080043Y-47997453D01*
X139964834Y-47911207D01*
X139964827Y-47911203D01*
X139829981Y-47860909D01*
X139829982Y-47860909D01*
X139770382Y-47854502D01*
X139770380Y-47854501D01*
X139770372Y-47854501D01*
X139770363Y-47854501D01*
X138174628Y-47854501D01*
X138174622Y-47854502D01*
X138115015Y-47860909D01*
X137980170Y-47911203D01*
X137980163Y-47911207D01*
X137864954Y-47997453D01*
X137864951Y-47997456D01*
X137778705Y-48112665D01*
X137778701Y-48112672D01*
X137728407Y-48247518D01*
X137722000Y-48307117D01*
X137722000Y-48307124D01*
X137721999Y-48307136D01*
X134433926Y-48307136D01*
X134487895Y-48236803D01*
X134543364Y-48102887D01*
X134562284Y-47959178D01*
X134543364Y-47815469D01*
X134487895Y-47681553D01*
X134399655Y-47566557D01*
X134284659Y-47478317D01*
X134284658Y-47478316D01*
X134284656Y-47478315D01*
X134150746Y-47422849D01*
X134150744Y-47422848D01*
X134150743Y-47422848D01*
X134078888Y-47413388D01*
X134007035Y-47403928D01*
X134007033Y-47403928D01*
X133863325Y-47422848D01*
X133863321Y-47422849D01*
X133729411Y-47478315D01*
X133614413Y-47566557D01*
X133526171Y-47681555D01*
X133470705Y-47815465D01*
X133470704Y-47815469D01*
X133451784Y-47959178D01*
X123500500Y-47959178D01*
X123500500Y-45393713D01*
X124149500Y-45393713D01*
X124149500Y-45606286D01*
X124170372Y-45738070D01*
X124182754Y-45816243D01*
X124202889Y-45878213D01*
X124248444Y-46018414D01*
X124344951Y-46207820D01*
X124469890Y-46379786D01*
X124620213Y-46530109D01*
X124792179Y-46655048D01*
X124792181Y-46655049D01*
X124792184Y-46655051D01*
X124981588Y-46751557D01*
X125183757Y-46817246D01*
X125393713Y-46850500D01*
X125393714Y-46850500D01*
X125606286Y-46850500D01*
X125606287Y-46850500D01*
X125816243Y-46817246D01*
X126018412Y-46751557D01*
X126207816Y-46655051D01*
X126229789Y-46639086D01*
X126379786Y-46530109D01*
X126379788Y-46530106D01*
X126379792Y-46530104D01*
X126530104Y-46379792D01*
X126530106Y-46379788D01*
X126530109Y-46379786D01*
X126538389Y-46368390D01*
X137722000Y-46368390D01*
X137722000Y-46541611D01*
X137739966Y-46655048D01*
X137749098Y-46712702D01*
X137802627Y-46877446D01*
X137881268Y-47031789D01*
X137983086Y-47171929D01*
X138105572Y-47294415D01*
X138245712Y-47396233D01*
X138400055Y-47474874D01*
X138564799Y-47528403D01*
X138735889Y-47555501D01*
X138735890Y-47555501D01*
X139209110Y-47555501D01*
X139209111Y-47555501D01*
X139380201Y-47528403D01*
X139544945Y-47474874D01*
X139699288Y-47396233D01*
X139839428Y-47294415D01*
X139961914Y-47171929D01*
X140063732Y-47031789D01*
X140142373Y-46877446D01*
X140195902Y-46712702D01*
X140223000Y-46541612D01*
X140223000Y-46368390D01*
X144721997Y-46368390D01*
X144721997Y-46541611D01*
X144739963Y-46655048D01*
X144749095Y-46712702D01*
X144802624Y-46877446D01*
X144881265Y-47031789D01*
X144983083Y-47171929D01*
X145105569Y-47294415D01*
X145245709Y-47396233D01*
X145400052Y-47474874D01*
X145564796Y-47528403D01*
X145735886Y-47555501D01*
X145735887Y-47555501D01*
X146209107Y-47555501D01*
X146209108Y-47555501D01*
X146380198Y-47528403D01*
X146544942Y-47474874D01*
X146699285Y-47396233D01*
X146839425Y-47294415D01*
X146961911Y-47171929D01*
X147063729Y-47031789D01*
X147142370Y-46877446D01*
X147195899Y-46712702D01*
X147222997Y-46541612D01*
X147222997Y-46368390D01*
X147195899Y-46197300D01*
X147142370Y-46032556D01*
X147063729Y-45878213D01*
X146961911Y-45738073D01*
X146839425Y-45615587D01*
X146699285Y-45513769D01*
X146544942Y-45435128D01*
X146417481Y-45393713D01*
X159149500Y-45393713D01*
X159149500Y-45606286D01*
X159170372Y-45738070D01*
X159182754Y-45816243D01*
X159202889Y-45878213D01*
X159248444Y-46018414D01*
X159344951Y-46207820D01*
X159469890Y-46379786D01*
X159620213Y-46530109D01*
X159792179Y-46655048D01*
X159792181Y-46655049D01*
X159792184Y-46655051D01*
X159981588Y-46751557D01*
X160183757Y-46817246D01*
X160393713Y-46850500D01*
X160393714Y-46850500D01*
X160606286Y-46850500D01*
X160606287Y-46850500D01*
X160816243Y-46817246D01*
X161018412Y-46751557D01*
X161207816Y-46655051D01*
X161229789Y-46639086D01*
X161379786Y-46530109D01*
X161379788Y-46530106D01*
X161379792Y-46530104D01*
X161530104Y-46379792D01*
X161530106Y-46379788D01*
X161530109Y-46379786D01*
X161655048Y-46207820D01*
X161655047Y-46207820D01*
X161655051Y-46207816D01*
X161751557Y-46018412D01*
X161817246Y-45816243D01*
X161850500Y-45606287D01*
X161850500Y-45393713D01*
X161817246Y-45183757D01*
X161751557Y-44981588D01*
X161655051Y-44792184D01*
X161655049Y-44792181D01*
X161655048Y-44792179D01*
X161530109Y-44620213D01*
X161379786Y-44469890D01*
X161207820Y-44344951D01*
X161018414Y-44248444D01*
X161018413Y-44248443D01*
X161018412Y-44248443D01*
X160816243Y-44182754D01*
X160816241Y-44182753D01*
X160816240Y-44182753D01*
X160654957Y-44157208D01*
X160606287Y-44149500D01*
X160393713Y-44149500D01*
X160345042Y-44157208D01*
X160183760Y-44182753D01*
X159981585Y-44248444D01*
X159792179Y-44344951D01*
X159620213Y-44469890D01*
X159469890Y-44620213D01*
X159344951Y-44792179D01*
X159248444Y-44981585D01*
X159182753Y-45183760D01*
X159149500Y-45393713D01*
X146417481Y-45393713D01*
X146380198Y-45381599D01*
X146380196Y-45381598D01*
X146380195Y-45381598D01*
X146248768Y-45360782D01*
X146209108Y-45354501D01*
X145735886Y-45354501D01*
X145696225Y-45360782D01*
X145564799Y-45381598D01*
X145400049Y-45435129D01*
X145245708Y-45513769D01*
X145165753Y-45571860D01*
X145105569Y-45615587D01*
X145105567Y-45615589D01*
X145105566Y-45615589D01*
X144983085Y-45738070D01*
X144983085Y-45738071D01*
X144983083Y-45738073D01*
X144939356Y-45798257D01*
X144881265Y-45878212D01*
X144802625Y-46032553D01*
X144749094Y-46197303D01*
X144721997Y-46368390D01*
X140223000Y-46368390D01*
X140195902Y-46197300D01*
X140142373Y-46032556D01*
X140063732Y-45878213D01*
X139961914Y-45738073D01*
X139839428Y-45615587D01*
X139699288Y-45513769D01*
X139544945Y-45435128D01*
X139380201Y-45381599D01*
X139380199Y-45381598D01*
X139380198Y-45381598D01*
X139248771Y-45360782D01*
X139209111Y-45354501D01*
X138735889Y-45354501D01*
X138696228Y-45360782D01*
X138564802Y-45381598D01*
X138400052Y-45435129D01*
X138245711Y-45513769D01*
X138165756Y-45571860D01*
X138105572Y-45615587D01*
X138105570Y-45615589D01*
X138105569Y-45615589D01*
X137983088Y-45738070D01*
X137983088Y-45738071D01*
X137983086Y-45738073D01*
X137939359Y-45798257D01*
X137881268Y-45878212D01*
X137802628Y-46032553D01*
X137749097Y-46197303D01*
X137722000Y-46368390D01*
X126538389Y-46368390D01*
X126655048Y-46207820D01*
X126655047Y-46207820D01*
X126655051Y-46207816D01*
X126751557Y-46018412D01*
X126817246Y-45816243D01*
X126850500Y-45606287D01*
X126850500Y-45393713D01*
X126817246Y-45183757D01*
X126751557Y-44981588D01*
X126655051Y-44792184D01*
X126655049Y-44792181D01*
X126655048Y-44792179D01*
X126530109Y-44620213D01*
X126379786Y-44469890D01*
X126207820Y-44344951D01*
X126018414Y-44248444D01*
X126018413Y-44248443D01*
X126018412Y-44248443D01*
X125816243Y-44182754D01*
X125816241Y-44182753D01*
X125816240Y-44182753D01*
X125654957Y-44157208D01*
X125606287Y-44149500D01*
X125393713Y-44149500D01*
X125345042Y-44157208D01*
X125183760Y-44182753D01*
X124981585Y-44248444D01*
X124792179Y-44344951D01*
X124620213Y-44469890D01*
X124469890Y-44620213D01*
X124344951Y-44792179D01*
X124248444Y-44981585D01*
X124182753Y-45183760D01*
X124149500Y-45393713D01*
X123500500Y-45393713D01*
X123500500Y-45004427D01*
X123500816Y-44995581D01*
X123515130Y-44795443D01*
X123515131Y-44795442D01*
X123515130Y-44795436D01*
X123517646Y-44777938D01*
X123559356Y-44586199D01*
X123564333Y-44569248D01*
X123632911Y-44385385D01*
X123640259Y-44369298D01*
X123653553Y-44344951D01*
X123734291Y-44197089D01*
X123743845Y-44182221D01*
X123861448Y-44025123D01*
X123873020Y-44011769D01*
X124011769Y-43873020D01*
X124025123Y-43861448D01*
X124182221Y-43743845D01*
X124197089Y-43734291D01*
X124369298Y-43640258D01*
X124385385Y-43632911D01*
X124569248Y-43564333D01*
X124586199Y-43559356D01*
X124777938Y-43517646D01*
X124795436Y-43515130D01*
X124995582Y-43500816D01*
X125004428Y-43500500D01*
X125065892Y-43500500D01*
X160934108Y-43500500D01*
X160995572Y-43500500D01*
X161004418Y-43500816D01*
G37*
%TD.AperFunction*%
%TD*%
%TA.AperFunction,Conductor*%
%TO.N,+12V*%
G36*
X145367431Y-76295195D02*
G01*
X145433927Y-76316636D01*
X145436199Y-76318220D01*
X147103437Y-77509104D01*
X147146547Y-77564088D01*
X147155363Y-77610007D01*
X147155363Y-81323809D01*
X147135678Y-81390848D01*
X147082874Y-81436603D01*
X147015177Y-81446748D01*
X147000001Y-81444750D01*
X146999999Y-81444750D01*
X146856291Y-81463670D01*
X146856287Y-81463671D01*
X146722377Y-81519137D01*
X146664877Y-81563259D01*
X146607379Y-81607379D01*
X146607378Y-81607380D01*
X146607377Y-81607381D01*
X146598375Y-81619113D01*
X146541947Y-81660316D01*
X146472201Y-81664470D01*
X146411281Y-81630257D01*
X146401625Y-81619113D01*
X146399782Y-81616711D01*
X146392621Y-81607379D01*
X146277625Y-81519139D01*
X146277624Y-81519138D01*
X146277622Y-81519137D01*
X146143712Y-81463671D01*
X146143710Y-81463670D01*
X146143709Y-81463670D01*
X146071854Y-81454210D01*
X146000001Y-81444750D01*
X145999999Y-81444750D01*
X145856291Y-81463670D01*
X145856287Y-81463671D01*
X145722377Y-81519137D01*
X145664877Y-81563259D01*
X145607379Y-81607379D01*
X145607378Y-81607380D01*
X145607377Y-81607381D01*
X145598375Y-81619113D01*
X145541947Y-81660316D01*
X145472201Y-81664470D01*
X145411281Y-81630257D01*
X145401625Y-81619113D01*
X145399782Y-81616711D01*
X145392621Y-81607379D01*
X145277625Y-81519139D01*
X145277624Y-81519138D01*
X145277622Y-81519137D01*
X145143712Y-81463671D01*
X145143710Y-81463670D01*
X145143709Y-81463670D01*
X145071854Y-81454210D01*
X145000001Y-81444750D01*
X144999999Y-81444750D01*
X144856291Y-81463670D01*
X144856287Y-81463671D01*
X144722377Y-81519137D01*
X144664877Y-81563259D01*
X144607379Y-81607379D01*
X144607378Y-81607380D01*
X144607377Y-81607381D01*
X144598375Y-81619113D01*
X144541947Y-81660316D01*
X144472201Y-81664470D01*
X144411281Y-81630257D01*
X144401625Y-81619113D01*
X144399782Y-81616711D01*
X144392621Y-81607379D01*
X144277625Y-81519139D01*
X144277624Y-81519138D01*
X144277622Y-81519137D01*
X144143712Y-81463671D01*
X144143710Y-81463670D01*
X144143709Y-81463670D01*
X144071854Y-81454210D01*
X144000001Y-81444750D01*
X143999999Y-81444750D01*
X143856291Y-81463670D01*
X143856287Y-81463671D01*
X143722377Y-81519137D01*
X143664877Y-81563259D01*
X143607379Y-81607379D01*
X143607378Y-81607380D01*
X143607377Y-81607381D01*
X143598375Y-81619113D01*
X143541947Y-81660316D01*
X143472201Y-81664470D01*
X143411281Y-81630257D01*
X143401625Y-81619113D01*
X143399782Y-81616711D01*
X143392621Y-81607379D01*
X143277625Y-81519139D01*
X143277624Y-81519138D01*
X143277622Y-81519137D01*
X143143712Y-81463671D01*
X143143710Y-81463670D01*
X143143709Y-81463670D01*
X143071854Y-81454210D01*
X143000001Y-81444750D01*
X142999999Y-81444750D01*
X142856291Y-81463670D01*
X142856287Y-81463671D01*
X142722377Y-81519137D01*
X142664877Y-81563259D01*
X142607379Y-81607379D01*
X142607378Y-81607380D01*
X142607377Y-81607381D01*
X142598375Y-81619113D01*
X142541947Y-81660316D01*
X142472201Y-81664470D01*
X142411281Y-81630257D01*
X142401625Y-81619113D01*
X142399782Y-81616711D01*
X142392621Y-81607379D01*
X142277625Y-81519139D01*
X142277624Y-81519138D01*
X142277622Y-81519137D01*
X142143712Y-81463671D01*
X142143710Y-81463670D01*
X142143709Y-81463670D01*
X142071854Y-81454210D01*
X142000001Y-81444750D01*
X141999999Y-81444750D01*
X141856291Y-81463670D01*
X141856287Y-81463671D01*
X141722377Y-81519137D01*
X141664877Y-81563259D01*
X141607379Y-81607379D01*
X141607378Y-81607380D01*
X141607377Y-81607381D01*
X141598375Y-81619113D01*
X141541947Y-81660316D01*
X141472201Y-81664470D01*
X141411281Y-81630257D01*
X141401625Y-81619113D01*
X141399782Y-81616711D01*
X141392621Y-81607379D01*
X141277625Y-81519139D01*
X141277624Y-81519138D01*
X141277622Y-81519137D01*
X141143712Y-81463671D01*
X141143710Y-81463670D01*
X141143709Y-81463670D01*
X141071854Y-81454210D01*
X141000001Y-81444750D01*
X140999999Y-81444750D01*
X140856291Y-81463670D01*
X140856287Y-81463671D01*
X140722377Y-81519137D01*
X140664877Y-81563259D01*
X140607379Y-81607379D01*
X140607378Y-81607380D01*
X140607377Y-81607381D01*
X140598375Y-81619113D01*
X140541947Y-81660316D01*
X140472201Y-81664470D01*
X140411281Y-81630257D01*
X140401625Y-81619113D01*
X140399782Y-81616711D01*
X140392621Y-81607379D01*
X140277625Y-81519139D01*
X140277624Y-81519138D01*
X140277622Y-81519137D01*
X140143712Y-81463671D01*
X140143710Y-81463670D01*
X140143709Y-81463670D01*
X140071854Y-81454210D01*
X140000001Y-81444750D01*
X139999999Y-81444750D01*
X139856291Y-81463670D01*
X139856287Y-81463671D01*
X139722377Y-81519137D01*
X139664877Y-81563259D01*
X139607379Y-81607379D01*
X139607378Y-81607380D01*
X139607377Y-81607381D01*
X139598375Y-81619113D01*
X139541947Y-81660316D01*
X139472201Y-81664470D01*
X139411281Y-81630257D01*
X139401625Y-81619113D01*
X139399782Y-81616711D01*
X139392621Y-81607379D01*
X139277625Y-81519139D01*
X139277624Y-81519138D01*
X139277622Y-81519137D01*
X139143712Y-81463671D01*
X139143710Y-81463670D01*
X139143709Y-81463670D01*
X139071854Y-81454210D01*
X139000001Y-81444750D01*
X138999999Y-81444750D01*
X138856291Y-81463670D01*
X138856287Y-81463671D01*
X138722377Y-81519137D01*
X138664877Y-81563259D01*
X138607379Y-81607379D01*
X138607378Y-81607380D01*
X138607377Y-81607381D01*
X138598375Y-81619113D01*
X138541947Y-81660316D01*
X138472201Y-81664470D01*
X138411281Y-81630257D01*
X138401625Y-81619113D01*
X138399782Y-81616711D01*
X138392621Y-81607379D01*
X138277625Y-81519139D01*
X138277624Y-81519138D01*
X138277622Y-81519137D01*
X138143712Y-81463671D01*
X138143710Y-81463670D01*
X138143709Y-81463670D01*
X138071854Y-81454210D01*
X138000001Y-81444750D01*
X137999999Y-81444750D01*
X137856291Y-81463670D01*
X137856287Y-81463671D01*
X137722377Y-81519137D01*
X137664877Y-81563259D01*
X137607379Y-81607379D01*
X137607378Y-81607380D01*
X137607377Y-81607381D01*
X137598375Y-81619113D01*
X137541947Y-81660316D01*
X137472201Y-81664470D01*
X137411281Y-81630257D01*
X137401625Y-81619113D01*
X137399782Y-81616711D01*
X137392621Y-81607379D01*
X137277625Y-81519139D01*
X137277624Y-81519138D01*
X137277622Y-81519137D01*
X137143712Y-81463671D01*
X137143710Y-81463670D01*
X137143709Y-81463670D01*
X137071854Y-81454210D01*
X137000001Y-81444750D01*
X136999999Y-81444750D01*
X136856291Y-81463670D01*
X136856287Y-81463671D01*
X136722377Y-81519137D01*
X136664877Y-81563259D01*
X136607379Y-81607379D01*
X136607378Y-81607380D01*
X136607377Y-81607381D01*
X136598375Y-81619113D01*
X136541947Y-81660316D01*
X136472201Y-81664470D01*
X136411281Y-81630257D01*
X136401625Y-81619113D01*
X136399782Y-81616711D01*
X136392621Y-81607379D01*
X136277625Y-81519139D01*
X136277624Y-81519138D01*
X136277622Y-81519137D01*
X136143712Y-81463671D01*
X136143710Y-81463670D01*
X136143709Y-81463670D01*
X136125547Y-81461278D01*
X136001450Y-81444940D01*
X135937554Y-81416673D01*
X135899084Y-81358348D01*
X135893646Y-81323495D01*
X135850625Y-77751915D01*
X135869501Y-77684643D01*
X135886546Y-77663129D01*
X137411293Y-76124888D01*
X137472466Y-76091135D01*
X137502618Y-76088227D01*
X145367431Y-76295195D01*
G37*
%TD.AperFunction*%
%TD*%
M02*
