%TF.GenerationSoftware,KiCad,Pcbnew,8.0.4*%
%TF.CreationDate,2024-12-15T23:21:32+02:00*%
%TF.ProjectId,Little Boy - External,4c697474-6c65-4204-926f-79202d204578,rev?*%
%TF.SameCoordinates,Original*%
%TF.FileFunction,Paste,Top*%
%TF.FilePolarity,Positive*%
%FSLAX46Y46*%
G04 Gerber Fmt 4.6, Leading zero omitted, Abs format (unit mm)*
G04 Created by KiCad (PCBNEW 8.0.4) date 2024-12-15 23:21:32*
%MOMM*%
%LPD*%
G01*
G04 APERTURE LIST*
G04 Aperture macros list*
%AMRoundRect*
0 Rectangle with rounded corners*
0 $1 Rounding radius*
0 $2 $3 $4 $5 $6 $7 $8 $9 X,Y pos of 4 corners*
0 Add a 4 corners polygon primitive as box body*
4,1,4,$2,$3,$4,$5,$6,$7,$8,$9,$2,$3,0*
0 Add four circle primitives for the rounded corners*
1,1,$1+$1,$2,$3*
1,1,$1+$1,$4,$5*
1,1,$1+$1,$6,$7*
1,1,$1+$1,$8,$9*
0 Add four rect primitives between the rounded corners*
20,1,$1+$1,$2,$3,$4,$5,0*
20,1,$1+$1,$4,$5,$6,$7,0*
20,1,$1+$1,$6,$7,$8,$9,0*
20,1,$1+$1,$8,$9,$2,$3,0*%
G04 Aperture macros list end*
%ADD10R,3.100000X2.600000*%
%ADD11R,0.600000X1.550000*%
%ADD12RoundRect,0.250000X0.850000X-0.375000X0.850000X0.375000X-0.850000X0.375000X-0.850000X-0.375000X0*%
%ADD13RoundRect,0.135000X0.135000X0.185000X-0.135000X0.185000X-0.135000X-0.185000X0.135000X-0.185000X0*%
%ADD14RoundRect,0.140000X-0.140000X-0.170000X0.140000X-0.170000X0.140000X0.170000X-0.140000X0.170000X0*%
%ADD15RoundRect,0.218750X-0.256250X0.218750X-0.256250X-0.218750X0.256250X-0.218750X0.256250X0.218750X0*%
%ADD16RoundRect,0.135000X0.185000X-0.135000X0.185000X0.135000X-0.185000X0.135000X-0.185000X-0.135000X0*%
%ADD17RoundRect,0.140000X0.140000X0.170000X-0.140000X0.170000X-0.140000X-0.170000X0.140000X-0.170000X0*%
%ADD18RoundRect,0.150000X0.650000X0.150000X-0.650000X0.150000X-0.650000X-0.150000X0.650000X-0.150000X0*%
%ADD19RoundRect,0.250000X0.475000X-0.250000X0.475000X0.250000X-0.475000X0.250000X-0.475000X-0.250000X0*%
%ADD20R,1.400000X1.200000*%
%ADD21RoundRect,0.135000X-0.135000X-0.185000X0.135000X-0.185000X0.135000X0.185000X-0.135000X0.185000X0*%
%ADD22RoundRect,0.250000X0.250000X0.475000X-0.250000X0.475000X-0.250000X-0.475000X0.250000X-0.475000X0*%
%ADD23RoundRect,0.140000X-0.170000X0.140000X-0.170000X-0.140000X0.170000X-0.140000X0.170000X0.140000X0*%
%ADD24RoundRect,0.225000X-0.250000X0.225000X-0.250000X-0.225000X0.250000X-0.225000X0.250000X0.225000X0*%
%ADD25RoundRect,0.172500X0.262500X0.172500X-0.262500X0.172500X-0.262500X-0.172500X0.262500X-0.172500X0*%
%ADD26RoundRect,0.093750X0.093750X0.106250X-0.093750X0.106250X-0.093750X-0.106250X0.093750X-0.106250X0*%
%ADD27RoundRect,0.150000X-0.825000X-0.150000X0.825000X-0.150000X0.825000X0.150000X-0.825000X0.150000X0*%
%ADD28R,0.650000X1.525000*%
%ADD29R,3.400000X2.710000*%
%ADD30RoundRect,0.140000X0.170000X-0.140000X0.170000X0.140000X-0.170000X0.140000X-0.170000X-0.140000X0*%
%ADD31R,5.000000X1.300000*%
%ADD32RoundRect,0.147500X-0.172500X0.147500X-0.172500X-0.147500X0.172500X-0.147500X0.172500X0.147500X0*%
%ADD33R,1.300000X0.300000*%
%ADD34R,2.200000X1.800000*%
%ADD35RoundRect,0.075000X-0.075000X0.662500X-0.075000X-0.662500X0.075000X-0.662500X0.075000X0.662500X0*%
%ADD36RoundRect,0.075000X-0.662500X0.075000X-0.662500X-0.075000X0.662500X-0.075000X0.662500X0.075000X0*%
%ADD37RoundRect,0.250000X-0.250000X-0.475000X0.250000X-0.475000X0.250000X0.475000X-0.250000X0.475000X0*%
%ADD38RoundRect,0.200000X0.200000X0.275000X-0.200000X0.275000X-0.200000X-0.275000X0.200000X-0.275000X0*%
%ADD39R,1.050000X0.600000*%
G04 APERTURE END LIST*
D10*
%TO.C,U2*%
X126900000Y-58600000D03*
D11*
X124994999Y-61300001D03*
X126265000Y-61300000D03*
X127535000Y-61300000D03*
X128805000Y-61299999D03*
X128805001Y-55899999D03*
X127535000Y-55900000D03*
X126265000Y-55900000D03*
X124995000Y-55900001D03*
%TD*%
D12*
%TO.C,L2*%
X124624999Y-53775000D03*
X124625001Y-51625000D03*
%TD*%
D13*
%TO.C,R5*%
X128510001Y-51950000D03*
X127490001Y-51949998D03*
%TD*%
D14*
%TO.C,C2*%
X145000000Y-56250000D03*
X145960000Y-56250000D03*
%TD*%
D15*
%TO.C,D1*%
X134549999Y-55712498D03*
X134550001Y-57287502D03*
%TD*%
D16*
%TO.C,R7*%
X132499999Y-52950000D03*
X132500001Y-51930000D03*
%TD*%
D17*
%TO.C,C6*%
X138709999Y-58029998D03*
X137749999Y-58029998D03*
%TD*%
%TO.C,C13*%
X140819411Y-75000000D03*
X139859411Y-75000000D03*
%TD*%
D18*
%TO.C,U6*%
X152099998Y-74655000D03*
X152100000Y-73385000D03*
X152100000Y-72115000D03*
X152100001Y-70845001D03*
X144900002Y-70845000D03*
X144900000Y-72115000D03*
X144900000Y-73385000D03*
X144899999Y-74654999D03*
%TD*%
D19*
%TO.C,C21*%
X130637497Y-50259178D03*
X130637497Y-48359178D03*
%TD*%
D20*
%TO.C,Y1*%
X140900000Y-56350000D03*
X143100001Y-56349999D03*
X143100000Y-54650000D03*
X140899999Y-54650001D03*
%TD*%
D21*
%TO.C,R12*%
X127590000Y-62850000D03*
X128610000Y-62850000D03*
%TD*%
D22*
%TO.C,C15*%
X126200000Y-63449999D03*
X124300000Y-63449999D03*
%TD*%
D23*
%TO.C,C25*%
X154750000Y-72270000D03*
X154750000Y-73230000D03*
%TD*%
D17*
%TO.C,C7*%
X138709997Y-57029997D03*
X137749997Y-57029997D03*
%TD*%
D24*
%TO.C,C20*%
X126749999Y-48699998D03*
X126749999Y-50250000D03*
%TD*%
D25*
%TO.C,U4*%
X133137502Y-49709176D03*
X133137500Y-48909178D03*
D26*
X134025001Y-49959177D03*
X134025001Y-49309177D03*
X134025001Y-48659177D03*
X132250001Y-48659177D03*
X132250001Y-49309177D03*
X132250001Y-49959177D03*
%TD*%
D27*
%TO.C,U3*%
X149425001Y-52744999D03*
X149425000Y-54015000D03*
X149425000Y-55285000D03*
X149425002Y-56555002D03*
X154374999Y-56555001D03*
X154375000Y-55285000D03*
X154375000Y-54015000D03*
X154374998Y-52744998D03*
%TD*%
D24*
%TO.C,C19*%
X128250000Y-48724999D03*
X128250000Y-50275001D03*
%TD*%
D28*
%TO.C,U7*%
X125690002Y-75424002D03*
X126960001Y-75424001D03*
X128230001Y-75424001D03*
X129500003Y-75424002D03*
X129500000Y-70000000D03*
X128230001Y-70000001D03*
X126960001Y-70000001D03*
X125689999Y-70000000D03*
D29*
X127595001Y-72712001D03*
%TD*%
D16*
%TO.C,R11*%
X153999999Y-75760000D03*
X154000001Y-74740000D03*
%TD*%
D15*
%TO.C,D2*%
X132949999Y-55712495D03*
X132950001Y-57287499D03*
%TD*%
D30*
%TO.C,C27*%
X156400000Y-49508237D03*
X156400000Y-48548237D03*
%TD*%
D17*
%TO.C,C5*%
X138710000Y-59000000D03*
X137750000Y-59000000D03*
%TD*%
D30*
%TO.C,C9*%
X154250000Y-60480000D03*
X154250000Y-59520000D03*
%TD*%
D31*
%TO.C,R4*%
X135250000Y-64725001D03*
X135250002Y-66774999D03*
%TD*%
D16*
%TO.C,R2*%
X134249999Y-59509998D03*
X134250001Y-58489998D03*
%TD*%
D30*
%TO.C,C22*%
X134999997Y-49659179D03*
X134999997Y-48699179D03*
%TD*%
D14*
%TO.C,C4*%
X145020000Y-57250000D03*
X145980000Y-57250000D03*
%TD*%
D30*
%TO.C,C26*%
X156400003Y-47028237D03*
X156400003Y-46068237D03*
%TD*%
%TO.C,C12*%
X129500000Y-77500000D03*
X129500000Y-76540000D03*
%TD*%
D14*
%TO.C,C17*%
X158720448Y-56157502D03*
X159680448Y-56157502D03*
%TD*%
D32*
%TO.C,L1*%
X145000000Y-54250000D03*
X145000000Y-55219996D03*
%TD*%
D14*
%TO.C,R8*%
X159790449Y-52080002D03*
X160750449Y-52080002D03*
%TD*%
D30*
%TO.C,C10*%
X162004999Y-72210000D03*
X162004999Y-71250000D03*
%TD*%
D33*
%TO.C,J5*%
X155950000Y-64250000D03*
X155950001Y-63750000D03*
X155949998Y-63249999D03*
X155950000Y-62750001D03*
X155949999Y-62249999D03*
X155950000Y-61750000D03*
D34*
X159200000Y-66150000D03*
X159200002Y-59849999D03*
%TD*%
D30*
%TO.C,C18*%
X126500000Y-54180001D03*
X126500000Y-53220001D03*
%TD*%
D16*
%TO.C,R1*%
X148049999Y-68310000D03*
X148050001Y-67290000D03*
%TD*%
D35*
%TO.C,U1*%
X145749999Y-58837499D03*
X145249999Y-58837500D03*
X144749997Y-58837498D03*
X144250002Y-58837501D03*
X143750000Y-58837500D03*
X143249999Y-58837498D03*
X142750000Y-58837500D03*
X142250000Y-58837500D03*
X141750000Y-58837502D03*
X141250000Y-58837501D03*
X140750000Y-58837502D03*
X140250001Y-58837499D03*
D36*
X138837499Y-60250001D03*
X138837500Y-60750001D03*
X138837498Y-61250003D03*
X138837501Y-61749998D03*
X138837500Y-62250000D03*
X138837498Y-62750001D03*
X138837500Y-63250000D03*
X138837500Y-63750000D03*
X138837502Y-64250000D03*
X138837501Y-64750000D03*
X138837502Y-65250000D03*
X138837499Y-65749999D03*
D35*
X140250001Y-67162501D03*
X140750001Y-67162500D03*
X141250003Y-67162502D03*
X141749998Y-67162499D03*
X142250000Y-67162500D03*
X142750001Y-67162502D03*
X143250000Y-67162500D03*
X143750000Y-67162500D03*
X144250000Y-67162498D03*
X144750000Y-67162499D03*
X145250000Y-67162498D03*
X145749999Y-67162501D03*
D36*
X147162501Y-65749999D03*
X147162500Y-65249999D03*
X147162502Y-64749997D03*
X147162499Y-64250002D03*
X147162500Y-63750000D03*
X147162502Y-63249999D03*
X147162500Y-62750000D03*
X147162500Y-62250000D03*
X147162498Y-61750000D03*
X147162499Y-61250000D03*
X147162498Y-60750000D03*
X147162501Y-60250001D03*
%TD*%
D16*
%TO.C,R3*%
X133249999Y-59509998D03*
X133250001Y-58489998D03*
%TD*%
D19*
%TO.C,C14*%
X130750000Y-63000000D03*
X130750000Y-61100000D03*
%TD*%
D37*
%TO.C,C16*%
X127800000Y-53700000D03*
X129700000Y-53700000D03*
%TD*%
D17*
%TO.C,C1*%
X142710000Y-53250000D03*
X141750000Y-53250000D03*
%TD*%
D38*
%TO.C,R6*%
X131325000Y-51950000D03*
X129675000Y-51950000D03*
%TD*%
D39*
%TO.C,FL1*%
X151475000Y-47250000D03*
X151475000Y-48250000D03*
X154525000Y-48250000D03*
X154525000Y-47250000D03*
%TD*%
D30*
%TO.C,C3*%
X139350000Y-56130000D03*
X139350000Y-55170000D03*
%TD*%
M02*
