%TF.GenerationSoftware,KiCad,Pcbnew,8.0.4*%
%TF.CreationDate,2024-12-15T23:21:32+02:00*%
%TF.ProjectId,Little Boy - External,4c697474-6c65-4204-926f-79202d204578,rev?*%
%TF.SameCoordinates,Original*%
%TF.FileFunction,Legend,Bot*%
%TF.FilePolarity,Positive*%
%FSLAX46Y46*%
G04 Gerber Fmt 4.6, Leading zero omitted, Abs format (unit mm)*
G04 Created by KiCad (PCBNEW 8.0.4) date 2024-12-15 23:21:32*
%MOMM*%
%LPD*%
G01*
G04 APERTURE LIST*
G04 Aperture macros list*
%AMRoundRect*
0 Rectangle with rounded corners*
0 $1 Rounding radius*
0 $2 $3 $4 $5 $6 $7 $8 $9 X,Y pos of 4 corners*
0 Add a 4 corners polygon primitive as box body*
4,1,4,$2,$3,$4,$5,$6,$7,$8,$9,$2,$3,0*
0 Add four circle primitives for the rounded corners*
1,1,$1+$1,$2,$3*
1,1,$1+$1,$4,$5*
1,1,$1+$1,$6,$7*
1,1,$1+$1,$8,$9*
0 Add four rect primitives between the rounded corners*
20,1,$1+$1,$2,$3,$4,$5,0*
20,1,$1+$1,$4,$5,$6,$7,0*
20,1,$1+$1,$6,$7,$8,$9,0*
20,1,$1+$1,$8,$9,$2,$3,0*%
%AMRotRect*
0 Rectangle, with rotation*
0 The origin of the aperture is its center*
0 $1 length*
0 $2 width*
0 $3 Rotation angle, in degrees counterclockwise*
0 Add horizontal line*
21,1,$1,$2,0,0,$3*%
G04 Aperture macros list end*
%ADD10C,0.100000*%
%ADD11C,0.150000*%
%ADD12C,0.254000*%
%ADD13C,0.120000*%
%ADD14C,0.010000*%
%ADD15RoundRect,0.250000X-1.125000X-1.125000X1.125000X-1.125000X1.125000X1.125000X-1.125000X1.125000X0*%
%ADD16C,2.200000*%
%ADD17RotRect,1.600000X1.600000X30.000000*%
%ADD18C,1.600000*%
%ADD19R,3.000000X3.000000*%
%ADD20C,3.000000*%
%ADD21R,1.000000X1.000000*%
%ADD22O,1.000000X1.000000*%
%ADD23RoundRect,0.250000X0.750000X-0.600000X0.750000X0.600000X-0.750000X0.600000X-0.750000X-0.600000X0*%
%ADD24O,2.000000X1.700000*%
%ADD25RotRect,1.500000X1.500000X135.000000*%
%ADD26RotRect,1.500000X1.500000X45.000000*%
%ADD27RoundRect,0.250000X0.159099X-0.512652X0.512652X-0.159099X-0.159099X0.512652X-0.512652X0.159099X0*%
G04 APERTURE END LIST*
D10*
X145993734Y-62320985D02*
X145993734Y-61520985D01*
X145993734Y-61520985D02*
X145803258Y-61520985D01*
X145803258Y-61520985D02*
X145688972Y-61559080D01*
X145688972Y-61559080D02*
X145612782Y-61635270D01*
X145612782Y-61635270D02*
X145574687Y-61711461D01*
X145574687Y-61711461D02*
X145536591Y-61863842D01*
X145536591Y-61863842D02*
X145536591Y-61978128D01*
X145536591Y-61978128D02*
X145574687Y-62130509D01*
X145574687Y-62130509D02*
X145612782Y-62206699D01*
X145612782Y-62206699D02*
X145688972Y-62282890D01*
X145688972Y-62282890D02*
X145803258Y-62320985D01*
X145803258Y-62320985D02*
X145993734Y-62320985D01*
X144736591Y-62244794D02*
X144774687Y-62282890D01*
X144774687Y-62282890D02*
X144888972Y-62320985D01*
X144888972Y-62320985D02*
X144965163Y-62320985D01*
X144965163Y-62320985D02*
X145079449Y-62282890D01*
X145079449Y-62282890D02*
X145155639Y-62206699D01*
X145155639Y-62206699D02*
X145193734Y-62130509D01*
X145193734Y-62130509D02*
X145231830Y-61978128D01*
X145231830Y-61978128D02*
X145231830Y-61863842D01*
X145231830Y-61863842D02*
X145193734Y-61711461D01*
X145193734Y-61711461D02*
X145155639Y-61635270D01*
X145155639Y-61635270D02*
X145079449Y-61559080D01*
X145079449Y-61559080D02*
X144965163Y-61520985D01*
X144965163Y-61520985D02*
X144888972Y-61520985D01*
X144888972Y-61520985D02*
X144774687Y-61559080D01*
X144774687Y-61559080D02*
X144736591Y-61597175D01*
X144431830Y-62282890D02*
X144317544Y-62320985D01*
X144317544Y-62320985D02*
X144127068Y-62320985D01*
X144127068Y-62320985D02*
X144050877Y-62282890D01*
X144050877Y-62282890D02*
X144012782Y-62244794D01*
X144012782Y-62244794D02*
X143974687Y-62168604D01*
X143974687Y-62168604D02*
X143974687Y-62092413D01*
X143974687Y-62092413D02*
X144012782Y-62016223D01*
X144012782Y-62016223D02*
X144050877Y-61978128D01*
X144050877Y-61978128D02*
X144127068Y-61940032D01*
X144127068Y-61940032D02*
X144279449Y-61901937D01*
X144279449Y-61901937D02*
X144355639Y-61863842D01*
X144355639Y-61863842D02*
X144393734Y-61825747D01*
X144393734Y-61825747D02*
X144431830Y-61749556D01*
X144431830Y-61749556D02*
X144431830Y-61673366D01*
X144431830Y-61673366D02*
X144393734Y-61597175D01*
X144393734Y-61597175D02*
X144355639Y-61559080D01*
X144355639Y-61559080D02*
X144279449Y-61520985D01*
X144279449Y-61520985D02*
X144088972Y-61520985D01*
X144088972Y-61520985D02*
X143974687Y-61559080D01*
X143327067Y-62282890D02*
X143403258Y-62320985D01*
X143403258Y-62320985D02*
X143555639Y-62320985D01*
X143555639Y-62320985D02*
X143631829Y-62282890D01*
X143631829Y-62282890D02*
X143669925Y-62206699D01*
X143669925Y-62206699D02*
X143669925Y-61901937D01*
X143669925Y-61901937D02*
X143631829Y-61825747D01*
X143631829Y-61825747D02*
X143555639Y-61787651D01*
X143555639Y-61787651D02*
X143403258Y-61787651D01*
X143403258Y-61787651D02*
X143327067Y-61825747D01*
X143327067Y-61825747D02*
X143288972Y-61901937D01*
X143288972Y-61901937D02*
X143288972Y-61978128D01*
X143288972Y-61978128D02*
X143669925Y-62054318D01*
X142946115Y-62320985D02*
X142946115Y-61787651D01*
X142946115Y-61940032D02*
X142908020Y-61863842D01*
X142908020Y-61863842D02*
X142869925Y-61825747D01*
X142869925Y-61825747D02*
X142793734Y-61787651D01*
X142793734Y-61787651D02*
X142717544Y-61787651D01*
X142527068Y-61787651D02*
X142336592Y-62320985D01*
X142336592Y-62320985D02*
X142146115Y-61787651D01*
X141727068Y-62320985D02*
X141803258Y-62282890D01*
X141803258Y-62282890D02*
X141841353Y-62244794D01*
X141841353Y-62244794D02*
X141879449Y-62168604D01*
X141879449Y-62168604D02*
X141879449Y-61940032D01*
X141879449Y-61940032D02*
X141841353Y-61863842D01*
X141841353Y-61863842D02*
X141803258Y-61825747D01*
X141803258Y-61825747D02*
X141727068Y-61787651D01*
X141727068Y-61787651D02*
X141612782Y-61787651D01*
X141612782Y-61787651D02*
X141536591Y-61825747D01*
X141536591Y-61825747D02*
X141498496Y-61863842D01*
X141498496Y-61863842D02*
X141460401Y-61940032D01*
X141460401Y-61940032D02*
X141460401Y-62168604D01*
X141460401Y-62168604D02*
X141498496Y-62244794D01*
X141498496Y-62244794D02*
X141536591Y-62282890D01*
X141536591Y-62282890D02*
X141612782Y-62320985D01*
X141612782Y-62320985D02*
X141727068Y-62320985D01*
X140546115Y-62092413D02*
X140165162Y-62092413D01*
X140622305Y-62320985D02*
X140355638Y-61520985D01*
X140355638Y-61520985D02*
X140088972Y-62320985D01*
X139822305Y-61901937D02*
X139555639Y-61901937D01*
X139441353Y-62320985D02*
X139822305Y-62320985D01*
X139822305Y-62320985D02*
X139822305Y-61520985D01*
X139822305Y-61520985D02*
X139441353Y-61520985D01*
X145612782Y-63608940D02*
X145993734Y-63608940D01*
X145993734Y-63608940D02*
X145993734Y-62808940D01*
X145346115Y-63608940D02*
X145346115Y-63075606D01*
X145346115Y-62808940D02*
X145384211Y-62847035D01*
X145384211Y-62847035D02*
X145346115Y-62885130D01*
X145346115Y-62885130D02*
X145308020Y-62847035D01*
X145308020Y-62847035D02*
X145346115Y-62808940D01*
X145346115Y-62808940D02*
X145346115Y-62885130D01*
X145079449Y-63075606D02*
X144774687Y-63075606D01*
X144965163Y-62808940D02*
X144965163Y-63494654D01*
X144965163Y-63494654D02*
X144927068Y-63570845D01*
X144927068Y-63570845D02*
X144850878Y-63608940D01*
X144850878Y-63608940D02*
X144774687Y-63608940D01*
X144622306Y-63075606D02*
X144317544Y-63075606D01*
X144508020Y-62808940D02*
X144508020Y-63494654D01*
X144508020Y-63494654D02*
X144469925Y-63570845D01*
X144469925Y-63570845D02*
X144393735Y-63608940D01*
X144393735Y-63608940D02*
X144317544Y-63608940D01*
X143936592Y-63608940D02*
X144012782Y-63570845D01*
X144012782Y-63570845D02*
X144050877Y-63494654D01*
X144050877Y-63494654D02*
X144050877Y-62808940D01*
X143327067Y-63570845D02*
X143403258Y-63608940D01*
X143403258Y-63608940D02*
X143555639Y-63608940D01*
X143555639Y-63608940D02*
X143631829Y-63570845D01*
X143631829Y-63570845D02*
X143669925Y-63494654D01*
X143669925Y-63494654D02*
X143669925Y-63189892D01*
X143669925Y-63189892D02*
X143631829Y-63113702D01*
X143631829Y-63113702D02*
X143555639Y-63075606D01*
X143555639Y-63075606D02*
X143403258Y-63075606D01*
X143403258Y-63075606D02*
X143327067Y-63113702D01*
X143327067Y-63113702D02*
X143288972Y-63189892D01*
X143288972Y-63189892D02*
X143288972Y-63266083D01*
X143288972Y-63266083D02*
X143669925Y-63342273D01*
X142679449Y-63189892D02*
X142565163Y-63227987D01*
X142565163Y-63227987D02*
X142527068Y-63266083D01*
X142527068Y-63266083D02*
X142488972Y-63342273D01*
X142488972Y-63342273D02*
X142488972Y-63456559D01*
X142488972Y-63456559D02*
X142527068Y-63532749D01*
X142527068Y-63532749D02*
X142565163Y-63570845D01*
X142565163Y-63570845D02*
X142641353Y-63608940D01*
X142641353Y-63608940D02*
X142946115Y-63608940D01*
X142946115Y-63608940D02*
X142946115Y-62808940D01*
X142946115Y-62808940D02*
X142679449Y-62808940D01*
X142679449Y-62808940D02*
X142603258Y-62847035D01*
X142603258Y-62847035D02*
X142565163Y-62885130D01*
X142565163Y-62885130D02*
X142527068Y-62961321D01*
X142527068Y-62961321D02*
X142527068Y-63037511D01*
X142527068Y-63037511D02*
X142565163Y-63113702D01*
X142565163Y-63113702D02*
X142603258Y-63151797D01*
X142603258Y-63151797D02*
X142679449Y-63189892D01*
X142679449Y-63189892D02*
X142946115Y-63189892D01*
X142031830Y-63608940D02*
X142108020Y-63570845D01*
X142108020Y-63570845D02*
X142146115Y-63532749D01*
X142146115Y-63532749D02*
X142184211Y-63456559D01*
X142184211Y-63456559D02*
X142184211Y-63227987D01*
X142184211Y-63227987D02*
X142146115Y-63151797D01*
X142146115Y-63151797D02*
X142108020Y-63113702D01*
X142108020Y-63113702D02*
X142031830Y-63075606D01*
X142031830Y-63075606D02*
X141917544Y-63075606D01*
X141917544Y-63075606D02*
X141841353Y-63113702D01*
X141841353Y-63113702D02*
X141803258Y-63151797D01*
X141803258Y-63151797D02*
X141765163Y-63227987D01*
X141765163Y-63227987D02*
X141765163Y-63456559D01*
X141765163Y-63456559D02*
X141803258Y-63532749D01*
X141803258Y-63532749D02*
X141841353Y-63570845D01*
X141841353Y-63570845D02*
X141917544Y-63608940D01*
X141917544Y-63608940D02*
X142031830Y-63608940D01*
X141498496Y-63075606D02*
X141308020Y-63608940D01*
X141117543Y-63075606D02*
X141308020Y-63608940D01*
X141308020Y-63608940D02*
X141384210Y-63799416D01*
X141384210Y-63799416D02*
X141422305Y-63837511D01*
X141422305Y-63837511D02*
X141498496Y-63875606D01*
X145993734Y-64477847D02*
X145727068Y-64477847D01*
X145612782Y-64896895D02*
X145993734Y-64896895D01*
X145993734Y-64896895D02*
X145993734Y-64096895D01*
X145993734Y-64096895D02*
X145612782Y-64096895D01*
X145346115Y-64896895D02*
X144927067Y-64363561D01*
X145346115Y-64363561D02*
X144927067Y-64896895D01*
X144736591Y-64363561D02*
X144431829Y-64363561D01*
X144622305Y-64096895D02*
X144622305Y-64782609D01*
X144622305Y-64782609D02*
X144584210Y-64858800D01*
X144584210Y-64858800D02*
X144508020Y-64896895D01*
X144508020Y-64896895D02*
X144431829Y-64896895D01*
X143860400Y-64858800D02*
X143936591Y-64896895D01*
X143936591Y-64896895D02*
X144088972Y-64896895D01*
X144088972Y-64896895D02*
X144165162Y-64858800D01*
X144165162Y-64858800D02*
X144203258Y-64782609D01*
X144203258Y-64782609D02*
X144203258Y-64477847D01*
X144203258Y-64477847D02*
X144165162Y-64401657D01*
X144165162Y-64401657D02*
X144088972Y-64363561D01*
X144088972Y-64363561D02*
X143936591Y-64363561D01*
X143936591Y-64363561D02*
X143860400Y-64401657D01*
X143860400Y-64401657D02*
X143822305Y-64477847D01*
X143822305Y-64477847D02*
X143822305Y-64554038D01*
X143822305Y-64554038D02*
X144203258Y-64630228D01*
X143479448Y-64896895D02*
X143479448Y-64363561D01*
X143479448Y-64515942D02*
X143441353Y-64439752D01*
X143441353Y-64439752D02*
X143403258Y-64401657D01*
X143403258Y-64401657D02*
X143327067Y-64363561D01*
X143327067Y-64363561D02*
X143250877Y-64363561D01*
X142984210Y-64363561D02*
X142984210Y-64896895D01*
X142984210Y-64439752D02*
X142946115Y-64401657D01*
X142946115Y-64401657D02*
X142869925Y-64363561D01*
X142869925Y-64363561D02*
X142755639Y-64363561D01*
X142755639Y-64363561D02*
X142679448Y-64401657D01*
X142679448Y-64401657D02*
X142641353Y-64477847D01*
X142641353Y-64477847D02*
X142641353Y-64896895D01*
X141917543Y-64896895D02*
X141917543Y-64477847D01*
X141917543Y-64477847D02*
X141955638Y-64401657D01*
X141955638Y-64401657D02*
X142031829Y-64363561D01*
X142031829Y-64363561D02*
X142184210Y-64363561D01*
X142184210Y-64363561D02*
X142260400Y-64401657D01*
X141917543Y-64858800D02*
X141993734Y-64896895D01*
X141993734Y-64896895D02*
X142184210Y-64896895D01*
X142184210Y-64896895D02*
X142260400Y-64858800D01*
X142260400Y-64858800D02*
X142298496Y-64782609D01*
X142298496Y-64782609D02*
X142298496Y-64706419D01*
X142298496Y-64706419D02*
X142260400Y-64630228D01*
X142260400Y-64630228D02*
X142184210Y-64592133D01*
X142184210Y-64592133D02*
X141993734Y-64592133D01*
X141993734Y-64592133D02*
X141917543Y-64554038D01*
X141422305Y-64896895D02*
X141498495Y-64858800D01*
X141498495Y-64858800D02*
X141536590Y-64782609D01*
X141536590Y-64782609D02*
X141536590Y-64096895D01*
X161493734Y-74858940D02*
X161493734Y-74058940D01*
X161493734Y-74058940D02*
X161036591Y-74858940D01*
X161036591Y-74858940D02*
X161036591Y-74058940D01*
X160198496Y-74858940D02*
X160465163Y-74477987D01*
X160655639Y-74858940D02*
X160655639Y-74058940D01*
X160655639Y-74058940D02*
X160350877Y-74058940D01*
X160350877Y-74058940D02*
X160274687Y-74097035D01*
X160274687Y-74097035D02*
X160236592Y-74135130D01*
X160236592Y-74135130D02*
X160198496Y-74211321D01*
X160198496Y-74211321D02*
X160198496Y-74325606D01*
X160198496Y-74325606D02*
X160236592Y-74401797D01*
X160236592Y-74401797D02*
X160274687Y-74439892D01*
X160274687Y-74439892D02*
X160350877Y-74477987D01*
X160350877Y-74477987D02*
X160655639Y-74477987D01*
X159893735Y-74820845D02*
X159779449Y-74858940D01*
X159779449Y-74858940D02*
X159588973Y-74858940D01*
X159588973Y-74858940D02*
X159512782Y-74820845D01*
X159512782Y-74820845D02*
X159474687Y-74782749D01*
X159474687Y-74782749D02*
X159436592Y-74706559D01*
X159436592Y-74706559D02*
X159436592Y-74630368D01*
X159436592Y-74630368D02*
X159474687Y-74554178D01*
X159474687Y-74554178D02*
X159512782Y-74516083D01*
X159512782Y-74516083D02*
X159588973Y-74477987D01*
X159588973Y-74477987D02*
X159741354Y-74439892D01*
X159741354Y-74439892D02*
X159817544Y-74401797D01*
X159817544Y-74401797D02*
X159855639Y-74363702D01*
X159855639Y-74363702D02*
X159893735Y-74287511D01*
X159893735Y-74287511D02*
X159893735Y-74211321D01*
X159893735Y-74211321D02*
X159855639Y-74135130D01*
X159855639Y-74135130D02*
X159817544Y-74097035D01*
X159817544Y-74097035D02*
X159741354Y-74058940D01*
X159741354Y-74058940D02*
X159550877Y-74058940D01*
X159550877Y-74058940D02*
X159436592Y-74097035D01*
X159208020Y-74058940D02*
X158750877Y-74058940D01*
X158979449Y-74858940D02*
X158979449Y-74058940D01*
X158293734Y-75125606D02*
X158293734Y-73982749D01*
X157265162Y-74782749D02*
X157303258Y-74820845D01*
X157303258Y-74820845D02*
X157417543Y-74858940D01*
X157417543Y-74858940D02*
X157493734Y-74858940D01*
X157493734Y-74858940D02*
X157608020Y-74820845D01*
X157608020Y-74820845D02*
X157684210Y-74744654D01*
X157684210Y-74744654D02*
X157722305Y-74668464D01*
X157722305Y-74668464D02*
X157760401Y-74516083D01*
X157760401Y-74516083D02*
X157760401Y-74401797D01*
X157760401Y-74401797D02*
X157722305Y-74249416D01*
X157722305Y-74249416D02*
X157684210Y-74173225D01*
X157684210Y-74173225D02*
X157608020Y-74097035D01*
X157608020Y-74097035D02*
X157493734Y-74058940D01*
X157493734Y-74058940D02*
X157417543Y-74058940D01*
X157417543Y-74058940D02*
X157303258Y-74097035D01*
X157303258Y-74097035D02*
X157265162Y-74135130D01*
X156541353Y-74858940D02*
X156922305Y-74858940D01*
X156922305Y-74858940D02*
X156922305Y-74058940D01*
X156274686Y-74858940D02*
X156274686Y-74058940D01*
X155817543Y-74858940D02*
X156160401Y-74401797D01*
X155817543Y-74058940D02*
X156274686Y-74516083D01*
X155284210Y-75125606D02*
X155284210Y-73982749D01*
X154712781Y-74858940D02*
X154712781Y-74058940D01*
X154712781Y-74058940D02*
X154522305Y-74058940D01*
X154522305Y-74058940D02*
X154408019Y-74097035D01*
X154408019Y-74097035D02*
X154331829Y-74173225D01*
X154331829Y-74173225D02*
X154293734Y-74249416D01*
X154293734Y-74249416D02*
X154255638Y-74401797D01*
X154255638Y-74401797D02*
X154255638Y-74516083D01*
X154255638Y-74516083D02*
X154293734Y-74668464D01*
X154293734Y-74668464D02*
X154331829Y-74744654D01*
X154331829Y-74744654D02*
X154408019Y-74820845D01*
X154408019Y-74820845D02*
X154522305Y-74858940D01*
X154522305Y-74858940D02*
X154712781Y-74858940D01*
X153912781Y-74858940D02*
X153912781Y-74058940D01*
X153379448Y-74058940D02*
X153227067Y-74058940D01*
X153227067Y-74058940D02*
X153150877Y-74097035D01*
X153150877Y-74097035D02*
X153074686Y-74173225D01*
X153074686Y-74173225D02*
X153036591Y-74325606D01*
X153036591Y-74325606D02*
X153036591Y-74592273D01*
X153036591Y-74592273D02*
X153074686Y-74744654D01*
X153074686Y-74744654D02*
X153150877Y-74820845D01*
X153150877Y-74820845D02*
X153227067Y-74858940D01*
X153227067Y-74858940D02*
X153379448Y-74858940D01*
X153379448Y-74858940D02*
X153455639Y-74820845D01*
X153455639Y-74820845D02*
X153531829Y-74744654D01*
X153531829Y-74744654D02*
X153569925Y-74592273D01*
X153569925Y-74592273D02*
X153569925Y-74325606D01*
X153569925Y-74325606D02*
X153531829Y-74173225D01*
X153531829Y-74173225D02*
X153455639Y-74097035D01*
X153455639Y-74097035D02*
X153379448Y-74058940D01*
X161074687Y-75384990D02*
X161150877Y-75346895D01*
X161150877Y-75346895D02*
X161265163Y-75346895D01*
X161265163Y-75346895D02*
X161379449Y-75384990D01*
X161379449Y-75384990D02*
X161455639Y-75461180D01*
X161455639Y-75461180D02*
X161493734Y-75537371D01*
X161493734Y-75537371D02*
X161531830Y-75689752D01*
X161531830Y-75689752D02*
X161531830Y-75804038D01*
X161531830Y-75804038D02*
X161493734Y-75956419D01*
X161493734Y-75956419D02*
X161455639Y-76032609D01*
X161455639Y-76032609D02*
X161379449Y-76108800D01*
X161379449Y-76108800D02*
X161265163Y-76146895D01*
X161265163Y-76146895D02*
X161188972Y-76146895D01*
X161188972Y-76146895D02*
X161074687Y-76108800D01*
X161074687Y-76108800D02*
X161036591Y-76070704D01*
X161036591Y-76070704D02*
X161036591Y-75804038D01*
X161036591Y-75804038D02*
X161188972Y-75804038D01*
X160693734Y-76146895D02*
X160693734Y-75346895D01*
X160693734Y-75346895D02*
X160236591Y-76146895D01*
X160236591Y-76146895D02*
X160236591Y-75346895D01*
X159855639Y-76146895D02*
X159855639Y-75346895D01*
X159855639Y-75346895D02*
X159665163Y-75346895D01*
X159665163Y-75346895D02*
X159550877Y-75384990D01*
X159550877Y-75384990D02*
X159474687Y-75461180D01*
X159474687Y-75461180D02*
X159436592Y-75537371D01*
X159436592Y-75537371D02*
X159398496Y-75689752D01*
X159398496Y-75689752D02*
X159398496Y-75804038D01*
X159398496Y-75804038D02*
X159436592Y-75956419D01*
X159436592Y-75956419D02*
X159474687Y-76032609D01*
X159474687Y-76032609D02*
X159550877Y-76108800D01*
X159550877Y-76108800D02*
X159665163Y-76146895D01*
X159665163Y-76146895D02*
X159855639Y-76146895D01*
X158865163Y-76413561D02*
X158865163Y-75270704D01*
X157874687Y-75384990D02*
X157950877Y-75346895D01*
X157950877Y-75346895D02*
X158065163Y-75346895D01*
X158065163Y-75346895D02*
X158179449Y-75384990D01*
X158179449Y-75384990D02*
X158255639Y-75461180D01*
X158255639Y-75461180D02*
X158293734Y-75537371D01*
X158293734Y-75537371D02*
X158331830Y-75689752D01*
X158331830Y-75689752D02*
X158331830Y-75804038D01*
X158331830Y-75804038D02*
X158293734Y-75956419D01*
X158293734Y-75956419D02*
X158255639Y-76032609D01*
X158255639Y-76032609D02*
X158179449Y-76108800D01*
X158179449Y-76108800D02*
X158065163Y-76146895D01*
X158065163Y-76146895D02*
X157988972Y-76146895D01*
X157988972Y-76146895D02*
X157874687Y-76108800D01*
X157874687Y-76108800D02*
X157836591Y-76070704D01*
X157836591Y-76070704D02*
X157836591Y-75804038D01*
X157836591Y-75804038D02*
X157988972Y-75804038D01*
X157493734Y-76146895D02*
X157493734Y-75346895D01*
X157493734Y-75346895D02*
X157036591Y-76146895D01*
X157036591Y-76146895D02*
X157036591Y-75346895D01*
X156655639Y-76146895D02*
X156655639Y-75346895D01*
X156655639Y-75346895D02*
X156465163Y-75346895D01*
X156465163Y-75346895D02*
X156350877Y-75384990D01*
X156350877Y-75384990D02*
X156274687Y-75461180D01*
X156274687Y-75461180D02*
X156236592Y-75537371D01*
X156236592Y-75537371D02*
X156198496Y-75689752D01*
X156198496Y-75689752D02*
X156198496Y-75804038D01*
X156198496Y-75804038D02*
X156236592Y-75956419D01*
X156236592Y-75956419D02*
X156274687Y-76032609D01*
X156274687Y-76032609D02*
X156350877Y-76108800D01*
X156350877Y-76108800D02*
X156465163Y-76146895D01*
X156465163Y-76146895D02*
X156655639Y-76146895D01*
X155665163Y-76413561D02*
X155665163Y-75270704D01*
X155208020Y-75346895D02*
X154941353Y-76146895D01*
X154941353Y-76146895D02*
X154674687Y-75346895D01*
X154408020Y-76146895D02*
X154408020Y-75346895D01*
X154408020Y-75346895D02*
X154217544Y-75346895D01*
X154217544Y-75346895D02*
X154103258Y-75384990D01*
X154103258Y-75384990D02*
X154027068Y-75461180D01*
X154027068Y-75461180D02*
X153988973Y-75537371D01*
X153988973Y-75537371D02*
X153950877Y-75689752D01*
X153950877Y-75689752D02*
X153950877Y-75804038D01*
X153950877Y-75804038D02*
X153988973Y-75956419D01*
X153988973Y-75956419D02*
X154027068Y-76032609D01*
X154027068Y-76032609D02*
X154103258Y-76108800D01*
X154103258Y-76108800D02*
X154217544Y-76146895D01*
X154217544Y-76146895D02*
X154408020Y-76146895D01*
X153608020Y-76146895D02*
X153608020Y-75346895D01*
X153608020Y-75346895D02*
X153417544Y-75346895D01*
X153417544Y-75346895D02*
X153303258Y-75384990D01*
X153303258Y-75384990D02*
X153227068Y-75461180D01*
X153227068Y-75461180D02*
X153188973Y-75537371D01*
X153188973Y-75537371D02*
X153150877Y-75689752D01*
X153150877Y-75689752D02*
X153150877Y-75804038D01*
X153150877Y-75804038D02*
X153188973Y-75956419D01*
X153188973Y-75956419D02*
X153227068Y-76032609D01*
X153227068Y-76032609D02*
X153303258Y-76108800D01*
X153303258Y-76108800D02*
X153417544Y-76146895D01*
X153417544Y-76146895D02*
X153608020Y-76146895D01*
X157319925Y-81346895D02*
X157129449Y-82146895D01*
X157129449Y-82146895D02*
X156977068Y-81575466D01*
X156977068Y-81575466D02*
X156824687Y-82146895D01*
X156824687Y-82146895D02*
X156634211Y-81346895D01*
X156329448Y-82146895D02*
X156329448Y-81613561D01*
X156329448Y-81346895D02*
X156367544Y-81384990D01*
X156367544Y-81384990D02*
X156329448Y-81423085D01*
X156329448Y-81423085D02*
X156291353Y-81384990D01*
X156291353Y-81384990D02*
X156329448Y-81346895D01*
X156329448Y-81346895D02*
X156329448Y-81423085D01*
X156062782Y-81613561D02*
X155758020Y-81613561D01*
X155948496Y-81346895D02*
X155948496Y-82032609D01*
X155948496Y-82032609D02*
X155910401Y-82108800D01*
X155910401Y-82108800D02*
X155834211Y-82146895D01*
X155834211Y-82146895D02*
X155758020Y-82146895D01*
X155491353Y-82146895D02*
X155491353Y-81346895D01*
X155148496Y-82146895D02*
X155148496Y-81727847D01*
X155148496Y-81727847D02*
X155186591Y-81651657D01*
X155186591Y-81651657D02*
X155262782Y-81613561D01*
X155262782Y-81613561D02*
X155377068Y-81613561D01*
X155377068Y-81613561D02*
X155453258Y-81651657D01*
X155453258Y-81651657D02*
X155491353Y-81689752D01*
X154043734Y-82146895D02*
X154119924Y-82108800D01*
X154119924Y-82108800D02*
X154158019Y-82032609D01*
X154158019Y-82032609D02*
X154158019Y-81346895D01*
X153624686Y-82146895D02*
X153700876Y-82108800D01*
X153700876Y-82108800D02*
X153738971Y-82070704D01*
X153738971Y-82070704D02*
X153777067Y-81994514D01*
X153777067Y-81994514D02*
X153777067Y-81765942D01*
X153777067Y-81765942D02*
X153738971Y-81689752D01*
X153738971Y-81689752D02*
X153700876Y-81651657D01*
X153700876Y-81651657D02*
X153624686Y-81613561D01*
X153624686Y-81613561D02*
X153510400Y-81613561D01*
X153510400Y-81613561D02*
X153434209Y-81651657D01*
X153434209Y-81651657D02*
X153396114Y-81689752D01*
X153396114Y-81689752D02*
X153358019Y-81765942D01*
X153358019Y-81765942D02*
X153358019Y-81994514D01*
X153358019Y-81994514D02*
X153396114Y-82070704D01*
X153396114Y-82070704D02*
X153434209Y-82108800D01*
X153434209Y-82108800D02*
X153510400Y-82146895D01*
X153510400Y-82146895D02*
X153624686Y-82146895D01*
X153091352Y-81613561D02*
X152900876Y-82146895D01*
X152900876Y-82146895D02*
X152710399Y-81613561D01*
X152100875Y-82108800D02*
X152177066Y-82146895D01*
X152177066Y-82146895D02*
X152329447Y-82146895D01*
X152329447Y-82146895D02*
X152405637Y-82108800D01*
X152405637Y-82108800D02*
X152443733Y-82032609D01*
X152443733Y-82032609D02*
X152443733Y-81727847D01*
X152443733Y-81727847D02*
X152405637Y-81651657D01*
X152405637Y-81651657D02*
X152329447Y-81613561D01*
X152329447Y-81613561D02*
X152177066Y-81613561D01*
X152177066Y-81613561D02*
X152100875Y-81651657D01*
X152100875Y-81651657D02*
X152062780Y-81727847D01*
X152062780Y-81727847D02*
X152062780Y-81804038D01*
X152062780Y-81804038D02*
X152443733Y-81880228D01*
X151110399Y-82146895D02*
X151110399Y-81346895D01*
X151110399Y-81651657D02*
X151034209Y-81613561D01*
X151034209Y-81613561D02*
X150881828Y-81613561D01*
X150881828Y-81613561D02*
X150805637Y-81651657D01*
X150805637Y-81651657D02*
X150767542Y-81689752D01*
X150767542Y-81689752D02*
X150729447Y-81765942D01*
X150729447Y-81765942D02*
X150729447Y-81994514D01*
X150729447Y-81994514D02*
X150767542Y-82070704D01*
X150767542Y-82070704D02*
X150805637Y-82108800D01*
X150805637Y-82108800D02*
X150881828Y-82146895D01*
X150881828Y-82146895D02*
X151034209Y-82146895D01*
X151034209Y-82146895D02*
X151110399Y-82108800D01*
X150462780Y-81613561D02*
X150272304Y-82146895D01*
X150081827Y-81613561D02*
X150272304Y-82146895D01*
X150272304Y-82146895D02*
X150348494Y-82337371D01*
X150348494Y-82337371D02*
X150386589Y-82375466D01*
X150386589Y-82375466D02*
X150462780Y-82413561D01*
X149205637Y-81918323D02*
X148824684Y-81918323D01*
X149281827Y-82146895D02*
X149015160Y-81346895D01*
X149015160Y-81346895D02*
X148748494Y-82146895D01*
X148367542Y-82146895D02*
X148443732Y-82108800D01*
X148443732Y-82108800D02*
X148481827Y-82032609D01*
X148481827Y-82032609D02*
X148481827Y-81346895D01*
X147758017Y-82108800D02*
X147834208Y-82146895D01*
X147834208Y-82146895D02*
X147986589Y-82146895D01*
X147986589Y-82146895D02*
X148062779Y-82108800D01*
X148062779Y-82108800D02*
X148100875Y-82032609D01*
X148100875Y-82032609D02*
X148100875Y-81727847D01*
X148100875Y-81727847D02*
X148062779Y-81651657D01*
X148062779Y-81651657D02*
X147986589Y-81613561D01*
X147986589Y-81613561D02*
X147834208Y-81613561D01*
X147834208Y-81613561D02*
X147758017Y-81651657D01*
X147758017Y-81651657D02*
X147719922Y-81727847D01*
X147719922Y-81727847D02*
X147719922Y-81804038D01*
X147719922Y-81804038D02*
X148100875Y-81880228D01*
X147453256Y-82146895D02*
X147034208Y-81613561D01*
X147453256Y-81613561D02*
X147034208Y-82146895D01*
X146386589Y-82146895D02*
X146386589Y-81727847D01*
X146386589Y-81727847D02*
X146424684Y-81651657D01*
X146424684Y-81651657D02*
X146500875Y-81613561D01*
X146500875Y-81613561D02*
X146653256Y-81613561D01*
X146653256Y-81613561D02*
X146729446Y-81651657D01*
X146386589Y-82108800D02*
X146462780Y-82146895D01*
X146462780Y-82146895D02*
X146653256Y-82146895D01*
X146653256Y-82146895D02*
X146729446Y-82108800D01*
X146729446Y-82108800D02*
X146767542Y-82032609D01*
X146767542Y-82032609D02*
X146767542Y-81956419D01*
X146767542Y-81956419D02*
X146729446Y-81880228D01*
X146729446Y-81880228D02*
X146653256Y-81842133D01*
X146653256Y-81842133D02*
X146462780Y-81842133D01*
X146462780Y-81842133D02*
X146386589Y-81804038D01*
X146005636Y-81613561D02*
X146005636Y-82146895D01*
X146005636Y-81689752D02*
X145967541Y-81651657D01*
X145967541Y-81651657D02*
X145891351Y-81613561D01*
X145891351Y-81613561D02*
X145777065Y-81613561D01*
X145777065Y-81613561D02*
X145700874Y-81651657D01*
X145700874Y-81651657D02*
X145662779Y-81727847D01*
X145662779Y-81727847D02*
X145662779Y-82146895D01*
X144938969Y-82146895D02*
X144938969Y-81346895D01*
X144938969Y-82108800D02*
X145015160Y-82146895D01*
X145015160Y-82146895D02*
X145167541Y-82146895D01*
X145167541Y-82146895D02*
X145243731Y-82108800D01*
X145243731Y-82108800D02*
X145281826Y-82070704D01*
X145281826Y-82070704D02*
X145319922Y-81994514D01*
X145319922Y-81994514D02*
X145319922Y-81765942D01*
X145319922Y-81765942D02*
X145281826Y-81689752D01*
X145281826Y-81689752D02*
X145243731Y-81651657D01*
X145243731Y-81651657D02*
X145167541Y-81613561D01*
X145167541Y-81613561D02*
X145015160Y-81613561D01*
X145015160Y-81613561D02*
X144938969Y-81651657D01*
X144558016Y-82146895D02*
X144558016Y-81613561D01*
X144558016Y-81765942D02*
X144519921Y-81689752D01*
X144519921Y-81689752D02*
X144481826Y-81651657D01*
X144481826Y-81651657D02*
X144405635Y-81613561D01*
X144405635Y-81613561D02*
X144329445Y-81613561D01*
X143719921Y-81613561D02*
X143719921Y-82146895D01*
X144062778Y-81613561D02*
X144062778Y-82032609D01*
X144062778Y-82032609D02*
X144024683Y-82108800D01*
X144024683Y-82108800D02*
X143948493Y-82146895D01*
X143948493Y-82146895D02*
X143834207Y-82146895D01*
X143834207Y-82146895D02*
X143758016Y-82108800D01*
X143758016Y-82108800D02*
X143719921Y-82070704D01*
X142272301Y-82070704D02*
X142310397Y-82108800D01*
X142310397Y-82108800D02*
X142424682Y-82146895D01*
X142424682Y-82146895D02*
X142500873Y-82146895D01*
X142500873Y-82146895D02*
X142615159Y-82108800D01*
X142615159Y-82108800D02*
X142691349Y-82032609D01*
X142691349Y-82032609D02*
X142729444Y-81956419D01*
X142729444Y-81956419D02*
X142767540Y-81804038D01*
X142767540Y-81804038D02*
X142767540Y-81689752D01*
X142767540Y-81689752D02*
X142729444Y-81537371D01*
X142729444Y-81537371D02*
X142691349Y-81461180D01*
X142691349Y-81461180D02*
X142615159Y-81384990D01*
X142615159Y-81384990D02*
X142500873Y-81346895D01*
X142500873Y-81346895D02*
X142424682Y-81346895D01*
X142424682Y-81346895D02*
X142310397Y-81384990D01*
X142310397Y-81384990D02*
X142272301Y-81423085D01*
X141815159Y-82146895D02*
X141891349Y-82108800D01*
X141891349Y-82108800D02*
X141929444Y-82070704D01*
X141929444Y-82070704D02*
X141967540Y-81994514D01*
X141967540Y-81994514D02*
X141967540Y-81765942D01*
X141967540Y-81765942D02*
X141929444Y-81689752D01*
X141929444Y-81689752D02*
X141891349Y-81651657D01*
X141891349Y-81651657D02*
X141815159Y-81613561D01*
X141815159Y-81613561D02*
X141700873Y-81613561D01*
X141700873Y-81613561D02*
X141624682Y-81651657D01*
X141624682Y-81651657D02*
X141586587Y-81689752D01*
X141586587Y-81689752D02*
X141548492Y-81765942D01*
X141548492Y-81765942D02*
X141548492Y-81994514D01*
X141548492Y-81994514D02*
X141586587Y-82070704D01*
X141586587Y-82070704D02*
X141624682Y-82108800D01*
X141624682Y-82108800D02*
X141700873Y-82146895D01*
X141700873Y-82146895D02*
X141815159Y-82146895D01*
X141205634Y-81613561D02*
X141205634Y-82146895D01*
X141205634Y-81689752D02*
X141167539Y-81651657D01*
X141167539Y-81651657D02*
X141091349Y-81613561D01*
X141091349Y-81613561D02*
X140977063Y-81613561D01*
X140977063Y-81613561D02*
X140900872Y-81651657D01*
X140900872Y-81651657D02*
X140862777Y-81727847D01*
X140862777Y-81727847D02*
X140862777Y-82146895D01*
X140519920Y-82108800D02*
X140443729Y-82146895D01*
X140443729Y-82146895D02*
X140291348Y-82146895D01*
X140291348Y-82146895D02*
X140215158Y-82108800D01*
X140215158Y-82108800D02*
X140177062Y-82032609D01*
X140177062Y-82032609D02*
X140177062Y-81994514D01*
X140177062Y-81994514D02*
X140215158Y-81918323D01*
X140215158Y-81918323D02*
X140291348Y-81880228D01*
X140291348Y-81880228D02*
X140405634Y-81880228D01*
X140405634Y-81880228D02*
X140481824Y-81842133D01*
X140481824Y-81842133D02*
X140519920Y-81765942D01*
X140519920Y-81765942D02*
X140519920Y-81727847D01*
X140519920Y-81727847D02*
X140481824Y-81651657D01*
X140481824Y-81651657D02*
X140405634Y-81613561D01*
X140405634Y-81613561D02*
X140291348Y-81613561D01*
X140291348Y-81613561D02*
X140215158Y-81651657D01*
X139948491Y-81613561D02*
X139643729Y-81613561D01*
X139834205Y-81346895D02*
X139834205Y-82032609D01*
X139834205Y-82032609D02*
X139796110Y-82108800D01*
X139796110Y-82108800D02*
X139719920Y-82146895D01*
X139719920Y-82146895D02*
X139643729Y-82146895D01*
X139034205Y-82146895D02*
X139034205Y-81727847D01*
X139034205Y-81727847D02*
X139072300Y-81651657D01*
X139072300Y-81651657D02*
X139148491Y-81613561D01*
X139148491Y-81613561D02*
X139300872Y-81613561D01*
X139300872Y-81613561D02*
X139377062Y-81651657D01*
X139034205Y-82108800D02*
X139110396Y-82146895D01*
X139110396Y-82146895D02*
X139300872Y-82146895D01*
X139300872Y-82146895D02*
X139377062Y-82108800D01*
X139377062Y-82108800D02*
X139415158Y-82032609D01*
X139415158Y-82032609D02*
X139415158Y-81956419D01*
X139415158Y-81956419D02*
X139377062Y-81880228D01*
X139377062Y-81880228D02*
X139300872Y-81842133D01*
X139300872Y-81842133D02*
X139110396Y-81842133D01*
X139110396Y-81842133D02*
X139034205Y-81804038D01*
X138653252Y-81613561D02*
X138653252Y-82146895D01*
X138653252Y-81689752D02*
X138615157Y-81651657D01*
X138615157Y-81651657D02*
X138538967Y-81613561D01*
X138538967Y-81613561D02*
X138424681Y-81613561D01*
X138424681Y-81613561D02*
X138348490Y-81651657D01*
X138348490Y-81651657D02*
X138310395Y-81727847D01*
X138310395Y-81727847D02*
X138310395Y-82146895D01*
X138043728Y-81613561D02*
X137738966Y-81613561D01*
X137929442Y-81346895D02*
X137929442Y-82032609D01*
X137929442Y-82032609D02*
X137891347Y-82108800D01*
X137891347Y-82108800D02*
X137815157Y-82146895D01*
X137815157Y-82146895D02*
X137738966Y-82146895D01*
X137472299Y-82146895D02*
X137472299Y-81613561D01*
X137472299Y-81346895D02*
X137510395Y-81384990D01*
X137510395Y-81384990D02*
X137472299Y-81423085D01*
X137472299Y-81423085D02*
X137434204Y-81384990D01*
X137434204Y-81384990D02*
X137472299Y-81346895D01*
X137472299Y-81346895D02*
X137472299Y-81423085D01*
X137091347Y-81613561D02*
X137091347Y-82146895D01*
X137091347Y-81689752D02*
X137053252Y-81651657D01*
X137053252Y-81651657D02*
X136977062Y-81613561D01*
X136977062Y-81613561D02*
X136862776Y-81613561D01*
X136862776Y-81613561D02*
X136786585Y-81651657D01*
X136786585Y-81651657D02*
X136748490Y-81727847D01*
X136748490Y-81727847D02*
X136748490Y-82146895D01*
X136062775Y-82108800D02*
X136138966Y-82146895D01*
X136138966Y-82146895D02*
X136291347Y-82146895D01*
X136291347Y-82146895D02*
X136367537Y-82108800D01*
X136367537Y-82108800D02*
X136405633Y-82032609D01*
X136405633Y-82032609D02*
X136405633Y-81727847D01*
X136405633Y-81727847D02*
X136367537Y-81651657D01*
X136367537Y-81651657D02*
X136291347Y-81613561D01*
X136291347Y-81613561D02*
X136138966Y-81613561D01*
X136138966Y-81613561D02*
X136062775Y-81651657D01*
X136062775Y-81651657D02*
X136024680Y-81727847D01*
X136024680Y-81727847D02*
X136024680Y-81804038D01*
X136024680Y-81804038D02*
X136405633Y-81880228D01*
X135719919Y-82108800D02*
X135643728Y-82146895D01*
X135643728Y-82146895D02*
X135491347Y-82146895D01*
X135491347Y-82146895D02*
X135415157Y-82108800D01*
X135415157Y-82108800D02*
X135377061Y-82032609D01*
X135377061Y-82032609D02*
X135377061Y-81994514D01*
X135377061Y-81994514D02*
X135415157Y-81918323D01*
X135415157Y-81918323D02*
X135491347Y-81880228D01*
X135491347Y-81880228D02*
X135605633Y-81880228D01*
X135605633Y-81880228D02*
X135681823Y-81842133D01*
X135681823Y-81842133D02*
X135719919Y-81765942D01*
X135719919Y-81765942D02*
X135719919Y-81727847D01*
X135719919Y-81727847D02*
X135681823Y-81651657D01*
X135681823Y-81651657D02*
X135605633Y-81613561D01*
X135605633Y-81613561D02*
X135491347Y-81613561D01*
X135491347Y-81613561D02*
X135415157Y-81651657D01*
X134691347Y-82108800D02*
X134767538Y-82146895D01*
X134767538Y-82146895D02*
X134919919Y-82146895D01*
X134919919Y-82146895D02*
X134996109Y-82108800D01*
X134996109Y-82108800D02*
X135034204Y-82070704D01*
X135034204Y-82070704D02*
X135072300Y-81994514D01*
X135072300Y-81994514D02*
X135072300Y-81765942D01*
X135072300Y-81765942D02*
X135034204Y-81689752D01*
X135034204Y-81689752D02*
X134996109Y-81651657D01*
X134996109Y-81651657D02*
X134919919Y-81613561D01*
X134919919Y-81613561D02*
X134767538Y-81613561D01*
X134767538Y-81613561D02*
X134691347Y-81651657D01*
X134005633Y-81613561D02*
X134005633Y-82146895D01*
X134348490Y-81613561D02*
X134348490Y-82032609D01*
X134348490Y-82032609D02*
X134310395Y-82108800D01*
X134310395Y-82108800D02*
X134234205Y-82146895D01*
X134234205Y-82146895D02*
X134119919Y-82146895D01*
X134119919Y-82146895D02*
X134043728Y-82108800D01*
X134043728Y-82108800D02*
X134005633Y-82070704D01*
X149608020Y-52907120D02*
X149341353Y-53707120D01*
X149341353Y-53707120D02*
X149074687Y-52907120D01*
X148808020Y-53707120D02*
X148808020Y-52907120D01*
X148808020Y-52907120D02*
X148617544Y-52907120D01*
X148617544Y-52907120D02*
X148503258Y-52945215D01*
X148503258Y-52945215D02*
X148427068Y-53021405D01*
X148427068Y-53021405D02*
X148388973Y-53097596D01*
X148388973Y-53097596D02*
X148350877Y-53249977D01*
X148350877Y-53249977D02*
X148350877Y-53364263D01*
X148350877Y-53364263D02*
X148388973Y-53516644D01*
X148388973Y-53516644D02*
X148427068Y-53592834D01*
X148427068Y-53592834D02*
X148503258Y-53669025D01*
X148503258Y-53669025D02*
X148617544Y-53707120D01*
X148617544Y-53707120D02*
X148808020Y-53707120D01*
X148008020Y-53707120D02*
X148008020Y-52907120D01*
X148008020Y-52907120D02*
X147817544Y-52907120D01*
X147817544Y-52907120D02*
X147703258Y-52945215D01*
X147703258Y-52945215D02*
X147627068Y-53021405D01*
X147627068Y-53021405D02*
X147588973Y-53097596D01*
X147588973Y-53097596D02*
X147550877Y-53249977D01*
X147550877Y-53249977D02*
X147550877Y-53364263D01*
X147550877Y-53364263D02*
X147588973Y-53516644D01*
X147588973Y-53516644D02*
X147627068Y-53592834D01*
X147627068Y-53592834D02*
X147703258Y-53669025D01*
X147703258Y-53669025D02*
X147817544Y-53707120D01*
X147817544Y-53707120D02*
X148008020Y-53707120D01*
X149493734Y-54995075D02*
X149493734Y-54195075D01*
X149493734Y-54195075D02*
X149227068Y-54766503D01*
X149227068Y-54766503D02*
X148960401Y-54195075D01*
X148960401Y-54195075D02*
X148960401Y-54995075D01*
X148427067Y-54195075D02*
X148274686Y-54195075D01*
X148274686Y-54195075D02*
X148198496Y-54233170D01*
X148198496Y-54233170D02*
X148122305Y-54309360D01*
X148122305Y-54309360D02*
X148084210Y-54461741D01*
X148084210Y-54461741D02*
X148084210Y-54728408D01*
X148084210Y-54728408D02*
X148122305Y-54880789D01*
X148122305Y-54880789D02*
X148198496Y-54956980D01*
X148198496Y-54956980D02*
X148274686Y-54995075D01*
X148274686Y-54995075D02*
X148427067Y-54995075D01*
X148427067Y-54995075D02*
X148503258Y-54956980D01*
X148503258Y-54956980D02*
X148579448Y-54880789D01*
X148579448Y-54880789D02*
X148617544Y-54728408D01*
X148617544Y-54728408D02*
X148617544Y-54461741D01*
X148617544Y-54461741D02*
X148579448Y-54309360D01*
X148579448Y-54309360D02*
X148503258Y-54233170D01*
X148503258Y-54233170D02*
X148427067Y-54195075D01*
X147779449Y-54956980D02*
X147665163Y-54995075D01*
X147665163Y-54995075D02*
X147474687Y-54995075D01*
X147474687Y-54995075D02*
X147398496Y-54956980D01*
X147398496Y-54956980D02*
X147360401Y-54918884D01*
X147360401Y-54918884D02*
X147322306Y-54842694D01*
X147322306Y-54842694D02*
X147322306Y-54766503D01*
X147322306Y-54766503D02*
X147360401Y-54690313D01*
X147360401Y-54690313D02*
X147398496Y-54652218D01*
X147398496Y-54652218D02*
X147474687Y-54614122D01*
X147474687Y-54614122D02*
X147627068Y-54576027D01*
X147627068Y-54576027D02*
X147703258Y-54537932D01*
X147703258Y-54537932D02*
X147741353Y-54499837D01*
X147741353Y-54499837D02*
X147779449Y-54423646D01*
X147779449Y-54423646D02*
X147779449Y-54347456D01*
X147779449Y-54347456D02*
X147741353Y-54271265D01*
X147741353Y-54271265D02*
X147703258Y-54233170D01*
X147703258Y-54233170D02*
X147627068Y-54195075D01*
X147627068Y-54195075D02*
X147436591Y-54195075D01*
X147436591Y-54195075D02*
X147322306Y-54233170D01*
X146979448Y-54995075D02*
X146979448Y-54195075D01*
X149493734Y-56283030D02*
X149493734Y-55483030D01*
X149493734Y-55483030D02*
X149227068Y-56054458D01*
X149227068Y-56054458D02*
X148960401Y-55483030D01*
X148960401Y-55483030D02*
X148960401Y-56283030D01*
X148579448Y-56283030D02*
X148579448Y-55483030D01*
X148236592Y-56244935D02*
X148122306Y-56283030D01*
X148122306Y-56283030D02*
X147931830Y-56283030D01*
X147931830Y-56283030D02*
X147855639Y-56244935D01*
X147855639Y-56244935D02*
X147817544Y-56206839D01*
X147817544Y-56206839D02*
X147779449Y-56130649D01*
X147779449Y-56130649D02*
X147779449Y-56054458D01*
X147779449Y-56054458D02*
X147817544Y-55978268D01*
X147817544Y-55978268D02*
X147855639Y-55940173D01*
X147855639Y-55940173D02*
X147931830Y-55902077D01*
X147931830Y-55902077D02*
X148084211Y-55863982D01*
X148084211Y-55863982D02*
X148160401Y-55825887D01*
X148160401Y-55825887D02*
X148198496Y-55787792D01*
X148198496Y-55787792D02*
X148236592Y-55711601D01*
X148236592Y-55711601D02*
X148236592Y-55635411D01*
X148236592Y-55635411D02*
X148198496Y-55559220D01*
X148198496Y-55559220D02*
X148160401Y-55521125D01*
X148160401Y-55521125D02*
X148084211Y-55483030D01*
X148084211Y-55483030D02*
X147893734Y-55483030D01*
X147893734Y-55483030D02*
X147779449Y-55521125D01*
X147284210Y-55483030D02*
X147131829Y-55483030D01*
X147131829Y-55483030D02*
X147055639Y-55521125D01*
X147055639Y-55521125D02*
X146979448Y-55597315D01*
X146979448Y-55597315D02*
X146941353Y-55749696D01*
X146941353Y-55749696D02*
X146941353Y-56016363D01*
X146941353Y-56016363D02*
X146979448Y-56168744D01*
X146979448Y-56168744D02*
X147055639Y-56244935D01*
X147055639Y-56244935D02*
X147131829Y-56283030D01*
X147131829Y-56283030D02*
X147284210Y-56283030D01*
X147284210Y-56283030D02*
X147360401Y-56244935D01*
X147360401Y-56244935D02*
X147436591Y-56168744D01*
X147436591Y-56168744D02*
X147474687Y-56016363D01*
X147474687Y-56016363D02*
X147474687Y-55749696D01*
X147474687Y-55749696D02*
X147436591Y-55597315D01*
X147436591Y-55597315D02*
X147360401Y-55521125D01*
X147360401Y-55521125D02*
X147284210Y-55483030D01*
X146027068Y-55444935D02*
X146712782Y-56473506D01*
X145798497Y-56244935D02*
X145684211Y-56283030D01*
X145684211Y-56283030D02*
X145493735Y-56283030D01*
X145493735Y-56283030D02*
X145417544Y-56244935D01*
X145417544Y-56244935D02*
X145379449Y-56206839D01*
X145379449Y-56206839D02*
X145341354Y-56130649D01*
X145341354Y-56130649D02*
X145341354Y-56054458D01*
X145341354Y-56054458D02*
X145379449Y-55978268D01*
X145379449Y-55978268D02*
X145417544Y-55940173D01*
X145417544Y-55940173D02*
X145493735Y-55902077D01*
X145493735Y-55902077D02*
X145646116Y-55863982D01*
X145646116Y-55863982D02*
X145722306Y-55825887D01*
X145722306Y-55825887D02*
X145760401Y-55787792D01*
X145760401Y-55787792D02*
X145798497Y-55711601D01*
X145798497Y-55711601D02*
X145798497Y-55635411D01*
X145798497Y-55635411D02*
X145760401Y-55559220D01*
X145760401Y-55559220D02*
X145722306Y-55521125D01*
X145722306Y-55521125D02*
X145646116Y-55483030D01*
X145646116Y-55483030D02*
X145455639Y-55483030D01*
X145455639Y-55483030D02*
X145341354Y-55521125D01*
X144998496Y-56283030D02*
X144998496Y-55483030D01*
X144998496Y-55483030D02*
X144808020Y-55483030D01*
X144808020Y-55483030D02*
X144693734Y-55521125D01*
X144693734Y-55521125D02*
X144617544Y-55597315D01*
X144617544Y-55597315D02*
X144579449Y-55673506D01*
X144579449Y-55673506D02*
X144541353Y-55825887D01*
X144541353Y-55825887D02*
X144541353Y-55940173D01*
X144541353Y-55940173D02*
X144579449Y-56092554D01*
X144579449Y-56092554D02*
X144617544Y-56168744D01*
X144617544Y-56168744D02*
X144693734Y-56244935D01*
X144693734Y-56244935D02*
X144808020Y-56283030D01*
X144808020Y-56283030D02*
X144998496Y-56283030D01*
X144236592Y-56054458D02*
X143855639Y-56054458D01*
X144312782Y-56283030D02*
X144046115Y-55483030D01*
X144046115Y-55483030D02*
X143779449Y-56283030D01*
X149074687Y-56809080D02*
X149150877Y-56770985D01*
X149150877Y-56770985D02*
X149265163Y-56770985D01*
X149265163Y-56770985D02*
X149379449Y-56809080D01*
X149379449Y-56809080D02*
X149455639Y-56885270D01*
X149455639Y-56885270D02*
X149493734Y-56961461D01*
X149493734Y-56961461D02*
X149531830Y-57113842D01*
X149531830Y-57113842D02*
X149531830Y-57228128D01*
X149531830Y-57228128D02*
X149493734Y-57380509D01*
X149493734Y-57380509D02*
X149455639Y-57456699D01*
X149455639Y-57456699D02*
X149379449Y-57532890D01*
X149379449Y-57532890D02*
X149265163Y-57570985D01*
X149265163Y-57570985D02*
X149188972Y-57570985D01*
X149188972Y-57570985D02*
X149074687Y-57532890D01*
X149074687Y-57532890D02*
X149036591Y-57494794D01*
X149036591Y-57494794D02*
X149036591Y-57228128D01*
X149036591Y-57228128D02*
X149188972Y-57228128D01*
X148693734Y-57570985D02*
X148693734Y-56770985D01*
X148693734Y-56770985D02*
X148236591Y-57570985D01*
X148236591Y-57570985D02*
X148236591Y-56770985D01*
X147855639Y-57570985D02*
X147855639Y-56770985D01*
X147855639Y-56770985D02*
X147665163Y-56770985D01*
X147665163Y-56770985D02*
X147550877Y-56809080D01*
X147550877Y-56809080D02*
X147474687Y-56885270D01*
X147474687Y-56885270D02*
X147436592Y-56961461D01*
X147436592Y-56961461D02*
X147398496Y-57113842D01*
X147398496Y-57113842D02*
X147398496Y-57228128D01*
X147398496Y-57228128D02*
X147436592Y-57380509D01*
X147436592Y-57380509D02*
X147474687Y-57456699D01*
X147474687Y-57456699D02*
X147550877Y-57532890D01*
X147550877Y-57532890D02*
X147665163Y-57570985D01*
X147665163Y-57570985D02*
X147855639Y-57570985D01*
X149531830Y-58820845D02*
X149417544Y-58858940D01*
X149417544Y-58858940D02*
X149227068Y-58858940D01*
X149227068Y-58858940D02*
X149150877Y-58820845D01*
X149150877Y-58820845D02*
X149112782Y-58782749D01*
X149112782Y-58782749D02*
X149074687Y-58706559D01*
X149074687Y-58706559D02*
X149074687Y-58630368D01*
X149074687Y-58630368D02*
X149112782Y-58554178D01*
X149112782Y-58554178D02*
X149150877Y-58516083D01*
X149150877Y-58516083D02*
X149227068Y-58477987D01*
X149227068Y-58477987D02*
X149379449Y-58439892D01*
X149379449Y-58439892D02*
X149455639Y-58401797D01*
X149455639Y-58401797D02*
X149493734Y-58363702D01*
X149493734Y-58363702D02*
X149531830Y-58287511D01*
X149531830Y-58287511D02*
X149531830Y-58211321D01*
X149531830Y-58211321D02*
X149493734Y-58135130D01*
X149493734Y-58135130D02*
X149455639Y-58097035D01*
X149455639Y-58097035D02*
X149379449Y-58058940D01*
X149379449Y-58058940D02*
X149188972Y-58058940D01*
X149188972Y-58058940D02*
X149074687Y-58097035D01*
X148274686Y-58782749D02*
X148312782Y-58820845D01*
X148312782Y-58820845D02*
X148427067Y-58858940D01*
X148427067Y-58858940D02*
X148503258Y-58858940D01*
X148503258Y-58858940D02*
X148617544Y-58820845D01*
X148617544Y-58820845D02*
X148693734Y-58744654D01*
X148693734Y-58744654D02*
X148731829Y-58668464D01*
X148731829Y-58668464D02*
X148769925Y-58516083D01*
X148769925Y-58516083D02*
X148769925Y-58401797D01*
X148769925Y-58401797D02*
X148731829Y-58249416D01*
X148731829Y-58249416D02*
X148693734Y-58173225D01*
X148693734Y-58173225D02*
X148617544Y-58097035D01*
X148617544Y-58097035D02*
X148503258Y-58058940D01*
X148503258Y-58058940D02*
X148427067Y-58058940D01*
X148427067Y-58058940D02*
X148312782Y-58097035D01*
X148312782Y-58097035D02*
X148274686Y-58135130D01*
X147931829Y-58858940D02*
X147931829Y-58058940D01*
X147474686Y-58858940D02*
X147817544Y-58401797D01*
X147474686Y-58058940D02*
X147931829Y-58516083D01*
X146560401Y-58020845D02*
X147246115Y-59049416D01*
X146331830Y-58820845D02*
X146217544Y-58858940D01*
X146217544Y-58858940D02*
X146027068Y-58858940D01*
X146027068Y-58858940D02*
X145950877Y-58820845D01*
X145950877Y-58820845D02*
X145912782Y-58782749D01*
X145912782Y-58782749D02*
X145874687Y-58706559D01*
X145874687Y-58706559D02*
X145874687Y-58630368D01*
X145874687Y-58630368D02*
X145912782Y-58554178D01*
X145912782Y-58554178D02*
X145950877Y-58516083D01*
X145950877Y-58516083D02*
X146027068Y-58477987D01*
X146027068Y-58477987D02*
X146179449Y-58439892D01*
X146179449Y-58439892D02*
X146255639Y-58401797D01*
X146255639Y-58401797D02*
X146293734Y-58363702D01*
X146293734Y-58363702D02*
X146331830Y-58287511D01*
X146331830Y-58287511D02*
X146331830Y-58211321D01*
X146331830Y-58211321D02*
X146293734Y-58135130D01*
X146293734Y-58135130D02*
X146255639Y-58097035D01*
X146255639Y-58097035D02*
X146179449Y-58058940D01*
X146179449Y-58058940D02*
X145988972Y-58058940D01*
X145988972Y-58058940D02*
X145874687Y-58097035D01*
X145074686Y-58782749D02*
X145112782Y-58820845D01*
X145112782Y-58820845D02*
X145227067Y-58858940D01*
X145227067Y-58858940D02*
X145303258Y-58858940D01*
X145303258Y-58858940D02*
X145417544Y-58820845D01*
X145417544Y-58820845D02*
X145493734Y-58744654D01*
X145493734Y-58744654D02*
X145531829Y-58668464D01*
X145531829Y-58668464D02*
X145569925Y-58516083D01*
X145569925Y-58516083D02*
X145569925Y-58401797D01*
X145569925Y-58401797D02*
X145531829Y-58249416D01*
X145531829Y-58249416D02*
X145493734Y-58173225D01*
X145493734Y-58173225D02*
X145417544Y-58097035D01*
X145417544Y-58097035D02*
X145303258Y-58058940D01*
X145303258Y-58058940D02*
X145227067Y-58058940D01*
X145227067Y-58058940D02*
X145112782Y-58097035D01*
X145112782Y-58097035D02*
X145074686Y-58135130D01*
X144350877Y-58858940D02*
X144731829Y-58858940D01*
X144731829Y-58858940D02*
X144731829Y-58058940D01*
X149036591Y-60070704D02*
X149074687Y-60108800D01*
X149074687Y-60108800D02*
X149188972Y-60146895D01*
X149188972Y-60146895D02*
X149265163Y-60146895D01*
X149265163Y-60146895D02*
X149379449Y-60108800D01*
X149379449Y-60108800D02*
X149455639Y-60032609D01*
X149455639Y-60032609D02*
X149493734Y-59956419D01*
X149493734Y-59956419D02*
X149531830Y-59804038D01*
X149531830Y-59804038D02*
X149531830Y-59689752D01*
X149531830Y-59689752D02*
X149493734Y-59537371D01*
X149493734Y-59537371D02*
X149455639Y-59461180D01*
X149455639Y-59461180D02*
X149379449Y-59384990D01*
X149379449Y-59384990D02*
X149265163Y-59346895D01*
X149265163Y-59346895D02*
X149188972Y-59346895D01*
X149188972Y-59346895D02*
X149074687Y-59384990D01*
X149074687Y-59384990D02*
X149036591Y-59423085D01*
X148731830Y-60108800D02*
X148617544Y-60146895D01*
X148617544Y-60146895D02*
X148427068Y-60146895D01*
X148427068Y-60146895D02*
X148350877Y-60108800D01*
X148350877Y-60108800D02*
X148312782Y-60070704D01*
X148312782Y-60070704D02*
X148274687Y-59994514D01*
X148274687Y-59994514D02*
X148274687Y-59918323D01*
X148274687Y-59918323D02*
X148312782Y-59842133D01*
X148312782Y-59842133D02*
X148350877Y-59804038D01*
X148350877Y-59804038D02*
X148427068Y-59765942D01*
X148427068Y-59765942D02*
X148579449Y-59727847D01*
X148579449Y-59727847D02*
X148655639Y-59689752D01*
X148655639Y-59689752D02*
X148693734Y-59651657D01*
X148693734Y-59651657D02*
X148731830Y-59575466D01*
X148731830Y-59575466D02*
X148731830Y-59499276D01*
X148731830Y-59499276D02*
X148693734Y-59423085D01*
X148693734Y-59423085D02*
X148655639Y-59384990D01*
X148655639Y-59384990D02*
X148579449Y-59346895D01*
X148579449Y-59346895D02*
X148388972Y-59346895D01*
X148388972Y-59346895D02*
X148274687Y-59384990D01*
X147360401Y-59308800D02*
X148046115Y-60337371D01*
X147093734Y-60146895D02*
X147093734Y-59346895D01*
X147093734Y-59346895D02*
X146788972Y-59346895D01*
X146788972Y-59346895D02*
X146712782Y-59384990D01*
X146712782Y-59384990D02*
X146674687Y-59423085D01*
X146674687Y-59423085D02*
X146636591Y-59499276D01*
X146636591Y-59499276D02*
X146636591Y-59613561D01*
X146636591Y-59613561D02*
X146674687Y-59689752D01*
X146674687Y-59689752D02*
X146712782Y-59727847D01*
X146712782Y-59727847D02*
X146788972Y-59765942D01*
X146788972Y-59765942D02*
X147093734Y-59765942D01*
X146369925Y-59346895D02*
X146179449Y-60146895D01*
X146179449Y-60146895D02*
X146027068Y-59575466D01*
X146027068Y-59575466D02*
X145874687Y-60146895D01*
X145874687Y-60146895D02*
X145684211Y-59346895D01*
X145379448Y-60146895D02*
X145379448Y-59346895D01*
X145379448Y-59346895D02*
X145112782Y-59918323D01*
X145112782Y-59918323D02*
X144846115Y-59346895D01*
X144846115Y-59346895D02*
X144846115Y-60146895D01*
X144236591Y-60451657D02*
X144274686Y-60413561D01*
X144274686Y-60413561D02*
X144350877Y-60299276D01*
X144350877Y-60299276D02*
X144388972Y-60223085D01*
X144388972Y-60223085D02*
X144427067Y-60108800D01*
X144427067Y-60108800D02*
X144465162Y-59918323D01*
X144465162Y-59918323D02*
X144465162Y-59765942D01*
X144465162Y-59765942D02*
X144427067Y-59575466D01*
X144427067Y-59575466D02*
X144388972Y-59461180D01*
X144388972Y-59461180D02*
X144350877Y-59384990D01*
X144350877Y-59384990D02*
X144274686Y-59270704D01*
X144274686Y-59270704D02*
X144236591Y-59232609D01*
X143931829Y-60146895D02*
X143931829Y-59346895D01*
X143550877Y-60146895D02*
X143550877Y-59346895D01*
X143550877Y-59346895D02*
X143093734Y-60146895D01*
X143093734Y-60146895D02*
X143093734Y-59346895D01*
X142788973Y-60451657D02*
X142750878Y-60413561D01*
X142750878Y-60413561D02*
X142674687Y-60299276D01*
X142674687Y-60299276D02*
X142636592Y-60223085D01*
X142636592Y-60223085D02*
X142598497Y-60108800D01*
X142598497Y-60108800D02*
X142560401Y-59918323D01*
X142560401Y-59918323D02*
X142560401Y-59765942D01*
X142560401Y-59765942D02*
X142598497Y-59575466D01*
X142598497Y-59575466D02*
X142636592Y-59461180D01*
X142636592Y-59461180D02*
X142674687Y-59384990D01*
X142674687Y-59384990D02*
X142750878Y-59270704D01*
X142750878Y-59270704D02*
X142788973Y-59232609D01*
D11*
X136166666Y-72359580D02*
X136214285Y-72407200D01*
X136214285Y-72407200D02*
X136357142Y-72454819D01*
X136357142Y-72454819D02*
X136452380Y-72454819D01*
X136452380Y-72454819D02*
X136595237Y-72407200D01*
X136595237Y-72407200D02*
X136690475Y-72311961D01*
X136690475Y-72311961D02*
X136738094Y-72216723D01*
X136738094Y-72216723D02*
X136785713Y-72026247D01*
X136785713Y-72026247D02*
X136785713Y-71883390D01*
X136785713Y-71883390D02*
X136738094Y-71692914D01*
X136738094Y-71692914D02*
X136690475Y-71597676D01*
X136690475Y-71597676D02*
X136595237Y-71502438D01*
X136595237Y-71502438D02*
X136452380Y-71454819D01*
X136452380Y-71454819D02*
X136357142Y-71454819D01*
X136357142Y-71454819D02*
X136214285Y-71502438D01*
X136214285Y-71502438D02*
X136166666Y-71550057D01*
X135595237Y-71883390D02*
X135690475Y-71835771D01*
X135690475Y-71835771D02*
X135738094Y-71788152D01*
X135738094Y-71788152D02*
X135785713Y-71692914D01*
X135785713Y-71692914D02*
X135785713Y-71645295D01*
X135785713Y-71645295D02*
X135738094Y-71550057D01*
X135738094Y-71550057D02*
X135690475Y-71502438D01*
X135690475Y-71502438D02*
X135595237Y-71454819D01*
X135595237Y-71454819D02*
X135404761Y-71454819D01*
X135404761Y-71454819D02*
X135309523Y-71502438D01*
X135309523Y-71502438D02*
X135261904Y-71550057D01*
X135261904Y-71550057D02*
X135214285Y-71645295D01*
X135214285Y-71645295D02*
X135214285Y-71692914D01*
X135214285Y-71692914D02*
X135261904Y-71788152D01*
X135261904Y-71788152D02*
X135309523Y-71835771D01*
X135309523Y-71835771D02*
X135404761Y-71883390D01*
X135404761Y-71883390D02*
X135595237Y-71883390D01*
X135595237Y-71883390D02*
X135690475Y-71931009D01*
X135690475Y-71931009D02*
X135738094Y-71978628D01*
X135738094Y-71978628D02*
X135785713Y-72073866D01*
X135785713Y-72073866D02*
X135785713Y-72264342D01*
X135785713Y-72264342D02*
X135738094Y-72359580D01*
X135738094Y-72359580D02*
X135690475Y-72407200D01*
X135690475Y-72407200D02*
X135595237Y-72454819D01*
X135595237Y-72454819D02*
X135404761Y-72454819D01*
X135404761Y-72454819D02*
X135309523Y-72407200D01*
X135309523Y-72407200D02*
X135261904Y-72359580D01*
X135261904Y-72359580D02*
X135214285Y-72264342D01*
X135214285Y-72264342D02*
X135214285Y-72073866D01*
X135214285Y-72073866D02*
X135261904Y-71978628D01*
X135261904Y-71978628D02*
X135309523Y-71931009D01*
X135309523Y-71931009D02*
X135404761Y-71883390D01*
D12*
X135461668Y-66324318D02*
X135885002Y-65719556D01*
X136187383Y-66324318D02*
X136187383Y-65054318D01*
X136187383Y-65054318D02*
X135703573Y-65054318D01*
X135703573Y-65054318D02*
X135582621Y-65114794D01*
X135582621Y-65114794D02*
X135522144Y-65175270D01*
X135522144Y-65175270D02*
X135461668Y-65296222D01*
X135461668Y-65296222D02*
X135461668Y-65477651D01*
X135461668Y-65477651D02*
X135522144Y-65598603D01*
X135522144Y-65598603D02*
X135582621Y-65659080D01*
X135582621Y-65659080D02*
X135703573Y-65719556D01*
X135703573Y-65719556D02*
X136187383Y-65719556D01*
X134373097Y-65477651D02*
X134373097Y-66324318D01*
X134675478Y-64993842D02*
X134977859Y-65900984D01*
X134977859Y-65900984D02*
X134191668Y-65900984D01*
D11*
X142971868Y-70670730D02*
X142466792Y-71175806D01*
X142466792Y-71175806D02*
X142399448Y-71310493D01*
X142399448Y-71310493D02*
X142399448Y-71445180D01*
X142399448Y-71445180D02*
X142466792Y-71579867D01*
X142466792Y-71579867D02*
X142534135Y-71647211D01*
X142332105Y-70030966D02*
X142466792Y-70165653D01*
X142466792Y-70165653D02*
X142500463Y-70266669D01*
X142500463Y-70266669D02*
X142500463Y-70334012D01*
X142500463Y-70334012D02*
X142466792Y-70502371D01*
X142466792Y-70502371D02*
X142365776Y-70670730D01*
X142365776Y-70670730D02*
X142096402Y-70940104D01*
X142096402Y-70940104D02*
X141995387Y-70973775D01*
X141995387Y-70973775D02*
X141928044Y-70973775D01*
X141928044Y-70973775D02*
X141827028Y-70940104D01*
X141827028Y-70940104D02*
X141692341Y-70805417D01*
X141692341Y-70805417D02*
X141658670Y-70704401D01*
X141658670Y-70704401D02*
X141658670Y-70637058D01*
X141658670Y-70637058D02*
X141692341Y-70536043D01*
X141692341Y-70536043D02*
X141860700Y-70367684D01*
X141860700Y-70367684D02*
X141961715Y-70334012D01*
X141961715Y-70334012D02*
X142029059Y-70334012D01*
X142029059Y-70334012D02*
X142130074Y-70367684D01*
X142130074Y-70367684D02*
X142264761Y-70502371D01*
X142264761Y-70502371D02*
X142298433Y-70603386D01*
X142298433Y-70603386D02*
X142298433Y-70670730D01*
X142298433Y-70670730D02*
X142264761Y-70771745D01*
X132408398Y-69428373D02*
X132475742Y-69428373D01*
X132475742Y-69428373D02*
X132610429Y-69361029D01*
X132610429Y-69361029D02*
X132677772Y-69293686D01*
X132677772Y-69293686D02*
X132745116Y-69158999D01*
X132745116Y-69158999D02*
X132745116Y-69024312D01*
X132745116Y-69024312D02*
X132711444Y-68923297D01*
X132711444Y-68923297D02*
X132610429Y-68754938D01*
X132610429Y-68754938D02*
X132509414Y-68653923D01*
X132509414Y-68653923D02*
X132341055Y-68552907D01*
X132341055Y-68552907D02*
X132240040Y-68519236D01*
X132240040Y-68519236D02*
X132105353Y-68519236D01*
X132105353Y-68519236D02*
X131970666Y-68586579D01*
X131970666Y-68586579D02*
X131903322Y-68653923D01*
X131903322Y-68653923D02*
X131835979Y-68788610D01*
X131835979Y-68788610D02*
X131835979Y-68855953D01*
X131802307Y-70169151D02*
X132206368Y-69765090D01*
X132004337Y-69967121D02*
X131297231Y-69260014D01*
X131297231Y-69260014D02*
X131465589Y-69293686D01*
X131465589Y-69293686D02*
X131600276Y-69293686D01*
X131600276Y-69293686D02*
X131701292Y-69260014D01*
X131128872Y-70842587D02*
X131532933Y-70438526D01*
X131330902Y-70640556D02*
X130623795Y-69933449D01*
X130623795Y-69933449D02*
X130792154Y-69967121D01*
X130792154Y-69967121D02*
X130926841Y-69967121D01*
X130926841Y-69967121D02*
X131027856Y-69933449D01*
X141316515Y-68724889D02*
X140811439Y-69229965D01*
X140811439Y-69229965D02*
X140744095Y-69364652D01*
X140744095Y-69364652D02*
X140744095Y-69499339D01*
X140744095Y-69499339D02*
X140811439Y-69634026D01*
X140811439Y-69634026D02*
X140878782Y-69701370D01*
X141047141Y-68455515D02*
X140575736Y-67984110D01*
X140575736Y-67984110D02*
X140171675Y-68994263D01*
D13*
%TO.C,J6*%
X139841850Y-71985841D02*
X141185353Y-70642338D01*
X141185353Y-70642338D02*
X142528856Y-71985841D01*
X141185353Y-73329344D02*
X139841850Y-71985841D01*
X142528856Y-71985841D02*
X141185353Y-73329344D01*
%TO.C,J3*%
X129906497Y-73250000D02*
X131250000Y-71906497D01*
X131250000Y-71906497D02*
X132593503Y-73250000D01*
X131250000Y-74593503D02*
X129906497Y-73250000D01*
X132593503Y-73250000D02*
X131250000Y-74593503D01*
%TO.C,C11*%
X129243258Y-71045544D02*
X128873792Y-71415007D01*
X130282704Y-72084993D02*
X129913238Y-72454456D01*
%TO.C,J7*%
X138186497Y-70040000D02*
X139530000Y-68696497D01*
X139530000Y-68696497D02*
X140873503Y-70040000D01*
X139530000Y-71383503D02*
X138186497Y-70040000D01*
X140873503Y-70040000D02*
X139530000Y-71383503D01*
D14*
%TO.C,REF\u002A\u002A*%
X126105406Y-52024949D02*
X126131127Y-52040647D01*
X126157778Y-52062227D01*
X126157778Y-52709684D01*
X126131127Y-52731264D01*
X126099767Y-52748739D01*
X126063966Y-52749575D01*
X126032528Y-52729082D01*
X126028652Y-52724416D01*
X126023186Y-52714949D01*
X126018979Y-52701267D01*
X126015867Y-52680748D01*
X126013687Y-52650768D01*
X126012276Y-52608704D01*
X126011471Y-52551932D01*
X126011107Y-52477830D01*
X126011022Y-52383773D01*
X126011022Y-52062227D01*
X126037673Y-52040647D01*
X126061386Y-52025877D01*
X126084400Y-52019067D01*
X126105406Y-52024949D01*
G36*
X126105406Y-52024949D02*
G01*
X126131127Y-52040647D01*
X126157778Y-52062227D01*
X126157778Y-52709684D01*
X126131127Y-52731264D01*
X126099767Y-52748739D01*
X126063966Y-52749575D01*
X126032528Y-52729082D01*
X126028652Y-52724416D01*
X126023186Y-52714949D01*
X126018979Y-52701267D01*
X126015867Y-52680748D01*
X126013687Y-52650768D01*
X126012276Y-52608704D01*
X126011471Y-52551932D01*
X126011107Y-52477830D01*
X126011022Y-52383773D01*
X126011022Y-52062227D01*
X126037673Y-52040647D01*
X126061386Y-52025877D01*
X126084400Y-52019067D01*
X126105406Y-52024949D01*
G37*
X133236137Y-52023463D02*
X133270291Y-52046776D01*
X133298000Y-52074485D01*
X133298000Y-52387537D01*
X133297959Y-52471567D01*
X133297701Y-52545789D01*
X133297030Y-52602541D01*
X133295752Y-52644512D01*
X133293673Y-52674389D01*
X133290599Y-52694861D01*
X133286334Y-52708614D01*
X133280684Y-52718337D01*
X133273455Y-52726717D01*
X133241991Y-52748181D01*
X133206826Y-52749947D01*
X133173822Y-52730267D01*
X133168516Y-52724398D01*
X133163066Y-52715314D01*
X133158900Y-52701973D01*
X133155846Y-52681757D01*
X133153732Y-52652049D01*
X133152386Y-52610232D01*
X133151638Y-52553689D01*
X133151314Y-52479802D01*
X133151245Y-52385956D01*
X133151284Y-52310294D01*
X133151539Y-52232385D01*
X133152183Y-52172375D01*
X133153387Y-52127648D01*
X133155324Y-52095585D01*
X133158164Y-52073571D01*
X133162079Y-52058987D01*
X133167242Y-52049218D01*
X133173822Y-52041645D01*
X133203006Y-52022623D01*
X133236137Y-52023463D01*
G36*
X133236137Y-52023463D02*
G01*
X133270291Y-52046776D01*
X133298000Y-52074485D01*
X133298000Y-52387537D01*
X133297959Y-52471567D01*
X133297701Y-52545789D01*
X133297030Y-52602541D01*
X133295752Y-52644512D01*
X133293673Y-52674389D01*
X133290599Y-52694861D01*
X133286334Y-52708614D01*
X133280684Y-52718337D01*
X133273455Y-52726717D01*
X133241991Y-52748181D01*
X133206826Y-52749947D01*
X133173822Y-52730267D01*
X133168516Y-52724398D01*
X133163066Y-52715314D01*
X133158900Y-52701973D01*
X133155846Y-52681757D01*
X133153732Y-52652049D01*
X133152386Y-52610232D01*
X133151638Y-52553689D01*
X133151314Y-52479802D01*
X133151245Y-52385956D01*
X133151284Y-52310294D01*
X133151539Y-52232385D01*
X133152183Y-52172375D01*
X133153387Y-52127648D01*
X133155324Y-52095585D01*
X133158164Y-52073571D01*
X133162079Y-52058987D01*
X133167242Y-52049218D01*
X133173822Y-52041645D01*
X133203006Y-52022623D01*
X133236137Y-52023463D01*
G37*
X132704562Y-46782850D02*
X132787313Y-46810053D01*
X132862406Y-46855484D01*
X132934298Y-46921302D01*
X132972846Y-46965567D01*
X133012256Y-47023961D01*
X133037446Y-47084586D01*
X133050861Y-47153865D01*
X133054948Y-47238222D01*
X133054669Y-47284307D01*
X133052460Y-47325450D01*
X133046894Y-47357582D01*
X133036586Y-47388122D01*
X133020148Y-47424489D01*
X133006200Y-47451728D01*
X132947665Y-47537429D01*
X132875619Y-47606617D01*
X132791947Y-47657741D01*
X132698531Y-47689250D01*
X132665434Y-47696225D01*
X132624960Y-47703094D01*
X132591999Y-47704919D01*
X132557698Y-47701947D01*
X132513200Y-47694426D01*
X132461934Y-47682002D01*
X132371434Y-47644112D01*
X132292345Y-47589836D01*
X132226528Y-47521770D01*
X132175840Y-47442511D01*
X132142140Y-47354654D01*
X132127286Y-47260795D01*
X132133136Y-47163530D01*
X132159399Y-47067220D01*
X132204418Y-46978494D01*
X132265373Y-46903419D01*
X132340184Y-46843641D01*
X132426768Y-46800809D01*
X132523043Y-46776571D01*
X132626928Y-46772576D01*
X132704562Y-46782850D01*
G36*
X132704562Y-46782850D02*
G01*
X132787313Y-46810053D01*
X132862406Y-46855484D01*
X132934298Y-46921302D01*
X132972846Y-46965567D01*
X133012256Y-47023961D01*
X133037446Y-47084586D01*
X133050861Y-47153865D01*
X133054948Y-47238222D01*
X133054669Y-47284307D01*
X133052460Y-47325450D01*
X133046894Y-47357582D01*
X133036586Y-47388122D01*
X133020148Y-47424489D01*
X133006200Y-47451728D01*
X132947665Y-47537429D01*
X132875619Y-47606617D01*
X132791947Y-47657741D01*
X132698531Y-47689250D01*
X132665434Y-47696225D01*
X132624960Y-47703094D01*
X132591999Y-47704919D01*
X132557698Y-47701947D01*
X132513200Y-47694426D01*
X132461934Y-47682002D01*
X132371434Y-47644112D01*
X132292345Y-47589836D01*
X132226528Y-47521770D01*
X132175840Y-47442511D01*
X132142140Y-47354654D01*
X132127286Y-47260795D01*
X132133136Y-47163530D01*
X132159399Y-47067220D01*
X132204418Y-46978494D01*
X132265373Y-46903419D01*
X132340184Y-46843641D01*
X132426768Y-46800809D01*
X132523043Y-46776571D01*
X132626928Y-46772576D01*
X132704562Y-46782850D01*
G37*
X125405767Y-52019068D02*
X125499890Y-52019158D01*
X125574405Y-52019498D01*
X125631811Y-52020239D01*
X125674611Y-52021535D01*
X125705304Y-52023537D01*
X125726391Y-52026396D01*
X125740373Y-52030266D01*
X125749750Y-52035298D01*
X125757022Y-52041645D01*
X125775828Y-52074362D01*
X125777275Y-52111939D01*
X125760917Y-52145178D01*
X125759557Y-52146631D01*
X125748354Y-52154992D01*
X125731252Y-52160547D01*
X125704082Y-52163840D01*
X125662678Y-52165418D01*
X125602873Y-52165822D01*
X125463511Y-52165822D01*
X125463511Y-52429589D01*
X125463436Y-52505417D01*
X125463028Y-52572083D01*
X125462046Y-52621867D01*
X125460250Y-52657784D01*
X125457399Y-52682850D01*
X125453253Y-52700081D01*
X125447571Y-52712492D01*
X125440114Y-52723100D01*
X125437824Y-52725906D01*
X125406646Y-52748548D01*
X125372266Y-52750112D01*
X125339334Y-52730267D01*
X125332355Y-52722191D01*
X125326883Y-52711593D01*
X125322863Y-52695749D01*
X125320072Y-52671773D01*
X125318288Y-52636774D01*
X125317289Y-52587864D01*
X125316852Y-52522154D01*
X125316756Y-52436756D01*
X125316756Y-52165822D01*
X125170820Y-52165822D01*
X125159720Y-52165821D01*
X125103202Y-52165596D01*
X125064358Y-52164457D01*
X125038965Y-52161657D01*
X125022804Y-52156450D01*
X125011652Y-52148089D01*
X125001289Y-52135826D01*
X124985441Y-52105138D01*
X124988543Y-52071358D01*
X125014187Y-52038822D01*
X125019129Y-52035105D01*
X125029338Y-52030269D01*
X125044764Y-52026506D01*
X125067886Y-52023683D01*
X125101183Y-52021670D01*
X125147137Y-52020333D01*
X125208228Y-52019542D01*
X125286935Y-52019163D01*
X125385740Y-52019067D01*
X125405767Y-52019068D01*
G36*
X125405767Y-52019068D02*
G01*
X125499890Y-52019158D01*
X125574405Y-52019498D01*
X125631811Y-52020239D01*
X125674611Y-52021535D01*
X125705304Y-52023537D01*
X125726391Y-52026396D01*
X125740373Y-52030266D01*
X125749750Y-52035298D01*
X125757022Y-52041645D01*
X125775828Y-52074362D01*
X125777275Y-52111939D01*
X125760917Y-52145178D01*
X125759557Y-52146631D01*
X125748354Y-52154992D01*
X125731252Y-52160547D01*
X125704082Y-52163840D01*
X125662678Y-52165418D01*
X125602873Y-52165822D01*
X125463511Y-52165822D01*
X125463511Y-52429589D01*
X125463436Y-52505417D01*
X125463028Y-52572083D01*
X125462046Y-52621867D01*
X125460250Y-52657784D01*
X125457399Y-52682850D01*
X125453253Y-52700081D01*
X125447571Y-52712492D01*
X125440114Y-52723100D01*
X125437824Y-52725906D01*
X125406646Y-52748548D01*
X125372266Y-52750112D01*
X125339334Y-52730267D01*
X125332355Y-52722191D01*
X125326883Y-52711593D01*
X125322863Y-52695749D01*
X125320072Y-52671773D01*
X125318288Y-52636774D01*
X125317289Y-52587864D01*
X125316852Y-52522154D01*
X125316756Y-52436756D01*
X125316756Y-52165822D01*
X125170820Y-52165822D01*
X125159720Y-52165821D01*
X125103202Y-52165596D01*
X125064358Y-52164457D01*
X125038965Y-52161657D01*
X125022804Y-52156450D01*
X125011652Y-52148089D01*
X125001289Y-52135826D01*
X124985441Y-52105138D01*
X124988543Y-52071358D01*
X125014187Y-52038822D01*
X125019129Y-52035105D01*
X125029338Y-52030269D01*
X125044764Y-52026506D01*
X125067886Y-52023683D01*
X125101183Y-52021670D01*
X125147137Y-52020333D01*
X125208228Y-52019542D01*
X125286935Y-52019163D01*
X125385740Y-52019067D01*
X125405767Y-52019068D01*
G37*
X124729734Y-52041645D02*
X124735366Y-52047835D01*
X124740456Y-52056041D01*
X124744543Y-52067817D01*
X124747721Y-52085276D01*
X124750087Y-52110530D01*
X124751738Y-52145690D01*
X124752769Y-52192869D01*
X124753277Y-52254177D01*
X124753359Y-52331727D01*
X124753109Y-52427631D01*
X124752625Y-52544000D01*
X124752557Y-52558175D01*
X124751971Y-52619937D01*
X124750648Y-52663620D01*
X124748103Y-52693001D01*
X124743848Y-52711855D01*
X124737396Y-52723959D01*
X124728262Y-52733089D01*
X124694804Y-52750506D01*
X124659856Y-52747604D01*
X124628953Y-52723100D01*
X124619944Y-52709897D01*
X124612492Y-52691361D01*
X124608124Y-52665333D01*
X124606069Y-52626787D01*
X124605556Y-52570700D01*
X124605556Y-52448045D01*
X124108845Y-52448045D01*
X124108845Y-52582871D01*
X124108772Y-52618662D01*
X124108009Y-52664992D01*
X124105833Y-52695526D01*
X124101536Y-52714557D01*
X124094412Y-52726374D01*
X124083755Y-52735271D01*
X124051504Y-52750341D01*
X124016217Y-52747673D01*
X123985486Y-52723100D01*
X123980831Y-52716845D01*
X123974895Y-52706321D01*
X123970364Y-52692391D01*
X123967048Y-52672317D01*
X123964759Y-52643360D01*
X123963308Y-52602780D01*
X123962505Y-52547840D01*
X123962162Y-52475799D01*
X123962089Y-52383920D01*
X123962089Y-52074485D01*
X123989798Y-52046776D01*
X124021177Y-52024533D01*
X124054406Y-52021844D01*
X124086267Y-52041645D01*
X124094553Y-52051415D01*
X124101965Y-52067307D01*
X124106302Y-52091275D01*
X124108338Y-52128148D01*
X124108845Y-52182756D01*
X124108845Y-52301289D01*
X124605556Y-52301289D01*
X124605556Y-52185776D01*
X124605994Y-52134078D01*
X124607958Y-52099554D01*
X124612474Y-52076978D01*
X124620567Y-52061126D01*
X124633265Y-52046776D01*
X124664643Y-52024533D01*
X124697872Y-52021844D01*
X124729734Y-52041645D01*
G36*
X124729734Y-52041645D02*
G01*
X124735366Y-52047835D01*
X124740456Y-52056041D01*
X124744543Y-52067817D01*
X124747721Y-52085276D01*
X124750087Y-52110530D01*
X124751738Y-52145690D01*
X124752769Y-52192869D01*
X124753277Y-52254177D01*
X124753359Y-52331727D01*
X124753109Y-52427631D01*
X124752625Y-52544000D01*
X124752557Y-52558175D01*
X124751971Y-52619937D01*
X124750648Y-52663620D01*
X124748103Y-52693001D01*
X124743848Y-52711855D01*
X124737396Y-52723959D01*
X124728262Y-52733089D01*
X124694804Y-52750506D01*
X124659856Y-52747604D01*
X124628953Y-52723100D01*
X124619944Y-52709897D01*
X124612492Y-52691361D01*
X124608124Y-52665333D01*
X124606069Y-52626787D01*
X124605556Y-52570700D01*
X124605556Y-52448045D01*
X124108845Y-52448045D01*
X124108845Y-52582871D01*
X124108772Y-52618662D01*
X124108009Y-52664992D01*
X124105833Y-52695526D01*
X124101536Y-52714557D01*
X124094412Y-52726374D01*
X124083755Y-52735271D01*
X124051504Y-52750341D01*
X124016217Y-52747673D01*
X123985486Y-52723100D01*
X123980831Y-52716845D01*
X123974895Y-52706321D01*
X123970364Y-52692391D01*
X123967048Y-52672317D01*
X123964759Y-52643360D01*
X123963308Y-52602780D01*
X123962505Y-52547840D01*
X123962162Y-52475799D01*
X123962089Y-52383920D01*
X123962089Y-52074485D01*
X123989798Y-52046776D01*
X124021177Y-52024533D01*
X124054406Y-52021844D01*
X124086267Y-52041645D01*
X124094553Y-52051415D01*
X124101965Y-52067307D01*
X124106302Y-52091275D01*
X124108338Y-52128148D01*
X124108845Y-52182756D01*
X124108845Y-52301289D01*
X124605556Y-52301289D01*
X124605556Y-52185776D01*
X124605994Y-52134078D01*
X124607958Y-52099554D01*
X124612474Y-52076978D01*
X124620567Y-52061126D01*
X124633265Y-52046776D01*
X124664643Y-52024533D01*
X124697872Y-52021844D01*
X124729734Y-52041645D01*
G37*
X129435133Y-52630396D02*
X129433163Y-52663175D01*
X129430235Y-52686095D01*
X129426158Y-52701897D01*
X129420743Y-52713319D01*
X129413803Y-52723100D01*
X129390406Y-52752845D01*
X129224714Y-52752251D01*
X129189918Y-52751953D01*
X129091435Y-52748522D01*
X129010473Y-52740839D01*
X128943379Y-52728282D01*
X128886496Y-52710227D01*
X128836169Y-52686052D01*
X128832810Y-52684135D01*
X128774998Y-52647417D01*
X128732644Y-52610451D01*
X128699828Y-52566966D01*
X128670628Y-52510689D01*
X128666346Y-52501073D01*
X128643769Y-52437887D01*
X128638034Y-52392333D01*
X128787279Y-52392333D01*
X128792892Y-52417061D01*
X128798618Y-52432939D01*
X128831548Y-52492847D01*
X128878886Y-52538600D01*
X128942652Y-52571736D01*
X129024861Y-52593790D01*
X129027655Y-52594292D01*
X129073940Y-52600255D01*
X129130336Y-52604483D01*
X129185274Y-52606089D01*
X129279156Y-52606089D01*
X129279156Y-52165822D01*
X129191667Y-52166270D01*
X129124747Y-52168746D01*
X129032349Y-52179998D01*
X128953034Y-52199537D01*
X128891060Y-52226511D01*
X128860120Y-52247240D01*
X128832000Y-52277006D01*
X128808660Y-52319434D01*
X128801533Y-52335400D01*
X128789709Y-52367902D01*
X128787279Y-52392333D01*
X128638034Y-52392333D01*
X128636797Y-52382509D01*
X128645399Y-52327483D01*
X128669541Y-52265351D01*
X128670337Y-52263658D01*
X128710788Y-52194236D01*
X128761473Y-52137638D01*
X128824198Y-52093070D01*
X128900774Y-52059741D01*
X128993009Y-52036861D01*
X129102712Y-52023636D01*
X129231691Y-52019275D01*
X129235263Y-52019270D01*
X129295283Y-52019410D01*
X129337214Y-52020446D01*
X129365328Y-52023040D01*
X129383897Y-52027853D01*
X129397194Y-52035544D01*
X129409491Y-52046776D01*
X129437200Y-52074485D01*
X129437200Y-52383920D01*
X129437175Y-52445526D01*
X129436950Y-52524311D01*
X129436332Y-52585021D01*
X129435775Y-52606089D01*
X129435133Y-52630396D01*
G36*
X129435133Y-52630396D02*
G01*
X129433163Y-52663175D01*
X129430235Y-52686095D01*
X129426158Y-52701897D01*
X129420743Y-52713319D01*
X129413803Y-52723100D01*
X129390406Y-52752845D01*
X129224714Y-52752251D01*
X129189918Y-52751953D01*
X129091435Y-52748522D01*
X129010473Y-52740839D01*
X128943379Y-52728282D01*
X128886496Y-52710227D01*
X128836169Y-52686052D01*
X128832810Y-52684135D01*
X128774998Y-52647417D01*
X128732644Y-52610451D01*
X128699828Y-52566966D01*
X128670628Y-52510689D01*
X128666346Y-52501073D01*
X128643769Y-52437887D01*
X128638034Y-52392333D01*
X128787279Y-52392333D01*
X128792892Y-52417061D01*
X128798618Y-52432939D01*
X128831548Y-52492847D01*
X128878886Y-52538600D01*
X128942652Y-52571736D01*
X129024861Y-52593790D01*
X129027655Y-52594292D01*
X129073940Y-52600255D01*
X129130336Y-52604483D01*
X129185274Y-52606089D01*
X129279156Y-52606089D01*
X129279156Y-52165822D01*
X129191667Y-52166270D01*
X129124747Y-52168746D01*
X129032349Y-52179998D01*
X128953034Y-52199537D01*
X128891060Y-52226511D01*
X128860120Y-52247240D01*
X128832000Y-52277006D01*
X128808660Y-52319434D01*
X128801533Y-52335400D01*
X128789709Y-52367902D01*
X128787279Y-52392333D01*
X128638034Y-52392333D01*
X128636797Y-52382509D01*
X128645399Y-52327483D01*
X128669541Y-52265351D01*
X128670337Y-52263658D01*
X128710788Y-52194236D01*
X128761473Y-52137638D01*
X128824198Y-52093070D01*
X128900774Y-52059741D01*
X128993009Y-52036861D01*
X129102712Y-52023636D01*
X129231691Y-52019275D01*
X129235263Y-52019270D01*
X129295283Y-52019410D01*
X129337214Y-52020446D01*
X129365328Y-52023040D01*
X129383897Y-52027853D01*
X129397194Y-52035544D01*
X129409491Y-52046776D01*
X129437200Y-52074485D01*
X129437200Y-52383920D01*
X129437175Y-52445526D01*
X129436950Y-52524311D01*
X129436332Y-52585021D01*
X129435775Y-52606089D01*
X129435133Y-52630396D01*
G37*
X136526817Y-52204427D02*
X136526870Y-52285041D01*
X136526622Y-52385956D01*
X136526583Y-52461617D01*
X136526328Y-52539526D01*
X136525684Y-52599536D01*
X136524480Y-52644264D01*
X136522543Y-52676326D01*
X136519703Y-52698340D01*
X136515788Y-52712924D01*
X136510626Y-52722694D01*
X136504045Y-52730267D01*
X136497077Y-52736501D01*
X136484079Y-52743801D01*
X136464931Y-52748554D01*
X136435528Y-52751292D01*
X136391762Y-52752545D01*
X136329528Y-52752845D01*
X136280582Y-52752469D01*
X136173722Y-52748041D01*
X136084494Y-52737953D01*
X136009696Y-52721365D01*
X135946125Y-52697435D01*
X135890579Y-52665321D01*
X135839854Y-52624182D01*
X135833866Y-52618330D01*
X135796999Y-52569821D01*
X135765899Y-52509013D01*
X135744417Y-52444769D01*
X135739136Y-52406026D01*
X135886353Y-52406026D01*
X135904635Y-52456961D01*
X135934305Y-52502878D01*
X135981002Y-52545287D01*
X136042392Y-52575090D01*
X136121538Y-52594226D01*
X136123028Y-52594464D01*
X136171999Y-52600256D01*
X136230693Y-52604396D01*
X136286734Y-52606004D01*
X136379867Y-52606089D01*
X136379867Y-52165822D01*
X136303667Y-52165808D01*
X136300639Y-52165817D01*
X136249519Y-52167782D01*
X136189416Y-52172507D01*
X136132708Y-52179035D01*
X136082750Y-52188331D01*
X136007998Y-52214600D01*
X135950489Y-52253899D01*
X135908988Y-52306933D01*
X135887771Y-52358200D01*
X135886353Y-52406026D01*
X135739136Y-52406026D01*
X135736400Y-52385956D01*
X135737679Y-52364739D01*
X135749991Y-52307323D01*
X135772520Y-52247413D01*
X135801750Y-52193363D01*
X135834167Y-52153532D01*
X135853708Y-52136510D01*
X135908420Y-52097322D01*
X135968723Y-52067193D01*
X136037919Y-52045232D01*
X136119311Y-52030550D01*
X136216200Y-52022259D01*
X136331889Y-52019467D01*
X136371371Y-52019066D01*
X136417082Y-52018653D01*
X136452883Y-52020457D01*
X136479974Y-52026739D01*
X136499556Y-52039759D01*
X136512830Y-52061778D01*
X136520998Y-52095055D01*
X136525260Y-52141851D01*
X136525857Y-52165822D01*
X136526817Y-52204427D01*
G36*
X136526817Y-52204427D02*
G01*
X136526870Y-52285041D01*
X136526622Y-52385956D01*
X136526583Y-52461617D01*
X136526328Y-52539526D01*
X136525684Y-52599536D01*
X136524480Y-52644264D01*
X136522543Y-52676326D01*
X136519703Y-52698340D01*
X136515788Y-52712924D01*
X136510626Y-52722694D01*
X136504045Y-52730267D01*
X136497077Y-52736501D01*
X136484079Y-52743801D01*
X136464931Y-52748554D01*
X136435528Y-52751292D01*
X136391762Y-52752545D01*
X136329528Y-52752845D01*
X136280582Y-52752469D01*
X136173722Y-52748041D01*
X136084494Y-52737953D01*
X136009696Y-52721365D01*
X135946125Y-52697435D01*
X135890579Y-52665321D01*
X135839854Y-52624182D01*
X135833866Y-52618330D01*
X135796999Y-52569821D01*
X135765899Y-52509013D01*
X135744417Y-52444769D01*
X135739136Y-52406026D01*
X135886353Y-52406026D01*
X135904635Y-52456961D01*
X135934305Y-52502878D01*
X135981002Y-52545287D01*
X136042392Y-52575090D01*
X136121538Y-52594226D01*
X136123028Y-52594464D01*
X136171999Y-52600256D01*
X136230693Y-52604396D01*
X136286734Y-52606004D01*
X136379867Y-52606089D01*
X136379867Y-52165822D01*
X136303667Y-52165808D01*
X136300639Y-52165817D01*
X136249519Y-52167782D01*
X136189416Y-52172507D01*
X136132708Y-52179035D01*
X136082750Y-52188331D01*
X136007998Y-52214600D01*
X135950489Y-52253899D01*
X135908988Y-52306933D01*
X135887771Y-52358200D01*
X135886353Y-52406026D01*
X135739136Y-52406026D01*
X135736400Y-52385956D01*
X135737679Y-52364739D01*
X135749991Y-52307323D01*
X135772520Y-52247413D01*
X135801750Y-52193363D01*
X135834167Y-52153532D01*
X135853708Y-52136510D01*
X135908420Y-52097322D01*
X135968723Y-52067193D01*
X136037919Y-52045232D01*
X136119311Y-52030550D01*
X136216200Y-52022259D01*
X136331889Y-52019467D01*
X136371371Y-52019066D01*
X136417082Y-52018653D01*
X136452883Y-52020457D01*
X136479974Y-52026739D01*
X136499556Y-52039759D01*
X136512830Y-52061778D01*
X136520998Y-52095055D01*
X136525260Y-52141851D01*
X136525857Y-52165822D01*
X136526817Y-52204427D01*
G37*
X131581893Y-52017892D02*
X131593301Y-52024029D01*
X131603850Y-52034691D01*
X131615136Y-52048811D01*
X131619589Y-52054772D01*
X131625588Y-52065268D01*
X131630167Y-52079093D01*
X131633519Y-52098998D01*
X131635833Y-52127732D01*
X131637301Y-52168045D01*
X131638113Y-52222687D01*
X131638460Y-52294407D01*
X131638534Y-52385956D01*
X131638511Y-52444486D01*
X131638292Y-52523573D01*
X131637683Y-52584516D01*
X131636492Y-52630062D01*
X131634529Y-52662963D01*
X131631603Y-52685968D01*
X131627523Y-52701826D01*
X131622097Y-52713286D01*
X131615136Y-52723100D01*
X131584708Y-52747493D01*
X131549765Y-52750372D01*
X131512784Y-52731282D01*
X131508600Y-52727807D01*
X131500424Y-52719279D01*
X131494364Y-52707728D01*
X131489981Y-52689896D01*
X131486839Y-52662524D01*
X131484502Y-52622354D01*
X131482531Y-52566128D01*
X131480489Y-52490589D01*
X131474845Y-52271458D01*
X131209556Y-52512099D01*
X131135722Y-52578875D01*
X131070542Y-52636991D01*
X131018348Y-52681949D01*
X130977273Y-52714871D01*
X130945455Y-52736879D01*
X130921026Y-52749094D01*
X130902124Y-52752639D01*
X130886883Y-52748636D01*
X130873439Y-52738207D01*
X130859927Y-52722474D01*
X130853682Y-52713991D01*
X130848050Y-52703413D01*
X130843839Y-52689255D01*
X130840887Y-52668803D01*
X130839032Y-52639342D01*
X130838113Y-52598161D01*
X130837968Y-52542544D01*
X130838435Y-52469779D01*
X130839352Y-52377151D01*
X130842667Y-52062199D01*
X130869318Y-52040633D01*
X130895383Y-52024441D01*
X130928241Y-52021670D01*
X130962772Y-52040623D01*
X130967084Y-52044208D01*
X130975216Y-52052737D01*
X130981245Y-52064329D01*
X130985606Y-52082235D01*
X130988734Y-52109706D01*
X130991063Y-52149994D01*
X130993029Y-52206351D01*
X130995067Y-52282029D01*
X131000711Y-52501878D01*
X131181334Y-52338084D01*
X131268072Y-52259451D01*
X131343843Y-52191058D01*
X131405980Y-52135708D01*
X131456078Y-52092338D01*
X131495735Y-52059881D01*
X131526548Y-52037273D01*
X131550114Y-52023448D01*
X131568030Y-52017343D01*
X131581893Y-52017892D01*
G36*
X131581893Y-52017892D02*
G01*
X131593301Y-52024029D01*
X131603850Y-52034691D01*
X131615136Y-52048811D01*
X131619589Y-52054772D01*
X131625588Y-52065268D01*
X131630167Y-52079093D01*
X131633519Y-52098998D01*
X131635833Y-52127732D01*
X131637301Y-52168045D01*
X131638113Y-52222687D01*
X131638460Y-52294407D01*
X131638534Y-52385956D01*
X131638511Y-52444486D01*
X131638292Y-52523573D01*
X131637683Y-52584516D01*
X131636492Y-52630062D01*
X131634529Y-52662963D01*
X131631603Y-52685968D01*
X131627523Y-52701826D01*
X131622097Y-52713286D01*
X131615136Y-52723100D01*
X131584708Y-52747493D01*
X131549765Y-52750372D01*
X131512784Y-52731282D01*
X131508600Y-52727807D01*
X131500424Y-52719279D01*
X131494364Y-52707728D01*
X131489981Y-52689896D01*
X131486839Y-52662524D01*
X131484502Y-52622354D01*
X131482531Y-52566128D01*
X131480489Y-52490589D01*
X131474845Y-52271458D01*
X131209556Y-52512099D01*
X131135722Y-52578875D01*
X131070542Y-52636991D01*
X131018348Y-52681949D01*
X130977273Y-52714871D01*
X130945455Y-52736879D01*
X130921026Y-52749094D01*
X130902124Y-52752639D01*
X130886883Y-52748636D01*
X130873439Y-52738207D01*
X130859927Y-52722474D01*
X130853682Y-52713991D01*
X130848050Y-52703413D01*
X130843839Y-52689255D01*
X130840887Y-52668803D01*
X130839032Y-52639342D01*
X130838113Y-52598161D01*
X130837968Y-52542544D01*
X130838435Y-52469779D01*
X130839352Y-52377151D01*
X130842667Y-52062199D01*
X130869318Y-52040633D01*
X130895383Y-52024441D01*
X130928241Y-52021670D01*
X130962772Y-52040623D01*
X130967084Y-52044208D01*
X130975216Y-52052737D01*
X130981245Y-52064329D01*
X130985606Y-52082235D01*
X130988734Y-52109706D01*
X130991063Y-52149994D01*
X130993029Y-52206351D01*
X130995067Y-52282029D01*
X131000711Y-52501878D01*
X131181334Y-52338084D01*
X131268072Y-52259451D01*
X131343843Y-52191058D01*
X131405980Y-52135708D01*
X131456078Y-52092338D01*
X131495735Y-52059881D01*
X131526548Y-52037273D01*
X131550114Y-52023448D01*
X131568030Y-52017343D01*
X131581893Y-52017892D01*
G37*
X132379150Y-52024179D02*
X132485157Y-52040494D01*
X132578969Y-52068545D01*
X132657765Y-52107452D01*
X132718719Y-52156334D01*
X132744789Y-52189195D01*
X132774297Y-52238394D01*
X132799568Y-52292252D01*
X132817218Y-52343419D01*
X132823858Y-52384544D01*
X132822298Y-52404259D01*
X132809357Y-52455592D01*
X132786194Y-52512118D01*
X132756302Y-52566035D01*
X132723173Y-52609539D01*
X132712977Y-52619887D01*
X132645892Y-52671662D01*
X132565766Y-52711554D01*
X132479556Y-52735956D01*
X132424592Y-52744068D01*
X132331139Y-52750673D01*
X132241358Y-52748586D01*
X132158869Y-52738340D01*
X132087286Y-52720470D01*
X132030228Y-52695508D01*
X131991311Y-52663988D01*
X131989936Y-52662012D01*
X131982848Y-52636786D01*
X131978609Y-52589535D01*
X131977200Y-52520071D01*
X131978060Y-52457838D01*
X131982780Y-52410456D01*
X131994470Y-52378353D01*
X132016239Y-52358800D01*
X132051198Y-52349070D01*
X132102456Y-52346433D01*
X132173123Y-52348161D01*
X132221743Y-52351173D01*
X132271939Y-52359366D01*
X132304433Y-52373419D01*
X132321892Y-52394654D01*
X132326983Y-52424394D01*
X132326877Y-52428936D01*
X132318175Y-52463730D01*
X132294165Y-52487147D01*
X132252900Y-52500347D01*
X132192431Y-52504489D01*
X132123956Y-52504489D01*
X132123956Y-52542841D01*
X132124006Y-52551976D01*
X132126227Y-52569227D01*
X132135494Y-52579521D01*
X132156875Y-52586459D01*
X132195436Y-52593641D01*
X132200910Y-52594575D01*
X132297860Y-52604478D01*
X132387852Y-52601559D01*
X132468760Y-52586829D01*
X132538459Y-52561299D01*
X132594824Y-52525978D01*
X132635729Y-52481879D01*
X132659051Y-52430012D01*
X132662663Y-52371388D01*
X132657145Y-52342494D01*
X132630461Y-52286604D01*
X132584273Y-52240945D01*
X132519291Y-52206108D01*
X132436229Y-52182690D01*
X132411555Y-52178241D01*
X132322226Y-52167742D01*
X132242419Y-52168971D01*
X132164326Y-52181906D01*
X132129183Y-52188696D01*
X132083745Y-52189713D01*
X132052430Y-52177182D01*
X132032277Y-52150395D01*
X132025893Y-52122148D01*
X132035379Y-52090924D01*
X132044708Y-52077499D01*
X132078943Y-52053967D01*
X132131565Y-52036095D01*
X132200081Y-52024599D01*
X132282000Y-52020192D01*
X132379150Y-52024179D01*
G36*
X132379150Y-52024179D02*
G01*
X132485157Y-52040494D01*
X132578969Y-52068545D01*
X132657765Y-52107452D01*
X132718719Y-52156334D01*
X132744789Y-52189195D01*
X132774297Y-52238394D01*
X132799568Y-52292252D01*
X132817218Y-52343419D01*
X132823858Y-52384544D01*
X132822298Y-52404259D01*
X132809357Y-52455592D01*
X132786194Y-52512118D01*
X132756302Y-52566035D01*
X132723173Y-52609539D01*
X132712977Y-52619887D01*
X132645892Y-52671662D01*
X132565766Y-52711554D01*
X132479556Y-52735956D01*
X132424592Y-52744068D01*
X132331139Y-52750673D01*
X132241358Y-52748586D01*
X132158869Y-52738340D01*
X132087286Y-52720470D01*
X132030228Y-52695508D01*
X131991311Y-52663988D01*
X131989936Y-52662012D01*
X131982848Y-52636786D01*
X131978609Y-52589535D01*
X131977200Y-52520071D01*
X131978060Y-52457838D01*
X131982780Y-52410456D01*
X131994470Y-52378353D01*
X132016239Y-52358800D01*
X132051198Y-52349070D01*
X132102456Y-52346433D01*
X132173123Y-52348161D01*
X132221743Y-52351173D01*
X132271939Y-52359366D01*
X132304433Y-52373419D01*
X132321892Y-52394654D01*
X132326983Y-52424394D01*
X132326877Y-52428936D01*
X132318175Y-52463730D01*
X132294165Y-52487147D01*
X132252900Y-52500347D01*
X132192431Y-52504489D01*
X132123956Y-52504489D01*
X132123956Y-52542841D01*
X132124006Y-52551976D01*
X132126227Y-52569227D01*
X132135494Y-52579521D01*
X132156875Y-52586459D01*
X132195436Y-52593641D01*
X132200910Y-52594575D01*
X132297860Y-52604478D01*
X132387852Y-52601559D01*
X132468760Y-52586829D01*
X132538459Y-52561299D01*
X132594824Y-52525978D01*
X132635729Y-52481879D01*
X132659051Y-52430012D01*
X132662663Y-52371388D01*
X132657145Y-52342494D01*
X132630461Y-52286604D01*
X132584273Y-52240945D01*
X132519291Y-52206108D01*
X132436229Y-52182690D01*
X132411555Y-52178241D01*
X132322226Y-52167742D01*
X132242419Y-52168971D01*
X132164326Y-52181906D01*
X132129183Y-52188696D01*
X132083745Y-52189713D01*
X132052430Y-52177182D01*
X132032277Y-52150395D01*
X132025893Y-52122148D01*
X132035379Y-52090924D01*
X132044708Y-52077499D01*
X132078943Y-52053967D01*
X132131565Y-52036095D01*
X132200081Y-52024599D01*
X132282000Y-52020192D01*
X132379150Y-52024179D01*
G37*
X130429803Y-52048811D02*
X130434752Y-52055495D01*
X130440596Y-52066066D01*
X130445057Y-52080153D01*
X130448321Y-52100478D01*
X130450574Y-52129765D01*
X130452002Y-52170737D01*
X130452792Y-52226117D01*
X130453129Y-52298628D01*
X130453200Y-52390994D01*
X130453171Y-52456911D01*
X130452939Y-52535228D01*
X130452319Y-52595496D01*
X130451126Y-52640393D01*
X130449179Y-52672602D01*
X130446294Y-52694800D01*
X130442288Y-52709669D01*
X130436979Y-52719889D01*
X130430183Y-52728138D01*
X130425668Y-52732795D01*
X130417438Y-52739282D01*
X130406078Y-52744194D01*
X130388810Y-52747749D01*
X130362855Y-52750167D01*
X130325436Y-52751667D01*
X130273773Y-52752467D01*
X130205089Y-52752787D01*
X130116606Y-52752845D01*
X130096931Y-52752838D01*
X130009906Y-52752572D01*
X129942254Y-52751806D01*
X129891299Y-52750392D01*
X129854367Y-52748180D01*
X129828783Y-52745022D01*
X129811871Y-52740769D01*
X129800957Y-52735271D01*
X129790464Y-52725285D01*
X129777203Y-52694168D01*
X129778386Y-52658280D01*
X129794550Y-52626733D01*
X129796739Y-52624457D01*
X129805427Y-52618189D01*
X129818769Y-52613523D01*
X129839752Y-52610227D01*
X129871363Y-52608068D01*
X129916590Y-52606814D01*
X129978420Y-52606231D01*
X130059839Y-52606089D01*
X130306445Y-52606089D01*
X130306445Y-52448045D01*
X130144006Y-52448045D01*
X130108338Y-52447964D01*
X130052568Y-52447167D01*
X130013430Y-52445162D01*
X129986976Y-52441521D01*
X129969259Y-52435812D01*
X129956329Y-52427607D01*
X129952686Y-52424423D01*
X129934278Y-52393448D01*
X129933644Y-52357112D01*
X129951183Y-52323493D01*
X129951245Y-52323424D01*
X129960916Y-52314798D01*
X129974209Y-52308742D01*
X129994917Y-52304811D01*
X130026828Y-52302556D01*
X130073734Y-52301531D01*
X130139424Y-52301289D01*
X130307571Y-52301289D01*
X130304186Y-52236378D01*
X130300800Y-52171467D01*
X130058723Y-52168414D01*
X130033707Y-52168086D01*
X129952087Y-52166606D01*
X129889768Y-52164222D01*
X129844154Y-52160227D01*
X129812652Y-52153913D01*
X129792667Y-52144574D01*
X129781604Y-52131503D01*
X129776869Y-52113992D01*
X129775867Y-52091335D01*
X129775873Y-52088970D01*
X129777027Y-52068939D01*
X129781824Y-52053146D01*
X129792632Y-52041090D01*
X129811817Y-52032267D01*
X129841745Y-52026175D01*
X129884783Y-52022311D01*
X129943299Y-52020174D01*
X130019657Y-52019260D01*
X130116226Y-52019067D01*
X130406406Y-52019067D01*
X130429803Y-52048811D01*
G36*
X130429803Y-52048811D02*
G01*
X130434752Y-52055495D01*
X130440596Y-52066066D01*
X130445057Y-52080153D01*
X130448321Y-52100478D01*
X130450574Y-52129765D01*
X130452002Y-52170737D01*
X130452792Y-52226117D01*
X130453129Y-52298628D01*
X130453200Y-52390994D01*
X130453171Y-52456911D01*
X130452939Y-52535228D01*
X130452319Y-52595496D01*
X130451126Y-52640393D01*
X130449179Y-52672602D01*
X130446294Y-52694800D01*
X130442288Y-52709669D01*
X130436979Y-52719889D01*
X130430183Y-52728138D01*
X130425668Y-52732795D01*
X130417438Y-52739282D01*
X130406078Y-52744194D01*
X130388810Y-52747749D01*
X130362855Y-52750167D01*
X130325436Y-52751667D01*
X130273773Y-52752467D01*
X130205089Y-52752787D01*
X130116606Y-52752845D01*
X130096931Y-52752838D01*
X130009906Y-52752572D01*
X129942254Y-52751806D01*
X129891299Y-52750392D01*
X129854367Y-52748180D01*
X129828783Y-52745022D01*
X129811871Y-52740769D01*
X129800957Y-52735271D01*
X129790464Y-52725285D01*
X129777203Y-52694168D01*
X129778386Y-52658280D01*
X129794550Y-52626733D01*
X129796739Y-52624457D01*
X129805427Y-52618189D01*
X129818769Y-52613523D01*
X129839752Y-52610227D01*
X129871363Y-52608068D01*
X129916590Y-52606814D01*
X129978420Y-52606231D01*
X130059839Y-52606089D01*
X130306445Y-52606089D01*
X130306445Y-52448045D01*
X130144006Y-52448045D01*
X130108338Y-52447964D01*
X130052568Y-52447167D01*
X130013430Y-52445162D01*
X129986976Y-52441521D01*
X129969259Y-52435812D01*
X129956329Y-52427607D01*
X129952686Y-52424423D01*
X129934278Y-52393448D01*
X129933644Y-52357112D01*
X129951183Y-52323493D01*
X129951245Y-52323424D01*
X129960916Y-52314798D01*
X129974209Y-52308742D01*
X129994917Y-52304811D01*
X130026828Y-52302556D01*
X130073734Y-52301531D01*
X130139424Y-52301289D01*
X130307571Y-52301289D01*
X130304186Y-52236378D01*
X130300800Y-52171467D01*
X130058723Y-52168414D01*
X130033707Y-52168086D01*
X129952087Y-52166606D01*
X129889768Y-52164222D01*
X129844154Y-52160227D01*
X129812652Y-52153913D01*
X129792667Y-52144574D01*
X129781604Y-52131503D01*
X129776869Y-52113992D01*
X129775867Y-52091335D01*
X129775873Y-52088970D01*
X129777027Y-52068939D01*
X129781824Y-52053146D01*
X129792632Y-52041090D01*
X129811817Y-52032267D01*
X129841745Y-52026175D01*
X129884783Y-52022311D01*
X129943299Y-52020174D01*
X130019657Y-52019260D01*
X130116226Y-52019067D01*
X130406406Y-52019067D01*
X130429803Y-52048811D01*
G37*
X135106734Y-52019083D02*
X135183831Y-52019275D01*
X135242777Y-52019860D01*
X135286364Y-52021051D01*
X135317383Y-52023064D01*
X135338625Y-52026112D01*
X135352882Y-52030409D01*
X135362945Y-52036172D01*
X135371606Y-52043612D01*
X135373391Y-52045293D01*
X135380635Y-52052832D01*
X135386277Y-52061850D01*
X135390517Y-52074984D01*
X135393556Y-52094872D01*
X135395594Y-52124151D01*
X135396830Y-52165458D01*
X135397465Y-52221431D01*
X135397700Y-52294707D01*
X135397734Y-52387923D01*
X135397697Y-52460713D01*
X135397448Y-52538889D01*
X135396812Y-52599103D01*
X135395615Y-52643982D01*
X135393684Y-52676152D01*
X135390846Y-52698239D01*
X135386927Y-52712870D01*
X135381755Y-52722670D01*
X135375156Y-52730267D01*
X135371822Y-52733444D01*
X135363300Y-52739554D01*
X135351298Y-52744229D01*
X135333087Y-52747659D01*
X135305940Y-52750036D01*
X135267129Y-52751552D01*
X135213924Y-52752398D01*
X135143598Y-52752765D01*
X135053422Y-52752845D01*
X135011314Y-52752833D01*
X134930167Y-52752651D01*
X134867675Y-52752098D01*
X134821109Y-52750982D01*
X134787741Y-52749113D01*
X134764844Y-52746298D01*
X134749688Y-52742346D01*
X134739546Y-52737066D01*
X134731689Y-52730267D01*
X134716963Y-52708667D01*
X134709111Y-52679467D01*
X134714610Y-52655560D01*
X134731689Y-52628667D01*
X134736668Y-52624059D01*
X134746443Y-52617772D01*
X134760559Y-52613146D01*
X134782054Y-52609930D01*
X134813968Y-52607870D01*
X134859342Y-52606712D01*
X134921213Y-52606202D01*
X135002622Y-52606089D01*
X135250978Y-52606089D01*
X135250978Y-52448045D01*
X135089801Y-52448045D01*
X135053983Y-52447899D01*
X134988359Y-52446176D01*
X134941118Y-52441741D01*
X134909383Y-52433637D01*
X134890277Y-52420906D01*
X134880923Y-52402592D01*
X134878445Y-52377738D01*
X134879242Y-52357482D01*
X134884494Y-52335656D01*
X134897288Y-52320304D01*
X134920628Y-52310309D01*
X134957517Y-52304553D01*
X135010959Y-52301919D01*
X135083958Y-52301289D01*
X135252105Y-52301289D01*
X135248719Y-52236378D01*
X135245334Y-52171467D01*
X134997617Y-52168418D01*
X134935026Y-52167539D01*
X134866565Y-52166095D01*
X134815661Y-52164164D01*
X134779408Y-52161514D01*
X134754901Y-52157910D01*
X134739235Y-52153121D01*
X134729506Y-52146913D01*
X134723491Y-52140510D01*
X134710482Y-52108828D01*
X134714043Y-52073142D01*
X134733818Y-52042084D01*
X134737069Y-52039161D01*
X134746049Y-52032810D01*
X134758153Y-52027957D01*
X134776159Y-52024403D01*
X134802847Y-52021946D01*
X134840997Y-52020385D01*
X134893386Y-52019518D01*
X134962794Y-52019146D01*
X135052001Y-52019067D01*
X135106734Y-52019083D01*
G36*
X135106734Y-52019083D02*
G01*
X135183831Y-52019275D01*
X135242777Y-52019860D01*
X135286364Y-52021051D01*
X135317383Y-52023064D01*
X135338625Y-52026112D01*
X135352882Y-52030409D01*
X135362945Y-52036172D01*
X135371606Y-52043612D01*
X135373391Y-52045293D01*
X135380635Y-52052832D01*
X135386277Y-52061850D01*
X135390517Y-52074984D01*
X135393556Y-52094872D01*
X135395594Y-52124151D01*
X135396830Y-52165458D01*
X135397465Y-52221431D01*
X135397700Y-52294707D01*
X135397734Y-52387923D01*
X135397697Y-52460713D01*
X135397448Y-52538889D01*
X135396812Y-52599103D01*
X135395615Y-52643982D01*
X135393684Y-52676152D01*
X135390846Y-52698239D01*
X135386927Y-52712870D01*
X135381755Y-52722670D01*
X135375156Y-52730267D01*
X135371822Y-52733444D01*
X135363300Y-52739554D01*
X135351298Y-52744229D01*
X135333087Y-52747659D01*
X135305940Y-52750036D01*
X135267129Y-52751552D01*
X135213924Y-52752398D01*
X135143598Y-52752765D01*
X135053422Y-52752845D01*
X135011314Y-52752833D01*
X134930167Y-52752651D01*
X134867675Y-52752098D01*
X134821109Y-52750982D01*
X134787741Y-52749113D01*
X134764844Y-52746298D01*
X134749688Y-52742346D01*
X134739546Y-52737066D01*
X134731689Y-52730267D01*
X134716963Y-52708667D01*
X134709111Y-52679467D01*
X134714610Y-52655560D01*
X134731689Y-52628667D01*
X134736668Y-52624059D01*
X134746443Y-52617772D01*
X134760559Y-52613146D01*
X134782054Y-52609930D01*
X134813968Y-52607870D01*
X134859342Y-52606712D01*
X134921213Y-52606202D01*
X135002622Y-52606089D01*
X135250978Y-52606089D01*
X135250978Y-52448045D01*
X135089801Y-52448045D01*
X135053983Y-52447899D01*
X134988359Y-52446176D01*
X134941118Y-52441741D01*
X134909383Y-52433637D01*
X134890277Y-52420906D01*
X134880923Y-52402592D01*
X134878445Y-52377738D01*
X134879242Y-52357482D01*
X134884494Y-52335656D01*
X134897288Y-52320304D01*
X134920628Y-52310309D01*
X134957517Y-52304553D01*
X135010959Y-52301919D01*
X135083958Y-52301289D01*
X135252105Y-52301289D01*
X135248719Y-52236378D01*
X135245334Y-52171467D01*
X134997617Y-52168418D01*
X134935026Y-52167539D01*
X134866565Y-52166095D01*
X134815661Y-52164164D01*
X134779408Y-52161514D01*
X134754901Y-52157910D01*
X134739235Y-52153121D01*
X134729506Y-52146913D01*
X134723491Y-52140510D01*
X134710482Y-52108828D01*
X134714043Y-52073142D01*
X134733818Y-52042084D01*
X134737069Y-52039161D01*
X134746049Y-52032810D01*
X134758153Y-52027957D01*
X134776159Y-52024403D01*
X134802847Y-52021946D01*
X134840997Y-52020385D01*
X134893386Y-52019518D01*
X134962794Y-52019146D01*
X135052001Y-52019067D01*
X135106734Y-52019083D01*
G37*
X126539702Y-52028478D02*
X126557663Y-52046989D01*
X126578263Y-52078071D01*
X126603095Y-52123756D01*
X126633750Y-52186078D01*
X126671820Y-52267071D01*
X126686454Y-52298454D01*
X126716203Y-52361638D01*
X126742297Y-52416244D01*
X126763292Y-52459290D01*
X126777739Y-52487793D01*
X126784191Y-52498770D01*
X126785550Y-52498189D01*
X126795542Y-52484242D01*
X126812833Y-52454704D01*
X126835430Y-52413087D01*
X126861338Y-52362903D01*
X126877311Y-52331414D01*
X126906261Y-52276061D01*
X126928749Y-52237044D01*
X126946965Y-52211566D01*
X126963096Y-52196831D01*
X126979330Y-52190042D01*
X126997857Y-52188400D01*
X127008360Y-52188875D01*
X127024476Y-52193082D01*
X127039790Y-52203946D01*
X127056388Y-52224219D01*
X127076357Y-52256654D01*
X127101783Y-52304004D01*
X127134752Y-52369022D01*
X127144485Y-52388277D01*
X127168943Y-52434946D01*
X127189178Y-52471109D01*
X127203311Y-52493497D01*
X127209460Y-52498845D01*
X127210827Y-52495573D01*
X127220202Y-52474664D01*
X127237062Y-52437725D01*
X127259979Y-52387874D01*
X127287520Y-52328226D01*
X127318255Y-52261898D01*
X127344970Y-52204677D01*
X127374593Y-52142688D01*
X127397664Y-52096949D01*
X127415643Y-52064908D01*
X127429990Y-52044014D01*
X127442166Y-52031718D01*
X127453632Y-52025466D01*
X127463042Y-52022574D01*
X127488147Y-52022425D01*
X127515290Y-52037768D01*
X127516590Y-52038753D01*
X127538674Y-52061388D01*
X127549723Y-52083613D01*
X127549769Y-52084253D01*
X127545228Y-52101915D01*
X127532364Y-52136481D01*
X127512605Y-52184826D01*
X127487381Y-52243825D01*
X127458119Y-52310355D01*
X127426250Y-52381291D01*
X127393201Y-52453507D01*
X127360401Y-52523880D01*
X127329280Y-52589285D01*
X127301265Y-52646597D01*
X127277786Y-52692692D01*
X127260272Y-52724446D01*
X127250151Y-52738733D01*
X127215743Y-52752102D01*
X127174046Y-52745741D01*
X127168681Y-52741044D01*
X127152852Y-52718893D01*
X127130650Y-52682132D01*
X127104233Y-52634415D01*
X127075760Y-52579393D01*
X126995986Y-52420150D01*
X126922799Y-52566742D01*
X126913103Y-52586032D01*
X126886125Y-52638380D01*
X126862096Y-52683170D01*
X126843332Y-52716154D01*
X126832146Y-52733089D01*
X126831000Y-52734332D01*
X126802879Y-52749619D01*
X126767817Y-52751302D01*
X126736776Y-52738733D01*
X126734350Y-52735884D01*
X126722090Y-52715259D01*
X126702352Y-52677708D01*
X126676448Y-52625880D01*
X126645685Y-52562423D01*
X126611375Y-52489985D01*
X126574825Y-52411216D01*
X126554585Y-52367093D01*
X126517812Y-52286365D01*
X126489355Y-52222687D01*
X126468331Y-52173752D01*
X126453854Y-52137257D01*
X126445039Y-52110895D01*
X126441004Y-52092361D01*
X126440862Y-52079352D01*
X126443730Y-52069561D01*
X126458387Y-52048678D01*
X126484990Y-52028377D01*
X126485745Y-52028035D01*
X126505335Y-52021034D01*
X126522790Y-52020504D01*
X126539702Y-52028478D01*
G36*
X126539702Y-52028478D02*
G01*
X126557663Y-52046989D01*
X126578263Y-52078071D01*
X126603095Y-52123756D01*
X126633750Y-52186078D01*
X126671820Y-52267071D01*
X126686454Y-52298454D01*
X126716203Y-52361638D01*
X126742297Y-52416244D01*
X126763292Y-52459290D01*
X126777739Y-52487793D01*
X126784191Y-52498770D01*
X126785550Y-52498189D01*
X126795542Y-52484242D01*
X126812833Y-52454704D01*
X126835430Y-52413087D01*
X126861338Y-52362903D01*
X126877311Y-52331414D01*
X126906261Y-52276061D01*
X126928749Y-52237044D01*
X126946965Y-52211566D01*
X126963096Y-52196831D01*
X126979330Y-52190042D01*
X126997857Y-52188400D01*
X127008360Y-52188875D01*
X127024476Y-52193082D01*
X127039790Y-52203946D01*
X127056388Y-52224219D01*
X127076357Y-52256654D01*
X127101783Y-52304004D01*
X127134752Y-52369022D01*
X127144485Y-52388277D01*
X127168943Y-52434946D01*
X127189178Y-52471109D01*
X127203311Y-52493497D01*
X127209460Y-52498845D01*
X127210827Y-52495573D01*
X127220202Y-52474664D01*
X127237062Y-52437725D01*
X127259979Y-52387874D01*
X127287520Y-52328226D01*
X127318255Y-52261898D01*
X127344970Y-52204677D01*
X127374593Y-52142688D01*
X127397664Y-52096949D01*
X127415643Y-52064908D01*
X127429990Y-52044014D01*
X127442166Y-52031718D01*
X127453632Y-52025466D01*
X127463042Y-52022574D01*
X127488147Y-52022425D01*
X127515290Y-52037768D01*
X127516590Y-52038753D01*
X127538674Y-52061388D01*
X127549723Y-52083613D01*
X127549769Y-52084253D01*
X127545228Y-52101915D01*
X127532364Y-52136481D01*
X127512605Y-52184826D01*
X127487381Y-52243825D01*
X127458119Y-52310355D01*
X127426250Y-52381291D01*
X127393201Y-52453507D01*
X127360401Y-52523880D01*
X127329280Y-52589285D01*
X127301265Y-52646597D01*
X127277786Y-52692692D01*
X127260272Y-52724446D01*
X127250151Y-52738733D01*
X127215743Y-52752102D01*
X127174046Y-52745741D01*
X127168681Y-52741044D01*
X127152852Y-52718893D01*
X127130650Y-52682132D01*
X127104233Y-52634415D01*
X127075760Y-52579393D01*
X126995986Y-52420150D01*
X126922799Y-52566742D01*
X126913103Y-52586032D01*
X126886125Y-52638380D01*
X126862096Y-52683170D01*
X126843332Y-52716154D01*
X126832146Y-52733089D01*
X126831000Y-52734332D01*
X126802879Y-52749619D01*
X126767817Y-52751302D01*
X126736776Y-52738733D01*
X126734350Y-52735884D01*
X126722090Y-52715259D01*
X126702352Y-52677708D01*
X126676448Y-52625880D01*
X126645685Y-52562423D01*
X126611375Y-52489985D01*
X126574825Y-52411216D01*
X126554585Y-52367093D01*
X126517812Y-52286365D01*
X126489355Y-52222687D01*
X126468331Y-52173752D01*
X126453854Y-52137257D01*
X126445039Y-52110895D01*
X126441004Y-52092361D01*
X126440862Y-52079352D01*
X126443730Y-52069561D01*
X126458387Y-52048678D01*
X126484990Y-52028377D01*
X126485745Y-52028035D01*
X126505335Y-52021034D01*
X126522790Y-52020504D01*
X126539702Y-52028478D01*
G37*
X134090853Y-52019936D02*
X134157100Y-52025366D01*
X134212400Y-52034964D01*
X134263283Y-52049825D01*
X134334595Y-52082958D01*
X134385752Y-52125640D01*
X134416575Y-52177705D01*
X134426889Y-52238983D01*
X134425952Y-52270232D01*
X134420160Y-52295029D01*
X134405353Y-52316699D01*
X134377380Y-52344049D01*
X134369402Y-52351378D01*
X134345692Y-52372281D01*
X134323298Y-52389251D01*
X134299265Y-52403205D01*
X134270637Y-52415056D01*
X134234460Y-52425720D01*
X134187780Y-52436111D01*
X134127641Y-52447146D01*
X134051090Y-52459738D01*
X133955171Y-52474804D01*
X133936808Y-52477838D01*
X133874478Y-52491458D01*
X133829260Y-52507192D01*
X133802976Y-52524263D01*
X133797447Y-52541897D01*
X133800068Y-52546168D01*
X133818000Y-52561233D01*
X133846126Y-52577867D01*
X133858926Y-52583857D01*
X133880224Y-52591050D01*
X133906610Y-52595827D01*
X133942454Y-52598646D01*
X133992128Y-52599964D01*
X134060000Y-52600237D01*
X134077785Y-52600164D01*
X134145406Y-52599053D01*
X134210345Y-52596828D01*
X134265970Y-52593762D01*
X134305651Y-52590127D01*
X134341162Y-52586059D01*
X134370415Y-52585276D01*
X134389315Y-52589876D01*
X134404429Y-52600551D01*
X134408085Y-52604144D01*
X134424427Y-52635918D01*
X134423107Y-52671572D01*
X134404150Y-52702190D01*
X134383780Y-52713796D01*
X134347796Y-52726491D01*
X134305372Y-52736541D01*
X134301922Y-52737140D01*
X134259252Y-52742356D01*
X134201866Y-52746730D01*
X134136849Y-52749818D01*
X134071289Y-52751177D01*
X134055057Y-52751218D01*
X133956744Y-52748741D01*
X133876692Y-52740735D01*
X133811513Y-52726203D01*
X133757817Y-52704149D01*
X133712216Y-52673576D01*
X133671323Y-52633486D01*
X133651202Y-52607259D01*
X133639576Y-52577712D01*
X133636667Y-52537995D01*
X133636808Y-52526026D01*
X133640681Y-52493345D01*
X133653065Y-52466819D01*
X133678230Y-52435971D01*
X133699442Y-52413831D01*
X133725838Y-52391285D01*
X133755555Y-52372917D01*
X133791785Y-52357661D01*
X133837717Y-52344449D01*
X133896544Y-52332214D01*
X133971456Y-52319889D01*
X134065645Y-52306406D01*
X134110957Y-52299396D01*
X134178911Y-52284837D01*
X134228047Y-52268337D01*
X134257614Y-52250439D01*
X134266864Y-52231685D01*
X134255048Y-52212615D01*
X134221416Y-52193771D01*
X134218370Y-52192557D01*
X134172011Y-52180479D01*
X134109361Y-52172279D01*
X134035927Y-52168119D01*
X133957217Y-52168161D01*
X133878739Y-52172569D01*
X133806000Y-52181505D01*
X133802073Y-52182154D01*
X133753257Y-52189861D01*
X133721005Y-52193473D01*
X133700008Y-52192876D01*
X133684954Y-52187954D01*
X133670534Y-52178596D01*
X133669364Y-52177725D01*
X133644847Y-52147351D01*
X133640054Y-52111850D01*
X133655860Y-52077269D01*
X133660406Y-52072813D01*
X133690020Y-52057673D01*
X133737002Y-52044550D01*
X133797306Y-52033750D01*
X133866888Y-52025581D01*
X133941703Y-52020351D01*
X134017706Y-52018367D01*
X134090853Y-52019936D01*
G36*
X134090853Y-52019936D02*
G01*
X134157100Y-52025366D01*
X134212400Y-52034964D01*
X134263283Y-52049825D01*
X134334595Y-52082958D01*
X134385752Y-52125640D01*
X134416575Y-52177705D01*
X134426889Y-52238983D01*
X134425952Y-52270232D01*
X134420160Y-52295029D01*
X134405353Y-52316699D01*
X134377380Y-52344049D01*
X134369402Y-52351378D01*
X134345692Y-52372281D01*
X134323298Y-52389251D01*
X134299265Y-52403205D01*
X134270637Y-52415056D01*
X134234460Y-52425720D01*
X134187780Y-52436111D01*
X134127641Y-52447146D01*
X134051090Y-52459738D01*
X133955171Y-52474804D01*
X133936808Y-52477838D01*
X133874478Y-52491458D01*
X133829260Y-52507192D01*
X133802976Y-52524263D01*
X133797447Y-52541897D01*
X133800068Y-52546168D01*
X133818000Y-52561233D01*
X133846126Y-52577867D01*
X133858926Y-52583857D01*
X133880224Y-52591050D01*
X133906610Y-52595827D01*
X133942454Y-52598646D01*
X133992128Y-52599964D01*
X134060000Y-52600237D01*
X134077785Y-52600164D01*
X134145406Y-52599053D01*
X134210345Y-52596828D01*
X134265970Y-52593762D01*
X134305651Y-52590127D01*
X134341162Y-52586059D01*
X134370415Y-52585276D01*
X134389315Y-52589876D01*
X134404429Y-52600551D01*
X134408085Y-52604144D01*
X134424427Y-52635918D01*
X134423107Y-52671572D01*
X134404150Y-52702190D01*
X134383780Y-52713796D01*
X134347796Y-52726491D01*
X134305372Y-52736541D01*
X134301922Y-52737140D01*
X134259252Y-52742356D01*
X134201866Y-52746730D01*
X134136849Y-52749818D01*
X134071289Y-52751177D01*
X134055057Y-52751218D01*
X133956744Y-52748741D01*
X133876692Y-52740735D01*
X133811513Y-52726203D01*
X133757817Y-52704149D01*
X133712216Y-52673576D01*
X133671323Y-52633486D01*
X133651202Y-52607259D01*
X133639576Y-52577712D01*
X133636667Y-52537995D01*
X133636808Y-52526026D01*
X133640681Y-52493345D01*
X133653065Y-52466819D01*
X133678230Y-52435971D01*
X133699442Y-52413831D01*
X133725838Y-52391285D01*
X133755555Y-52372917D01*
X133791785Y-52357661D01*
X133837717Y-52344449D01*
X133896544Y-52332214D01*
X133971456Y-52319889D01*
X134065645Y-52306406D01*
X134110957Y-52299396D01*
X134178911Y-52284837D01*
X134228047Y-52268337D01*
X134257614Y-52250439D01*
X134266864Y-52231685D01*
X134255048Y-52212615D01*
X134221416Y-52193771D01*
X134218370Y-52192557D01*
X134172011Y-52180479D01*
X134109361Y-52172279D01*
X134035927Y-52168119D01*
X133957217Y-52168161D01*
X133878739Y-52172569D01*
X133806000Y-52181505D01*
X133802073Y-52182154D01*
X133753257Y-52189861D01*
X133721005Y-52193473D01*
X133700008Y-52192876D01*
X133684954Y-52187954D01*
X133670534Y-52178596D01*
X133669364Y-52177725D01*
X133644847Y-52147351D01*
X133640054Y-52111850D01*
X133655860Y-52077269D01*
X133660406Y-52072813D01*
X133690020Y-52057673D01*
X133737002Y-52044550D01*
X133797306Y-52033750D01*
X133866888Y-52025581D01*
X133941703Y-52020351D01*
X134017706Y-52018367D01*
X134090853Y-52019936D01*
G37*
X130238711Y-47712033D02*
X130334268Y-47729523D01*
X130498558Y-47774564D01*
X130652589Y-47837656D01*
X130798509Y-47919915D01*
X130938466Y-48022457D01*
X131074608Y-48146399D01*
X131118473Y-48191661D01*
X131230758Y-48323865D01*
X131323972Y-48461832D01*
X131400719Y-48609750D01*
X131463603Y-48771803D01*
X131467420Y-48783391D01*
X131517507Y-48969392D01*
X131550899Y-49165521D01*
X131567584Y-49367568D01*
X131567551Y-49571325D01*
X131550791Y-49772581D01*
X131517292Y-49967128D01*
X131467044Y-50150756D01*
X131423190Y-50268053D01*
X131345348Y-50430951D01*
X131251828Y-50584866D01*
X131144822Y-50726671D01*
X131026519Y-50853239D01*
X130899111Y-50961441D01*
X130821606Y-51014120D01*
X130694725Y-51083750D01*
X130557243Y-51142468D01*
X130415716Y-51187587D01*
X130276702Y-51216422D01*
X130262597Y-51218106D01*
X130219153Y-51221434D01*
X130161723Y-51224275D01*
X130096122Y-51226373D01*
X130028167Y-51227468D01*
X129901378Y-51225140D01*
X129753673Y-51212136D01*
X129615779Y-51187133D01*
X129482014Y-51149318D01*
X129458562Y-51140889D01*
X129410612Y-51121408D01*
X129354140Y-51096473D01*
X129292379Y-51067722D01*
X129228563Y-51036790D01*
X129165926Y-51005315D01*
X129107703Y-50974934D01*
X129057127Y-50947283D01*
X129017433Y-50923999D01*
X128991854Y-50906718D01*
X128983625Y-50897079D01*
X128985076Y-50893984D01*
X128996250Y-50874079D01*
X129017134Y-50838420D01*
X129046265Y-50789459D01*
X129082181Y-50729646D01*
X129123420Y-50661433D01*
X129168517Y-50587271D01*
X129349785Y-50290008D01*
X129396315Y-50334539D01*
X129487723Y-50412865D01*
X129601334Y-50487439D01*
X129719122Y-50541474D01*
X129839559Y-50574290D01*
X129961117Y-50585211D01*
X130002585Y-50583868D01*
X130120080Y-50565612D01*
X130230089Y-50526617D01*
X130331430Y-50467670D01*
X130422921Y-50389557D01*
X130503380Y-50293064D01*
X130571627Y-50178978D01*
X130587908Y-50144724D01*
X130633982Y-50021240D01*
X130669106Y-49882918D01*
X130693197Y-49733561D01*
X130706173Y-49576973D01*
X130707949Y-49416956D01*
X130698443Y-49257314D01*
X130677572Y-49101850D01*
X130645252Y-48954366D01*
X130601399Y-48818667D01*
X130563982Y-48732076D01*
X130499185Y-48618688D01*
X130423772Y-48525070D01*
X130337418Y-48450959D01*
X130239795Y-48396094D01*
X130130577Y-48360212D01*
X130009439Y-48343051D01*
X129940038Y-48341880D01*
X129817168Y-48356141D01*
X129701664Y-48391241D01*
X129594953Y-48446682D01*
X129498464Y-48521964D01*
X129482720Y-48536440D01*
X129452150Y-48562962D01*
X129429809Y-48580138D01*
X129419691Y-48584787D01*
X129417706Y-48582597D01*
X129403241Y-48563721D01*
X129379400Y-48530397D01*
X129348029Y-48485380D01*
X129310974Y-48431425D01*
X129270083Y-48371285D01*
X129227202Y-48307718D01*
X129184178Y-48243476D01*
X129142857Y-48181315D01*
X129105086Y-48123991D01*
X129072712Y-48074257D01*
X129047582Y-48034868D01*
X129031542Y-48008580D01*
X129026439Y-47998147D01*
X129031050Y-47993941D01*
X129050267Y-47988933D01*
X129059838Y-47986386D01*
X129087809Y-47975249D01*
X129129448Y-47956802D01*
X129180995Y-47932725D01*
X129238690Y-47904699D01*
X129249957Y-47899154D01*
X129427687Y-47819889D01*
X129597490Y-47760385D01*
X129761430Y-47720245D01*
X129921571Y-47699071D01*
X130079977Y-47696466D01*
X130238711Y-47712033D01*
G36*
X130238711Y-47712033D02*
G01*
X130334268Y-47729523D01*
X130498558Y-47774564D01*
X130652589Y-47837656D01*
X130798509Y-47919915D01*
X130938466Y-48022457D01*
X131074608Y-48146399D01*
X131118473Y-48191661D01*
X131230758Y-48323865D01*
X131323972Y-48461832D01*
X131400719Y-48609750D01*
X131463603Y-48771803D01*
X131467420Y-48783391D01*
X131517507Y-48969392D01*
X131550899Y-49165521D01*
X131567584Y-49367568D01*
X131567551Y-49571325D01*
X131550791Y-49772581D01*
X131517292Y-49967128D01*
X131467044Y-50150756D01*
X131423190Y-50268053D01*
X131345348Y-50430951D01*
X131251828Y-50584866D01*
X131144822Y-50726671D01*
X131026519Y-50853239D01*
X130899111Y-50961441D01*
X130821606Y-51014120D01*
X130694725Y-51083750D01*
X130557243Y-51142468D01*
X130415716Y-51187587D01*
X130276702Y-51216422D01*
X130262597Y-51218106D01*
X130219153Y-51221434D01*
X130161723Y-51224275D01*
X130096122Y-51226373D01*
X130028167Y-51227468D01*
X129901378Y-51225140D01*
X129753673Y-51212136D01*
X129615779Y-51187133D01*
X129482014Y-51149318D01*
X129458562Y-51140889D01*
X129410612Y-51121408D01*
X129354140Y-51096473D01*
X129292379Y-51067722D01*
X129228563Y-51036790D01*
X129165926Y-51005315D01*
X129107703Y-50974934D01*
X129057127Y-50947283D01*
X129017433Y-50923999D01*
X128991854Y-50906718D01*
X128983625Y-50897079D01*
X128985076Y-50893984D01*
X128996250Y-50874079D01*
X129017134Y-50838420D01*
X129046265Y-50789459D01*
X129082181Y-50729646D01*
X129123420Y-50661433D01*
X129168517Y-50587271D01*
X129349785Y-50290008D01*
X129396315Y-50334539D01*
X129487723Y-50412865D01*
X129601334Y-50487439D01*
X129719122Y-50541474D01*
X129839559Y-50574290D01*
X129961117Y-50585211D01*
X130002585Y-50583868D01*
X130120080Y-50565612D01*
X130230089Y-50526617D01*
X130331430Y-50467670D01*
X130422921Y-50389557D01*
X130503380Y-50293064D01*
X130571627Y-50178978D01*
X130587908Y-50144724D01*
X130633982Y-50021240D01*
X130669106Y-49882918D01*
X130693197Y-49733561D01*
X130706173Y-49576973D01*
X130707949Y-49416956D01*
X130698443Y-49257314D01*
X130677572Y-49101850D01*
X130645252Y-48954366D01*
X130601399Y-48818667D01*
X130563982Y-48732076D01*
X130499185Y-48618688D01*
X130423772Y-48525070D01*
X130337418Y-48450959D01*
X130239795Y-48396094D01*
X130130577Y-48360212D01*
X130009439Y-48343051D01*
X129940038Y-48341880D01*
X129817168Y-48356141D01*
X129701664Y-48391241D01*
X129594953Y-48446682D01*
X129498464Y-48521964D01*
X129482720Y-48536440D01*
X129452150Y-48562962D01*
X129429809Y-48580138D01*
X129419691Y-48584787D01*
X129417706Y-48582597D01*
X129403241Y-48563721D01*
X129379400Y-48530397D01*
X129348029Y-48485380D01*
X129310974Y-48431425D01*
X129270083Y-48371285D01*
X129227202Y-48307718D01*
X129184178Y-48243476D01*
X129142857Y-48181315D01*
X129105086Y-48123991D01*
X129072712Y-48074257D01*
X129047582Y-48034868D01*
X129031542Y-48008580D01*
X129026439Y-47998147D01*
X129031050Y-47993941D01*
X129050267Y-47988933D01*
X129059838Y-47986386D01*
X129087809Y-47975249D01*
X129129448Y-47956802D01*
X129180995Y-47932725D01*
X129238690Y-47904699D01*
X129249957Y-47899154D01*
X129427687Y-47819889D01*
X129597490Y-47760385D01*
X129761430Y-47720245D01*
X129921571Y-47699071D01*
X130079977Y-47696466D01*
X130238711Y-47712033D01*
G37*
X126435994Y-49992711D02*
X126435268Y-50070158D01*
X126426689Y-50221594D01*
X126407833Y-50358283D01*
X126377837Y-50484276D01*
X126335836Y-50603625D01*
X126280969Y-50720381D01*
X126214167Y-50831179D01*
X126123363Y-50944739D01*
X126019708Y-51040211D01*
X125903887Y-51117073D01*
X125776586Y-51174797D01*
X125638489Y-51212858D01*
X125600793Y-51218666D01*
X125521752Y-51224396D01*
X125433629Y-51224583D01*
X125344236Y-51219539D01*
X125261384Y-51209578D01*
X125192887Y-51195012D01*
X125162035Y-51185364D01*
X125084730Y-51155123D01*
X125007679Y-51117617D01*
X124938200Y-51076614D01*
X124883615Y-51035879D01*
X124860916Y-51016505D01*
X124838201Y-50998662D01*
X124826779Y-50991778D01*
X124825537Y-50993424D01*
X124822728Y-51011205D01*
X124820776Y-51044370D01*
X124820045Y-51087733D01*
X124820045Y-51183689D01*
X123961896Y-51183689D01*
X123996161Y-51122974D01*
X124001355Y-51113868D01*
X124009715Y-51099249D01*
X124017288Y-51085173D01*
X124024112Y-51070540D01*
X124030227Y-51054249D01*
X124035673Y-51035198D01*
X124040487Y-51012286D01*
X124044708Y-50984413D01*
X124048377Y-50950478D01*
X124051531Y-50909379D01*
X124054211Y-50860015D01*
X124056454Y-50801286D01*
X124058299Y-50732090D01*
X124059787Y-50651326D01*
X124060955Y-50557894D01*
X124061844Y-50450692D01*
X124062491Y-50328620D01*
X124062936Y-50190576D01*
X124063218Y-50035459D01*
X124063375Y-49862168D01*
X124063448Y-49669603D01*
X124063474Y-49456662D01*
X124063485Y-49320530D01*
X124865200Y-49320530D01*
X124865200Y-50470721D01*
X124935756Y-50517089D01*
X124976417Y-50540791D01*
X125030546Y-50566639D01*
X125079689Y-50584829D01*
X125143165Y-50600551D01*
X125239331Y-50611541D01*
X125323900Y-50603365D01*
X125397219Y-50575805D01*
X125459637Y-50528642D01*
X125511502Y-50461658D01*
X125553160Y-50374633D01*
X125584962Y-50267350D01*
X125587545Y-50255009D01*
X125596000Y-50193772D01*
X125601663Y-50116692D01*
X125604576Y-50029002D01*
X125604783Y-49935934D01*
X125602330Y-49842720D01*
X125597261Y-49754594D01*
X125589619Y-49676788D01*
X125579448Y-49614533D01*
X125578167Y-49608666D01*
X125549126Y-49498121D01*
X125514610Y-49407575D01*
X125473456Y-49334953D01*
X125424499Y-49278181D01*
X125366574Y-49235184D01*
X125334620Y-49219615D01*
X125261784Y-49200722D01*
X125180443Y-49197465D01*
X125095319Y-49209389D01*
X125011133Y-49236040D01*
X124932608Y-49276962D01*
X124865200Y-49320530D01*
X124063485Y-49320530D01*
X124063493Y-49222245D01*
X124063689Y-47537378D01*
X124969017Y-47537378D01*
X124944585Y-47574067D01*
X124938318Y-47583647D01*
X124912208Y-47629981D01*
X124894469Y-47677102D01*
X124882908Y-47732251D01*
X124875331Y-47802667D01*
X124874839Y-47809650D01*
X124873062Y-47847641D01*
X124871444Y-47901576D01*
X124869999Y-47968703D01*
X124868740Y-48046271D01*
X124867680Y-48131528D01*
X124866829Y-48221724D01*
X124866203Y-48314107D01*
X124865812Y-48405925D01*
X124865670Y-48494427D01*
X124865790Y-48576862D01*
X124866183Y-48650479D01*
X124866862Y-48712526D01*
X124867841Y-48760251D01*
X124869132Y-48790904D01*
X124870747Y-48801733D01*
X124878957Y-48797333D01*
X124900647Y-48782362D01*
X124930014Y-48760448D01*
X124978879Y-48726236D01*
X125067125Y-48679714D01*
X125165916Y-48646046D01*
X125278510Y-48624231D01*
X125408164Y-48613265D01*
X125500670Y-48612219D01*
X125622011Y-48622014D01*
X125732099Y-48646174D01*
X125835389Y-48685785D01*
X125936338Y-48741932D01*
X125981503Y-48772883D01*
X126086911Y-48864115D01*
X126178538Y-48973106D01*
X126256332Y-49099726D01*
X126320241Y-49243845D01*
X126370214Y-49405332D01*
X126406198Y-49584059D01*
X126428143Y-49779895D01*
X126433900Y-49935934D01*
X126435994Y-49992711D01*
G36*
X126435994Y-49992711D02*
G01*
X126435268Y-50070158D01*
X126426689Y-50221594D01*
X126407833Y-50358283D01*
X126377837Y-50484276D01*
X126335836Y-50603625D01*
X126280969Y-50720381D01*
X126214167Y-50831179D01*
X126123363Y-50944739D01*
X126019708Y-51040211D01*
X125903887Y-51117073D01*
X125776586Y-51174797D01*
X125638489Y-51212858D01*
X125600793Y-51218666D01*
X125521752Y-51224396D01*
X125433629Y-51224583D01*
X125344236Y-51219539D01*
X125261384Y-51209578D01*
X125192887Y-51195012D01*
X125162035Y-51185364D01*
X125084730Y-51155123D01*
X125007679Y-51117617D01*
X124938200Y-51076614D01*
X124883615Y-51035879D01*
X124860916Y-51016505D01*
X124838201Y-50998662D01*
X124826779Y-50991778D01*
X124825537Y-50993424D01*
X124822728Y-51011205D01*
X124820776Y-51044370D01*
X124820045Y-51087733D01*
X124820045Y-51183689D01*
X123961896Y-51183689D01*
X123996161Y-51122974D01*
X124001355Y-51113868D01*
X124009715Y-51099249D01*
X124017288Y-51085173D01*
X124024112Y-51070540D01*
X124030227Y-51054249D01*
X124035673Y-51035198D01*
X124040487Y-51012286D01*
X124044708Y-50984413D01*
X124048377Y-50950478D01*
X124051531Y-50909379D01*
X124054211Y-50860015D01*
X124056454Y-50801286D01*
X124058299Y-50732090D01*
X124059787Y-50651326D01*
X124060955Y-50557894D01*
X124061844Y-50450692D01*
X124062491Y-50328620D01*
X124062936Y-50190576D01*
X124063218Y-50035459D01*
X124063375Y-49862168D01*
X124063448Y-49669603D01*
X124063474Y-49456662D01*
X124063485Y-49320530D01*
X124865200Y-49320530D01*
X124865200Y-50470721D01*
X124935756Y-50517089D01*
X124976417Y-50540791D01*
X125030546Y-50566639D01*
X125079689Y-50584829D01*
X125143165Y-50600551D01*
X125239331Y-50611541D01*
X125323900Y-50603365D01*
X125397219Y-50575805D01*
X125459637Y-50528642D01*
X125511502Y-50461658D01*
X125553160Y-50374633D01*
X125584962Y-50267350D01*
X125587545Y-50255009D01*
X125596000Y-50193772D01*
X125601663Y-50116692D01*
X125604576Y-50029002D01*
X125604783Y-49935934D01*
X125602330Y-49842720D01*
X125597261Y-49754594D01*
X125589619Y-49676788D01*
X125579448Y-49614533D01*
X125578167Y-49608666D01*
X125549126Y-49498121D01*
X125514610Y-49407575D01*
X125473456Y-49334953D01*
X125424499Y-49278181D01*
X125366574Y-49235184D01*
X125334620Y-49219615D01*
X125261784Y-49200722D01*
X125180443Y-49197465D01*
X125095319Y-49209389D01*
X125011133Y-49236040D01*
X124932608Y-49276962D01*
X124865200Y-49320530D01*
X124063485Y-49320530D01*
X124063493Y-49222245D01*
X124063689Y-47537378D01*
X124969017Y-47537378D01*
X124944585Y-47574067D01*
X124938318Y-47583647D01*
X124912208Y-47629981D01*
X124894469Y-47677102D01*
X124882908Y-47732251D01*
X124875331Y-47802667D01*
X124874839Y-47809650D01*
X124873062Y-47847641D01*
X124871444Y-47901576D01*
X124869999Y-47968703D01*
X124868740Y-48046271D01*
X124867680Y-48131528D01*
X124866829Y-48221724D01*
X124866203Y-48314107D01*
X124865812Y-48405925D01*
X124865670Y-48494427D01*
X124865790Y-48576862D01*
X124866183Y-48650479D01*
X124866862Y-48712526D01*
X124867841Y-48760251D01*
X124869132Y-48790904D01*
X124870747Y-48801733D01*
X124878957Y-48797333D01*
X124900647Y-48782362D01*
X124930014Y-48760448D01*
X124978879Y-48726236D01*
X125067125Y-48679714D01*
X125165916Y-48646046D01*
X125278510Y-48624231D01*
X125408164Y-48613265D01*
X125500670Y-48612219D01*
X125622011Y-48622014D01*
X125732099Y-48646174D01*
X125835389Y-48685785D01*
X125936338Y-48741932D01*
X125981503Y-48772883D01*
X126086911Y-48864115D01*
X126178538Y-48973106D01*
X126256332Y-49099726D01*
X126320241Y-49243845D01*
X126370214Y-49405332D01*
X126406198Y-49584059D01*
X126428143Y-49779895D01*
X126433900Y-49935934D01*
X126435994Y-49992711D01*
G37*
X128977755Y-50393467D02*
X128977261Y-50427363D01*
X128973632Y-50502202D01*
X128966022Y-50564401D01*
X128953688Y-50620984D01*
X128909313Y-50747076D01*
X128846400Y-50861679D01*
X128766238Y-50962568D01*
X128669740Y-51048924D01*
X128557822Y-51119932D01*
X128431397Y-51174776D01*
X128291378Y-51212638D01*
X128255149Y-51218351D01*
X128176155Y-51224313D01*
X128087841Y-51224646D01*
X127998075Y-51219659D01*
X127914722Y-51209666D01*
X127845651Y-51194978D01*
X127759187Y-51164749D01*
X127649286Y-51110057D01*
X127551956Y-51042543D01*
X127489867Y-50991556D01*
X127486605Y-51087622D01*
X127483343Y-51183689D01*
X127060450Y-51183689D01*
X127049543Y-51183686D01*
X126955056Y-51183380D01*
X126868331Y-51182616D01*
X126791837Y-51181451D01*
X126728043Y-51179942D01*
X126679418Y-51178147D01*
X126648433Y-51176121D01*
X126637556Y-51173922D01*
X126637578Y-51173463D01*
X126644614Y-51157910D01*
X126660434Y-51135071D01*
X126664734Y-51129638D01*
X126675777Y-51115606D01*
X126685311Y-51102186D01*
X126693461Y-51087722D01*
X126700352Y-51070556D01*
X126706111Y-51049034D01*
X126710862Y-51021498D01*
X126714731Y-50986292D01*
X126717844Y-50941760D01*
X126720325Y-50886246D01*
X126722300Y-50818093D01*
X126723894Y-50735645D01*
X126725234Y-50637246D01*
X126726444Y-50521239D01*
X126727649Y-50385968D01*
X126728595Y-50274586D01*
X127529378Y-50274586D01*
X127529378Y-50470462D01*
X127574048Y-50526973D01*
X127586785Y-50542212D01*
X127633604Y-50584844D01*
X127694255Y-50620672D01*
X127704897Y-50625850D01*
X127743676Y-50642745D01*
X127778692Y-50652909D01*
X127818722Y-50658325D01*
X127872541Y-50660978D01*
X127890648Y-50661383D01*
X127966011Y-50658540D01*
X128026743Y-50646620D01*
X128078452Y-50624037D01*
X128126746Y-50589211D01*
X128131803Y-50584798D01*
X128180272Y-50529160D01*
X128208459Y-50465333D01*
X128217752Y-50390282D01*
X128210520Y-50318693D01*
X128185796Y-50255645D01*
X128141249Y-50197758D01*
X128086319Y-50150808D01*
X128013894Y-50110961D01*
X127927340Y-50083263D01*
X127824670Y-50067096D01*
X127703894Y-50061842D01*
X127695007Y-50061857D01*
X127639660Y-50062655D01*
X127592736Y-50064488D01*
X127558953Y-50067111D01*
X127543028Y-50070274D01*
X127538943Y-50076741D01*
X127534572Y-50098875D01*
X127531604Y-50137988D01*
X127529914Y-50195939D01*
X127529378Y-50274586D01*
X126728595Y-50274586D01*
X126728975Y-50229778D01*
X126730228Y-50087012D01*
X126731651Y-49941942D01*
X126733176Y-49816027D01*
X126734933Y-49707436D01*
X126737051Y-49614334D01*
X126739660Y-49534891D01*
X126742890Y-49467273D01*
X126746869Y-49409649D01*
X126751728Y-49360185D01*
X126757597Y-49317050D01*
X126764604Y-49278410D01*
X126772880Y-49242434D01*
X126782554Y-49207289D01*
X126793756Y-49171142D01*
X126806616Y-49132161D01*
X126822090Y-49089091D01*
X126864994Y-48996871D01*
X126918735Y-48917099D01*
X126987576Y-48842965D01*
X127065185Y-48779405D01*
X127169761Y-48717725D01*
X127289244Y-48670202D01*
X127424508Y-48636567D01*
X127576426Y-48616552D01*
X127745872Y-48609889D01*
X127803890Y-48610287D01*
X127869398Y-48612335D01*
X127930693Y-48616704D01*
X127992097Y-48624035D01*
X128057932Y-48634969D01*
X128132520Y-48650147D01*
X128220184Y-48670209D01*
X128325245Y-48695797D01*
X128353806Y-48702820D01*
X128429054Y-48720776D01*
X128499388Y-48736820D01*
X128560567Y-48750028D01*
X128608354Y-48759474D01*
X128638511Y-48764231D01*
X128666783Y-48767910D01*
X128693060Y-48773187D01*
X128703059Y-48777942D01*
X128699952Y-48786781D01*
X128689194Y-48814072D01*
X128671864Y-48856906D01*
X128649126Y-48912425D01*
X128622147Y-48977772D01*
X128592090Y-49050089D01*
X128585493Y-49065879D01*
X128546907Y-49156484D01*
X128515768Y-49226217D01*
X128491917Y-49275405D01*
X128475198Y-49304374D01*
X128465454Y-49313452D01*
X128457766Y-49311405D01*
X128431415Y-49301760D01*
X128392982Y-49286190D01*
X128347822Y-49266815D01*
X128253293Y-49228814D01*
X128116480Y-49187780D01*
X127975289Y-49162612D01*
X127937314Y-49158611D01*
X127834059Y-49156447D01*
X127746952Y-49169622D01*
X127675129Y-49198756D01*
X127617731Y-49244466D01*
X127573896Y-49307372D01*
X127542762Y-49388092D01*
X127523470Y-49487245D01*
X127516050Y-49546224D01*
X127677936Y-49539445D01*
X127804495Y-49537813D01*
X127955951Y-49544194D01*
X128104396Y-49558777D01*
X128240578Y-49580882D01*
X128305245Y-49595821D01*
X128437490Y-49638741D01*
X128559762Y-49695340D01*
X128669685Y-49764017D01*
X128764883Y-49843170D01*
X128842980Y-49931196D01*
X128901599Y-50026493D01*
X128925595Y-50078864D01*
X128951232Y-50149590D01*
X128967478Y-50220812D01*
X128975822Y-50299712D01*
X128977690Y-50390282D01*
X128977755Y-50393467D01*
G36*
X128977755Y-50393467D02*
G01*
X128977261Y-50427363D01*
X128973632Y-50502202D01*
X128966022Y-50564401D01*
X128953688Y-50620984D01*
X128909313Y-50747076D01*
X128846400Y-50861679D01*
X128766238Y-50962568D01*
X128669740Y-51048924D01*
X128557822Y-51119932D01*
X128431397Y-51174776D01*
X128291378Y-51212638D01*
X128255149Y-51218351D01*
X128176155Y-51224313D01*
X128087841Y-51224646D01*
X127998075Y-51219659D01*
X127914722Y-51209666D01*
X127845651Y-51194978D01*
X127759187Y-51164749D01*
X127649286Y-51110057D01*
X127551956Y-51042543D01*
X127489867Y-50991556D01*
X127486605Y-51087622D01*
X127483343Y-51183689D01*
X127060450Y-51183689D01*
X127049543Y-51183686D01*
X126955056Y-51183380D01*
X126868331Y-51182616D01*
X126791837Y-51181451D01*
X126728043Y-51179942D01*
X126679418Y-51178147D01*
X126648433Y-51176121D01*
X126637556Y-51173922D01*
X126637578Y-51173463D01*
X126644614Y-51157910D01*
X126660434Y-51135071D01*
X126664734Y-51129638D01*
X126675777Y-51115606D01*
X126685311Y-51102186D01*
X126693461Y-51087722D01*
X126700352Y-51070556D01*
X126706111Y-51049034D01*
X126710862Y-51021498D01*
X126714731Y-50986292D01*
X126717844Y-50941760D01*
X126720325Y-50886246D01*
X126722300Y-50818093D01*
X126723894Y-50735645D01*
X126725234Y-50637246D01*
X126726444Y-50521239D01*
X126727649Y-50385968D01*
X126728595Y-50274586D01*
X127529378Y-50274586D01*
X127529378Y-50470462D01*
X127574048Y-50526973D01*
X127586785Y-50542212D01*
X127633604Y-50584844D01*
X127694255Y-50620672D01*
X127704897Y-50625850D01*
X127743676Y-50642745D01*
X127778692Y-50652909D01*
X127818722Y-50658325D01*
X127872541Y-50660978D01*
X127890648Y-50661383D01*
X127966011Y-50658540D01*
X128026743Y-50646620D01*
X128078452Y-50624037D01*
X128126746Y-50589211D01*
X128131803Y-50584798D01*
X128180272Y-50529160D01*
X128208459Y-50465333D01*
X128217752Y-50390282D01*
X128210520Y-50318693D01*
X128185796Y-50255645D01*
X128141249Y-50197758D01*
X128086319Y-50150808D01*
X128013894Y-50110961D01*
X127927340Y-50083263D01*
X127824670Y-50067096D01*
X127703894Y-50061842D01*
X127695007Y-50061857D01*
X127639660Y-50062655D01*
X127592736Y-50064488D01*
X127558953Y-50067111D01*
X127543028Y-50070274D01*
X127538943Y-50076741D01*
X127534572Y-50098875D01*
X127531604Y-50137988D01*
X127529914Y-50195939D01*
X127529378Y-50274586D01*
X126728595Y-50274586D01*
X126728975Y-50229778D01*
X126730228Y-50087012D01*
X126731651Y-49941942D01*
X126733176Y-49816027D01*
X126734933Y-49707436D01*
X126737051Y-49614334D01*
X126739660Y-49534891D01*
X126742890Y-49467273D01*
X126746869Y-49409649D01*
X126751728Y-49360185D01*
X126757597Y-49317050D01*
X126764604Y-49278410D01*
X126772880Y-49242434D01*
X126782554Y-49207289D01*
X126793756Y-49171142D01*
X126806616Y-49132161D01*
X126822090Y-49089091D01*
X126864994Y-48996871D01*
X126918735Y-48917099D01*
X126987576Y-48842965D01*
X127065185Y-48779405D01*
X127169761Y-48717725D01*
X127289244Y-48670202D01*
X127424508Y-48636567D01*
X127576426Y-48616552D01*
X127745872Y-48609889D01*
X127803890Y-48610287D01*
X127869398Y-48612335D01*
X127930693Y-48616704D01*
X127992097Y-48624035D01*
X128057932Y-48634969D01*
X128132520Y-48650147D01*
X128220184Y-48670209D01*
X128325245Y-48695797D01*
X128353806Y-48702820D01*
X128429054Y-48720776D01*
X128499388Y-48736820D01*
X128560567Y-48750028D01*
X128608354Y-48759474D01*
X128638511Y-48764231D01*
X128666783Y-48767910D01*
X128693060Y-48773187D01*
X128703059Y-48777942D01*
X128699952Y-48786781D01*
X128689194Y-48814072D01*
X128671864Y-48856906D01*
X128649126Y-48912425D01*
X128622147Y-48977772D01*
X128592090Y-49050089D01*
X128585493Y-49065879D01*
X128546907Y-49156484D01*
X128515768Y-49226217D01*
X128491917Y-49275405D01*
X128475198Y-49304374D01*
X128465454Y-49313452D01*
X128457766Y-49311405D01*
X128431415Y-49301760D01*
X128392982Y-49286190D01*
X128347822Y-49266815D01*
X128253293Y-49228814D01*
X128116480Y-49187780D01*
X127975289Y-49162612D01*
X127937314Y-49158611D01*
X127834059Y-49156447D01*
X127746952Y-49169622D01*
X127675129Y-49198756D01*
X127617731Y-49244466D01*
X127573896Y-49307372D01*
X127542762Y-49388092D01*
X127523470Y-49487245D01*
X127516050Y-49546224D01*
X127677936Y-49539445D01*
X127804495Y-49537813D01*
X127955951Y-49544194D01*
X128104396Y-49558777D01*
X128240578Y-49580882D01*
X128305245Y-49595821D01*
X128437490Y-49638741D01*
X128559762Y-49695340D01*
X128669685Y-49764017D01*
X128764883Y-49843170D01*
X128842980Y-49931196D01*
X128901599Y-50026493D01*
X128925595Y-50078864D01*
X128951232Y-50149590D01*
X128967478Y-50220812D01*
X128975822Y-50299712D01*
X128977690Y-50390282D01*
X128977755Y-50393467D01*
G37*
X136525614Y-47861792D02*
X136526059Y-47993011D01*
X136526362Y-48140216D01*
X136526548Y-48304349D01*
X136526642Y-48486352D01*
X136526671Y-48687165D01*
X136526661Y-48907732D01*
X136526636Y-49148992D01*
X136526622Y-49411889D01*
X136526622Y-49454040D01*
X136526646Y-49714668D01*
X136526685Y-49953796D01*
X136526708Y-50172360D01*
X136526687Y-50371295D01*
X136526593Y-50551535D01*
X136526395Y-50714015D01*
X136526063Y-50859670D01*
X136525569Y-50989434D01*
X136524883Y-51104243D01*
X136523976Y-51205030D01*
X136522817Y-51292730D01*
X136521378Y-51368279D01*
X136519629Y-51432611D01*
X136517540Y-51486661D01*
X136515083Y-51531363D01*
X136512227Y-51567652D01*
X136508943Y-51596463D01*
X136505202Y-51618731D01*
X136500974Y-51635390D01*
X136496229Y-51647375D01*
X136490939Y-51655621D01*
X136485073Y-51661062D01*
X136478602Y-51664634D01*
X136471497Y-51667270D01*
X136463728Y-51669906D01*
X136455266Y-51673477D01*
X136450908Y-51675145D01*
X136442395Y-51677111D01*
X136429694Y-51678911D01*
X136411885Y-51680555D01*
X136388049Y-51682047D01*
X136357266Y-51683397D01*
X136318617Y-51684611D01*
X136271182Y-51685697D01*
X136214043Y-51686661D01*
X136146279Y-51687511D01*
X136066971Y-51688253D01*
X135975199Y-51688897D01*
X135870044Y-51689447D01*
X135750587Y-51689913D01*
X135615908Y-51690300D01*
X135465088Y-51690616D01*
X135297206Y-51690869D01*
X135111345Y-51691066D01*
X134906583Y-51691213D01*
X134682002Y-51691318D01*
X134436682Y-51691389D01*
X134169704Y-51691432D01*
X134131321Y-51691437D01*
X133865922Y-51691480D01*
X133622050Y-51691525D01*
X133398783Y-51691548D01*
X133195196Y-51691524D01*
X133010367Y-51691430D01*
X132843373Y-51691243D01*
X132693290Y-51690939D01*
X132559196Y-51690494D01*
X132440166Y-51689885D01*
X132335279Y-51689089D01*
X132243610Y-51688080D01*
X132164237Y-51686837D01*
X132096237Y-51685335D01*
X132038686Y-51683551D01*
X131990662Y-51681461D01*
X131951240Y-51679042D01*
X131919499Y-51676270D01*
X131894514Y-51673121D01*
X131875364Y-51669572D01*
X131861123Y-51665598D01*
X131850871Y-51661178D01*
X131843682Y-51656286D01*
X131838635Y-51650900D01*
X131834805Y-51644996D01*
X131831271Y-51638549D01*
X131827108Y-51631537D01*
X131826025Y-51629687D01*
X131823813Y-51624180D01*
X131821786Y-51615868D01*
X131819938Y-51603809D01*
X131818261Y-51587063D01*
X131816745Y-51564687D01*
X131815383Y-51535740D01*
X131814167Y-51499280D01*
X131813089Y-51454367D01*
X131812140Y-51400057D01*
X131811312Y-51335410D01*
X131810597Y-51259484D01*
X131809987Y-51171338D01*
X131809942Y-51162493D01*
X132101378Y-51162493D01*
X132105260Y-51163765D01*
X132128520Y-51165791D01*
X132170874Y-51167626D01*
X132230132Y-51169227D01*
X132304107Y-51170549D01*
X132390610Y-51171548D01*
X132487452Y-51172180D01*
X132592445Y-51172400D01*
X133290651Y-51172400D01*
X134445090Y-51172400D01*
X134444456Y-51096200D01*
X134445574Y-51054160D01*
X134451304Y-51018334D01*
X134463890Y-50980772D01*
X134485568Y-50932577D01*
X134488789Y-50925897D01*
X134514188Y-50876359D01*
X134540996Y-50828369D01*
X134563917Y-50791466D01*
X134568485Y-50784834D01*
X134590516Y-50753593D01*
X134622693Y-50708654D01*
X134663457Y-50652147D01*
X134711245Y-50586204D01*
X134764498Y-50512957D01*
X134821655Y-50434536D01*
X134881155Y-50353072D01*
X134941437Y-50270698D01*
X135000940Y-50189544D01*
X135058105Y-50111742D01*
X135111370Y-50039423D01*
X135159174Y-49974718D01*
X135199957Y-49919759D01*
X135232158Y-49876676D01*
X135254216Y-49847602D01*
X135264571Y-49834667D01*
X135269044Y-49830351D01*
X135273236Y-49828312D01*
X135276643Y-49830926D01*
X135279325Y-49839986D01*
X135281341Y-49857285D01*
X135282748Y-49884614D01*
X135283605Y-49923765D01*
X135283970Y-49976533D01*
X135283903Y-50044707D01*
X135283460Y-50130082D01*
X135282702Y-50234449D01*
X135281685Y-50359600D01*
X135281308Y-50404300D01*
X135280169Y-50525395D01*
X135278972Y-50626688D01*
X135277636Y-50710262D01*
X135276077Y-50778204D01*
X135274215Y-50832599D01*
X135271966Y-50875532D01*
X135269248Y-50909089D01*
X135265979Y-50935355D01*
X135262078Y-50956416D01*
X135257461Y-50974357D01*
X135249192Y-51000770D01*
X135225583Y-51062772D01*
X135199685Y-51115573D01*
X135174535Y-51152645D01*
X135173339Y-51154075D01*
X135171168Y-51158424D01*
X135173328Y-51162026D01*
X135181644Y-51164951D01*
X135197940Y-51167269D01*
X135224041Y-51169051D01*
X135261771Y-51170367D01*
X135312956Y-51171286D01*
X135379420Y-51171878D01*
X135462987Y-51172215D01*
X135565483Y-51172365D01*
X135688732Y-51172400D01*
X136220296Y-51172400D01*
X136181523Y-51114783D01*
X136175432Y-51105893D01*
X136164976Y-51091069D01*
X136155579Y-51077422D01*
X136147183Y-51063765D01*
X136139733Y-51048911D01*
X136133173Y-51031670D01*
X136127446Y-51010855D01*
X136122495Y-50985280D01*
X136118266Y-50953755D01*
X136114701Y-50915093D01*
X136111744Y-50868107D01*
X136109340Y-50811608D01*
X136107431Y-50744409D01*
X136105962Y-50665322D01*
X136104876Y-50573160D01*
X136104118Y-50466734D01*
X136103630Y-50344857D01*
X136103358Y-50206341D01*
X136103243Y-50049999D01*
X136103231Y-49874642D01*
X136103265Y-49679082D01*
X136103289Y-49462133D01*
X136103280Y-49339513D01*
X136103243Y-49134447D01*
X136103227Y-48950116D01*
X136103288Y-48785334D01*
X136103484Y-48638916D01*
X136103870Y-48509674D01*
X136104505Y-48396422D01*
X136105444Y-48297975D01*
X136106745Y-48213144D01*
X136108464Y-48140744D01*
X136110659Y-48079589D01*
X136113385Y-48028492D01*
X136116701Y-47986267D01*
X136120662Y-47951727D01*
X136125325Y-47923686D01*
X136130747Y-47900958D01*
X136136986Y-47882356D01*
X136144097Y-47866693D01*
X136152138Y-47852784D01*
X136161166Y-47839441D01*
X136171236Y-47825479D01*
X136182407Y-47809711D01*
X136222197Y-47751867D01*
X135162314Y-47751867D01*
X135200311Y-47814966D01*
X135214993Y-47840005D01*
X135229531Y-47867586D01*
X135241627Y-47895700D01*
X135251532Y-47926551D01*
X135259494Y-47962344D01*
X135265761Y-48005283D01*
X135270582Y-48057574D01*
X135274206Y-48121419D01*
X135276881Y-48199025D01*
X135278857Y-48292594D01*
X135280382Y-48404333D01*
X135281704Y-48536445D01*
X135282613Y-48656434D01*
X135283020Y-48773063D01*
X135282767Y-48868531D01*
X135281857Y-48942556D01*
X135280293Y-48994855D01*
X135278079Y-49025149D01*
X135275220Y-49033156D01*
X135272161Y-49029858D01*
X135254006Y-49008408D01*
X135224275Y-48971889D01*
X135184639Y-48922442D01*
X135136771Y-48862207D01*
X135082343Y-48793327D01*
X135023027Y-48717943D01*
X134960495Y-48638196D01*
X134896421Y-48556228D01*
X134832475Y-48474180D01*
X134770331Y-48394194D01*
X134711661Y-48318411D01*
X134658137Y-48248973D01*
X134611430Y-48188021D01*
X134573214Y-48137696D01*
X134545161Y-48100140D01*
X134528943Y-48077495D01*
X134483635Y-48005212D01*
X134443661Y-47925463D01*
X134422130Y-47857188D01*
X134418827Y-47799844D01*
X134424116Y-47751867D01*
X133292356Y-47752117D01*
X133331867Y-47782722D01*
X133341248Y-47790089D01*
X133404183Y-47844438D01*
X133472997Y-47912259D01*
X133549596Y-47995516D01*
X133635888Y-48096178D01*
X133653052Y-48116847D01*
X133693833Y-48166409D01*
X133743588Y-48227326D01*
X133800955Y-48297898D01*
X133864569Y-48376424D01*
X133933069Y-48461204D01*
X134005090Y-48550537D01*
X134079270Y-48642722D01*
X134094517Y-48661702D01*
X134154246Y-48736060D01*
X134228653Y-48828848D01*
X134301131Y-48919388D01*
X134370314Y-49005978D01*
X134434841Y-49086918D01*
X134493347Y-49160506D01*
X134544470Y-49225044D01*
X134586847Y-49278829D01*
X134619115Y-49320162D01*
X134639910Y-49347342D01*
X134647869Y-49358668D01*
X134646111Y-49362771D01*
X134633230Y-49383334D01*
X134608885Y-49419561D01*
X134574247Y-49469824D01*
X134530486Y-49532492D01*
X134478775Y-49605936D01*
X134420284Y-49688527D01*
X134356184Y-49778636D01*
X134287646Y-49874631D01*
X134215843Y-49974885D01*
X134141944Y-50077768D01*
X134067121Y-50181650D01*
X133992545Y-50284901D01*
X133919387Y-50385892D01*
X133848819Y-50482994D01*
X133782011Y-50574577D01*
X133720135Y-50659011D01*
X133664361Y-50734667D01*
X133615862Y-50799916D01*
X133575807Y-50853128D01*
X133545369Y-50892673D01*
X133524944Y-50918026D01*
X133478899Y-50972295D01*
X133428612Y-51028775D01*
X133381815Y-51078669D01*
X133290651Y-51172400D01*
X132592445Y-51172400D01*
X132661356Y-51172349D01*
X132759607Y-51172091D01*
X132849030Y-51171637D01*
X132927333Y-51171010D01*
X132992223Y-51170235D01*
X133041411Y-51169335D01*
X133072604Y-51168334D01*
X133083511Y-51167257D01*
X133082322Y-51164037D01*
X133072176Y-51146452D01*
X133055040Y-51120158D01*
X133046540Y-51107691D01*
X133037329Y-51093622D01*
X133029233Y-51079351D01*
X133022185Y-51063479D01*
X133016117Y-51044609D01*
X133010961Y-51021341D01*
X133006651Y-50992278D01*
X133003119Y-50956021D01*
X133000297Y-50911170D01*
X132998118Y-50856328D01*
X132996514Y-50790097D01*
X132995419Y-50711077D01*
X132994765Y-50617871D01*
X132994484Y-50509079D01*
X132994509Y-50383303D01*
X132994772Y-50239145D01*
X132995206Y-50075207D01*
X132995745Y-49890089D01*
X132996279Y-49711232D01*
X132996805Y-49552374D01*
X132997350Y-49413316D01*
X132997945Y-49292665D01*
X132998619Y-49189028D01*
X132999403Y-49101011D01*
X133000326Y-49027223D01*
X133001419Y-48966269D01*
X133002712Y-48916757D01*
X133004235Y-48877293D01*
X133006019Y-48846484D01*
X133008092Y-48822938D01*
X133010486Y-48805260D01*
X133013230Y-48792059D01*
X133016356Y-48781940D01*
X133019892Y-48773511D01*
X133023791Y-48765375D01*
X133043438Y-48728544D01*
X133062225Y-48698391D01*
X133063272Y-48696908D01*
X133077602Y-48674659D01*
X133083511Y-48661702D01*
X133082504Y-48661249D01*
X133065305Y-48659803D01*
X133028656Y-48658480D01*
X132974962Y-48657316D01*
X132906630Y-48656347D01*
X132826064Y-48655611D01*
X132735670Y-48655142D01*
X132637853Y-48654978D01*
X132192195Y-48654978D01*
X132189120Y-49831845D01*
X132186045Y-51008711D01*
X132159407Y-51067622D01*
X132147485Y-51092183D01*
X132130246Y-51122434D01*
X132117074Y-51139560D01*
X132109076Y-51147591D01*
X132101378Y-51162493D01*
X131809942Y-51162493D01*
X131809474Y-51070029D01*
X131809050Y-50954617D01*
X131808706Y-50824160D01*
X131808434Y-50677716D01*
X131808227Y-50514344D01*
X131808076Y-50333101D01*
X131807972Y-50133048D01*
X131807908Y-49913241D01*
X131807876Y-49672739D01*
X131807867Y-49410602D01*
X131807867Y-47219031D01*
X131846249Y-47180649D01*
X131873355Y-47156911D01*
X131900253Y-47145111D01*
X131936560Y-47142267D01*
X131988489Y-47142267D01*
X131988489Y-47230206D01*
X131990427Y-47280102D01*
X132009199Y-47390523D01*
X132046217Y-47491987D01*
X132099369Y-47583152D01*
X132166546Y-47662673D01*
X132245638Y-47729205D01*
X132334534Y-47781406D01*
X132431125Y-47817930D01*
X132533300Y-47837434D01*
X132638950Y-47838573D01*
X132745964Y-47820005D01*
X132852232Y-47780384D01*
X132949219Y-47722516D01*
X133034293Y-47647684D01*
X133103015Y-47559615D01*
X133153918Y-47460616D01*
X133185535Y-47352993D01*
X133196400Y-47239054D01*
X133196400Y-47142267D01*
X134816753Y-47142267D01*
X135027897Y-47142280D01*
X135232020Y-47142330D01*
X135415686Y-47142430D01*
X135579991Y-47142592D01*
X135726029Y-47142829D01*
X135854894Y-47143153D01*
X135967683Y-47143575D01*
X136065488Y-47144109D01*
X136149404Y-47144767D01*
X136220527Y-47145561D01*
X136279950Y-47146504D01*
X136328768Y-47147608D01*
X136368077Y-47148884D01*
X136398969Y-47150347D01*
X136422541Y-47152007D01*
X136439886Y-47153878D01*
X136452099Y-47155972D01*
X136460275Y-47158300D01*
X136465508Y-47160876D01*
X136471504Y-47164445D01*
X136478279Y-47167978D01*
X136484478Y-47171488D01*
X136490126Y-47175918D01*
X136495247Y-47182208D01*
X136499869Y-47191301D01*
X136504015Y-47204139D01*
X136507713Y-47221662D01*
X136510987Y-47244813D01*
X136513863Y-47274534D01*
X136516367Y-47311765D01*
X136518524Y-47357449D01*
X136520360Y-47412527D01*
X136521900Y-47477941D01*
X136523170Y-47554633D01*
X136524195Y-47643544D01*
X136525001Y-47745617D01*
X136525034Y-47751867D01*
X136525614Y-47861792D01*
G36*
X136525614Y-47861792D02*
G01*
X136526059Y-47993011D01*
X136526362Y-48140216D01*
X136526548Y-48304349D01*
X136526642Y-48486352D01*
X136526671Y-48687165D01*
X136526661Y-48907732D01*
X136526636Y-49148992D01*
X136526622Y-49411889D01*
X136526622Y-49454040D01*
X136526646Y-49714668D01*
X136526685Y-49953796D01*
X136526708Y-50172360D01*
X136526687Y-50371295D01*
X136526593Y-50551535D01*
X136526395Y-50714015D01*
X136526063Y-50859670D01*
X136525569Y-50989434D01*
X136524883Y-51104243D01*
X136523976Y-51205030D01*
X136522817Y-51292730D01*
X136521378Y-51368279D01*
X136519629Y-51432611D01*
X136517540Y-51486661D01*
X136515083Y-51531363D01*
X136512227Y-51567652D01*
X136508943Y-51596463D01*
X136505202Y-51618731D01*
X136500974Y-51635390D01*
X136496229Y-51647375D01*
X136490939Y-51655621D01*
X136485073Y-51661062D01*
X136478602Y-51664634D01*
X136471497Y-51667270D01*
X136463728Y-51669906D01*
X136455266Y-51673477D01*
X136450908Y-51675145D01*
X136442395Y-51677111D01*
X136429694Y-51678911D01*
X136411885Y-51680555D01*
X136388049Y-51682047D01*
X136357266Y-51683397D01*
X136318617Y-51684611D01*
X136271182Y-51685697D01*
X136214043Y-51686661D01*
X136146279Y-51687511D01*
X136066971Y-51688253D01*
X135975199Y-51688897D01*
X135870044Y-51689447D01*
X135750587Y-51689913D01*
X135615908Y-51690300D01*
X135465088Y-51690616D01*
X135297206Y-51690869D01*
X135111345Y-51691066D01*
X134906583Y-51691213D01*
X134682002Y-51691318D01*
X134436682Y-51691389D01*
X134169704Y-51691432D01*
X134131321Y-51691437D01*
X133865922Y-51691480D01*
X133622050Y-51691525D01*
X133398783Y-51691548D01*
X133195196Y-51691524D01*
X133010367Y-51691430D01*
X132843373Y-51691243D01*
X132693290Y-51690939D01*
X132559196Y-51690494D01*
X132440166Y-51689885D01*
X132335279Y-51689089D01*
X132243610Y-51688080D01*
X132164237Y-51686837D01*
X132096237Y-51685335D01*
X132038686Y-51683551D01*
X131990662Y-51681461D01*
X131951240Y-51679042D01*
X131919499Y-51676270D01*
X131894514Y-51673121D01*
X131875364Y-51669572D01*
X131861123Y-51665598D01*
X131850871Y-51661178D01*
X131843682Y-51656286D01*
X131838635Y-51650900D01*
X131834805Y-51644996D01*
X131831271Y-51638549D01*
X131827108Y-51631537D01*
X131826025Y-51629687D01*
X131823813Y-51624180D01*
X131821786Y-51615868D01*
X131819938Y-51603809D01*
X131818261Y-51587063D01*
X131816745Y-51564687D01*
X131815383Y-51535740D01*
X131814167Y-51499280D01*
X131813089Y-51454367D01*
X131812140Y-51400057D01*
X131811312Y-51335410D01*
X131810597Y-51259484D01*
X131809987Y-51171338D01*
X131809942Y-51162493D01*
X132101378Y-51162493D01*
X132105260Y-51163765D01*
X132128520Y-51165791D01*
X132170874Y-51167626D01*
X132230132Y-51169227D01*
X132304107Y-51170549D01*
X132390610Y-51171548D01*
X132487452Y-51172180D01*
X132592445Y-51172400D01*
X133290651Y-51172400D01*
X134445090Y-51172400D01*
X134444456Y-51096200D01*
X134445574Y-51054160D01*
X134451304Y-51018334D01*
X134463890Y-50980772D01*
X134485568Y-50932577D01*
X134488789Y-50925897D01*
X134514188Y-50876359D01*
X134540996Y-50828369D01*
X134563917Y-50791466D01*
X134568485Y-50784834D01*
X134590516Y-50753593D01*
X134622693Y-50708654D01*
X134663457Y-50652147D01*
X134711245Y-50586204D01*
X134764498Y-50512957D01*
X134821655Y-50434536D01*
X134881155Y-50353072D01*
X134941437Y-50270698D01*
X135000940Y-50189544D01*
X135058105Y-50111742D01*
X135111370Y-50039423D01*
X135159174Y-49974718D01*
X135199957Y-49919759D01*
X135232158Y-49876676D01*
X135254216Y-49847602D01*
X135264571Y-49834667D01*
X135269044Y-49830351D01*
X135273236Y-49828312D01*
X135276643Y-49830926D01*
X135279325Y-49839986D01*
X135281341Y-49857285D01*
X135282748Y-49884614D01*
X135283605Y-49923765D01*
X135283970Y-49976533D01*
X135283903Y-50044707D01*
X135283460Y-50130082D01*
X135282702Y-50234449D01*
X135281685Y-50359600D01*
X135281308Y-50404300D01*
X135280169Y-50525395D01*
X135278972Y-50626688D01*
X135277636Y-50710262D01*
X135276077Y-50778204D01*
X135274215Y-50832599D01*
X135271966Y-50875532D01*
X135269248Y-50909089D01*
X135265979Y-50935355D01*
X135262078Y-50956416D01*
X135257461Y-50974357D01*
X135249192Y-51000770D01*
X135225583Y-51062772D01*
X135199685Y-51115573D01*
X135174535Y-51152645D01*
X135173339Y-51154075D01*
X135171168Y-51158424D01*
X135173328Y-51162026D01*
X135181644Y-51164951D01*
X135197940Y-51167269D01*
X135224041Y-51169051D01*
X135261771Y-51170367D01*
X135312956Y-51171286D01*
X135379420Y-51171878D01*
X135462987Y-51172215D01*
X135565483Y-51172365D01*
X135688732Y-51172400D01*
X136220296Y-51172400D01*
X136181523Y-51114783D01*
X136175432Y-51105893D01*
X136164976Y-51091069D01*
X136155579Y-51077422D01*
X136147183Y-51063765D01*
X136139733Y-51048911D01*
X136133173Y-51031670D01*
X136127446Y-51010855D01*
X136122495Y-50985280D01*
X136118266Y-50953755D01*
X136114701Y-50915093D01*
X136111744Y-50868107D01*
X136109340Y-50811608D01*
X136107431Y-50744409D01*
X136105962Y-50665322D01*
X136104876Y-50573160D01*
X136104118Y-50466734D01*
X136103630Y-50344857D01*
X136103358Y-50206341D01*
X136103243Y-50049999D01*
X136103231Y-49874642D01*
X136103265Y-49679082D01*
X136103289Y-49462133D01*
X136103280Y-49339513D01*
X136103243Y-49134447D01*
X136103227Y-48950116D01*
X136103288Y-48785334D01*
X136103484Y-48638916D01*
X136103870Y-48509674D01*
X136104505Y-48396422D01*
X136105444Y-48297975D01*
X136106745Y-48213144D01*
X136108464Y-48140744D01*
X136110659Y-48079589D01*
X136113385Y-48028492D01*
X136116701Y-47986267D01*
X136120662Y-47951727D01*
X136125325Y-47923686D01*
X136130747Y-47900958D01*
X136136986Y-47882356D01*
X136144097Y-47866693D01*
X136152138Y-47852784D01*
X136161166Y-47839441D01*
X136171236Y-47825479D01*
X136182407Y-47809711D01*
X136222197Y-47751867D01*
X135162314Y-47751867D01*
X135200311Y-47814966D01*
X135214993Y-47840005D01*
X135229531Y-47867586D01*
X135241627Y-47895700D01*
X135251532Y-47926551D01*
X135259494Y-47962344D01*
X135265761Y-48005283D01*
X135270582Y-48057574D01*
X135274206Y-48121419D01*
X135276881Y-48199025D01*
X135278857Y-48292594D01*
X135280382Y-48404333D01*
X135281704Y-48536445D01*
X135282613Y-48656434D01*
X135283020Y-48773063D01*
X135282767Y-48868531D01*
X135281857Y-48942556D01*
X135280293Y-48994855D01*
X135278079Y-49025149D01*
X135275220Y-49033156D01*
X135272161Y-49029858D01*
X135254006Y-49008408D01*
X135224275Y-48971889D01*
X135184639Y-48922442D01*
X135136771Y-48862207D01*
X135082343Y-48793327D01*
X135023027Y-48717943D01*
X134960495Y-48638196D01*
X134896421Y-48556228D01*
X134832475Y-48474180D01*
X134770331Y-48394194D01*
X134711661Y-48318411D01*
X134658137Y-48248973D01*
X134611430Y-48188021D01*
X134573214Y-48137696D01*
X134545161Y-48100140D01*
X134528943Y-48077495D01*
X134483635Y-48005212D01*
X134443661Y-47925463D01*
X134422130Y-47857188D01*
X134418827Y-47799844D01*
X134424116Y-47751867D01*
X133292356Y-47752117D01*
X133331867Y-47782722D01*
X133341248Y-47790089D01*
X133404183Y-47844438D01*
X133472997Y-47912259D01*
X133549596Y-47995516D01*
X133635888Y-48096178D01*
X133653052Y-48116847D01*
X133693833Y-48166409D01*
X133743588Y-48227326D01*
X133800955Y-48297898D01*
X133864569Y-48376424D01*
X133933069Y-48461204D01*
X134005090Y-48550537D01*
X134079270Y-48642722D01*
X134094517Y-48661702D01*
X134154246Y-48736060D01*
X134228653Y-48828848D01*
X134301131Y-48919388D01*
X134370314Y-49005978D01*
X134434841Y-49086918D01*
X134493347Y-49160506D01*
X134544470Y-49225044D01*
X134586847Y-49278829D01*
X134619115Y-49320162D01*
X134639910Y-49347342D01*
X134647869Y-49358668D01*
X134646111Y-49362771D01*
X134633230Y-49383334D01*
X134608885Y-49419561D01*
X134574247Y-49469824D01*
X134530486Y-49532492D01*
X134478775Y-49605936D01*
X134420284Y-49688527D01*
X134356184Y-49778636D01*
X134287646Y-49874631D01*
X134215843Y-49974885D01*
X134141944Y-50077768D01*
X134067121Y-50181650D01*
X133992545Y-50284901D01*
X133919387Y-50385892D01*
X133848819Y-50482994D01*
X133782011Y-50574577D01*
X133720135Y-50659011D01*
X133664361Y-50734667D01*
X133615862Y-50799916D01*
X133575807Y-50853128D01*
X133545369Y-50892673D01*
X133524944Y-50918026D01*
X133478899Y-50972295D01*
X133428612Y-51028775D01*
X133381815Y-51078669D01*
X133290651Y-51172400D01*
X132592445Y-51172400D01*
X132661356Y-51172349D01*
X132759607Y-51172091D01*
X132849030Y-51171637D01*
X132927333Y-51171010D01*
X132992223Y-51170235D01*
X133041411Y-51169335D01*
X133072604Y-51168334D01*
X133083511Y-51167257D01*
X133082322Y-51164037D01*
X133072176Y-51146452D01*
X133055040Y-51120158D01*
X133046540Y-51107691D01*
X133037329Y-51093622D01*
X133029233Y-51079351D01*
X133022185Y-51063479D01*
X133016117Y-51044609D01*
X133010961Y-51021341D01*
X133006651Y-50992278D01*
X133003119Y-50956021D01*
X133000297Y-50911170D01*
X132998118Y-50856328D01*
X132996514Y-50790097D01*
X132995419Y-50711077D01*
X132994765Y-50617871D01*
X132994484Y-50509079D01*
X132994509Y-50383303D01*
X132994772Y-50239145D01*
X132995206Y-50075207D01*
X132995745Y-49890089D01*
X132996279Y-49711232D01*
X132996805Y-49552374D01*
X132997350Y-49413316D01*
X132997945Y-49292665D01*
X132998619Y-49189028D01*
X132999403Y-49101011D01*
X133000326Y-49027223D01*
X133001419Y-48966269D01*
X133002712Y-48916757D01*
X133004235Y-48877293D01*
X133006019Y-48846484D01*
X133008092Y-48822938D01*
X133010486Y-48805260D01*
X133013230Y-48792059D01*
X133016356Y-48781940D01*
X133019892Y-48773511D01*
X133023791Y-48765375D01*
X133043438Y-48728544D01*
X133062225Y-48698391D01*
X133063272Y-48696908D01*
X133077602Y-48674659D01*
X133083511Y-48661702D01*
X133082504Y-48661249D01*
X133065305Y-48659803D01*
X133028656Y-48658480D01*
X132974962Y-48657316D01*
X132906630Y-48656347D01*
X132826064Y-48655611D01*
X132735670Y-48655142D01*
X132637853Y-48654978D01*
X132192195Y-48654978D01*
X132189120Y-49831845D01*
X132186045Y-51008711D01*
X132159407Y-51067622D01*
X132147485Y-51092183D01*
X132130246Y-51122434D01*
X132117074Y-51139560D01*
X132109076Y-51147591D01*
X132101378Y-51162493D01*
X131809942Y-51162493D01*
X131809474Y-51070029D01*
X131809050Y-50954617D01*
X131808706Y-50824160D01*
X131808434Y-50677716D01*
X131808227Y-50514344D01*
X131808076Y-50333101D01*
X131807972Y-50133048D01*
X131807908Y-49913241D01*
X131807876Y-49672739D01*
X131807867Y-49410602D01*
X131807867Y-47219031D01*
X131846249Y-47180649D01*
X131873355Y-47156911D01*
X131900253Y-47145111D01*
X131936560Y-47142267D01*
X131988489Y-47142267D01*
X131988489Y-47230206D01*
X131990427Y-47280102D01*
X132009199Y-47390523D01*
X132046217Y-47491987D01*
X132099369Y-47583152D01*
X132166546Y-47662673D01*
X132245638Y-47729205D01*
X132334534Y-47781406D01*
X132431125Y-47817930D01*
X132533300Y-47837434D01*
X132638950Y-47838573D01*
X132745964Y-47820005D01*
X132852232Y-47780384D01*
X132949219Y-47722516D01*
X133034293Y-47647684D01*
X133103015Y-47559615D01*
X133153918Y-47460616D01*
X133185535Y-47352993D01*
X133196400Y-47239054D01*
X133196400Y-47142267D01*
X134816753Y-47142267D01*
X135027897Y-47142280D01*
X135232020Y-47142330D01*
X135415686Y-47142430D01*
X135579991Y-47142592D01*
X135726029Y-47142829D01*
X135854894Y-47143153D01*
X135967683Y-47143575D01*
X136065488Y-47144109D01*
X136149404Y-47144767D01*
X136220527Y-47145561D01*
X136279950Y-47146504D01*
X136328768Y-47147608D01*
X136368077Y-47148884D01*
X136398969Y-47150347D01*
X136422541Y-47152007D01*
X136439886Y-47153878D01*
X136452099Y-47155972D01*
X136460275Y-47158300D01*
X136465508Y-47160876D01*
X136471504Y-47164445D01*
X136478279Y-47167978D01*
X136484478Y-47171488D01*
X136490126Y-47175918D01*
X136495247Y-47182208D01*
X136499869Y-47191301D01*
X136504015Y-47204139D01*
X136507713Y-47221662D01*
X136510987Y-47244813D01*
X136513863Y-47274534D01*
X136516367Y-47311765D01*
X136518524Y-47357449D01*
X136520360Y-47412527D01*
X136521900Y-47477941D01*
X136523170Y-47554633D01*
X136524195Y-47643544D01*
X136525001Y-47745617D01*
X136525034Y-47751867D01*
X136525614Y-47861792D01*
G37*
%TD*%
%LPC*%
D15*
%TO.C,J11*%
X129500000Y-66500000D03*
%TD*%
D16*
%TO.C,H12*%
X160500000Y-45500000D03*
%TD*%
%TO.C,H3*%
X125500000Y-45500000D03*
%TD*%
D17*
%TO.C,C8*%
X134468912Y-72749999D03*
D18*
X137500000Y-71000000D03*
%TD*%
D19*
%TO.C,J9*%
X150249999Y-79250002D03*
D20*
X145249999Y-79250002D03*
%TD*%
D21*
%TO.C,SWD*%
X156979999Y-72250000D03*
D22*
X156979999Y-70979999D03*
X158250000Y-72250000D03*
X158249999Y-70980002D03*
X159520000Y-72250001D03*
X159519998Y-70980000D03*
%TD*%
D19*
%TO.C,J8*%
X133250000Y-79250000D03*
D20*
X138250000Y-79250000D03*
%TD*%
D23*
%TO.C,J13*%
X138972499Y-48955001D03*
D24*
X138972500Y-46455001D03*
%TD*%
D15*
%TO.C,J10*%
X125250000Y-66500000D03*
%TD*%
D23*
%TO.C,J14*%
X145972498Y-48955001D03*
D24*
X145972497Y-46455001D03*
%TD*%
D16*
%TO.C,H2*%
X160500000Y-80500000D03*
%TD*%
%TO.C,H6*%
X125500000Y-80500000D03*
%TD*%
D25*
%TO.C,J6*%
X141185353Y-71985841D03*
%TD*%
D26*
%TO.C,J3*%
X131250000Y-73250000D03*
%TD*%
D27*
%TO.C,C11*%
X128906496Y-72421752D03*
X130250000Y-71078248D03*
%TD*%
D25*
%TO.C,J7*%
X139530000Y-70040000D03*
%TD*%
%LPD*%
M02*
