%TF.GenerationSoftware,KiCad,Pcbnew,8.0.2*%
%TF.CreationDate,2024-11-04T12:25:00+02:00*%
%TF.ProjectId,Little Boy - External,4c697474-6c65-4204-926f-79202d204578,rev?*%
%TF.SameCoordinates,Original*%
%TF.FileFunction,Copper,L4,Bot*%
%TF.FilePolarity,Positive*%
%FSLAX46Y46*%
G04 Gerber Fmt 4.6, Leading zero omitted, Abs format (unit mm)*
G04 Created by KiCad (PCBNEW 8.0.2) date 2024-11-04 12:25:00*
%MOMM*%
%LPD*%
G01*
G04 APERTURE LIST*
G04 Aperture macros list*
%AMRoundRect*
0 Rectangle with rounded corners*
0 $1 Rounding radius*
0 $2 $3 $4 $5 $6 $7 $8 $9 X,Y pos of 4 corners*
0 Add a 4 corners polygon primitive as box body*
4,1,4,$2,$3,$4,$5,$6,$7,$8,$9,$2,$3,0*
0 Add four circle primitives for the rounded corners*
1,1,$1+$1,$2,$3*
1,1,$1+$1,$4,$5*
1,1,$1+$1,$6,$7*
1,1,$1+$1,$8,$9*
0 Add four rect primitives between the rounded corners*
20,1,$1+$1,$2,$3,$4,$5,0*
20,1,$1+$1,$4,$5,$6,$7,0*
20,1,$1+$1,$6,$7,$8,$9,0*
20,1,$1+$1,$8,$9,$2,$3,0*%
G04 Aperture macros list end*
%TA.AperFunction,ComponentPad*%
%ADD10C,0.600000*%
%TD*%
%TA.AperFunction,SMDPad,CuDef*%
%ADD11R,4.900000X2.950000*%
%TD*%
%TA.AperFunction,ComponentPad*%
%ADD12RoundRect,0.250000X-1.125000X-1.125000X1.125000X-1.125000X1.125000X1.125000X-1.125000X1.125000X0*%
%TD*%
%TA.AperFunction,HeatsinkPad*%
%ADD13C,0.500000*%
%TD*%
%TA.AperFunction,HeatsinkPad*%
%ADD14R,0.500000X1.600000*%
%TD*%
%TA.AperFunction,ComponentPad*%
%ADD15R,3.000000X3.000000*%
%TD*%
%TA.AperFunction,ComponentPad*%
%ADD16C,3.000000*%
%TD*%
%TA.AperFunction,ComponentPad*%
%ADD17R,1.000000X1.000000*%
%TD*%
%TA.AperFunction,ComponentPad*%
%ADD18O,1.000000X1.000000*%
%TD*%
%TA.AperFunction,ComponentPad*%
%ADD19RoundRect,0.250000X0.750000X-0.600000X0.750000X0.600000X-0.750000X0.600000X-0.750000X-0.600000X0*%
%TD*%
%TA.AperFunction,ComponentPad*%
%ADD20O,2.000000X1.700000*%
%TD*%
%TA.AperFunction,SMDPad,CuDef*%
%ADD21RoundRect,0.250000X0.650000X-0.325000X0.650000X0.325000X-0.650000X0.325000X-0.650000X-0.325000X0*%
%TD*%
%TA.AperFunction,ViaPad*%
%ADD22C,0.600000*%
%TD*%
%TA.AperFunction,Conductor*%
%ADD23C,0.254000*%
%TD*%
G04 APERTURE END LIST*
D10*
%TO.P,U2,9,GND*%
%TO.N,GND*%
X128850001Y-59250001D03*
X126250000Y-59250000D03*
X127550000Y-59250000D03*
X124949998Y-59249999D03*
D11*
X126900000Y-58600000D03*
D10*
X128850002Y-57950001D03*
X126250000Y-57950000D03*
X127550000Y-57950000D03*
X124949999Y-57949999D03*
%TD*%
D12*
%TO.P,J6,1,Pin_1*%
%TO.N, MOT_A*%
X129500000Y-66500000D03*
%TD*%
D13*
%TO.P,U3,7,PAD*%
%TO.N,GND*%
X133137501Y-49859176D03*
D14*
X133137501Y-49309177D03*
D13*
X133137501Y-48759178D03*
%TD*%
D15*
%TO.P,J4,1,Pin_1*%
%TO.N,GND*%
X149950000Y-79250000D03*
D16*
%TO.P,J4,2,Pin_2*%
%TO.N,+12V*%
X144950000Y-79250000D03*
%TD*%
D17*
%TO.P,SWD,1,Pin_1*%
%TO.N,+3V3*%
X157475000Y-70750000D03*
D18*
%TO.P,SWD,2,Pin_2*%
%TO.N,SWDIO*%
X157475000Y-69479999D03*
%TO.P,SWD,3,Pin_3*%
%TO.N,GND*%
X158745001Y-70750000D03*
%TO.P,SWD,4,Pin_4*%
%TO.N,SWCLK*%
X158745000Y-69480002D03*
%TO.P,SWD,5,Pin_5*%
%TO.N,GND*%
X160015001Y-70750001D03*
%TO.P,SWD,6,Pin_6*%
%TO.N,NRST*%
X160014999Y-69480000D03*
%TD*%
D15*
%TO.P,J3,1,Pin_1*%
%TO.N,GND*%
X133750000Y-79250000D03*
D16*
%TO.P,J3,2,Pin_2*%
%TO.N,+12V*%
X138750000Y-79250000D03*
%TD*%
D19*
%TO.P,J8,1,Pin_1*%
%TO.N,CAN_H*%
X138972499Y-48955001D03*
D20*
%TO.P,J8,2,Pin_2*%
%TO.N,CAN_L*%
X138972500Y-46455001D03*
%TD*%
D12*
%TO.P,J5,1,Pin_1*%
%TO.N,Net-(IC1-OUT2)*%
X125250000Y-66500000D03*
%TD*%
D19*
%TO.P,J9,1,Pin_1*%
%TO.N,CAN_H*%
X145972498Y-48955001D03*
D20*
%TO.P,J9,2,Pin_2*%
%TO.N,CAN_L*%
X145972497Y-46455001D03*
%TD*%
D21*
%TO.P,C21,1*%
%TO.N,+3V3*%
X147000000Y-60475000D03*
%TO.P,C21,2*%
%TO.N,GND*%
X147000000Y-57525000D03*
%TD*%
D22*
%TO.N,GND*%
X154200000Y-58800000D03*
X137250000Y-66500000D03*
X157200000Y-49950000D03*
X125500000Y-50300000D03*
X129700000Y-55000000D03*
X130750000Y-60450000D03*
X134550000Y-54650000D03*
X133000000Y-54650000D03*
X137100000Y-58700000D03*
X137000000Y-58050000D03*
X137000000Y-57050000D03*
X128750000Y-72250000D03*
X141895683Y-55346796D03*
X128000000Y-51250000D03*
X160000000Y-67500000D03*
X162000000Y-71500000D03*
X126250000Y-73750000D03*
X159250000Y-67500000D03*
X159750000Y-64750000D03*
X139500000Y-57500000D03*
X134887498Y-47909178D03*
X129250000Y-50500000D03*
X159000000Y-58250000D03*
X160750000Y-67000000D03*
X130260001Y-74260001D03*
X128250000Y-73750000D03*
X139250000Y-54250000D03*
X127250000Y-72750000D03*
X126750000Y-73250000D03*
X127250000Y-73750000D03*
X127750000Y-72250000D03*
X145750000Y-55000000D03*
X131000000Y-76000000D03*
X143750000Y-53500000D03*
X160750000Y-65500000D03*
X149000000Y-67250000D03*
X126250000Y-72750000D03*
X152500000Y-61300000D03*
X159750000Y-58250000D03*
X126750000Y-72250000D03*
X141750000Y-60123000D03*
X151700000Y-61300000D03*
X128250000Y-72750000D03*
X124000000Y-62250000D03*
X127250000Y-71750000D03*
X153000000Y-58500000D03*
X159000000Y-64750000D03*
X160500000Y-64750000D03*
X160500000Y-58250000D03*
X125500000Y-76750000D03*
X126250000Y-71750000D03*
X158250000Y-64750000D03*
X160750000Y-66250000D03*
X127750000Y-73250000D03*
X128250000Y-71750000D03*
X128750000Y-73250000D03*
X131500000Y-49250000D03*
X141000000Y-53250000D03*
X131500000Y-75000000D03*
X158250000Y-58250000D03*
%TO.N,+3V3*%
X149250000Y-50257001D03*
X150000000Y-60500000D03*
X136750000Y-59500000D03*
X130500000Y-75300003D03*
X144219905Y-59919904D03*
X155000000Y-49750000D03*
%TO.N,NRST*%
X141018144Y-57604856D03*
X153750000Y-65500000D03*
%TO.N,+5V*%
X134007034Y-47959178D03*
X153500000Y-55627000D03*
%TO.N,DRV_IN2*%
X127250000Y-77250000D03*
X142187500Y-69437500D03*
%TO.N,ISEN*%
X127000000Y-68750000D03*
X135623000Y-64750000D03*
%TO.N,DRV_IN1*%
X141406642Y-68956645D03*
X128250000Y-76623000D03*
%TD*%
D23*
%TO.N,ISEN*%
X132500000Y-68750000D02*
X127000000Y-68750000D01*
X134423000Y-65950000D02*
X134423000Y-66827000D01*
X134423000Y-66827000D02*
X132500000Y-68750000D01*
X135623000Y-64750000D02*
X134423000Y-65950000D01*
%TO.N,+3V3*%
X130500000Y-74906714D02*
X136250000Y-69156714D01*
X154492999Y-50257001D02*
X149250000Y-50257001D01*
X154500000Y-65000000D02*
X154500000Y-67775000D01*
X130500000Y-75300003D02*
X130500000Y-74906714D01*
X154500000Y-67775000D02*
X157475000Y-70750000D01*
X136250000Y-60000000D02*
X136750000Y-59500000D01*
X150000000Y-60500000D02*
X144800001Y-60500000D01*
X150000000Y-60500000D02*
X154500000Y-65000000D01*
X144800001Y-60500000D02*
X144219905Y-59919904D01*
X155000000Y-49750000D02*
X154492999Y-50257001D01*
X136250000Y-69156714D02*
X136250000Y-60000000D01*
%TO.N,NRST*%
X141018144Y-57604856D02*
X145178340Y-61765052D01*
X150015052Y-61765052D02*
X153750000Y-65500000D01*
X145178340Y-61765052D02*
X150015052Y-61765052D01*
%TO.N,+5V*%
X150627000Y-55627000D02*
X145500000Y-50500000D01*
X153500000Y-55627000D02*
X150627000Y-55627000D01*
X136500000Y-50500000D02*
X134007034Y-48007034D01*
X145500000Y-50500000D02*
X136500000Y-50500000D01*
X134007034Y-48007034D02*
X134007034Y-47959178D01*
%TO.N,DRV_IN2*%
X142187500Y-69437500D02*
X134202000Y-77423000D01*
X134202000Y-77423000D02*
X132000000Y-77423000D01*
X127500000Y-77500000D02*
X127250000Y-77250000D01*
X132000000Y-77423000D02*
X131923000Y-77500000D01*
X131923000Y-77500000D02*
X127500000Y-77500000D01*
%TO.N,DRV_IN1*%
X128250000Y-76623000D02*
X128254000Y-76627000D01*
X133736287Y-76627000D02*
X141406642Y-68956645D01*
X128254000Y-76627000D02*
X133736287Y-76627000D01*
%TD*%
%TA.AperFunction,Conductor*%
%TO.N,GND*%
G36*
X161004418Y-43500816D02*
G01*
X161204561Y-43515130D01*
X161222063Y-43517647D01*
X161413797Y-43559355D01*
X161430755Y-43564334D01*
X161614609Y-43632909D01*
X161630701Y-43640259D01*
X161802904Y-43734288D01*
X161817784Y-43743849D01*
X161974867Y-43861441D01*
X161988237Y-43873027D01*
X162126972Y-44011762D01*
X162138558Y-44025132D01*
X162256146Y-44182210D01*
X162265711Y-44197095D01*
X162359740Y-44369298D01*
X162367090Y-44385390D01*
X162435662Y-44569236D01*
X162440646Y-44586212D01*
X162482351Y-44777931D01*
X162484869Y-44795442D01*
X162499184Y-44995580D01*
X162499500Y-45004427D01*
X162499500Y-80995572D01*
X162499184Y-81004419D01*
X162484869Y-81204557D01*
X162482351Y-81222068D01*
X162440646Y-81413787D01*
X162435662Y-81430763D01*
X162367090Y-81614609D01*
X162359740Y-81630701D01*
X162265711Y-81802904D01*
X162256146Y-81817789D01*
X162138558Y-81974867D01*
X162126972Y-81988237D01*
X161988237Y-82126972D01*
X161974867Y-82138558D01*
X161817789Y-82256146D01*
X161802904Y-82265711D01*
X161630701Y-82359740D01*
X161614609Y-82367090D01*
X161430763Y-82435662D01*
X161413787Y-82440646D01*
X161222068Y-82482351D01*
X161204557Y-82484869D01*
X161023779Y-82497799D01*
X161004417Y-82499184D01*
X160995572Y-82499500D01*
X144410966Y-82499500D01*
X144343927Y-82479815D01*
X144298172Y-82427011D01*
X144288228Y-82357853D01*
X144317253Y-82294297D01*
X144329758Y-82281791D01*
X144354898Y-82260008D01*
X144386523Y-82227234D01*
X144432731Y-82138899D01*
X144432832Y-82138558D01*
X144442481Y-82105693D01*
X144452416Y-82071860D01*
X144462766Y-81999875D01*
X144462766Y-81090923D01*
X144482451Y-81023884D01*
X144535255Y-80978129D01*
X144604413Y-80968185D01*
X144604993Y-80968270D01*
X144818818Y-81000500D01*
X145081182Y-81000500D01*
X145340615Y-80961396D01*
X145591323Y-80884063D01*
X145827704Y-80770228D01*
X146044479Y-80622433D01*
X146236805Y-80443981D01*
X146270621Y-80401577D01*
X159249500Y-80401577D01*
X159249500Y-80598422D01*
X159280290Y-80792826D01*
X159341117Y-80980029D01*
X159378048Y-81052509D01*
X159430476Y-81155405D01*
X159546172Y-81314646D01*
X159685354Y-81453828D01*
X159844595Y-81569524D01*
X159927455Y-81611743D01*
X160019970Y-81658882D01*
X160019972Y-81658882D01*
X160019975Y-81658884D01*
X160120317Y-81691487D01*
X160207173Y-81719709D01*
X160401578Y-81750500D01*
X160401583Y-81750500D01*
X160598422Y-81750500D01*
X160792826Y-81719709D01*
X160980025Y-81658884D01*
X161155405Y-81569524D01*
X161314646Y-81453828D01*
X161453828Y-81314646D01*
X161569524Y-81155405D01*
X161658884Y-80980025D01*
X161719709Y-80792826D01*
X161750500Y-80598422D01*
X161750500Y-80401577D01*
X161719709Y-80207173D01*
X161658882Y-80019970D01*
X161569523Y-79844594D01*
X161513453Y-79767421D01*
X161453828Y-79685354D01*
X161314646Y-79546172D01*
X161155405Y-79430476D01*
X160980029Y-79341117D01*
X160792826Y-79280290D01*
X160598422Y-79249500D01*
X160598417Y-79249500D01*
X160401583Y-79249500D01*
X160401578Y-79249500D01*
X160207173Y-79280290D01*
X160019970Y-79341117D01*
X159844594Y-79430476D01*
X159753741Y-79496485D01*
X159685354Y-79546172D01*
X159685352Y-79546174D01*
X159685351Y-79546174D01*
X159546174Y-79685351D01*
X159546174Y-79685352D01*
X159546172Y-79685354D01*
X159496485Y-79753741D01*
X159430476Y-79844594D01*
X159341117Y-80019970D01*
X159280290Y-80207173D01*
X159249500Y-80401577D01*
X146270621Y-80401577D01*
X146400386Y-80238857D01*
X146531568Y-80011643D01*
X146627420Y-79767416D01*
X146685802Y-79511630D01*
X146705408Y-79250000D01*
X146685802Y-78988370D01*
X146627420Y-78732584D01*
X146531568Y-78488357D01*
X146400386Y-78261143D01*
X146236805Y-78056019D01*
X146236804Y-78056018D01*
X146236801Y-78056014D01*
X146044479Y-77877567D01*
X146044379Y-77877499D01*
X145827704Y-77729772D01*
X145827700Y-77729770D01*
X145827697Y-77729768D01*
X145827696Y-77729767D01*
X145591325Y-77615938D01*
X145591327Y-77615938D01*
X145340623Y-77538606D01*
X145340619Y-77538605D01*
X145340615Y-77538604D01*
X145215823Y-77519794D01*
X145081187Y-77499500D01*
X145081182Y-77499500D01*
X144818818Y-77499500D01*
X144818812Y-77499500D01*
X144646165Y-77525523D01*
X144603876Y-77531897D01*
X144534652Y-77522425D01*
X144481538Y-77477031D01*
X144461755Y-77418723D01*
X144459803Y-77393156D01*
X144454085Y-77355936D01*
X144452068Y-77344534D01*
X144413788Y-77252485D01*
X144374889Y-77194446D01*
X144328759Y-77143237D01*
X144328194Y-77142061D01*
X142903923Y-75955169D01*
X142903922Y-75955168D01*
X142903911Y-75955159D01*
X142894183Y-75947445D01*
X142884560Y-75940188D01*
X142809131Y-75901012D01*
X142742624Y-75879568D01*
X142670939Y-75867329D01*
X136743575Y-75711346D01*
X136677077Y-75689905D01*
X136632727Y-75635915D01*
X136624606Y-75566519D01*
X136655293Y-75503749D01*
X136659134Y-75499730D01*
X142133110Y-70025754D01*
X142194431Y-69992271D01*
X142204599Y-69990498D01*
X142331209Y-69973830D01*
X142465125Y-69918361D01*
X142580121Y-69830121D01*
X142668361Y-69715125D01*
X142723830Y-69581209D01*
X142742750Y-69437500D01*
X142723830Y-69293791D01*
X142668361Y-69159875D01*
X142580121Y-69044879D01*
X142465125Y-68956639D01*
X142465124Y-68956638D01*
X142465122Y-68956637D01*
X142331212Y-68901171D01*
X142331210Y-68901170D01*
X142331209Y-68901170D01*
X142242743Y-68889523D01*
X142187501Y-68882250D01*
X142187499Y-68882250D01*
X142077059Y-68896790D01*
X142008023Y-68886025D01*
X141955767Y-68839645D01*
X141947208Y-68819977D01*
X141946082Y-68820444D01*
X141887504Y-68679022D01*
X141887503Y-68679021D01*
X141887503Y-68679020D01*
X141799263Y-68564024D01*
X141684267Y-68475784D01*
X141684266Y-68475783D01*
X141684264Y-68475782D01*
X141550354Y-68420316D01*
X141550352Y-68420315D01*
X141550351Y-68420315D01*
X141478496Y-68410855D01*
X141406643Y-68401395D01*
X141406641Y-68401395D01*
X141262933Y-68420315D01*
X141262929Y-68420316D01*
X141129019Y-68475782D01*
X141014021Y-68564024D01*
X140925779Y-68679022D01*
X140870313Y-68812932D01*
X140870312Y-68812936D01*
X140853643Y-68939541D01*
X140825376Y-69003437D01*
X140818385Y-69011035D01*
X134085950Y-75743470D01*
X134024627Y-75776955D01*
X133954935Y-75771971D01*
X133909850Y-75742726D01*
X133879891Y-75712256D01*
X133879890Y-75712255D01*
X133879889Y-75712254D01*
X133879886Y-75712252D01*
X133879882Y-75712249D01*
X133792800Y-75663739D01*
X133792792Y-75663736D01*
X133726299Y-75642297D01*
X133654611Y-75630057D01*
X133341245Y-75621810D01*
X133283494Y-75626870D01*
X133283485Y-75626871D01*
X133228742Y-75638029D01*
X133199071Y-75645960D01*
X133199070Y-75645960D01*
X133199068Y-75645961D01*
X133170191Y-75662404D01*
X133112440Y-75695290D01*
X133112439Y-75695291D01*
X133059637Y-75741043D01*
X133028009Y-75773820D01*
X132981800Y-75862157D01*
X132981799Y-75862157D01*
X132962117Y-75929189D01*
X132962114Y-75929201D01*
X132951766Y-76001178D01*
X132951766Y-76125500D01*
X132932081Y-76192539D01*
X132879277Y-76238294D01*
X132827766Y-76249500D01*
X128709633Y-76249500D01*
X128642594Y-76229815D01*
X128634147Y-76223876D01*
X128527625Y-76142139D01*
X128527623Y-76142138D01*
X128393712Y-76086671D01*
X128393710Y-76086670D01*
X128393709Y-76086670D01*
X128321854Y-76077210D01*
X128250001Y-76067750D01*
X128249999Y-76067750D01*
X128106291Y-76086670D01*
X128106287Y-76086671D01*
X127972377Y-76142137D01*
X127857379Y-76230379D01*
X127769137Y-76345377D01*
X127713671Y-76479287D01*
X127713670Y-76479291D01*
X127694750Y-76622999D01*
X127696705Y-76637852D01*
X127685937Y-76706887D01*
X127639556Y-76759142D01*
X127572286Y-76778025D01*
X127526313Y-76768595D01*
X127393712Y-76713671D01*
X127393710Y-76713670D01*
X127393709Y-76713670D01*
X127321854Y-76704210D01*
X127250001Y-76694750D01*
X127249999Y-76694750D01*
X127106291Y-76713670D01*
X127106287Y-76713671D01*
X126972377Y-76769137D01*
X126857379Y-76857379D01*
X126769137Y-76972377D01*
X126713671Y-77106287D01*
X126713670Y-77106291D01*
X126694750Y-77250000D01*
X126713599Y-77393173D01*
X126713670Y-77393708D01*
X126713671Y-77393712D01*
X126769137Y-77527622D01*
X126769138Y-77527624D01*
X126769139Y-77527625D01*
X126857379Y-77642621D01*
X126972375Y-77730861D01*
X127106291Y-77786330D01*
X127250000Y-77805250D01*
X127250000Y-77805249D01*
X127256259Y-77806074D01*
X127302069Y-77821624D01*
X127317903Y-77830765D01*
X127317907Y-77830769D01*
X127317908Y-77830768D01*
X127354291Y-77851774D01*
X127450301Y-77877500D01*
X127450304Y-77877500D01*
X131972697Y-77877500D01*
X131972699Y-77877500D01*
X132068710Y-77851774D01*
X132078975Y-77845847D01*
X132128743Y-77817114D01*
X132190744Y-77800500D01*
X134251697Y-77800500D01*
X134251699Y-77800500D01*
X134347710Y-77774774D01*
X134433790Y-77725075D01*
X134517669Y-77641195D01*
X134578991Y-77607710D01*
X134648682Y-77612694D01*
X134696133Y-77645640D01*
X134696685Y-77645118D01*
X134698587Y-77647125D01*
X134698592Y-77647130D01*
X134698594Y-77647132D01*
X134731368Y-77678757D01*
X134819703Y-77724965D01*
X134819704Y-77724965D01*
X134819704Y-77724966D01*
X134869832Y-77739684D01*
X134886742Y-77744650D01*
X134886746Y-77744650D01*
X134886748Y-77744651D01*
X134898379Y-77746323D01*
X134958727Y-77755000D01*
X135121000Y-77755000D01*
X135188039Y-77774685D01*
X135233794Y-77827489D01*
X135245000Y-77879000D01*
X135245000Y-80621000D01*
X135225315Y-80688039D01*
X135172511Y-80733794D01*
X135121000Y-80745000D01*
X133331263Y-80745000D01*
X133276953Y-80750838D01*
X133225447Y-80762043D01*
X133225438Y-80762046D01*
X133199073Y-80769279D01*
X133199062Y-80769283D01*
X133112447Y-80818605D01*
X133112439Y-80818611D01*
X133059637Y-80864363D01*
X133028009Y-80897140D01*
X132981800Y-80985477D01*
X132981799Y-80985477D01*
X132962117Y-81052509D01*
X132962114Y-81052521D01*
X132951766Y-81124498D01*
X132951766Y-81999877D01*
X132957604Y-82054187D01*
X132968809Y-82105693D01*
X132968812Y-82105702D01*
X132976045Y-82132067D01*
X132976049Y-82132078D01*
X133025371Y-82218693D01*
X133025376Y-82218700D01*
X133025378Y-82218703D01*
X133057823Y-82256146D01*
X133071132Y-82271506D01*
X133071137Y-82271511D01*
X133086431Y-82286269D01*
X133121005Y-82346985D01*
X133117264Y-82416755D01*
X133076397Y-82473426D01*
X133011379Y-82499007D01*
X133000328Y-82499500D01*
X125004428Y-82499500D01*
X124995582Y-82499184D01*
X124973622Y-82497613D01*
X124795442Y-82484869D01*
X124777931Y-82482351D01*
X124586212Y-82440646D01*
X124569236Y-82435662D01*
X124385390Y-82367090D01*
X124369298Y-82359740D01*
X124197095Y-82265711D01*
X124182210Y-82256146D01*
X124143588Y-82227234D01*
X124038629Y-82148662D01*
X124025132Y-82138558D01*
X124011762Y-82126972D01*
X123873027Y-81988237D01*
X123861441Y-81974867D01*
X123743849Y-81817784D01*
X123734288Y-81802904D01*
X123640259Y-81630701D01*
X123632909Y-81614609D01*
X123572091Y-81451551D01*
X123564334Y-81430755D01*
X123559355Y-81413797D01*
X123517647Y-81222063D01*
X123515130Y-81204556D01*
X123509404Y-81124500D01*
X123500816Y-81004418D01*
X123500500Y-80995572D01*
X123500500Y-80401577D01*
X124249500Y-80401577D01*
X124249500Y-80598422D01*
X124280290Y-80792826D01*
X124341117Y-80980029D01*
X124378048Y-81052509D01*
X124430476Y-81155405D01*
X124546172Y-81314646D01*
X124685354Y-81453828D01*
X124844595Y-81569524D01*
X124927455Y-81611743D01*
X125019970Y-81658882D01*
X125019972Y-81658882D01*
X125019975Y-81658884D01*
X125120317Y-81691487D01*
X125207173Y-81719709D01*
X125401578Y-81750500D01*
X125401583Y-81750500D01*
X125598422Y-81750500D01*
X125792826Y-81719709D01*
X125980025Y-81658884D01*
X126155405Y-81569524D01*
X126314646Y-81453828D01*
X126453828Y-81314646D01*
X126569524Y-81155405D01*
X126658884Y-80980025D01*
X126719709Y-80792826D01*
X126750500Y-80598422D01*
X126750500Y-80401577D01*
X126719709Y-80207173D01*
X126658882Y-80019970D01*
X126569523Y-79844594D01*
X126513453Y-79767421D01*
X126453828Y-79685354D01*
X126314646Y-79546172D01*
X126155405Y-79430476D01*
X125980029Y-79341117D01*
X125792826Y-79280290D01*
X125598422Y-79249500D01*
X125598417Y-79249500D01*
X125401583Y-79249500D01*
X125401578Y-79249500D01*
X125207173Y-79280290D01*
X125019970Y-79341117D01*
X124844594Y-79430476D01*
X124753741Y-79496485D01*
X124685354Y-79546172D01*
X124685352Y-79546174D01*
X124685351Y-79546174D01*
X124546174Y-79685351D01*
X124546174Y-79685352D01*
X124546172Y-79685354D01*
X124496485Y-79753741D01*
X124430476Y-79844594D01*
X124341117Y-80019970D01*
X124280290Y-80207173D01*
X124249500Y-80401577D01*
X123500500Y-80401577D01*
X123500500Y-70629500D01*
X123520185Y-70562461D01*
X123572989Y-70516706D01*
X123624500Y-70505500D01*
X126206485Y-70505500D01*
X126206503Y-70505500D01*
X126219723Y-70505158D01*
X126232539Y-70504494D01*
X126316254Y-70485734D01*
X126380900Y-70459226D01*
X126443575Y-70422340D01*
X127328165Y-69714666D01*
X127357311Y-69687350D01*
X127383360Y-69658796D01*
X127391627Y-69649271D01*
X127415732Y-69604493D01*
X127464840Y-69554797D01*
X127533024Y-69539538D01*
X127590891Y-69558282D01*
X127592980Y-69559594D01*
X127592984Y-69559598D01*
X127654561Y-69598292D01*
X129579709Y-70453913D01*
X129639507Y-70472122D01*
X129639511Y-70472122D01*
X129639512Y-70472123D01*
X129669166Y-70477303D01*
X129698826Y-70482485D01*
X129733907Y-70486142D01*
X129832300Y-70470107D01*
X129832301Y-70470106D01*
X129832304Y-70470106D01*
X129876158Y-70453703D01*
X129897742Y-70445631D01*
X129961538Y-70410721D01*
X130722090Y-69840307D01*
X131102368Y-69555098D01*
X131123247Y-69537625D01*
X131142559Y-69519630D01*
X131200791Y-69438841D01*
X131229816Y-69375285D01*
X131244969Y-69332332D01*
X131247123Y-69292138D01*
X131249657Y-69244864D01*
X131272901Y-69178974D01*
X131328077Y-69136111D01*
X131373479Y-69127500D01*
X132549697Y-69127500D01*
X132549699Y-69127500D01*
X132645710Y-69101774D01*
X132731790Y-69052075D01*
X134725076Y-67058790D01*
X134774774Y-66972710D01*
X134800500Y-66876699D01*
X134800500Y-66777301D01*
X134800500Y-66157727D01*
X134820185Y-66090688D01*
X134836819Y-66070046D01*
X135188658Y-65718207D01*
X135568610Y-65338254D01*
X135629931Y-65304771D01*
X135640099Y-65302998D01*
X135732315Y-65290858D01*
X135801350Y-65301623D01*
X135853606Y-65348003D01*
X135872500Y-65413797D01*
X135872500Y-68948987D01*
X135852815Y-69016026D01*
X135836181Y-69036668D01*
X130197927Y-74674921D01*
X130197925Y-74674924D01*
X130148225Y-74761005D01*
X130148225Y-74761008D01*
X130122500Y-74857013D01*
X130121964Y-74861089D01*
X130097401Y-74920385D01*
X130019139Y-75022377D01*
X130019138Y-75022379D01*
X129963671Y-75156290D01*
X129963670Y-75156294D01*
X129944750Y-75300002D01*
X129944750Y-75300003D01*
X129963670Y-75443711D01*
X129963671Y-75443715D01*
X130019137Y-75577625D01*
X130019138Y-75577627D01*
X130019139Y-75577628D01*
X130107379Y-75692624D01*
X130222375Y-75780864D01*
X130356291Y-75836333D01*
X130483280Y-75853051D01*
X130499999Y-75855253D01*
X130500000Y-75855253D01*
X130500001Y-75855253D01*
X130514977Y-75853281D01*
X130643709Y-75836333D01*
X130777625Y-75780864D01*
X130892621Y-75692624D01*
X130980861Y-75577628D01*
X131036330Y-75443712D01*
X131055250Y-75300003D01*
X131036330Y-75156294D01*
X130994213Y-75054615D01*
X130986745Y-74985147D01*
X131018020Y-74922668D01*
X131021065Y-74919512D01*
X136552075Y-69388504D01*
X136601774Y-69302424D01*
X136627500Y-69206413D01*
X136627500Y-69107015D01*
X136627500Y-60207727D01*
X136647185Y-60140688D01*
X136663819Y-60120046D01*
X136695609Y-60088256D01*
X136756932Y-60054771D01*
X136767099Y-60052998D01*
X136893709Y-60036330D01*
X137027625Y-59980861D01*
X137142621Y-59892621D01*
X137230861Y-59777625D01*
X137286330Y-59643709D01*
X137305250Y-59500000D01*
X137286330Y-59356291D01*
X137230861Y-59222375D01*
X137142621Y-59107379D01*
X137027625Y-59019139D01*
X137027624Y-59019138D01*
X137027622Y-59019137D01*
X136893712Y-58963671D01*
X136893710Y-58963670D01*
X136893709Y-58963670D01*
X136821854Y-58954210D01*
X136750001Y-58944750D01*
X136749999Y-58944750D01*
X136606291Y-58963670D01*
X136606287Y-58963671D01*
X136472377Y-59019137D01*
X136357379Y-59107379D01*
X136269137Y-59222377D01*
X136213671Y-59356287D01*
X136213670Y-59356291D01*
X136197001Y-59482896D01*
X136168734Y-59546792D01*
X136161744Y-59554390D01*
X135947925Y-59768210D01*
X135898225Y-59854291D01*
X135898225Y-59854294D01*
X135872500Y-59950301D01*
X135872500Y-64086202D01*
X135852815Y-64153241D01*
X135800011Y-64198996D01*
X135732315Y-64209141D01*
X135623002Y-64194750D01*
X135622999Y-64194750D01*
X135479291Y-64213670D01*
X135479287Y-64213671D01*
X135345377Y-64269137D01*
X135230379Y-64357379D01*
X135142137Y-64472377D01*
X135086671Y-64606287D01*
X135086670Y-64606291D01*
X135070001Y-64732895D01*
X135041734Y-64796791D01*
X135034743Y-64804389D01*
X134120927Y-65718207D01*
X134120925Y-65718210D01*
X134071225Y-65804291D01*
X134071225Y-65804294D01*
X134045500Y-65900301D01*
X134045500Y-66619272D01*
X134025815Y-66686311D01*
X134009181Y-66706953D01*
X132379954Y-68336181D01*
X132318631Y-68369666D01*
X132292273Y-68372500D01*
X132095670Y-68372500D01*
X132028631Y-68352815D01*
X131982876Y-68300011D01*
X131972070Y-68238547D01*
X131972199Y-68236938D01*
X131973175Y-68224827D01*
X131761826Y-64843261D01*
X131756484Y-64804886D01*
X131748513Y-64768246D01*
X131745839Y-64757151D01*
X131702008Y-64667612D01*
X131659636Y-64612057D01*
X131659628Y-64612048D01*
X131628900Y-64578451D01*
X131628898Y-64578450D01*
X131587668Y-64553489D01*
X131543619Y-64526822D01*
X131543617Y-64526821D01*
X131543615Y-64526820D01*
X131504075Y-64512475D01*
X131477938Y-64502993D01*
X131477934Y-64502992D01*
X131477924Y-64502989D01*
X131406747Y-64488174D01*
X131406741Y-64488173D01*
X131406738Y-64488173D01*
X127647671Y-64253231D01*
X127647670Y-64253231D01*
X127640380Y-64253671D01*
X127585234Y-64257000D01*
X127585230Y-64257000D01*
X127585225Y-64257001D01*
X127585224Y-64257001D01*
X127525984Y-64267965D01*
X127491802Y-64276773D01*
X127461899Y-64293801D01*
X127393902Y-64309868D01*
X127336323Y-64292122D01*
X127284276Y-64260613D01*
X127284275Y-64260612D01*
X127284274Y-64260612D01*
X127218596Y-64236784D01*
X127218594Y-64236783D01*
X127218590Y-64236782D01*
X127218582Y-64236780D01*
X127147405Y-64221965D01*
X127147399Y-64221964D01*
X127147396Y-64221964D01*
X123648170Y-64003262D01*
X123648168Y-64003262D01*
X123641336Y-64003674D01*
X123631970Y-64004239D01*
X123563867Y-63988630D01*
X123515014Y-63938679D01*
X123500500Y-63880465D01*
X123500500Y-57604855D01*
X140462894Y-57604855D01*
X140462894Y-57604856D01*
X140481814Y-57748564D01*
X140481815Y-57748568D01*
X140537281Y-57882478D01*
X140537282Y-57882480D01*
X140537283Y-57882481D01*
X140625523Y-57997477D01*
X140740519Y-58085717D01*
X140874435Y-58141186D01*
X141001040Y-58157854D01*
X141064936Y-58186121D01*
X141072534Y-58193111D01*
X144946550Y-62067128D01*
X144946552Y-62067129D01*
X144946556Y-62067132D01*
X145032623Y-62116822D01*
X145032630Y-62116826D01*
X145128641Y-62142552D01*
X149807325Y-62142552D01*
X149874364Y-62162237D01*
X149895006Y-62178871D01*
X153161743Y-65445608D01*
X153195228Y-65506931D01*
X153197001Y-65517103D01*
X153213670Y-65643707D01*
X153213671Y-65643712D01*
X153269137Y-65777622D01*
X153269138Y-65777624D01*
X153269139Y-65777625D01*
X153357379Y-65892621D01*
X153472375Y-65980861D01*
X153606291Y-66036330D01*
X153733280Y-66053048D01*
X153749999Y-66055250D01*
X153750000Y-66055250D01*
X153750001Y-66055250D01*
X153764977Y-66053278D01*
X153893709Y-66036330D01*
X153951050Y-66012578D01*
X154020516Y-66005110D01*
X154082995Y-66036385D01*
X154118648Y-66096473D01*
X154122500Y-66127140D01*
X154122500Y-67725301D01*
X154122500Y-67824699D01*
X154148226Y-67920710D01*
X154197925Y-68006790D01*
X154197927Y-68006792D01*
X156688181Y-70497046D01*
X156721666Y-70558369D01*
X156724500Y-70584727D01*
X156724500Y-71274678D01*
X156739032Y-71347735D01*
X156739033Y-71347739D01*
X156739034Y-71347740D01*
X156794399Y-71430601D01*
X156877260Y-71485966D01*
X156877264Y-71485967D01*
X156950321Y-71500499D01*
X156950324Y-71500500D01*
X156950326Y-71500500D01*
X157999676Y-71500500D01*
X157999677Y-71500499D01*
X158072740Y-71485966D01*
X158155601Y-71430601D01*
X158210966Y-71347740D01*
X158225500Y-71274674D01*
X158225500Y-70264297D01*
X158245185Y-70197258D01*
X158297989Y-70151503D01*
X158367147Y-70141559D01*
X158410936Y-70157638D01*
X158411034Y-70157436D01*
X158413122Y-70158441D01*
X158415476Y-70159306D01*
X158416885Y-70160191D01*
X158417310Y-70160458D01*
X158522479Y-70197258D01*
X158576943Y-70216316D01*
X158744997Y-70235251D01*
X158745000Y-70235251D01*
X158745003Y-70235251D01*
X158913056Y-70216316D01*
X158913065Y-70216313D01*
X159072690Y-70160458D01*
X159072692Y-70160456D01*
X159072694Y-70160456D01*
X159072697Y-70160454D01*
X159215884Y-70070483D01*
X159215884Y-70070482D01*
X159215890Y-70070479D01*
X159292322Y-69994046D01*
X159353641Y-69960564D01*
X159423333Y-69965548D01*
X159467681Y-69994049D01*
X159544108Y-70070476D01*
X159544114Y-70070481D01*
X159687301Y-70160452D01*
X159687304Y-70160454D01*
X159687308Y-70160455D01*
X159687309Y-70160456D01*
X159687315Y-70160458D01*
X159846942Y-70216314D01*
X160014996Y-70235249D01*
X160014999Y-70235249D01*
X160015002Y-70235249D01*
X160183055Y-70216314D01*
X160237514Y-70197258D01*
X160342689Y-70160456D01*
X160342691Y-70160454D01*
X160342693Y-70160454D01*
X160342696Y-70160452D01*
X160485883Y-70070481D01*
X160485884Y-70070480D01*
X160485889Y-70070477D01*
X160605476Y-69950890D01*
X160625915Y-69918362D01*
X160695451Y-69807697D01*
X160695453Y-69807694D01*
X160695453Y-69807692D01*
X160695455Y-69807690D01*
X160751312Y-69648059D01*
X160751312Y-69648058D01*
X160751313Y-69648056D01*
X160770248Y-69480002D01*
X160770248Y-69479997D01*
X160751313Y-69311943D01*
X160699414Y-69163625D01*
X160695455Y-69152310D01*
X160695454Y-69152309D01*
X160695453Y-69152305D01*
X160695451Y-69152302D01*
X160605480Y-69009115D01*
X160605475Y-69009109D01*
X160485889Y-68889523D01*
X160485883Y-68889518D01*
X160342696Y-68799547D01*
X160342693Y-68799545D01*
X160183055Y-68743685D01*
X160015002Y-68724751D01*
X160014996Y-68724751D01*
X159846942Y-68743685D01*
X159687304Y-68799545D01*
X159687301Y-68799547D01*
X159544114Y-68889518D01*
X159467679Y-68965953D01*
X159406355Y-68999437D01*
X159336664Y-68994452D01*
X159292317Y-68965952D01*
X159215890Y-68889525D01*
X159215884Y-68889520D01*
X159072697Y-68799549D01*
X159072694Y-68799547D01*
X158913056Y-68743687D01*
X158745003Y-68724753D01*
X158744997Y-68724753D01*
X158576943Y-68743687D01*
X158417305Y-68799547D01*
X158417302Y-68799549D01*
X158274115Y-68889520D01*
X158197682Y-68965953D01*
X158136358Y-68999437D01*
X158066667Y-68994452D01*
X158022320Y-68965952D01*
X157945890Y-68889522D01*
X157945884Y-68889517D01*
X157802697Y-68799546D01*
X157802694Y-68799544D01*
X157643056Y-68743684D01*
X157475003Y-68724750D01*
X157474997Y-68724750D01*
X157306943Y-68743684D01*
X157147305Y-68799544D01*
X157147302Y-68799546D01*
X157004115Y-68889517D01*
X157004109Y-68889522D01*
X156884523Y-69009108D01*
X156884518Y-69009114D01*
X156794547Y-69152301D01*
X156794545Y-69152304D01*
X156760349Y-69250034D01*
X156719627Y-69306810D01*
X156654674Y-69332557D01*
X156586113Y-69319101D01*
X156555626Y-69296760D01*
X154913819Y-67654953D01*
X154880334Y-67593630D01*
X154877500Y-67567272D01*
X154877500Y-64950303D01*
X154877500Y-64950301D01*
X154862336Y-64893709D01*
X154851774Y-64854290D01*
X154802075Y-64768210D01*
X150588256Y-60554391D01*
X150554771Y-60493068D01*
X150552998Y-60482896D01*
X150536330Y-60356291D01*
X150480861Y-60222375D01*
X150392621Y-60107379D01*
X150277625Y-60019139D01*
X150277624Y-60019138D01*
X150277622Y-60019137D01*
X150143712Y-59963671D01*
X150143710Y-59963670D01*
X150143709Y-59963670D01*
X150071854Y-59954210D01*
X150000001Y-59944750D01*
X149999999Y-59944750D01*
X149856291Y-59963670D01*
X149856287Y-59963671D01*
X149722377Y-60019137D01*
X149699971Y-60036330D01*
X149621065Y-60096877D01*
X149555899Y-60122070D01*
X149545581Y-60122500D01*
X148260018Y-60122500D01*
X148192979Y-60102815D01*
X148147224Y-60050011D01*
X148143836Y-60041833D01*
X148093797Y-59907671D01*
X148093793Y-59907664D01*
X148007547Y-59792455D01*
X148007544Y-59792452D01*
X147892335Y-59706206D01*
X147892328Y-59706202D01*
X147757482Y-59655908D01*
X147757483Y-59655908D01*
X147697883Y-59649501D01*
X147697881Y-59649500D01*
X147697873Y-59649500D01*
X147697864Y-59649500D01*
X146302129Y-59649500D01*
X146302123Y-59649501D01*
X146242516Y-59655908D01*
X146107671Y-59706202D01*
X146107664Y-59706206D01*
X145992455Y-59792452D01*
X145992452Y-59792455D01*
X145906206Y-59907664D01*
X145906202Y-59907671D01*
X145856164Y-60041833D01*
X145814293Y-60097767D01*
X145748829Y-60122184D01*
X145739982Y-60122500D01*
X145007729Y-60122500D01*
X144940690Y-60102815D01*
X144920048Y-60086181D01*
X144808160Y-59974293D01*
X144774675Y-59912970D01*
X144772905Y-59902815D01*
X144756235Y-59776195D01*
X144706411Y-59655908D01*
X144700767Y-59642281D01*
X144700766Y-59642280D01*
X144700766Y-59642279D01*
X144612526Y-59527283D01*
X144497530Y-59439043D01*
X144497529Y-59439042D01*
X144497527Y-59439041D01*
X144363617Y-59383575D01*
X144363615Y-59383574D01*
X144363614Y-59383574D01*
X144291759Y-59374114D01*
X144219906Y-59364654D01*
X144219904Y-59364654D01*
X144076196Y-59383574D01*
X144076192Y-59383575D01*
X143942282Y-59439041D01*
X143827283Y-59527284D01*
X143760161Y-59614758D01*
X143703732Y-59655960D01*
X143633986Y-59660114D01*
X143574105Y-59626951D01*
X141606400Y-57659247D01*
X141572915Y-57597924D01*
X141571142Y-57587752D01*
X141554474Y-57461147D01*
X141499005Y-57327231D01*
X141410765Y-57212235D01*
X141295769Y-57123995D01*
X141295768Y-57123994D01*
X141295766Y-57123993D01*
X141161856Y-57068527D01*
X141161854Y-57068526D01*
X141161853Y-57068526D01*
X141089998Y-57059066D01*
X141018145Y-57049606D01*
X141018143Y-57049606D01*
X140874435Y-57068526D01*
X140874431Y-57068527D01*
X140740521Y-57123993D01*
X140625523Y-57212235D01*
X140537281Y-57327233D01*
X140481815Y-57461143D01*
X140481814Y-57461147D01*
X140462894Y-57604855D01*
X123500500Y-57604855D01*
X123500500Y-47959178D01*
X133451784Y-47959178D01*
X133456823Y-47997456D01*
X133470704Y-48102886D01*
X133470705Y-48102890D01*
X133526171Y-48236800D01*
X133526172Y-48236802D01*
X133526173Y-48236803D01*
X133614413Y-48351799D01*
X133729409Y-48440039D01*
X133863325Y-48495508D01*
X133934817Y-48504919D01*
X133998712Y-48533185D01*
X134006312Y-48540177D01*
X136268204Y-50802071D01*
X136268208Y-50802074D01*
X136268209Y-50802075D01*
X136285832Y-50812249D01*
X136285834Y-50812251D01*
X136285835Y-50812251D01*
X136354291Y-50851774D01*
X136450301Y-50877500D01*
X145292273Y-50877500D01*
X145359312Y-50897185D01*
X145379954Y-50913819D01*
X150395210Y-55929075D01*
X150481290Y-55978774D01*
X150577301Y-56004500D01*
X153045581Y-56004500D01*
X153112620Y-56024185D01*
X153121052Y-56030113D01*
X153222375Y-56107861D01*
X153356291Y-56163330D01*
X153483280Y-56180048D01*
X153499999Y-56182250D01*
X153500000Y-56182250D01*
X153500001Y-56182250D01*
X153514977Y-56180278D01*
X153643709Y-56163330D01*
X153777625Y-56107861D01*
X153892621Y-56019621D01*
X153980861Y-55904625D01*
X154036330Y-55770709D01*
X154055250Y-55627000D01*
X154036330Y-55483291D01*
X153980861Y-55349375D01*
X153892621Y-55234379D01*
X153777625Y-55146139D01*
X153777624Y-55146138D01*
X153777622Y-55146137D01*
X153643712Y-55090671D01*
X153643710Y-55090670D01*
X153643709Y-55090670D01*
X153571854Y-55081210D01*
X153500001Y-55071750D01*
X153499999Y-55071750D01*
X153356291Y-55090670D01*
X153356287Y-55090671D01*
X153222377Y-55146137D01*
X153190085Y-55170915D01*
X153121065Y-55223877D01*
X153055899Y-55249070D01*
X153045581Y-55249500D01*
X150834727Y-55249500D01*
X150767688Y-55229815D01*
X150747046Y-55213181D01*
X145801046Y-50267181D01*
X145795487Y-50257000D01*
X148694750Y-50257000D01*
X148694750Y-50257001D01*
X148713670Y-50400709D01*
X148713671Y-50400713D01*
X148769137Y-50534623D01*
X148769138Y-50534625D01*
X148769139Y-50534626D01*
X148857379Y-50649622D01*
X148972375Y-50737862D01*
X149106291Y-50793331D01*
X149233280Y-50810049D01*
X149249999Y-50812251D01*
X149250000Y-50812251D01*
X149250001Y-50812251D01*
X149264977Y-50810279D01*
X149393709Y-50793331D01*
X149527625Y-50737862D01*
X149628934Y-50660123D01*
X149694101Y-50634931D01*
X149704419Y-50634501D01*
X154542696Y-50634501D01*
X154542698Y-50634501D01*
X154638709Y-50608775D01*
X154724789Y-50559076D01*
X154945610Y-50338254D01*
X155006931Y-50304771D01*
X155017099Y-50302998D01*
X155143709Y-50286330D01*
X155277625Y-50230861D01*
X155392621Y-50142621D01*
X155480861Y-50027625D01*
X155536330Y-49893709D01*
X155555250Y-49750000D01*
X155536330Y-49606291D01*
X155480861Y-49472375D01*
X155392621Y-49357379D01*
X155277625Y-49269139D01*
X155277624Y-49269138D01*
X155277622Y-49269137D01*
X155143712Y-49213671D01*
X155143710Y-49213670D01*
X155143709Y-49213670D01*
X155071854Y-49204210D01*
X155000001Y-49194750D01*
X154999999Y-49194750D01*
X154856291Y-49213670D01*
X154856287Y-49213671D01*
X154722377Y-49269137D01*
X154607379Y-49357379D01*
X154519137Y-49472377D01*
X154463671Y-49606287D01*
X154463670Y-49606291D01*
X154447001Y-49732895D01*
X154418734Y-49796791D01*
X154411746Y-49804387D01*
X154392574Y-49823559D01*
X154372953Y-49843180D01*
X154311632Y-49876667D01*
X154285271Y-49879501D01*
X149704419Y-49879501D01*
X149637380Y-49859816D01*
X149628947Y-49853887D01*
X149527625Y-49776140D01*
X149527624Y-49776139D01*
X149527622Y-49776138D01*
X149393712Y-49720672D01*
X149393710Y-49720671D01*
X149393709Y-49720671D01*
X149321854Y-49711211D01*
X149250001Y-49701751D01*
X149249999Y-49701751D01*
X149106291Y-49720671D01*
X149106287Y-49720672D01*
X148972377Y-49776138D01*
X148857379Y-49864380D01*
X148769137Y-49979378D01*
X148713671Y-50113288D01*
X148713670Y-50113292D01*
X148694750Y-50257000D01*
X145795487Y-50257000D01*
X145767561Y-50205858D01*
X145772545Y-50136166D01*
X145814417Y-50080233D01*
X145879881Y-50055816D01*
X145888711Y-50055500D01*
X146770370Y-50055500D01*
X146829981Y-50049092D01*
X146964829Y-49998797D01*
X147080044Y-49912547D01*
X147166294Y-49797332D01*
X147216589Y-49662484D01*
X147222998Y-49602874D01*
X147222997Y-48307129D01*
X147216589Y-48247518D01*
X147212591Y-48236800D01*
X147166295Y-48112672D01*
X147166291Y-48112665D01*
X147080045Y-47997456D01*
X147080042Y-47997453D01*
X146964833Y-47911207D01*
X146964826Y-47911203D01*
X146829980Y-47860909D01*
X146829981Y-47860909D01*
X146770381Y-47854502D01*
X146770379Y-47854501D01*
X146770371Y-47854501D01*
X146770362Y-47854501D01*
X145174627Y-47854501D01*
X145174621Y-47854502D01*
X145115014Y-47860909D01*
X144980169Y-47911203D01*
X144980162Y-47911207D01*
X144864953Y-47997453D01*
X144864950Y-47997456D01*
X144778704Y-48112665D01*
X144778700Y-48112672D01*
X144728406Y-48247518D01*
X144721999Y-48307117D01*
X144721999Y-48307124D01*
X144721998Y-48307136D01*
X144721998Y-49602871D01*
X144721999Y-49602877D01*
X144728406Y-49662484D01*
X144778700Y-49797329D01*
X144778704Y-49797336D01*
X144870266Y-49919646D01*
X144868688Y-49920826D01*
X144896709Y-49972142D01*
X144891725Y-50041834D01*
X144849853Y-50097767D01*
X144784389Y-50122184D01*
X144775543Y-50122500D01*
X140169454Y-50122500D01*
X140102415Y-50102815D01*
X140056660Y-50050011D01*
X140046716Y-49980853D01*
X140075741Y-49917297D01*
X140079558Y-49913196D01*
X140080042Y-49912548D01*
X140080045Y-49912547D01*
X140166295Y-49797332D01*
X140216590Y-49662484D01*
X140222999Y-49602874D01*
X140222998Y-48307129D01*
X140216590Y-48247518D01*
X140212592Y-48236800D01*
X140166296Y-48112672D01*
X140166292Y-48112665D01*
X140080046Y-47997456D01*
X140080043Y-47997453D01*
X139964834Y-47911207D01*
X139964827Y-47911203D01*
X139829981Y-47860909D01*
X139829982Y-47860909D01*
X139770382Y-47854502D01*
X139770380Y-47854501D01*
X139770372Y-47854501D01*
X139770363Y-47854501D01*
X138174628Y-47854501D01*
X138174622Y-47854502D01*
X138115015Y-47860909D01*
X137980170Y-47911203D01*
X137980163Y-47911207D01*
X137864954Y-47997453D01*
X137864951Y-47997456D01*
X137778705Y-48112665D01*
X137778701Y-48112672D01*
X137728407Y-48247518D01*
X137722000Y-48307117D01*
X137722000Y-48307124D01*
X137721999Y-48307136D01*
X137721999Y-49602871D01*
X137722000Y-49602877D01*
X137728407Y-49662484D01*
X137778701Y-49797329D01*
X137778705Y-49797336D01*
X137870267Y-49919646D01*
X137868689Y-49920826D01*
X137896710Y-49972142D01*
X137891726Y-50041834D01*
X137849854Y-50097767D01*
X137784390Y-50122184D01*
X137775544Y-50122500D01*
X136707728Y-50122500D01*
X136640689Y-50102815D01*
X136620047Y-50086181D01*
X134597468Y-48063603D01*
X134563983Y-48002280D01*
X134562527Y-47967307D01*
X134562284Y-47967307D01*
X134562284Y-47961478D01*
X134562211Y-47959730D01*
X134562284Y-47959178D01*
X134543364Y-47815469D01*
X134487895Y-47681553D01*
X134399655Y-47566557D01*
X134284659Y-47478317D01*
X134284658Y-47478316D01*
X134284656Y-47478315D01*
X134150746Y-47422849D01*
X134150744Y-47422848D01*
X134150743Y-47422848D01*
X134078888Y-47413388D01*
X134007035Y-47403928D01*
X134007033Y-47403928D01*
X133863325Y-47422848D01*
X133863321Y-47422849D01*
X133729411Y-47478315D01*
X133614413Y-47566557D01*
X133526171Y-47681555D01*
X133470705Y-47815465D01*
X133470704Y-47815469D01*
X133451785Y-47959174D01*
X133451784Y-47959178D01*
X123500500Y-47959178D01*
X123500500Y-45401577D01*
X124249500Y-45401577D01*
X124249500Y-45598422D01*
X124280290Y-45792826D01*
X124341117Y-45980029D01*
X124430476Y-46155405D01*
X124546172Y-46314646D01*
X124685354Y-46453828D01*
X124844595Y-46569524D01*
X124927455Y-46611743D01*
X125019970Y-46658882D01*
X125019972Y-46658882D01*
X125019975Y-46658884D01*
X125120317Y-46691487D01*
X125207173Y-46719709D01*
X125401578Y-46750500D01*
X125401583Y-46750500D01*
X125598422Y-46750500D01*
X125792826Y-46719709D01*
X125814391Y-46712702D01*
X125980025Y-46658884D01*
X126155405Y-46569524D01*
X126314646Y-46453828D01*
X126400084Y-46368390D01*
X137722000Y-46368390D01*
X137722000Y-46541612D01*
X137749098Y-46712702D01*
X137802627Y-46877446D01*
X137881268Y-47031789D01*
X137983086Y-47171929D01*
X138105572Y-47294415D01*
X138245712Y-47396233D01*
X138400055Y-47474874D01*
X138564799Y-47528403D01*
X138735889Y-47555501D01*
X138735890Y-47555501D01*
X139209110Y-47555501D01*
X139209111Y-47555501D01*
X139380201Y-47528403D01*
X139544945Y-47474874D01*
X139699288Y-47396233D01*
X139839428Y-47294415D01*
X139961914Y-47171929D01*
X140063732Y-47031789D01*
X140142373Y-46877446D01*
X140195902Y-46712702D01*
X140223000Y-46541612D01*
X140223000Y-46368390D01*
X144721997Y-46368390D01*
X144721997Y-46541612D01*
X144749095Y-46712702D01*
X144802624Y-46877446D01*
X144881265Y-47031789D01*
X144983083Y-47171929D01*
X145105569Y-47294415D01*
X145245709Y-47396233D01*
X145400052Y-47474874D01*
X145564796Y-47528403D01*
X145735886Y-47555501D01*
X145735887Y-47555501D01*
X146209107Y-47555501D01*
X146209108Y-47555501D01*
X146380198Y-47528403D01*
X146544942Y-47474874D01*
X146699285Y-47396233D01*
X146839425Y-47294415D01*
X146961911Y-47171929D01*
X147063729Y-47031789D01*
X147142370Y-46877446D01*
X147195899Y-46712702D01*
X147222997Y-46541612D01*
X147222997Y-46368390D01*
X147195899Y-46197300D01*
X147142370Y-46032556D01*
X147063729Y-45878213D01*
X146961911Y-45738073D01*
X146839425Y-45615587D01*
X146699285Y-45513769D01*
X146544942Y-45435128D01*
X146441683Y-45401577D01*
X159249500Y-45401577D01*
X159249500Y-45598422D01*
X159280290Y-45792826D01*
X159341117Y-45980029D01*
X159430476Y-46155405D01*
X159546172Y-46314646D01*
X159685354Y-46453828D01*
X159844595Y-46569524D01*
X159927455Y-46611743D01*
X160019970Y-46658882D01*
X160019972Y-46658882D01*
X160019975Y-46658884D01*
X160120317Y-46691487D01*
X160207173Y-46719709D01*
X160401578Y-46750500D01*
X160401583Y-46750500D01*
X160598422Y-46750500D01*
X160792826Y-46719709D01*
X160814391Y-46712702D01*
X160980025Y-46658884D01*
X161155405Y-46569524D01*
X161314646Y-46453828D01*
X161453828Y-46314646D01*
X161569524Y-46155405D01*
X161658884Y-45980025D01*
X161719709Y-45792826D01*
X161728381Y-45738071D01*
X161750500Y-45598422D01*
X161750500Y-45401577D01*
X161719709Y-45207173D01*
X161658882Y-45019970D01*
X161569523Y-44844594D01*
X161453828Y-44685354D01*
X161314646Y-44546172D01*
X161155405Y-44430476D01*
X160980029Y-44341117D01*
X160792826Y-44280290D01*
X160598422Y-44249500D01*
X160598417Y-44249500D01*
X160401583Y-44249500D01*
X160401578Y-44249500D01*
X160207173Y-44280290D01*
X160019970Y-44341117D01*
X159844594Y-44430476D01*
X159753741Y-44496485D01*
X159685354Y-44546172D01*
X159685352Y-44546174D01*
X159685351Y-44546174D01*
X159546174Y-44685351D01*
X159546174Y-44685352D01*
X159546172Y-44685354D01*
X159496485Y-44753741D01*
X159430476Y-44844594D01*
X159341117Y-45019970D01*
X159280290Y-45207173D01*
X159249500Y-45401577D01*
X146441683Y-45401577D01*
X146380198Y-45381599D01*
X146380196Y-45381598D01*
X146380195Y-45381598D01*
X146248768Y-45360782D01*
X146209108Y-45354501D01*
X145735886Y-45354501D01*
X145696225Y-45360782D01*
X145564799Y-45381598D01*
X145400049Y-45435129D01*
X145245708Y-45513769D01*
X145165753Y-45571860D01*
X145105569Y-45615587D01*
X145105567Y-45615589D01*
X145105566Y-45615589D01*
X144983085Y-45738070D01*
X144983085Y-45738071D01*
X144983083Y-45738073D01*
X144939356Y-45798257D01*
X144881265Y-45878212D01*
X144802625Y-46032553D01*
X144749094Y-46197303D01*
X144730509Y-46314646D01*
X144721997Y-46368390D01*
X140223000Y-46368390D01*
X140195902Y-46197300D01*
X140142373Y-46032556D01*
X140063732Y-45878213D01*
X139961914Y-45738073D01*
X139839428Y-45615587D01*
X139699288Y-45513769D01*
X139544945Y-45435128D01*
X139380201Y-45381599D01*
X139380199Y-45381598D01*
X139380198Y-45381598D01*
X139248771Y-45360782D01*
X139209111Y-45354501D01*
X138735889Y-45354501D01*
X138696228Y-45360782D01*
X138564802Y-45381598D01*
X138400052Y-45435129D01*
X138245711Y-45513769D01*
X138165756Y-45571860D01*
X138105572Y-45615587D01*
X138105570Y-45615589D01*
X138105569Y-45615589D01*
X137983088Y-45738070D01*
X137983088Y-45738071D01*
X137983086Y-45738073D01*
X137939359Y-45798257D01*
X137881268Y-45878212D01*
X137802628Y-46032553D01*
X137749097Y-46197303D01*
X137730512Y-46314646D01*
X137722000Y-46368390D01*
X126400084Y-46368390D01*
X126453828Y-46314646D01*
X126569524Y-46155405D01*
X126658884Y-45980025D01*
X126719709Y-45792826D01*
X126728381Y-45738071D01*
X126750500Y-45598422D01*
X126750500Y-45401577D01*
X126719709Y-45207173D01*
X126658882Y-45019970D01*
X126569523Y-44844594D01*
X126453828Y-44685354D01*
X126314646Y-44546172D01*
X126155405Y-44430476D01*
X125980029Y-44341117D01*
X125792826Y-44280290D01*
X125598422Y-44249500D01*
X125598417Y-44249500D01*
X125401583Y-44249500D01*
X125401578Y-44249500D01*
X125207173Y-44280290D01*
X125019970Y-44341117D01*
X124844594Y-44430476D01*
X124753741Y-44496485D01*
X124685354Y-44546172D01*
X124685352Y-44546174D01*
X124685351Y-44546174D01*
X124546174Y-44685351D01*
X124546174Y-44685352D01*
X124546172Y-44685354D01*
X124496485Y-44753741D01*
X124430476Y-44844594D01*
X124341117Y-45019970D01*
X124280290Y-45207173D01*
X124249500Y-45401577D01*
X123500500Y-45401577D01*
X123500500Y-45004427D01*
X123500816Y-44995581D01*
X123515130Y-44795443D01*
X123515131Y-44795442D01*
X123515130Y-44795436D01*
X123517646Y-44777938D01*
X123559356Y-44586199D01*
X123564333Y-44569248D01*
X123632911Y-44385385D01*
X123640259Y-44369298D01*
X123705673Y-44249500D01*
X123734291Y-44197089D01*
X123743845Y-44182221D01*
X123861448Y-44025123D01*
X123873020Y-44011769D01*
X124011769Y-43873020D01*
X124025123Y-43861448D01*
X124182221Y-43743845D01*
X124197089Y-43734291D01*
X124369298Y-43640258D01*
X124385385Y-43632911D01*
X124569248Y-43564333D01*
X124586199Y-43559356D01*
X124777938Y-43517646D01*
X124795436Y-43515130D01*
X124995582Y-43500816D01*
X125004428Y-43500500D01*
X125065892Y-43500500D01*
X160934108Y-43500500D01*
X160995572Y-43500500D01*
X161004418Y-43500816D01*
G37*
%TD.AperFunction*%
%TD*%
%TA.AperFunction,Conductor*%
%TO.N,+12V*%
G36*
X142664223Y-76122742D02*
G01*
X142730721Y-76144183D01*
X142740344Y-76151440D01*
X144111772Y-77294297D01*
X144162649Y-77336694D01*
X144201548Y-77394733D01*
X144207266Y-77431953D01*
X144207266Y-81999875D01*
X144187581Y-82066914D01*
X144134777Y-82112669D01*
X144083266Y-82123875D01*
X133331266Y-82123875D01*
X133264227Y-82104190D01*
X133218472Y-82051386D01*
X133207266Y-81999875D01*
X133207266Y-81124500D01*
X133226951Y-81057461D01*
X133279755Y-81011706D01*
X133331266Y-81000500D01*
X135274676Y-81000500D01*
X135274677Y-81000499D01*
X135347740Y-80985966D01*
X135430601Y-80930601D01*
X135485966Y-80847740D01*
X135500500Y-80774674D01*
X135500500Y-77725326D01*
X135500500Y-77725323D01*
X135500499Y-77725321D01*
X135485967Y-77652264D01*
X135485966Y-77652260D01*
X135430601Y-77569399D01*
X135347740Y-77514034D01*
X135347739Y-77514033D01*
X135347735Y-77514032D01*
X135274677Y-77499500D01*
X135274674Y-77499500D01*
X134958727Y-77499500D01*
X134891688Y-77479815D01*
X134845933Y-77427011D01*
X134835989Y-77357853D01*
X134865014Y-77294297D01*
X134871046Y-77287819D01*
X135482166Y-76676699D01*
X136168398Y-75990466D01*
X136229719Y-75956983D01*
X136259333Y-75954192D01*
X142664223Y-76122742D01*
G37*
%TD.AperFunction*%
%TD*%
%TA.AperFunction,Conductor*%
%TO.N,Net-(IC1-OUT2)*%
G36*
X127131458Y-64476966D02*
G01*
X127197136Y-64500794D01*
X127239508Y-64556349D01*
X127246458Y-64618367D01*
X127244500Y-64631983D01*
X127244500Y-68085544D01*
X127224815Y-68152583D01*
X127172011Y-68198338D01*
X127104315Y-68208483D01*
X127000002Y-68194750D01*
X126999999Y-68194750D01*
X126856291Y-68213670D01*
X126856287Y-68213671D01*
X126722377Y-68269137D01*
X126607379Y-68357379D01*
X126519137Y-68472377D01*
X126463671Y-68606287D01*
X126463670Y-68606291D01*
X126444750Y-68749999D01*
X126444750Y-68750000D01*
X126463670Y-68893708D01*
X126463671Y-68893712D01*
X126519137Y-69027622D01*
X126519138Y-69027624D01*
X126519139Y-69027625D01*
X126607379Y-69142621D01*
X126722375Y-69230861D01*
X126856291Y-69286330D01*
X127000000Y-69305250D01*
X127074910Y-69295387D01*
X127143941Y-69306152D01*
X127196198Y-69352531D01*
X127215084Y-69419799D01*
X127194604Y-69486600D01*
X127168555Y-69515154D01*
X126283965Y-70222828D01*
X126219319Y-70249336D01*
X126206503Y-70250000D01*
X123624500Y-70250000D01*
X123557461Y-70230315D01*
X123511706Y-70177511D01*
X123500500Y-70126000D01*
X123500500Y-64382023D01*
X123520185Y-64314984D01*
X123572989Y-64269229D01*
X123632232Y-64258264D01*
X127131458Y-64476966D01*
G37*
%TD.AperFunction*%
%TD*%
%TA.AperFunction,Conductor*%
%TO.N, MOT_A*%
G36*
X131390800Y-64743175D02*
G01*
X131456481Y-64767004D01*
X131498853Y-64822559D01*
X131506824Y-64859199D01*
X131718173Y-68240765D01*
X131702708Y-68308902D01*
X131652861Y-68357861D01*
X131594414Y-68372500D01*
X127624000Y-68372500D01*
X127556961Y-68352815D01*
X127511206Y-68300011D01*
X127500000Y-68248500D01*
X127500000Y-64631992D01*
X127519685Y-64564953D01*
X127572489Y-64519198D01*
X127631733Y-64508233D01*
X131390800Y-64743175D01*
G37*
%TD.AperFunction*%
%TD*%
M02*
