%TF.GenerationSoftware,KiCad,Pcbnew,8.0.2*%
%TF.CreationDate,2024-11-04T12:25:00+02:00*%
%TF.ProjectId,Little Boy - External,4c697474-6c65-4204-926f-79202d204578,rev?*%
%TF.SameCoordinates,Original*%
%TF.FileFunction,Copper,L1,Top*%
%TF.FilePolarity,Positive*%
%FSLAX46Y46*%
G04 Gerber Fmt 4.6, Leading zero omitted, Abs format (unit mm)*
G04 Created by KiCad (PCBNEW 8.0.2) date 2024-11-04 12:25:00*
%MOMM*%
%LPD*%
G01*
G04 APERTURE LIST*
G04 Aperture macros list*
%AMRoundRect*
0 Rectangle with rounded corners*
0 $1 Rounding radius*
0 $2 $3 $4 $5 $6 $7 $8 $9 X,Y pos of 4 corners*
0 Add a 4 corners polygon primitive as box body*
4,1,4,$2,$3,$4,$5,$6,$7,$8,$9,$2,$3,0*
0 Add four circle primitives for the rounded corners*
1,1,$1+$1,$2,$3*
1,1,$1+$1,$4,$5*
1,1,$1+$1,$6,$7*
1,1,$1+$1,$8,$9*
0 Add four rect primitives between the rounded corners*
20,1,$1+$1,$2,$3,$4,$5,0*
20,1,$1+$1,$4,$5,$6,$7,0*
20,1,$1+$1,$6,$7,$8,$9,0*
20,1,$1+$1,$8,$9,$2,$3,0*%
G04 Aperture macros list end*
%TA.AperFunction,SMDPad,CuDef*%
%ADD10R,0.600000X1.550000*%
%TD*%
%TA.AperFunction,ComponentPad*%
%ADD11C,0.600000*%
%TD*%
%TA.AperFunction,SMDPad,CuDef*%
%ADD12R,4.900000X2.950000*%
%TD*%
%TA.AperFunction,SMDPad,CuDef*%
%ADD13RoundRect,0.250000X0.850000X-0.375000X0.850000X0.375000X-0.850000X0.375000X-0.850000X-0.375000X0*%
%TD*%
%TA.AperFunction,SMDPad,CuDef*%
%ADD14RoundRect,0.135000X0.135000X0.185000X-0.135000X0.185000X-0.135000X-0.185000X0.135000X-0.185000X0*%
%TD*%
%TA.AperFunction,SMDPad,CuDef*%
%ADD15RoundRect,0.140000X-0.140000X-0.170000X0.140000X-0.170000X0.140000X0.170000X-0.140000X0.170000X0*%
%TD*%
%TA.AperFunction,SMDPad,CuDef*%
%ADD16RoundRect,0.250000X-0.250000X-0.475000X0.250000X-0.475000X0.250000X0.475000X-0.250000X0.475000X0*%
%TD*%
%TA.AperFunction,SMDPad,CuDef*%
%ADD17RoundRect,0.218750X-0.256250X0.218750X-0.256250X-0.218750X0.256250X-0.218750X0.256250X0.218750X0*%
%TD*%
%TA.AperFunction,ComponentPad*%
%ADD18RoundRect,0.250000X-1.125000X-1.125000X1.125000X-1.125000X1.125000X1.125000X-1.125000X1.125000X0*%
%TD*%
%TA.AperFunction,SMDPad,CuDef*%
%ADD19RoundRect,0.135000X0.185000X-0.135000X0.185000X0.135000X-0.185000X0.135000X-0.185000X-0.135000X0*%
%TD*%
%TA.AperFunction,SMDPad,CuDef*%
%ADD20RoundRect,0.140000X0.140000X0.170000X-0.140000X0.170000X-0.140000X-0.170000X0.140000X-0.170000X0*%
%TD*%
%TA.AperFunction,SMDPad,CuDef*%
%ADD21RoundRect,0.250000X0.475000X-0.250000X0.475000X0.250000X-0.475000X0.250000X-0.475000X-0.250000X0*%
%TD*%
%TA.AperFunction,SMDPad,CuDef*%
%ADD22R,1.400000X1.200000*%
%TD*%
%TA.AperFunction,SMDPad,CuDef*%
%ADD23RoundRect,0.250000X0.250000X0.475000X-0.250000X0.475000X-0.250000X-0.475000X0.250000X-0.475000X0*%
%TD*%
%TA.AperFunction,SMDPad,CuDef*%
%ADD24RoundRect,0.225000X-0.250000X0.225000X-0.250000X-0.225000X0.250000X-0.225000X0.250000X0.225000X0*%
%TD*%
%TA.AperFunction,SMDPad,CuDef*%
%ADD25RoundRect,0.093750X0.093750X0.106250X-0.093750X0.106250X-0.093750X-0.106250X0.093750X-0.106250X0*%
%TD*%
%TA.AperFunction,HeatsinkPad*%
%ADD26C,0.500000*%
%TD*%
%TA.AperFunction,HeatsinkPad*%
%ADD27R,1.000000X1.600000*%
%TD*%
%TA.AperFunction,ComponentPad*%
%ADD28R,3.000000X3.000000*%
%TD*%
%TA.AperFunction,ComponentPad*%
%ADD29C,3.000000*%
%TD*%
%TA.AperFunction,SMDPad,CuDef*%
%ADD30RoundRect,0.150000X0.150000X-0.825000X0.150000X0.825000X-0.150000X0.825000X-0.150000X-0.825000X0*%
%TD*%
%TA.AperFunction,SMDPad,CuDef*%
%ADD31R,0.650000X1.525000*%
%TD*%
%TA.AperFunction,SMDPad,CuDef*%
%ADD32R,3.400000X2.710000*%
%TD*%
%TA.AperFunction,ComponentPad*%
%ADD33R,1.000000X1.000000*%
%TD*%
%TA.AperFunction,ComponentPad*%
%ADD34O,1.000000X1.000000*%
%TD*%
%TA.AperFunction,ComponentPad*%
%ADD35RoundRect,0.250000X0.750000X-0.600000X0.750000X0.600000X-0.750000X0.600000X-0.750000X-0.600000X0*%
%TD*%
%TA.AperFunction,ComponentPad*%
%ADD36O,2.000000X1.700000*%
%TD*%
%TA.AperFunction,SMDPad,CuDef*%
%ADD37RoundRect,0.135000X-0.185000X0.135000X-0.185000X-0.135000X0.185000X-0.135000X0.185000X0.135000X0*%
%TD*%
%TA.AperFunction,SMDPad,CuDef*%
%ADD38RoundRect,0.140000X0.170000X-0.140000X0.170000X0.140000X-0.170000X0.140000X-0.170000X-0.140000X0*%
%TD*%
%TA.AperFunction,SMDPad,CuDef*%
%ADD39R,1.500000X1.000000*%
%TD*%
%TA.AperFunction,SMDPad,CuDef*%
%ADD40RoundRect,0.147500X-0.172500X0.147500X-0.172500X-0.147500X0.172500X-0.147500X0.172500X0.147500X0*%
%TD*%
%TA.AperFunction,SMDPad,CuDef*%
%ADD41R,1.300000X0.300000*%
%TD*%
%TA.AperFunction,SMDPad,CuDef*%
%ADD42R,2.200000X1.800000*%
%TD*%
%TA.AperFunction,SMDPad,CuDef*%
%ADD43RoundRect,0.075000X-0.075000X0.662500X-0.075000X-0.662500X0.075000X-0.662500X0.075000X0.662500X0*%
%TD*%
%TA.AperFunction,SMDPad,CuDef*%
%ADD44RoundRect,0.075000X-0.662500X0.075000X-0.662500X-0.075000X0.662500X-0.075000X0.662500X0.075000X0*%
%TD*%
%TA.AperFunction,SMDPad,CuDef*%
%ADD45RoundRect,0.200000X0.200000X0.275000X-0.200000X0.275000X-0.200000X-0.275000X0.200000X-0.275000X0*%
%TD*%
%TA.AperFunction,ViaPad*%
%ADD46C,0.600000*%
%TD*%
%TA.AperFunction,Conductor*%
%ADD47C,0.254000*%
%TD*%
%TA.AperFunction,Conductor*%
%ADD48C,0.200000*%
%TD*%
%TA.AperFunction,Conductor*%
%ADD49C,0.508000*%
%TD*%
G04 APERTURE END LIST*
D10*
%TO.P,U2,1,GND*%
%TO.N,GND*%
X124994999Y-61300001D03*
%TO.P,U2,2,VIN*%
%TO.N,+12V*%
X126265000Y-61300000D03*
%TO.P,U2,3,EN*%
X127535000Y-61300000D03*
%TO.P,U2,4,PG*%
%TO.N,unconnected-(U2-PG-Pad4)*%
X128805000Y-61299999D03*
%TO.P,U2,5,FB*%
%TO.N,Net-(U2-FB)*%
X128805001Y-55899999D03*
%TO.P,U2,6,VCC*%
%TO.N,Net-(U2-VCC)*%
X127535000Y-55900000D03*
%TO.P,U2,7,BOOT*%
%TO.N,Net-(U2-BOOT)*%
X126265000Y-55900000D03*
%TO.P,U2,8,SW*%
%TO.N,Net-(U2-SW)*%
X124995000Y-55900001D03*
D11*
%TO.P,U2,9,GND*%
%TO.N,GND*%
X128850001Y-59250001D03*
X126250000Y-59250000D03*
X127550000Y-59250000D03*
X124949998Y-59249999D03*
D12*
X126900000Y-58600000D03*
D11*
X128850002Y-57950001D03*
X126250000Y-57950000D03*
X127550000Y-57950000D03*
X124949999Y-57949999D03*
%TD*%
D13*
%TO.P,L2,1,1*%
%TO.N,Net-(U2-SW)*%
X124624999Y-53775000D03*
%TO.P,L2,2,2*%
%TO.N,+5V*%
X124625001Y-51625000D03*
%TD*%
D14*
%TO.P,R5,1*%
%TO.N,Net-(U2-FB)*%
X128510001Y-51950000D03*
%TO.P,R5,2*%
%TO.N,+5V*%
X127490001Y-51949998D03*
%TD*%
D15*
%TO.P,C2,1*%
%TO.N,+3.3VA*%
X144750000Y-56250000D03*
%TO.P,C2,2*%
%TO.N,GND*%
X145710000Y-56250000D03*
%TD*%
D16*
%TO.P,C11,1*%
%TO.N,GND*%
X130260001Y-73250000D03*
%TO.P,C11,2*%
%TO.N,+12V*%
X132160001Y-73250000D03*
%TD*%
D17*
%TO.P,D2,1*%
%TO.N,GND*%
X134499999Y-55712498D03*
%TO.P,D2,2*%
%TO.N,Net-(D2-Pad2)*%
X134500001Y-57287502D03*
%TD*%
D18*
%TO.P,J6,1,Pin_1*%
%TO.N, MOT_A*%
X129500000Y-66500000D03*
%TD*%
D19*
%TO.P,R8,1*%
%TO.N,GND*%
X132499999Y-52950000D03*
%TO.P,R8,2*%
%TO.N,Net-(R6-Pad1)*%
X132500001Y-51930000D03*
%TD*%
D20*
%TO.P,C6,1*%
%TO.N,+3V3*%
X138709999Y-58029998D03*
%TO.P,C6,2*%
%TO.N,GND*%
X137749999Y-58029998D03*
%TD*%
D15*
%TO.P,C14,1*%
%TO.N,GND*%
X132210001Y-74750000D03*
%TO.P,C14,2*%
%TO.N,+12V*%
X133170001Y-74750000D03*
%TD*%
D21*
%TO.P,C18,1*%
%TO.N,+5V*%
X130637497Y-50259178D03*
%TO.P,C18,2*%
%TO.N,GND*%
X130637497Y-48359178D03*
%TD*%
D22*
%TO.P,Y1,1,1*%
%TO.N,Net-(U1-PF1)*%
X140900000Y-56350000D03*
%TO.P,Y1,2,2*%
%TO.N,GND*%
X143100001Y-56349999D03*
%TO.P,Y1,3,3*%
%TO.N,Net-(U1-PF0)*%
X143100000Y-54650000D03*
%TO.P,Y1,4,4*%
%TO.N,GND*%
X140899999Y-54650001D03*
%TD*%
D23*
%TO.P,C10,1*%
%TO.N,+12V*%
X126200000Y-63449999D03*
%TO.P,C10,2*%
%TO.N,GND*%
X124300000Y-63449999D03*
%TD*%
D20*
%TO.P,C7,1*%
%TO.N,+3V3*%
X138709997Y-57029997D03*
%TO.P,C7,2*%
%TO.N,GND*%
X137749997Y-57029997D03*
%TD*%
D24*
%TO.P,C17,1*%
%TO.N,+5V*%
X126749999Y-48699998D03*
%TO.P,C17,2*%
%TO.N,GND*%
X126749999Y-50250000D03*
%TD*%
D25*
%TO.P,U3,1,OUT*%
%TO.N,+3V3*%
X134025001Y-49959177D03*
%TO.P,U3,2,SNS*%
X134025001Y-49309177D03*
%TO.P,U3,3,GND*%
%TO.N,GND*%
X134025001Y-48659177D03*
%TO.P,U3,4,EN*%
%TO.N,+5V*%
X132250001Y-48659177D03*
%TO.P,U3,5,GND*%
%TO.N,GND*%
X132250001Y-49309177D03*
%TO.P,U3,6,IN*%
%TO.N,+5V*%
X132250001Y-49959177D03*
D26*
%TO.P,U3,7,PAD*%
%TO.N,GND*%
X133137501Y-49859176D03*
D27*
X133137501Y-49309177D03*
D26*
X133137501Y-48759178D03*
%TD*%
D28*
%TO.P,J4,1,Pin_1*%
%TO.N,GND*%
X149950000Y-79250000D03*
D29*
%TO.P,J4,2,Pin_2*%
%TO.N,+12V*%
X144950000Y-79250000D03*
%TD*%
D30*
%TO.P,U4,1,TXD*%
%TO.N,RP_RX*%
X151594999Y-56974999D03*
%TO.P,U4,2,GND*%
%TO.N,GND*%
X152865000Y-56975000D03*
%TO.P,U4,3,VCC*%
%TO.N,+5V*%
X154135000Y-56975000D03*
%TO.P,U4,4,RXD*%
%TO.N,RP_TX*%
X155405001Y-56974999D03*
%TO.P,U4,5,VIO*%
%TO.N,+3V3*%
X155405001Y-52025001D03*
%TO.P,U4,6,CANL*%
%TO.N,CAN_L*%
X154135000Y-52025000D03*
%TO.P,U4,7,CANH*%
%TO.N,CAN_H*%
X152865000Y-52025000D03*
%TO.P,U4,8,S*%
%TO.N,CAN_SILENT*%
X151594999Y-52025001D03*
%TD*%
D24*
%TO.P,C16,1*%
%TO.N,+5V*%
X128250000Y-48724999D03*
%TO.P,C16,2*%
%TO.N,GND*%
X128250000Y-50275001D03*
%TD*%
D31*
%TO.P,IC1,1,GND*%
%TO.N,GND*%
X125690002Y-75424002D03*
%TO.P,IC1,2,IN2*%
%TO.N,DRV_IN2*%
X126960001Y-75424001D03*
%TO.P,IC1,3,IN1*%
%TO.N,DRV_IN1*%
X128230001Y-75424001D03*
%TO.P,IC1,4,VREF*%
%TO.N,+3V3*%
X129500003Y-75424002D03*
%TO.P,IC1,5,VM*%
%TO.N,+12V*%
X129500000Y-70000000D03*
%TO.P,IC1,6,OUT1*%
%TO.N, MOT_A*%
X128230001Y-70000001D03*
%TO.P,IC1,7,ISEN*%
%TO.N,ISEN*%
X126960001Y-70000001D03*
%TO.P,IC1,8,OUT2*%
%TO.N,Net-(IC1-OUT2)*%
X125689999Y-70000000D03*
D32*
%TO.P,IC1,9,THERMAL_PAD*%
%TO.N,GND*%
X127595001Y-72712001D03*
%TD*%
D17*
%TO.P,D1,1*%
%TO.N,GND*%
X132999999Y-55712495D03*
%TO.P,D1,2*%
%TO.N,Net-(D1-Pad2)*%
X133000001Y-57287499D03*
%TD*%
D33*
%TO.P,SWD,1,Pin_1*%
%TO.N,+3V3*%
X157475000Y-70750000D03*
D34*
%TO.P,SWD,2,Pin_2*%
%TO.N,SWDIO*%
X157475000Y-69479999D03*
%TO.P,SWD,3,Pin_3*%
%TO.N,GND*%
X158745001Y-70750000D03*
%TO.P,SWD,4,Pin_4*%
%TO.N,SWCLK*%
X158745000Y-69480002D03*
%TO.P,SWD,5,Pin_5*%
%TO.N,GND*%
X160015001Y-70750001D03*
%TO.P,SWD,6,Pin_6*%
%TO.N,NRST*%
X160014999Y-69480000D03*
%TD*%
D28*
%TO.P,J3,1,Pin_1*%
%TO.N,GND*%
X133750000Y-79250000D03*
D29*
%TO.P,J3,2,Pin_2*%
%TO.N,+12V*%
X138750000Y-79250000D03*
%TD*%
D35*
%TO.P,J8,1,Pin_1*%
%TO.N,CAN_H*%
X138972499Y-48955001D03*
D36*
%TO.P,J8,2,Pin_2*%
%TO.N,CAN_L*%
X138972500Y-46455001D03*
%TD*%
D20*
%TO.P,C5,1*%
%TO.N,+3V3*%
X138710000Y-59000000D03*
%TO.P,C5,2*%
%TO.N,GND*%
X137750000Y-59000000D03*
%TD*%
D18*
%TO.P,J5,1,Pin_1*%
%TO.N,Net-(IC1-OUT2)*%
X125250000Y-66500000D03*
%TD*%
D35*
%TO.P,J9,1,Pin_1*%
%TO.N,CAN_H*%
X145972498Y-48955001D03*
D36*
%TO.P,J9,2,Pin_2*%
%TO.N,CAN_L*%
X145972497Y-46455001D03*
%TD*%
D37*
%TO.P,R4,1*%
%TO.N,ISEN*%
X137250001Y-64740000D03*
%TO.P,R4,2*%
%TO.N,GND*%
X137249999Y-65760000D03*
%TD*%
D38*
%TO.P,C22,1*%
%TO.N,+3V3*%
X154250000Y-60480000D03*
%TO.P,C22,2*%
%TO.N,GND*%
X154250000Y-59520000D03*
%TD*%
D19*
%TO.P,R2,1*%
%TO.N,Net-(U1-PA2)*%
X134249999Y-59509998D03*
%TO.P,R2,2*%
%TO.N,Net-(D2-Pad2)*%
X134250001Y-58489998D03*
%TD*%
D38*
%TO.P,C19,1*%
%TO.N,+3V3*%
X134999997Y-49659179D03*
%TO.P,C19,2*%
%TO.N,GND*%
X134999997Y-48699179D03*
%TD*%
D15*
%TO.P,C4,1*%
%TO.N,+3.3VA*%
X144770000Y-57250000D03*
%TO.P,C4,2*%
%TO.N,GND*%
X145730000Y-57250000D03*
%TD*%
D39*
%TO.P,JP1,1,A*%
%TO.N,Net-(JP1-A)*%
X151322502Y-48330000D03*
%TO.P,JP1,2,B*%
%TO.N,CAN_H*%
X151322502Y-49630000D03*
%TD*%
D20*
%TO.P,C12,1*%
%TO.N,GND*%
X130460000Y-76750000D03*
%TO.P,C12,2*%
%TO.N,+3V3*%
X129500000Y-76750000D03*
%TD*%
D15*
%TO.P,C24,1*%
%TO.N,+3V3*%
X155500000Y-50250000D03*
%TO.P,C24,2*%
%TO.N,GND*%
X156460000Y-50250000D03*
%TD*%
D40*
%TO.P,L1,1,1*%
%TO.N,+3V3*%
X144750000Y-54250000D03*
%TO.P,L1,2,2*%
%TO.N,+3.3VA*%
X144750000Y-55219996D03*
%TD*%
D38*
%TO.P,R7,1*%
%TO.N,Net-(JP1-A)*%
X151322502Y-46710000D03*
%TO.P,R7,2*%
%TO.N,CAN_L*%
X151322502Y-45750000D03*
%TD*%
%TO.P,C8,1*%
%TO.N,GND*%
X161750000Y-70710000D03*
%TO.P,C8,2*%
%TO.N,NRST*%
X161750000Y-69750000D03*
%TD*%
D41*
%TO.P,J10,1,Pin_1*%
%TO.N,MAG_CS*%
X155950000Y-64250000D03*
%TO.P,J10,2,Pin_2*%
%TO.N,SCK*%
X155950001Y-63750000D03*
%TO.P,J10,3,Pin_3*%
%TO.N,GND*%
X155949998Y-63249999D03*
%TO.P,J10,4,Pin_4*%
%TO.N,MISO*%
X155950000Y-62750001D03*
%TO.P,J10,5,Pin_5*%
%TO.N,MOSI*%
X155949999Y-62249999D03*
%TO.P,J10,6,Pin_6*%
%TO.N,+3V3*%
X155950000Y-61750000D03*
D42*
%TO.P,J10,MP,MountPin*%
%TO.N,GND*%
X159200000Y-66150000D03*
X159200002Y-59849999D03*
%TD*%
D38*
%TO.P,C15,1*%
%TO.N,Net-(U2-BOOT)*%
X126500000Y-54180001D03*
%TO.P,C15,2*%
%TO.N,Net-(U2-SW)*%
X126500000Y-53220001D03*
%TD*%
D19*
%TO.P,R1,1*%
%TO.N,SWCLK*%
X147999999Y-68510000D03*
%TO.P,R1,2*%
%TO.N,GND*%
X148000001Y-67490000D03*
%TD*%
D43*
%TO.P,U1,1,PC13*%
%TO.N,unconnected-(U1-PC13-Pad1)*%
X145749999Y-58837499D03*
%TO.P,U1,2,PC14*%
%TO.N,unconnected-(U1-PC14-Pad2)*%
X145249999Y-58837500D03*
%TO.P,U1,3,PC15*%
%TO.N,unconnected-(U1-PC15-Pad3)*%
X144749997Y-58837498D03*
%TO.P,U1,4,VBAT*%
%TO.N,+3V3*%
X144250002Y-58837501D03*
%TO.P,U1,5,VREF+*%
%TO.N,+3.3VA*%
X143750000Y-58837500D03*
%TO.P,U1,6,VDD*%
%TO.N,+3V3*%
X143249999Y-58837498D03*
%TO.P,U1,7,VSS*%
%TO.N,GND*%
X142750000Y-58837500D03*
%TO.P,U1,8,PF0*%
%TO.N,Net-(U1-PF0)*%
X142250000Y-58837500D03*
%TO.P,U1,9,PF1*%
%TO.N,Net-(U1-PF1)*%
X141750000Y-58837502D03*
%TO.P,U1,10,PF2*%
%TO.N,NRST*%
X141250000Y-58837501D03*
%TO.P,U1,11,PA0*%
%TO.N,unconnected-(U1-PA0-Pad11)*%
X140750000Y-58837502D03*
%TO.P,U1,12,PA1*%
%TO.N,unconnected-(U1-PA1-Pad12)*%
X140250001Y-58837499D03*
D44*
%TO.P,U1,13,PA2*%
%TO.N,Net-(U1-PA2)*%
X138837499Y-60250001D03*
%TO.P,U1,14,PA3*%
%TO.N,Net-(U1-PA3)*%
X138837500Y-60750001D03*
%TO.P,U1,15,PA4*%
%TO.N,unconnected-(U1-PA4-Pad15)*%
X138837498Y-61250003D03*
%TO.P,U1,16,PA5*%
%TO.N,unconnected-(U1-PA5-Pad16)*%
X138837501Y-61749998D03*
%TO.P,U1,17,PA6*%
%TO.N,unconnected-(U1-PA6-Pad17)*%
X138837500Y-62250000D03*
%TO.P,U1,18,PA7*%
%TO.N,CAN_SILENT*%
X138837498Y-62750001D03*
%TO.P,U1,19,PB0*%
%TO.N,unconnected-(U1-PB0-Pad19)*%
X138837500Y-63250000D03*
%TO.P,U1,20,PB1*%
%TO.N,unconnected-(U1-PB1-Pad20)*%
X138837500Y-63750000D03*
%TO.P,U1,21,PB2*%
%TO.N,MAG_CS*%
X138837502Y-64250000D03*
%TO.P,U1,22,PB10*%
%TO.N,ISEN*%
X138837501Y-64750000D03*
%TO.P,U1,23,PB11*%
%TO.N,unconnected-(U1-PB11-Pad23)*%
X138837502Y-65250000D03*
%TO.P,U1,24,PB12*%
%TO.N,unconnected-(U1-PB12-Pad24)*%
X138837499Y-65749999D03*
D43*
%TO.P,U1,25,PB13*%
%TO.N,unconnected-(U1-PB13-Pad25)*%
X140250001Y-67162501D03*
%TO.P,U1,26,PB14*%
%TO.N,unconnected-(U1-PB14-Pad26)*%
X140750001Y-67162500D03*
%TO.P,U1,27,PB15*%
%TO.N,unconnected-(U1-PB15-Pad27)*%
X141250003Y-67162502D03*
%TO.P,U1,28,PA8*%
%TO.N,DRV_IN1*%
X141749998Y-67162499D03*
%TO.P,U1,29,PA9/UCPD1_DBCC1*%
%TO.N,DRV_IN2*%
X142250000Y-67162500D03*
%TO.P,U1,30,PC6*%
%TO.N,unconnected-(U1-PC6-Pad30)*%
X142750001Y-67162502D03*
%TO.P,U1,31,PC7*%
%TO.N,unconnected-(U1-PC7-Pad31)*%
X143250000Y-67162500D03*
%TO.P,U1,32,PA10/UCPD1_DBCC2*%
%TO.N,unconnected-(U1-PA10{slash}UCPD1_DBCC2-Pad32)*%
X143750000Y-67162500D03*
%TO.P,U1,33,PA11/PA9*%
%TO.N,unconnected-(U1-PA11{slash}PA9-Pad33)*%
X144250000Y-67162498D03*
%TO.P,U1,34,PA12/PA10*%
%TO.N,unconnected-(U1-PA12{slash}PA10-Pad34)*%
X144750000Y-67162499D03*
%TO.P,U1,35,PA13*%
%TO.N,SWDIO*%
X145250000Y-67162498D03*
%TO.P,U1,36,PA14*%
%TO.N,SWCLK*%
X145749999Y-67162501D03*
D44*
%TO.P,U1,37,PA15*%
%TO.N,unconnected-(U1-PA15-Pad37)*%
X147162501Y-65749999D03*
%TO.P,U1,38,PD0*%
%TO.N,unconnected-(U1-PD0-Pad38)*%
X147162500Y-65249999D03*
%TO.P,U1,39,PD1*%
%TO.N,unconnected-(U1-PD1-Pad39)*%
X147162502Y-64749997D03*
%TO.P,U1,40,PD2*%
%TO.N,unconnected-(U1-PD2-Pad40)*%
X147162499Y-64250002D03*
%TO.P,U1,41,PD3*%
%TO.N,unconnected-(U1-PD3-Pad41)*%
X147162500Y-63750000D03*
%TO.P,U1,42,PB3*%
%TO.N,SCK*%
X147162502Y-63249999D03*
%TO.P,U1,43,PB4*%
%TO.N,MISO*%
X147162500Y-62750000D03*
%TO.P,U1,44,PB5*%
%TO.N,MOSI*%
X147162500Y-62250000D03*
%TO.P,U1,45,PB6*%
%TO.N,unconnected-(U1-PB6-Pad45)*%
X147162498Y-61750000D03*
%TO.P,U1,46,PB7*%
%TO.N,unconnected-(U1-PB7-Pad46)*%
X147162499Y-61250000D03*
%TO.P,U1,47,PB8*%
%TO.N,RP_RX*%
X147162498Y-60750000D03*
%TO.P,U1,48,PB9*%
%TO.N,RP_TX*%
X147162501Y-60250001D03*
%TD*%
D19*
%TO.P,R3,1*%
%TO.N,Net-(U1-PA3)*%
X133249999Y-59509998D03*
%TO.P,R3,2*%
%TO.N,Net-(D1-Pad2)*%
X133250001Y-58489998D03*
%TD*%
D21*
%TO.P,C9,1*%
%TO.N,+12V*%
X130750000Y-63450000D03*
%TO.P,C9,2*%
%TO.N,GND*%
X130750000Y-61550000D03*
%TD*%
D16*
%TO.P,C13,1*%
%TO.N,Net-(U2-VCC)*%
X127800000Y-53700000D03*
%TO.P,C13,2*%
%TO.N,GND*%
X129700000Y-53700000D03*
%TD*%
D20*
%TO.P,C1,1*%
%TO.N,Net-(U1-PF0)*%
X142710000Y-53250000D03*
%TO.P,C1,2*%
%TO.N,GND*%
X141750000Y-53250000D03*
%TD*%
D45*
%TO.P,R6,1*%
%TO.N,Net-(R6-Pad1)*%
X131325000Y-51950000D03*
%TO.P,R6,2*%
%TO.N,Net-(U2-FB)*%
X129675000Y-51950000D03*
%TD*%
D38*
%TO.P,C3,1*%
%TO.N,Net-(U1-PF1)*%
X139350000Y-56130000D03*
%TO.P,C3,2*%
%TO.N,GND*%
X139350000Y-55170000D03*
%TD*%
D46*
%TO.N,GND*%
X154200000Y-58800000D03*
X137250000Y-66500000D03*
X157200000Y-49950000D03*
X125500000Y-50300000D03*
X129700000Y-55000000D03*
X130750000Y-60450000D03*
X134550000Y-54650000D03*
X133000000Y-54650000D03*
X137100000Y-58700000D03*
X137000000Y-58050000D03*
X137000000Y-57050000D03*
X128750000Y-72250000D03*
X141895683Y-55346796D03*
X128000000Y-51250000D03*
X160000000Y-67500000D03*
X162000000Y-71500000D03*
X126250000Y-73750000D03*
X159250000Y-67500000D03*
X159750000Y-64750000D03*
X139500000Y-57500000D03*
X134887498Y-47909178D03*
X129250000Y-50500000D03*
X159000000Y-58250000D03*
X160750000Y-67000000D03*
X130260001Y-74260001D03*
X128250000Y-73750000D03*
X139250000Y-54250000D03*
X127250000Y-72750000D03*
X126750000Y-73250000D03*
X127250000Y-73750000D03*
X127750000Y-72250000D03*
X145750000Y-55000000D03*
X131000000Y-76000000D03*
X143750000Y-53500000D03*
X160750000Y-65500000D03*
X149000000Y-67250000D03*
X126250000Y-72750000D03*
X152500000Y-61300000D03*
X159750000Y-58250000D03*
X126750000Y-72250000D03*
X141750000Y-60123000D03*
X151700000Y-61300000D03*
X128250000Y-72750000D03*
X124000000Y-62250000D03*
X127250000Y-71750000D03*
X153000000Y-58500000D03*
X159000000Y-64750000D03*
X160500000Y-64750000D03*
X160500000Y-58250000D03*
X125500000Y-76750000D03*
X126250000Y-71750000D03*
X158250000Y-64750000D03*
X160750000Y-66250000D03*
X127750000Y-73250000D03*
X128250000Y-71750000D03*
X128750000Y-73250000D03*
X131500000Y-49250000D03*
X141000000Y-53250000D03*
X131500000Y-75000000D03*
X158250000Y-58250000D03*
%TO.N,+3V3*%
X149250000Y-50257001D03*
X150000000Y-60500000D03*
X136750000Y-59500000D03*
X130500000Y-75300003D03*
X144219905Y-59919904D03*
X155000000Y-49750000D03*
%TO.N,NRST*%
X141018144Y-57604856D03*
X153750000Y-65500000D03*
%TO.N,+5V*%
X134007034Y-47959178D03*
X153500000Y-55627000D03*
%TO.N,DRV_IN2*%
X127250000Y-77250000D03*
X142187500Y-69437500D03*
%TO.N,ISEN*%
X127000000Y-68750000D03*
X135623000Y-64750000D03*
%TO.N,DRV_IN1*%
X141406642Y-68956645D03*
X128250000Y-76623000D03*
%TD*%
D47*
%TO.N,ISEN*%
X135623000Y-64750000D02*
X137240001Y-64750000D01*
X137240001Y-64750000D02*
X137250001Y-64740000D01*
D48*
%TO.N,Net-(U1-PF0)*%
X144100001Y-55100001D02*
X143900000Y-54900000D01*
X144100001Y-57249999D02*
X144100001Y-55100001D01*
X144073001Y-57276999D02*
X144100001Y-57249999D01*
X143750000Y-57276999D02*
X144073001Y-57276999D01*
D47*
X142250000Y-57750000D02*
X142250000Y-58837500D01*
X142723001Y-57276999D02*
X142250000Y-57750000D01*
X143750000Y-57276999D02*
X142723001Y-57276999D01*
X143100000Y-54900000D02*
X142710000Y-54510000D01*
X143900000Y-54900000D02*
X143100000Y-54900000D01*
X142710000Y-54510000D02*
X142710000Y-53500000D01*
%TO.N,GND*%
X142750000Y-58837500D02*
X142750000Y-59645592D01*
X160015001Y-70750001D02*
X161709999Y-70750001D01*
X131375000Y-75125000D02*
X131500000Y-75000000D01*
X131210000Y-76000000D02*
X131000000Y-76000000D01*
X131000000Y-76000000D02*
X131000000Y-76210000D01*
X131500000Y-75000000D02*
X131750000Y-74750000D01*
X145730000Y-56270000D02*
X145710000Y-56250000D01*
X125690002Y-76559998D02*
X125500000Y-76750000D01*
X141198888Y-54650001D02*
X140899999Y-54650001D01*
X145730000Y-57250000D02*
X145730000Y-56270000D01*
X132250000Y-49309178D02*
X132587502Y-49309178D01*
X141895683Y-55346796D02*
X141198888Y-54650001D01*
D49*
X125050000Y-61355001D02*
X124994999Y-61300000D01*
D47*
X161709999Y-70750001D02*
X161750000Y-70710000D01*
X134025000Y-48659176D02*
X134959995Y-48659177D01*
X141895683Y-55346796D02*
X142898886Y-56349999D01*
X130260001Y-74260001D02*
X130260001Y-73250000D01*
X142750000Y-59645592D02*
X142272592Y-60123000D01*
X130750000Y-51250000D02*
X130913822Y-51086178D01*
X130913822Y-51086178D02*
X131500000Y-51086178D01*
X131663822Y-51086178D02*
X131750000Y-51000000D01*
X142272592Y-60123000D02*
X141750000Y-60123000D01*
X148760000Y-67490000D02*
X149000000Y-67250000D01*
X132587502Y-49309178D02*
X133137498Y-48759178D01*
X141750000Y-53250000D02*
X141000000Y-53250000D01*
D49*
X124995000Y-59295002D02*
X124949999Y-59250000D01*
X124994999Y-61300000D02*
X124995000Y-59295002D01*
D47*
X132587502Y-49309178D02*
X133137499Y-49859177D01*
X142898886Y-56349999D02*
X143100001Y-56349999D01*
X139350000Y-54350000D02*
X139250000Y-54250000D01*
X145710000Y-56250000D02*
X145710000Y-55040000D01*
X134999998Y-48699179D02*
X134999997Y-48021677D01*
X139350000Y-55170000D02*
X139350000Y-54350000D01*
X148000001Y-67490000D02*
X148760000Y-67490000D01*
X131750000Y-74750000D02*
X132210001Y-74750000D01*
X125690002Y-75424002D02*
X125690002Y-76559998D01*
X145710000Y-55040000D02*
X145750000Y-55000000D01*
X155949998Y-63249999D02*
X156999999Y-63249999D01*
X131000000Y-76210000D02*
X130460000Y-76750000D01*
X132250000Y-49309178D02*
X133137501Y-49309177D01*
%TO.N,+3.3VA*%
X144019001Y-57730999D02*
X144315054Y-57730999D01*
X143750000Y-58000000D02*
X144019001Y-57730999D01*
X144770000Y-57276053D02*
X144770000Y-57250000D01*
X144770000Y-57250000D02*
X144770000Y-56270000D01*
X144770000Y-56270000D02*
X144750000Y-56250000D01*
X144750000Y-55219996D02*
X144750000Y-56250000D01*
X144315054Y-57730999D02*
X144770000Y-57276053D01*
X143750000Y-58837500D02*
X143750000Y-58000000D01*
%TO.N,Net-(U1-PF1)*%
X140900000Y-56600000D02*
X141750000Y-57450000D01*
X139350000Y-56130000D02*
X140680000Y-56130000D01*
X141750000Y-57450000D02*
X141750000Y-58837502D01*
X140680000Y-56380000D02*
X140900000Y-56600000D01*
%TO.N,+3V3*%
X143500000Y-59902000D02*
X143250000Y-59902000D01*
X143863000Y-52613000D02*
X138750000Y-52613000D01*
X129500003Y-75424002D02*
X129500003Y-76749997D01*
X150000000Y-60500000D02*
X154700000Y-60500000D01*
X142402000Y-60750000D02*
X143250000Y-59902000D01*
D49*
X134999997Y-49659179D02*
X135433179Y-49659179D01*
D47*
X145250000Y-53500000D02*
X144750000Y-54000000D01*
X154700000Y-60500000D02*
X155950000Y-61750000D01*
X138709997Y-57029997D02*
X138709997Y-56719998D01*
X138500000Y-56510001D02*
X138500000Y-52726000D01*
X138710000Y-59000000D02*
X139000000Y-59000000D01*
X145000000Y-53500000D02*
X144750000Y-53500000D01*
X143249999Y-59901999D02*
X143249999Y-58837498D01*
X139000000Y-59000000D02*
X140750000Y-60750000D01*
X138500000Y-52863000D02*
X138750000Y-52613000D01*
X144219905Y-59919904D02*
X144219905Y-59721682D01*
X138137000Y-52863000D02*
X138500000Y-52863000D01*
X138613000Y-59637000D02*
X138710000Y-59540000D01*
X129500003Y-76749997D02*
X129500000Y-76750000D01*
X144250002Y-58837501D02*
X144250002Y-59645590D01*
X144500000Y-53750000D02*
X144500000Y-53250000D01*
X138137000Y-52363000D02*
X138387000Y-52613000D01*
X155405001Y-50155001D02*
X155405001Y-52025001D01*
X149250000Y-50257001D02*
X149242999Y-50257001D01*
X144750000Y-53750000D02*
X145000000Y-53500000D01*
X140750000Y-60750000D02*
X142402000Y-60750000D01*
X143249999Y-58837498D02*
X143249999Y-59651999D01*
X145000000Y-53250000D02*
X144500000Y-53250000D01*
X146000000Y-53500000D02*
X145250000Y-53500000D01*
X144219905Y-59721682D02*
X144272997Y-59668590D01*
X144500000Y-54000000D02*
X144750000Y-54250000D01*
X138709997Y-58999997D02*
X138710000Y-59000000D01*
X144500000Y-53250000D02*
X143863000Y-52613000D01*
X138750000Y-52613000D02*
X138387000Y-52613000D01*
X144272997Y-59668585D02*
X144250002Y-59645590D01*
X138500000Y-53226000D02*
X138137000Y-52863000D01*
X144750000Y-53500000D02*
X144500000Y-53250000D01*
X130376001Y-75424002D02*
X130500000Y-75300003D01*
X129500003Y-75424002D02*
X130376001Y-75424002D01*
X144750000Y-54000000D02*
X144750000Y-54250000D01*
D49*
X135433179Y-49659179D02*
X138387000Y-52613000D01*
D47*
X138709997Y-56719998D02*
X138500000Y-56510001D01*
X138137000Y-52363000D02*
X138500000Y-52363000D01*
X138500000Y-52726000D02*
X138387000Y-52613000D01*
X149242999Y-50257001D02*
X146000000Y-53500000D01*
X138710000Y-59540000D02*
X138710000Y-59000000D01*
X143993592Y-59902000D02*
X143500000Y-59902000D01*
X145250000Y-53500000D02*
X145000000Y-53250000D01*
X136750000Y-59500000D02*
X136887000Y-59637000D01*
X138137000Y-52363000D02*
X138137000Y-52863000D01*
X143250000Y-59902000D02*
X143249999Y-59901999D01*
X144500000Y-53750000D02*
X144500000Y-54000000D01*
X138500000Y-53250000D02*
X138500000Y-53226000D01*
X138500000Y-52363000D02*
X138750000Y-52613000D01*
X143249999Y-59651999D02*
X143500000Y-59902000D01*
X136887000Y-59637000D02*
X138613000Y-59637000D01*
X138709997Y-57029997D02*
X138709997Y-58999997D01*
X145250000Y-53500000D02*
X145000000Y-53500000D01*
X144250002Y-59645590D02*
X143993592Y-59902000D01*
X144750000Y-53750000D02*
X144750000Y-54000000D01*
X144750000Y-53500000D02*
X144750000Y-53750000D01*
X144750000Y-54000000D02*
X144500000Y-53750000D01*
X144272997Y-59668590D02*
X144272997Y-59668585D01*
X155000000Y-49750000D02*
X155405001Y-50155001D01*
%TO.N,NRST*%
X160284999Y-69750000D02*
X160014999Y-69480000D01*
X141018144Y-57604856D02*
X141250000Y-57836712D01*
X156034999Y-65500000D02*
X160014999Y-69480000D01*
X141250000Y-57836712D02*
X141250000Y-58837501D01*
X153750000Y-65500000D02*
X156034999Y-65500000D01*
X161750000Y-69750000D02*
X160284999Y-69750000D01*
D49*
%TO.N,Net-(U2-VCC)*%
X127535000Y-53965001D02*
X127799999Y-53700000D01*
X127535000Y-55899999D02*
X127535000Y-53965001D01*
%TO.N,Net-(U2-SW)*%
X124995000Y-54270000D02*
X124500000Y-53774999D01*
X124995000Y-55900000D02*
X124995000Y-54270000D01*
X125054999Y-53220000D02*
X124500000Y-53774999D01*
X126500000Y-53220000D02*
X125054999Y-53220000D01*
%TO.N,Net-(U2-BOOT)*%
X126265000Y-54415000D02*
X126499999Y-54179999D01*
X126264999Y-55900000D02*
X126265000Y-54415000D01*
%TO.N,+5V*%
X124499999Y-51624999D02*
X127165000Y-51625000D01*
D47*
X131864161Y-47635839D02*
X131387498Y-47159178D01*
X130289569Y-47159178D02*
X129585498Y-47863251D01*
X131387498Y-47159178D02*
X130289569Y-47159178D01*
X129585498Y-47863251D02*
X129585498Y-49207178D01*
X129585498Y-49207178D02*
X130637499Y-50259178D01*
D49*
X126775000Y-48724999D02*
X129360499Y-48724999D01*
D47*
X134007034Y-47959178D02*
X133944534Y-48021678D01*
D49*
X130637499Y-50259178D02*
X131950000Y-50259179D01*
X125550002Y-48699998D02*
X126749999Y-48699998D01*
X129458497Y-48627001D02*
X129458497Y-48000000D01*
D47*
X132250000Y-48021678D02*
X131864161Y-47635839D01*
D49*
X124499999Y-50200000D02*
X124499999Y-49750001D01*
X127165000Y-51625000D02*
X127489999Y-51949999D01*
D47*
X132250000Y-48659177D02*
X132250000Y-48021678D01*
X133944534Y-48021678D02*
X132250000Y-48021678D01*
X154135000Y-56262000D02*
X154135000Y-56975000D01*
X153500000Y-55627000D02*
X154135000Y-56262000D01*
D49*
X126749999Y-48699998D02*
X126775000Y-48724999D01*
X124499999Y-50200000D02*
X124499999Y-50199999D01*
X129360499Y-48724999D02*
X129458497Y-48627001D01*
X124499999Y-49750001D02*
X125550002Y-48699998D01*
X124499999Y-51624999D02*
X124499999Y-50200000D01*
X131950000Y-50259179D02*
X132183501Y-50025677D01*
D47*
%TO.N,Net-(D1-Pad2)*%
X133250001Y-58489998D02*
X133250001Y-57537499D01*
%TO.N,Net-(D2-Pad2)*%
X134250001Y-58489998D02*
X134250001Y-57537502D01*
%TO.N,DRV_IN2*%
X142187500Y-69437500D02*
X142250000Y-69375000D01*
X126960001Y-76960001D02*
X126960001Y-75424001D01*
X142250000Y-69375000D02*
X142250000Y-67162500D01*
X127250000Y-77250000D02*
X126960001Y-76960001D01*
%TO.N,ISEN*%
X126960001Y-70000001D02*
X126960001Y-68789999D01*
X138827501Y-64740000D02*
X138837501Y-64750000D01*
X126960001Y-68789999D02*
X127000000Y-68750000D01*
X137250001Y-64740000D02*
X138827501Y-64740000D01*
%TO.N,DRV_IN1*%
X141749998Y-68613289D02*
X141749998Y-67162499D01*
X128230001Y-75424001D02*
X128230001Y-76603001D01*
X141406642Y-68956645D02*
X141749998Y-68613289D01*
X128230001Y-76603001D02*
X128250000Y-76623000D01*
%TO.N,SWDIO*%
X145742892Y-69479999D02*
X157475000Y-69479999D01*
X145250000Y-67162498D02*
X145250000Y-68987107D01*
X145250000Y-68987107D02*
X145742892Y-69479999D01*
%TO.N,SWCLK*%
X145749999Y-67162501D02*
X145749999Y-68259999D01*
X145749999Y-68259999D02*
X146000000Y-68510000D01*
X146000000Y-68510000D02*
X157774998Y-68510000D01*
X157774998Y-68510000D02*
X158745000Y-69480002D01*
%TO.N,MAG_CS*%
X155950000Y-64250000D02*
X155654000Y-64546000D01*
X144145590Y-64250000D02*
X138837502Y-64250000D01*
X153440288Y-64546000D02*
X151486288Y-66500000D01*
X155654000Y-64546000D02*
X153440288Y-64546000D01*
X146395590Y-66500000D02*
X144145590Y-64250000D01*
X151486288Y-66500000D02*
X146395590Y-66500000D01*
%TO.N,MISO*%
X154745997Y-63000000D02*
X148362645Y-63000000D01*
X148112645Y-62750000D02*
X147162500Y-62750000D01*
X148362645Y-63000000D02*
X148112645Y-62750000D01*
X155950000Y-62750001D02*
X154995996Y-62750001D01*
X154995996Y-62750001D02*
X154745997Y-63000000D01*
%TO.N,MOSI*%
X154886713Y-62249999D02*
X154886712Y-62250000D01*
X154886712Y-62250000D02*
X147162500Y-62250000D01*
X155949999Y-62249999D02*
X154886713Y-62249999D01*
%TO.N,SCK*%
X147970591Y-63249999D02*
X148470592Y-63750000D01*
X148470592Y-63750000D02*
X155950001Y-63750000D01*
X147162502Y-63249999D02*
X147970591Y-63249999D01*
%TO.N,CAN_H*%
X152355882Y-51172498D02*
X152235673Y-51052289D01*
X152512857Y-50520542D02*
X153528262Y-49505137D01*
X152235673Y-50797731D02*
X152362951Y-50670450D01*
X153528262Y-49205323D02*
X153453308Y-49130369D01*
X152362951Y-50670449D02*
X152512857Y-50520542D01*
X151763324Y-50070822D02*
X151519710Y-49827208D01*
X138972499Y-48955001D02*
X145972498Y-48955001D01*
X152362951Y-50670450D02*
X152362951Y-50670449D01*
X146647497Y-49630001D02*
X151322502Y-49630000D01*
X152865000Y-52025000D02*
X152865000Y-51750000D01*
X145972498Y-48955001D02*
X146647497Y-49630001D01*
X151838276Y-50145774D02*
X151763324Y-50070822D01*
X151519710Y-49827208D02*
X151322502Y-49630000D01*
X153153495Y-49130369D02*
X152138089Y-50145774D01*
X152865000Y-51750000D02*
X152865000Y-51172498D01*
X152610440Y-51172497D02*
G75*
G02*
X152355922Y-51172459I-127240J127297D01*
G01*
X152138089Y-50145774D02*
G75*
G02*
X151838277Y-50145774I-149906J149904D01*
G01*
X152865000Y-51172498D02*
G75*
G03*
X152610421Y-51172477I-127300J-127302D01*
G01*
X152235673Y-51052289D02*
G75*
G02*
X152235663Y-50797721I127327J127289D01*
G01*
X153453308Y-49130369D02*
G75*
G03*
X153153496Y-49130369I-149906J-149904D01*
G01*
X153528262Y-49505137D02*
G75*
G03*
X153528292Y-49205293I-149862J149937D01*
G01*
%TO.N,CAN_L*%
X151322502Y-45750000D02*
X151632501Y-45750000D01*
X146677497Y-45750000D02*
X151322502Y-45750000D01*
X145972497Y-46455001D02*
X146677497Y-45750000D01*
X151632501Y-45750000D02*
X154135000Y-48252499D01*
X154135000Y-48252499D02*
X154135000Y-52025000D01*
X138972501Y-46455001D02*
X145972497Y-46455001D01*
D49*
%TO.N,Net-(JP1-A)*%
X151322502Y-46710000D02*
X151322502Y-48330000D01*
D47*
%TO.N,Net-(U1-PA2)*%
X134990002Y-60250001D02*
X138837499Y-60250001D01*
X134249999Y-59509998D02*
X134990002Y-60250001D01*
%TO.N,Net-(U1-PA3)*%
X133249999Y-59509998D02*
X134490002Y-60750001D01*
X134490002Y-60750001D02*
X138837500Y-60750001D01*
%TO.N,Net-(U2-FB)*%
X128804999Y-55899999D02*
X128804999Y-52245000D01*
X128804999Y-52245000D02*
X128510000Y-51950001D01*
D49*
X129674999Y-51949999D02*
X129674999Y-51949999D01*
X128510000Y-51950001D02*
X129674999Y-51949999D01*
%TO.N,Net-(R6-Pad1)*%
X132480001Y-51949999D02*
X132500001Y-51930001D01*
X131324999Y-51950000D02*
X132480001Y-51949999D01*
D47*
%TO.N,RP_RX*%
X151594999Y-57949998D02*
X148794997Y-60750000D01*
X151594999Y-56974999D02*
X151594999Y-57949998D01*
X148794997Y-60750000D02*
X147162498Y-60750000D01*
%TO.N,RP_TX*%
X155405001Y-56000000D02*
X155405001Y-56974999D01*
X151916262Y-55000000D02*
X154405001Y-55000000D01*
X147162501Y-59753761D02*
X151916262Y-55000000D01*
X154405001Y-55000000D02*
X155405001Y-56000000D01*
X147162501Y-60250001D02*
X147162501Y-59753761D01*
%TO.N,CAN_SILENT*%
X151594999Y-54300591D02*
X143145589Y-62750001D01*
X151594999Y-52025001D02*
X151594999Y-54300591D01*
X143145589Y-62750001D02*
X138837498Y-62750001D01*
%TD*%
%TA.AperFunction,Conductor*%
%TO.N,+12V*%
G36*
X127841177Y-60345185D02*
G01*
X127861819Y-60361819D01*
X128213681Y-60713681D01*
X128247166Y-60775004D01*
X128250000Y-60801362D01*
X128250000Y-62250000D01*
X129500000Y-62750000D01*
X131977514Y-62750000D01*
X132021053Y-62757895D01*
X133919539Y-63469827D01*
X133975399Y-63511798D01*
X133999700Y-63577305D01*
X134000000Y-63585932D01*
X134000000Y-70000000D01*
X138000000Y-74000000D01*
X141500000Y-75500000D01*
X146903483Y-76728064D01*
X146964491Y-76762115D01*
X146997406Y-76823746D01*
X147000000Y-76848979D01*
X147000000Y-82375500D01*
X146980315Y-82442539D01*
X146927511Y-82488294D01*
X146876000Y-82499500D01*
X141867778Y-82499500D01*
X141861736Y-82499353D01*
X136849120Y-82254835D01*
X136783120Y-82231907D01*
X136739992Y-82176937D01*
X136732996Y-82152228D01*
X135750000Y-76499999D01*
X133017473Y-75009530D01*
X132986388Y-74985480D01*
X132774037Y-74758972D01*
X132742547Y-74696601D01*
X132740500Y-74674163D01*
X132740500Y-74549260D01*
X132726019Y-74457829D01*
X132726019Y-74457828D01*
X132726018Y-74457826D01*
X132726018Y-74457825D01*
X132669860Y-74347609D01*
X132669858Y-74347607D01*
X132669855Y-74347603D01*
X132582397Y-74260145D01*
X132582394Y-74260143D01*
X132582392Y-74260141D01*
X132472176Y-74203983D01*
X132472175Y-74203982D01*
X132472172Y-74203981D01*
X132380736Y-74189500D01*
X132293877Y-74189500D01*
X132226838Y-74169815D01*
X132203417Y-74150311D01*
X131816955Y-73738085D01*
X131044037Y-72913638D01*
X131012547Y-72851267D01*
X131010500Y-72828829D01*
X131010500Y-72727129D01*
X131010499Y-72727123D01*
X131004092Y-72667516D01*
X130953798Y-72532671D01*
X130953794Y-72532664D01*
X130867548Y-72417455D01*
X130867545Y-72417452D01*
X130752336Y-72331206D01*
X130752329Y-72331202D01*
X130617483Y-72280908D01*
X130617484Y-72280908D01*
X130557884Y-72274501D01*
X130557882Y-72274500D01*
X130557874Y-72274500D01*
X130557866Y-72274500D01*
X130498564Y-72274500D01*
X130431525Y-72254815D01*
X130408106Y-72235313D01*
X129565415Y-71336443D01*
X129534262Y-71275827D01*
X129530967Y-71259261D01*
X129475602Y-71176400D01*
X129392741Y-71121035D01*
X129381458Y-71116362D01*
X129382214Y-71114536D01*
X129333889Y-71089255D01*
X129329534Y-71084836D01*
X129250000Y-71000000D01*
X128914261Y-71000000D01*
X128847222Y-70980315D01*
X128801467Y-70927511D01*
X128791523Y-70858353D01*
X128792639Y-70851830D01*
X128805501Y-70787175D01*
X128805501Y-69495861D01*
X128825186Y-69428822D01*
X128841816Y-69408184D01*
X129220774Y-69029225D01*
X129282095Y-68995742D01*
X129290897Y-68994157D01*
X132750000Y-68500000D01*
X132750000Y-64750000D01*
X132750000Y-64749999D01*
X125619727Y-64504128D01*
X125553405Y-64482145D01*
X125509497Y-64427796D01*
X125500000Y-64380202D01*
X125500000Y-62256699D01*
X125519685Y-62189660D01*
X125520898Y-62187808D01*
X125523831Y-62183417D01*
X125530965Y-62172741D01*
X125545499Y-62099675D01*
X125545499Y-61471332D01*
X125549724Y-61439240D01*
X125550002Y-61438199D01*
X125554499Y-61421419D01*
X125554499Y-61288582D01*
X125549724Y-61270760D01*
X125545499Y-61238667D01*
X125545499Y-60574207D01*
X125565184Y-60507168D01*
X125617988Y-60461413D01*
X125630270Y-60456576D01*
X126004411Y-60331863D01*
X126043623Y-60325500D01*
X127774138Y-60325500D01*
X127841177Y-60345185D01*
G37*
%TD.AperFunction*%
%TD*%
%TA.AperFunction,Conductor*%
%TO.N, MOT_A*%
G36*
X132374778Y-64992711D02*
G01*
X132441095Y-65014693D01*
X132485003Y-65069042D01*
X132494500Y-65116636D01*
X132494500Y-67954137D01*
X132474815Y-68021176D01*
X132458181Y-68041818D01*
X132205336Y-68294662D01*
X132144013Y-68328147D01*
X132135191Y-68329735D01*
X129254756Y-68741226D01*
X129245615Y-68742701D01*
X129236817Y-68744285D01*
X129159649Y-68771494D01*
X129098323Y-68804979D01*
X129040113Y-68848554D01*
X129040099Y-68848566D01*
X128661158Y-69227508D01*
X128642865Y-69247874D01*
X128626237Y-69268510D01*
X128626235Y-69268512D01*
X128580035Y-69356837D01*
X128560351Y-69423874D01*
X128560349Y-69423882D01*
X128550001Y-69495859D01*
X128550001Y-70749791D01*
X128547618Y-70773984D01*
X128542050Y-70801971D01*
X128540792Y-70808773D01*
X128539681Y-70815265D01*
X128538851Y-70877652D01*
X128518276Y-70944423D01*
X128464867Y-70989471D01*
X128414862Y-71000001D01*
X127859464Y-71000001D01*
X127792425Y-70980316D01*
X127746670Y-70927512D01*
X127736422Y-70891381D01*
X127721747Y-70773984D01*
X127536459Y-69291673D01*
X127535501Y-69276293D01*
X127535501Y-69212824D01*
X127519437Y-69132070D01*
X127513882Y-69111060D01*
X127502282Y-69018260D01*
X127510763Y-68955433D01*
X127536330Y-68893709D01*
X127555250Y-68750000D01*
X127536330Y-68606291D01*
X127509439Y-68541369D01*
X127500000Y-68493917D01*
X127500000Y-64952965D01*
X127519685Y-64885926D01*
X127572489Y-64840171D01*
X127628270Y-64829039D01*
X132374778Y-64992711D01*
G37*
%TD.AperFunction*%
%TD*%
%TA.AperFunction,Conductor*%
%TO.N,Net-(IC1-OUT2)*%
G36*
X125298208Y-64589962D02*
G01*
X125338334Y-64622502D01*
X125354655Y-64642703D01*
X125354660Y-64642709D01*
X125386327Y-64675446D01*
X125473018Y-64724670D01*
X125539340Y-64746653D01*
X125610922Y-64759476D01*
X125610926Y-64759476D01*
X125610934Y-64759477D01*
X126220967Y-64780511D01*
X127125990Y-64811718D01*
X127192309Y-64833701D01*
X127236217Y-64888050D01*
X127243847Y-64948479D01*
X127244816Y-64948549D01*
X127244500Y-64952966D01*
X127244500Y-67704138D01*
X127224815Y-67771177D01*
X127208181Y-67791819D01*
X126753997Y-68246002D01*
X126728322Y-68265705D01*
X126722379Y-68269136D01*
X126722375Y-68269138D01*
X126722375Y-68269139D01*
X126607379Y-68357379D01*
X126607378Y-68357380D01*
X126607377Y-68357381D01*
X126519139Y-68472372D01*
X126515707Y-68478318D01*
X126496004Y-68503995D01*
X126250000Y-68750000D01*
X126250000Y-70886761D01*
X126230315Y-70953800D01*
X126177511Y-70999555D01*
X126137226Y-71010252D01*
X123635726Y-71237661D01*
X123567180Y-71224127D01*
X123516832Y-71175682D01*
X123500500Y-71114170D01*
X123500500Y-64862168D01*
X123520185Y-64795129D01*
X123572989Y-64749374D01*
X123612157Y-64738784D01*
X125229545Y-64577045D01*
X125298208Y-64589962D01*
G37*
%TD.AperFunction*%
%TD*%
%TA.AperFunction,Conductor*%
%TO.N,+3V3*%
G36*
X134032303Y-49183311D02*
G01*
X135283886Y-49391909D01*
X135346775Y-49422346D01*
X135383226Y-49481954D01*
X135387498Y-49514221D01*
X135387498Y-49804134D01*
X135367813Y-49871173D01*
X135315009Y-49916928D01*
X135283883Y-49926447D01*
X134032386Y-50135030D01*
X133963023Y-50126634D01*
X133909210Y-50082071D01*
X133888032Y-50015488D01*
X133888001Y-50012717D01*
X133888001Y-49305637D01*
X133907686Y-49238598D01*
X133960490Y-49192843D01*
X134029648Y-49182899D01*
X134032303Y-49183311D01*
G37*
%TD.AperFunction*%
%TD*%
%TA.AperFunction,Conductor*%
%TO.N,GND*%
G36*
X127507426Y-71025251D02*
G01*
X127530705Y-71054665D01*
X127553576Y-71094829D01*
X127570291Y-71114119D01*
X127599327Y-71147629D01*
X127599330Y-71147632D01*
X127599331Y-71147633D01*
X127632105Y-71179258D01*
X127720440Y-71225466D01*
X127720441Y-71225466D01*
X127720441Y-71225467D01*
X127770569Y-71240185D01*
X127787479Y-71245151D01*
X127787483Y-71245151D01*
X127787485Y-71245152D01*
X127796799Y-71246491D01*
X127859464Y-71255501D01*
X127859465Y-71255501D01*
X128414857Y-71255501D01*
X128414862Y-71255501D01*
X128467510Y-71250018D01*
X128517515Y-71239488D01*
X128542318Y-71232949D01*
X128604271Y-71198754D01*
X128672474Y-71183593D01*
X128721663Y-71197440D01*
X128775237Y-71225465D01*
X128775239Y-71225466D01*
X128775238Y-71225466D01*
X128822997Y-71239489D01*
X128842276Y-71245150D01*
X128842280Y-71245150D01*
X128842282Y-71245151D01*
X128851603Y-71246491D01*
X128914261Y-71255500D01*
X129093311Y-71255500D01*
X129160350Y-71275185D01*
X129167091Y-71279839D01*
X129215453Y-71315647D01*
X129249454Y-71333434D01*
X129260863Y-71340204D01*
X129263473Y-71341948D01*
X129303341Y-71389654D01*
X129305045Y-71388779D01*
X129307015Y-71392614D01*
X129307017Y-71392617D01*
X129338170Y-71453233D01*
X129379018Y-71511190D01*
X130221709Y-72410060D01*
X130244607Y-72431651D01*
X130268026Y-72451153D01*
X130269176Y-72452095D01*
X130271199Y-72453753D01*
X130271202Y-72453754D01*
X130271205Y-72453757D01*
X130359540Y-72499965D01*
X130426579Y-72519650D01*
X130426583Y-72519650D01*
X130426585Y-72519651D01*
X130438216Y-72521323D01*
X130498564Y-72530000D01*
X130531835Y-72530000D01*
X130575168Y-72537818D01*
X130611918Y-72551525D01*
X130642897Y-72568441D01*
X130670751Y-72589293D01*
X130695705Y-72614247D01*
X130716557Y-72642101D01*
X130733472Y-72673077D01*
X130747181Y-72709830D01*
X130755000Y-72753166D01*
X130755000Y-72828826D01*
X130756056Y-72852044D01*
X130758102Y-72874468D01*
X130758104Y-72874480D01*
X130784467Y-72966417D01*
X130784468Y-72966421D01*
X130815959Y-73028793D01*
X130815962Y-73028798D01*
X130857637Y-73088382D01*
X130857639Y-73088384D01*
X131375964Y-73641265D01*
X131407454Y-73703636D01*
X131409501Y-73726072D01*
X131409501Y-73772868D01*
X131409502Y-73772876D01*
X131415909Y-73832483D01*
X131466203Y-73967328D01*
X131466207Y-73967335D01*
X131552453Y-74082544D01*
X131552456Y-74082547D01*
X131667665Y-74168793D01*
X131667672Y-74168797D01*
X131802517Y-74219091D01*
X131862118Y-74225499D01*
X131862119Y-74225499D01*
X131862128Y-74225500D01*
X131869954Y-74225499D01*
X131936993Y-74245178D01*
X131960426Y-74264691D01*
X132016999Y-74325036D01*
X132017022Y-74325060D01*
X132039909Y-74346640D01*
X132039910Y-74346641D01*
X132039915Y-74346645D01*
X132039917Y-74346647D01*
X132063338Y-74366151D01*
X132066518Y-74368757D01*
X132154853Y-74414965D01*
X132154854Y-74414966D01*
X132190853Y-74425536D01*
X132221892Y-74434650D01*
X132221896Y-74434650D01*
X132221898Y-74434651D01*
X132233529Y-74436323D01*
X132293877Y-74445000D01*
X132350871Y-74445000D01*
X132370262Y-74446525D01*
X132372838Y-74446933D01*
X132409733Y-74458921D01*
X132412840Y-74460504D01*
X132444229Y-74483309D01*
X132446690Y-74485770D01*
X132469488Y-74517146D01*
X132471073Y-74520256D01*
X132483064Y-74557144D01*
X132483471Y-74559714D01*
X132485000Y-74579122D01*
X132485000Y-74674160D01*
X132486056Y-74697378D01*
X132488102Y-74719802D01*
X132488104Y-74719814D01*
X132514467Y-74811751D01*
X132514468Y-74811755D01*
X132545959Y-74874127D01*
X132545962Y-74874132D01*
X132587637Y-74933716D01*
X132587645Y-74933726D01*
X132620748Y-74969035D01*
X132652239Y-75031406D01*
X132652759Y-75034445D01*
X132653982Y-75042172D01*
X132653984Y-75042175D01*
X132710142Y-75152391D01*
X132710144Y-75152393D01*
X132710146Y-75152396D01*
X132797604Y-75239854D01*
X132797606Y-75239855D01*
X132797610Y-75239859D01*
X132907826Y-75296017D01*
X132907827Y-75296017D01*
X132907829Y-75296018D01*
X132999258Y-75310499D01*
X132999260Y-75310499D01*
X132999266Y-75310500D01*
X133004054Y-75310499D01*
X133063441Y-75325639D01*
X135466870Y-76636601D01*
X135516296Y-76685983D01*
X135529657Y-76724213D01*
X136481270Y-82195988D01*
X136481273Y-82196004D01*
X136487154Y-82221810D01*
X136487163Y-82221844D01*
X136494154Y-82246539D01*
X136531157Y-82319278D01*
X136544008Y-82387955D01*
X136517689Y-82452679D01*
X136460556Y-82492898D01*
X136420635Y-82499500D01*
X125004428Y-82499500D01*
X124995582Y-82499184D01*
X124973622Y-82497613D01*
X124795442Y-82484869D01*
X124777931Y-82482351D01*
X124586212Y-82440646D01*
X124569236Y-82435662D01*
X124385390Y-82367090D01*
X124369298Y-82359740D01*
X124197095Y-82265711D01*
X124182210Y-82256146D01*
X124025132Y-82138558D01*
X124011762Y-82126972D01*
X123873027Y-81988237D01*
X123861441Y-81974867D01*
X123743849Y-81817784D01*
X123734288Y-81802904D01*
X123640259Y-81630701D01*
X123632909Y-81614609D01*
X123572091Y-81451551D01*
X123564334Y-81430755D01*
X123559355Y-81413797D01*
X123517647Y-81222063D01*
X123515130Y-81204556D01*
X123500816Y-81004418D01*
X123500500Y-80995572D01*
X123500500Y-80401577D01*
X124249500Y-80401577D01*
X124249500Y-80598422D01*
X124280290Y-80792826D01*
X124341117Y-80980029D01*
X124428360Y-81151252D01*
X124430476Y-81155405D01*
X124546172Y-81314646D01*
X124685354Y-81453828D01*
X124844595Y-81569524D01*
X124927455Y-81611743D01*
X125019970Y-81658882D01*
X125019972Y-81658882D01*
X125019975Y-81658884D01*
X125120317Y-81691487D01*
X125207173Y-81719709D01*
X125401578Y-81750500D01*
X125401583Y-81750500D01*
X125598422Y-81750500D01*
X125792826Y-81719709D01*
X125980025Y-81658884D01*
X126155405Y-81569524D01*
X126314646Y-81453828D01*
X126453828Y-81314646D01*
X126569524Y-81155405D01*
X126658884Y-80980025D01*
X126719709Y-80792826D01*
X126750500Y-80598422D01*
X126750500Y-80401577D01*
X126719709Y-80207173D01*
X126658882Y-80019970D01*
X126569523Y-79844594D01*
X126453828Y-79685354D01*
X126314646Y-79546172D01*
X126155405Y-79430476D01*
X125980029Y-79341117D01*
X125792826Y-79280290D01*
X125598422Y-79249500D01*
X125598417Y-79249500D01*
X125401583Y-79249500D01*
X125401578Y-79249500D01*
X125207173Y-79280290D01*
X125019970Y-79341117D01*
X124844594Y-79430476D01*
X124753741Y-79496485D01*
X124685354Y-79546172D01*
X124685352Y-79546174D01*
X124685351Y-79546174D01*
X124546174Y-79685351D01*
X124546174Y-79685352D01*
X124546172Y-79685354D01*
X124496485Y-79753741D01*
X124430476Y-79844594D01*
X124341117Y-80019970D01*
X124280290Y-80207173D01*
X124249500Y-80401577D01*
X123500500Y-80401577D01*
X123500500Y-74636822D01*
X126384501Y-74636822D01*
X126384501Y-76211179D01*
X126399033Y-76284236D01*
X126399034Y-76284240D01*
X126417406Y-76311736D01*
X126454400Y-76367102D01*
X126527393Y-76415873D01*
X126572196Y-76469483D01*
X126582501Y-76518974D01*
X126582501Y-76910302D01*
X126582501Y-77009700D01*
X126608227Y-77105711D01*
X126657926Y-77191791D01*
X126657928Y-77191793D01*
X126661743Y-77195608D01*
X126695228Y-77256931D01*
X126697001Y-77267103D01*
X126713670Y-77393707D01*
X126713671Y-77393712D01*
X126769137Y-77527622D01*
X126769138Y-77527624D01*
X126769139Y-77527625D01*
X126857379Y-77642621D01*
X126972375Y-77730861D01*
X127106291Y-77786330D01*
X127233280Y-77803048D01*
X127249999Y-77805250D01*
X127250000Y-77805250D01*
X127250001Y-77805250D01*
X127264977Y-77803278D01*
X127393709Y-77786330D01*
X127527625Y-77730861D01*
X127642621Y-77642621D01*
X127730861Y-77527625D01*
X127786330Y-77393709D01*
X127805250Y-77250000D01*
X127803295Y-77235150D01*
X127814060Y-77166116D01*
X127860440Y-77113860D01*
X127927708Y-77094974D01*
X127973685Y-77104403D01*
X128106291Y-77159330D01*
X128233280Y-77176048D01*
X128249999Y-77178250D01*
X128250000Y-77178250D01*
X128250001Y-77178250D01*
X128264977Y-77176278D01*
X128393709Y-77159330D01*
X128527625Y-77103861D01*
X128642621Y-77015621D01*
X128730861Y-76900625D01*
X128730934Y-76900447D01*
X128731036Y-76900321D01*
X128734925Y-76893586D01*
X128735974Y-76894191D01*
X128774764Y-76846041D01*
X128841054Y-76823966D01*
X128908756Y-76841234D01*
X128956375Y-76892364D01*
X128969031Y-76945889D01*
X128969119Y-76945883D01*
X128969163Y-76946446D01*
X128969500Y-76947870D01*
X128969500Y-76950731D01*
X128969501Y-76950739D01*
X128983981Y-77042170D01*
X128983981Y-77042171D01*
X128983982Y-77042174D01*
X128983983Y-77042175D01*
X129020508Y-77113860D01*
X129040142Y-77152392D01*
X129040145Y-77152396D01*
X129127603Y-77239854D01*
X129127605Y-77239855D01*
X129127609Y-77239859D01*
X129237825Y-77296017D01*
X129237826Y-77296017D01*
X129237828Y-77296018D01*
X129272947Y-77301579D01*
X129329265Y-77310500D01*
X129670734Y-77310499D01*
X129670739Y-77310499D01*
X129670739Y-77310498D01*
X129716454Y-77303258D01*
X129762170Y-77296018D01*
X129762171Y-77296018D01*
X129762172Y-77296017D01*
X129762175Y-77296017D01*
X129872391Y-77239859D01*
X129959859Y-77152391D01*
X130016017Y-77042175D01*
X130016017Y-77042173D01*
X130016018Y-77042172D01*
X130016018Y-77042171D01*
X130027072Y-76972375D01*
X130030500Y-76950735D01*
X130030499Y-76549266D01*
X130030499Y-76549265D01*
X130030499Y-76549260D01*
X130016018Y-76457830D01*
X130016017Y-76457828D01*
X130016017Y-76457825D01*
X130016015Y-76457821D01*
X130013001Y-76448544D01*
X130015547Y-76447716D01*
X130005384Y-76393597D01*
X130025662Y-76337083D01*
X130060969Y-76284242D01*
X130075503Y-76211176D01*
X130075503Y-75925502D01*
X130095188Y-75858463D01*
X130147992Y-75812708D01*
X130199503Y-75801502D01*
X130247536Y-75801502D01*
X130294988Y-75810941D01*
X130356291Y-75836333D01*
X130483280Y-75853051D01*
X130499999Y-75855253D01*
X130500000Y-75855253D01*
X130500001Y-75855253D01*
X130514977Y-75853281D01*
X130643709Y-75836333D01*
X130777625Y-75780864D01*
X130892621Y-75692624D01*
X130980861Y-75577628D01*
X131036330Y-75443712D01*
X131055250Y-75300003D01*
X131036330Y-75156294D01*
X130985859Y-75034445D01*
X130980862Y-75022380D01*
X130980861Y-75022379D01*
X130980861Y-75022378D01*
X130892621Y-74907382D01*
X130777625Y-74819142D01*
X130777624Y-74819141D01*
X130777622Y-74819140D01*
X130643712Y-74763674D01*
X130643710Y-74763673D01*
X130643709Y-74763673D01*
X130571854Y-74754213D01*
X130500001Y-74744753D01*
X130499999Y-74744753D01*
X130356293Y-74763672D01*
X130308165Y-74783607D01*
X130246954Y-74808961D01*
X130177485Y-74816429D01*
X130115006Y-74785153D01*
X130079354Y-74725064D01*
X130075503Y-74694399D01*
X130075503Y-74636825D01*
X130075502Y-74636823D01*
X130060970Y-74563766D01*
X130060969Y-74563762D01*
X130047507Y-74543615D01*
X130005604Y-74480901D01*
X129936385Y-74434651D01*
X129922742Y-74425535D01*
X129922738Y-74425534D01*
X129849680Y-74411002D01*
X129849677Y-74411002D01*
X129150329Y-74411002D01*
X129150326Y-74411002D01*
X129077267Y-74425534D01*
X129077263Y-74425535D01*
X128994401Y-74480901D01*
X128968104Y-74520259D01*
X128914492Y-74565064D01*
X128845167Y-74573771D01*
X128782139Y-74543616D01*
X128761900Y-74520259D01*
X128735602Y-74480900D01*
X128680236Y-74443906D01*
X128652740Y-74425534D01*
X128652736Y-74425533D01*
X128579678Y-74411001D01*
X128579675Y-74411001D01*
X127880327Y-74411001D01*
X127880324Y-74411001D01*
X127807265Y-74425533D01*
X127807261Y-74425534D01*
X127724398Y-74480901D01*
X127698103Y-74520256D01*
X127644491Y-74565062D01*
X127575166Y-74573769D01*
X127512139Y-74543615D01*
X127491899Y-74520256D01*
X127465603Y-74480901D01*
X127448423Y-74469422D01*
X127411873Y-74445000D01*
X127382740Y-74425534D01*
X127382736Y-74425533D01*
X127309678Y-74411001D01*
X127309675Y-74411001D01*
X126610327Y-74411001D01*
X126610324Y-74411001D01*
X126537265Y-74425533D01*
X126537261Y-74425534D01*
X126454400Y-74480900D01*
X126399034Y-74563761D01*
X126399033Y-74563765D01*
X126384501Y-74636822D01*
X123500500Y-74636822D01*
X123500500Y-71614487D01*
X123520185Y-71547448D01*
X123572989Y-71501693D01*
X123630962Y-71490656D01*
X123658858Y-71492112D01*
X126160358Y-71264703D01*
X126163320Y-71264179D01*
X126202797Y-71257195D01*
X126243082Y-71246498D01*
X126258198Y-71241980D01*
X126300502Y-71217889D01*
X126344818Y-71192655D01*
X126344819Y-71192653D01*
X126344828Y-71192649D01*
X126397632Y-71146894D01*
X126429257Y-71114120D01*
X126451206Y-71072159D01*
X126499721Y-71021881D01*
X126567718Y-71005813D01*
X126585272Y-71008018D01*
X126610322Y-71013000D01*
X126610325Y-71013001D01*
X126610327Y-71013001D01*
X127309677Y-71013001D01*
X127309678Y-71013000D01*
X127334726Y-71008018D01*
X127394720Y-70996085D01*
X127395366Y-70999334D01*
X127444939Y-70993992D01*
X127507426Y-71025251D01*
G37*
%TD.AperFunction*%
%TA.AperFunction,Conductor*%
G36*
X161004418Y-43500816D02*
G01*
X161204561Y-43515130D01*
X161222063Y-43517647D01*
X161413797Y-43559355D01*
X161430755Y-43564334D01*
X161614609Y-43632909D01*
X161630701Y-43640259D01*
X161802904Y-43734288D01*
X161817784Y-43743849D01*
X161974867Y-43861441D01*
X161988237Y-43873027D01*
X162126972Y-44011762D01*
X162138558Y-44025132D01*
X162256146Y-44182210D01*
X162265711Y-44197095D01*
X162359740Y-44369298D01*
X162367090Y-44385390D01*
X162435662Y-44569236D01*
X162440646Y-44586212D01*
X162482351Y-44777931D01*
X162484869Y-44795442D01*
X162499184Y-44995580D01*
X162499500Y-45004427D01*
X162499500Y-69370686D01*
X162479815Y-69437725D01*
X162427011Y-69483480D01*
X162357853Y-69493424D01*
X162294297Y-69464399D01*
X162265015Y-69426981D01*
X162239858Y-69377608D01*
X162239854Y-69377603D01*
X162152396Y-69290145D01*
X162152393Y-69290143D01*
X162152391Y-69290141D01*
X162042175Y-69233983D01*
X162042174Y-69233982D01*
X162042171Y-69233981D01*
X161950735Y-69219500D01*
X161549260Y-69219500D01*
X161549260Y-69219501D01*
X161457829Y-69233981D01*
X161457828Y-69233981D01*
X161347607Y-69290142D01*
X161347604Y-69290144D01*
X161301570Y-69336180D01*
X161240247Y-69369666D01*
X161213888Y-69372500D01*
X160860486Y-69372500D01*
X160793447Y-69352815D01*
X160747692Y-69300011D01*
X160743445Y-69289455D01*
X160695456Y-69152313D01*
X160695451Y-69152302D01*
X160605480Y-69009115D01*
X160605475Y-69009109D01*
X160485889Y-68889523D01*
X160485883Y-68889518D01*
X160342696Y-68799547D01*
X160342693Y-68799545D01*
X160183055Y-68743685D01*
X160015002Y-68724751D01*
X160014995Y-68724751D01*
X159875371Y-68740482D01*
X159806549Y-68728427D01*
X159773807Y-68704943D01*
X156266791Y-65197927D01*
X156266789Y-65197925D01*
X156180709Y-65148226D01*
X156084698Y-65122500D01*
X156084697Y-65122500D01*
X155873248Y-65122500D01*
X155806209Y-65102815D01*
X155760454Y-65050011D01*
X155750510Y-64980853D01*
X155779535Y-64917297D01*
X155811247Y-64891114D01*
X155847426Y-64870224D01*
X155885790Y-64848075D01*
X156047046Y-64686819D01*
X156108369Y-64653334D01*
X156134727Y-64650500D01*
X156624676Y-64650500D01*
X156624677Y-64650499D01*
X156697740Y-64635966D01*
X156780601Y-64580601D01*
X156835966Y-64497740D01*
X156850500Y-64424674D01*
X156850500Y-64075326D01*
X156840329Y-64024193D01*
X156840329Y-63975809D01*
X156850501Y-63924675D01*
X156850501Y-63575323D01*
X156850500Y-63575321D01*
X156835968Y-63502264D01*
X156835967Y-63502260D01*
X156823316Y-63483326D01*
X156780602Y-63419399D01*
X156697741Y-63364034D01*
X156697740Y-63364033D01*
X156687586Y-63357249D01*
X156688409Y-63356016D01*
X156644610Y-63320719D01*
X156622546Y-63254424D01*
X156639826Y-63186725D01*
X156690964Y-63139115D01*
X156697483Y-63136138D01*
X156697738Y-63135967D01*
X156697740Y-63135967D01*
X156780601Y-63080602D01*
X156835966Y-62997741D01*
X156850500Y-62924675D01*
X156850500Y-62575327D01*
X156850500Y-62575324D01*
X156840328Y-62524188D01*
X156840328Y-62475803D01*
X156850499Y-62424674D01*
X156850499Y-62075323D01*
X156840328Y-62024194D01*
X156840328Y-61975811D01*
X156850500Y-61924674D01*
X156850500Y-61575326D01*
X156850500Y-61575323D01*
X156850499Y-61575321D01*
X156835967Y-61502264D01*
X156835966Y-61502260D01*
X156815301Y-61471332D01*
X156780601Y-61419399D01*
X156725235Y-61382405D01*
X156697739Y-61364033D01*
X156697735Y-61364032D01*
X156624677Y-61349500D01*
X156624674Y-61349500D01*
X156134727Y-61349500D01*
X156067688Y-61329815D01*
X156047046Y-61313181D01*
X154931792Y-60197927D01*
X154931790Y-60197925D01*
X154871081Y-60162874D01*
X154845711Y-60148226D01*
X154803321Y-60136868D01*
X154788690Y-60132947D01*
X154733105Y-60100855D01*
X154652391Y-60020141D01*
X154542175Y-59963983D01*
X154542174Y-59963982D01*
X154542171Y-59963981D01*
X154450735Y-59949500D01*
X154049260Y-59949500D01*
X154049260Y-59949501D01*
X153957829Y-59963981D01*
X153957828Y-59963981D01*
X153847607Y-60020142D01*
X153830570Y-60037180D01*
X153781567Y-60086182D01*
X153720247Y-60119666D01*
X153693888Y-60122500D01*
X150454419Y-60122500D01*
X150387380Y-60102815D01*
X150378947Y-60096886D01*
X150277625Y-60019139D01*
X150277622Y-60019138D01*
X150271177Y-60014192D01*
X150272309Y-60012716D01*
X150231209Y-59969604D01*
X150217991Y-59900996D01*
X150243965Y-59836133D01*
X150253739Y-59825121D01*
X151607198Y-58471664D01*
X151902823Y-58176040D01*
X151904578Y-58177795D01*
X151934403Y-58152983D01*
X151983341Y-58128049D01*
X152073049Y-58038341D01*
X152130645Y-57925303D01*
X152130645Y-57925301D01*
X152130646Y-57925300D01*
X152143922Y-57841473D01*
X152145499Y-57831518D01*
X152145498Y-56118481D01*
X152130645Y-56024695D01*
X152073049Y-55911657D01*
X152073045Y-55911653D01*
X152073044Y-55911651D01*
X151983346Y-55821953D01*
X151983343Y-55821951D01*
X151983341Y-55821949D01*
X151900127Y-55779549D01*
X151849332Y-55731575D01*
X151832537Y-55663754D01*
X151855075Y-55597619D01*
X151868728Y-55581398D01*
X152036310Y-55413816D01*
X152097633Y-55380334D01*
X152123990Y-55377500D01*
X152836203Y-55377500D01*
X152903242Y-55397185D01*
X152948997Y-55449989D01*
X152959141Y-55517685D01*
X152951861Y-55572989D01*
X152948371Y-55599500D01*
X152944750Y-55627000D01*
X152957694Y-55725321D01*
X152963670Y-55770708D01*
X152963671Y-55770712D01*
X153019137Y-55904622D01*
X153019138Y-55904624D01*
X153019139Y-55904625D01*
X153107379Y-56019621D01*
X153222375Y-56107861D01*
X153356291Y-56163330D01*
X153476686Y-56179180D01*
X153540582Y-56207446D01*
X153579053Y-56265771D01*
X153584500Y-56302119D01*
X153584500Y-57831517D01*
X153594769Y-57896351D01*
X153599354Y-57925304D01*
X153656950Y-58038342D01*
X153656952Y-58038344D01*
X153656954Y-58038347D01*
X153746652Y-58128045D01*
X153746654Y-58128046D01*
X153746658Y-58128050D01*
X153859692Y-58185644D01*
X153859698Y-58185647D01*
X153947116Y-58199491D01*
X153953468Y-58200498D01*
X153953475Y-58200499D01*
X153953481Y-58200500D01*
X154316518Y-58200499D01*
X154410304Y-58185646D01*
X154523342Y-58128050D01*
X154613050Y-58038342D01*
X154659516Y-57947145D01*
X154707489Y-57896351D01*
X154775310Y-57879556D01*
X154841445Y-57902093D01*
X154880484Y-57947146D01*
X154914395Y-58013698D01*
X154926950Y-58038340D01*
X154926955Y-58038346D01*
X155016653Y-58128044D01*
X155016655Y-58128045D01*
X155016659Y-58128049D01*
X155114291Y-58177795D01*
X155129699Y-58185646D01*
X155223476Y-58200498D01*
X155223482Y-58200499D01*
X155586519Y-58200498D01*
X155680305Y-58185645D01*
X155793343Y-58128049D01*
X155883051Y-58038341D01*
X155940647Y-57925303D01*
X155940647Y-57925301D01*
X155940648Y-57925300D01*
X155953924Y-57841473D01*
X155955501Y-57831518D01*
X155955500Y-56118481D01*
X155940647Y-56024695D01*
X155883051Y-55911657D01*
X155883047Y-55911653D01*
X155883046Y-55911651D01*
X155793344Y-55821949D01*
X155744403Y-55797012D01*
X155714579Y-55772200D01*
X155712824Y-55773956D01*
X154636793Y-54697927D01*
X154636791Y-54697925D01*
X154550711Y-54648226D01*
X154454700Y-54622500D01*
X152059368Y-54622500D01*
X151992329Y-54602815D01*
X151946574Y-54550011D01*
X151936630Y-54480853D01*
X151944805Y-54451052D01*
X151946771Y-54446304D01*
X151946771Y-54446303D01*
X151946773Y-54446300D01*
X151972499Y-54350290D01*
X151972499Y-53240255D01*
X151992184Y-53173216D01*
X152008813Y-53152578D01*
X152073049Y-53088343D01*
X152119515Y-52997146D01*
X152167488Y-52946352D01*
X152235309Y-52929557D01*
X152301444Y-52952094D01*
X152340483Y-52997147D01*
X152367040Y-53049267D01*
X152386949Y-53088341D01*
X152386954Y-53088347D01*
X152476652Y-53178045D01*
X152476654Y-53178046D01*
X152476658Y-53178050D01*
X152589694Y-53235645D01*
X152589698Y-53235647D01*
X152683475Y-53250499D01*
X152683481Y-53250500D01*
X153046518Y-53250499D01*
X153140304Y-53235646D01*
X153253342Y-53178050D01*
X153343050Y-53088342D01*
X153389516Y-52997145D01*
X153437490Y-52946352D01*
X153505311Y-52929557D01*
X153571445Y-52952094D01*
X153610482Y-52997145D01*
X153656950Y-53088342D01*
X153656951Y-53088343D01*
X153656954Y-53088347D01*
X153746652Y-53178045D01*
X153746654Y-53178046D01*
X153746658Y-53178050D01*
X153859694Y-53235645D01*
X153859698Y-53235647D01*
X153953475Y-53250499D01*
X153953481Y-53250500D01*
X154316518Y-53250499D01*
X154410304Y-53235646D01*
X154523342Y-53178050D01*
X154613050Y-53088342D01*
X154659516Y-52997145D01*
X154707490Y-52946352D01*
X154775311Y-52929557D01*
X154841445Y-52952094D01*
X154880484Y-52997146D01*
X154926951Y-53088343D01*
X154926953Y-53088345D01*
X154926955Y-53088348D01*
X155016653Y-53178046D01*
X155016655Y-53178047D01*
X155016659Y-53178051D01*
X155129693Y-53235645D01*
X155129699Y-53235648D01*
X155217117Y-53249492D01*
X155223469Y-53250499D01*
X155223476Y-53250500D01*
X155223482Y-53250501D01*
X155586519Y-53250500D01*
X155680305Y-53235647D01*
X155793343Y-53178051D01*
X155883051Y-53088343D01*
X155940647Y-52975305D01*
X155940647Y-52975303D01*
X155940648Y-52975302D01*
X155955500Y-52881525D01*
X155955501Y-52881520D01*
X155955500Y-51168483D01*
X155940647Y-51074697D01*
X155883051Y-50961659D01*
X155883047Y-50961655D01*
X155883046Y-50961653D01*
X155852762Y-50931369D01*
X155819277Y-50870046D01*
X155824261Y-50800354D01*
X155866133Y-50744421D01*
X155867564Y-50743366D01*
X155872388Y-50739860D01*
X155872391Y-50739859D01*
X155959859Y-50652391D01*
X156016017Y-50542175D01*
X156016017Y-50542173D01*
X156016018Y-50542172D01*
X156016018Y-50542171D01*
X156019901Y-50517650D01*
X156030500Y-50450735D01*
X156030499Y-50049266D01*
X156030499Y-50049260D01*
X156016018Y-49957829D01*
X156016018Y-49957828D01*
X156016017Y-49957826D01*
X156016017Y-49957825D01*
X155959859Y-49847609D01*
X155959857Y-49847607D01*
X155959854Y-49847603D01*
X155872396Y-49760145D01*
X155872393Y-49760143D01*
X155872391Y-49760141D01*
X155762175Y-49703983D01*
X155762174Y-49703982D01*
X155762171Y-49703981D01*
X155670735Y-49689500D01*
X155653651Y-49689500D01*
X155586612Y-49669815D01*
X155540857Y-49617011D01*
X155539090Y-49612953D01*
X155495898Y-49508678D01*
X155480861Y-49472375D01*
X155392621Y-49357379D01*
X155277625Y-49269139D01*
X155277624Y-49269138D01*
X155277622Y-49269137D01*
X155143712Y-49213671D01*
X155143710Y-49213670D01*
X155143709Y-49213670D01*
X155054643Y-49201944D01*
X155000001Y-49194750D01*
X154999999Y-49194750D01*
X154856291Y-49213670D01*
X154856287Y-49213671D01*
X154722376Y-49269138D01*
X154722375Y-49269138D01*
X154711984Y-49277112D01*
X154646814Y-49302304D01*
X154578369Y-49288264D01*
X154528381Y-49239449D01*
X154512500Y-49178734D01*
X154512500Y-48202802D01*
X154512500Y-48202800D01*
X154486774Y-48106790D01*
X154486774Y-48106789D01*
X154437075Y-48020709D01*
X153156378Y-46740012D01*
X151864293Y-45447926D01*
X151860112Y-45444718D01*
X151825112Y-45402635D01*
X151824573Y-45401577D01*
X159249500Y-45401577D01*
X159249500Y-45598422D01*
X159280290Y-45792826D01*
X159341117Y-45980029D01*
X159390782Y-46077501D01*
X159430476Y-46155405D01*
X159546172Y-46314646D01*
X159685354Y-46453828D01*
X159844595Y-46569524D01*
X159927455Y-46611743D01*
X160019970Y-46658882D01*
X160019972Y-46658882D01*
X160019975Y-46658884D01*
X160120317Y-46691487D01*
X160207173Y-46719709D01*
X160401578Y-46750500D01*
X160401583Y-46750500D01*
X160598422Y-46750500D01*
X160792826Y-46719709D01*
X160814391Y-46712702D01*
X160980025Y-46658884D01*
X161155405Y-46569524D01*
X161314646Y-46453828D01*
X161453828Y-46314646D01*
X161569524Y-46155405D01*
X161658884Y-45980025D01*
X161719709Y-45792826D01*
X161728381Y-45738071D01*
X161750500Y-45598422D01*
X161750500Y-45401577D01*
X161719709Y-45207173D01*
X161658882Y-45019970D01*
X161569523Y-44844594D01*
X161453828Y-44685354D01*
X161314646Y-44546172D01*
X161155405Y-44430476D01*
X160980029Y-44341117D01*
X160792826Y-44280290D01*
X160598422Y-44249500D01*
X160598417Y-44249500D01*
X160401583Y-44249500D01*
X160401578Y-44249500D01*
X160207173Y-44280290D01*
X160019970Y-44341117D01*
X159844594Y-44430476D01*
X159753741Y-44496485D01*
X159685354Y-44546172D01*
X159685352Y-44546174D01*
X159685351Y-44546174D01*
X159546174Y-44685351D01*
X159546174Y-44685352D01*
X159546172Y-44685354D01*
X159496485Y-44753741D01*
X159430476Y-44844594D01*
X159341117Y-45019970D01*
X159280290Y-45207173D01*
X159249500Y-45401577D01*
X151824573Y-45401577D01*
X151823263Y-45399007D01*
X151812361Y-45377609D01*
X151724893Y-45290141D01*
X151614677Y-45233983D01*
X151614676Y-45233982D01*
X151614673Y-45233981D01*
X151523237Y-45219500D01*
X151121762Y-45219500D01*
X151121762Y-45219501D01*
X151030331Y-45233981D01*
X151030330Y-45233981D01*
X150920109Y-45290142D01*
X150920106Y-45290144D01*
X150874072Y-45336180D01*
X150812749Y-45369666D01*
X150786390Y-45372500D01*
X146627798Y-45372500D01*
X146531784Y-45398227D01*
X146529901Y-45399007D01*
X146528185Y-45399191D01*
X146523936Y-45400330D01*
X146523758Y-45399667D01*
X146460431Y-45406472D01*
X146444138Y-45402374D01*
X146380199Y-45381599D01*
X146380195Y-45381598D01*
X146248768Y-45360782D01*
X146209108Y-45354501D01*
X145735886Y-45354501D01*
X145696225Y-45360782D01*
X145564799Y-45381598D01*
X145400049Y-45435129D01*
X145245708Y-45513769D01*
X145165753Y-45571860D01*
X145105569Y-45615587D01*
X145105567Y-45615589D01*
X145105566Y-45615589D01*
X144983085Y-45738070D01*
X144983085Y-45738071D01*
X144983083Y-45738073D01*
X144952493Y-45780175D01*
X144881263Y-45878214D01*
X144814221Y-46009795D01*
X144766247Y-46060592D01*
X144703736Y-46077501D01*
X140241261Y-46077501D01*
X140174222Y-46057816D01*
X140130776Y-46009795D01*
X140063733Y-45878214D01*
X140048437Y-45857161D01*
X139961914Y-45738073D01*
X139839428Y-45615587D01*
X139699288Y-45513769D01*
X139544945Y-45435128D01*
X139380201Y-45381599D01*
X139380199Y-45381598D01*
X139380198Y-45381598D01*
X139248771Y-45360782D01*
X139209111Y-45354501D01*
X138735889Y-45354501D01*
X138696228Y-45360782D01*
X138564802Y-45381598D01*
X138400052Y-45435129D01*
X138245711Y-45513769D01*
X138165756Y-45571860D01*
X138105572Y-45615587D01*
X138105570Y-45615589D01*
X138105569Y-45615589D01*
X137983088Y-45738070D01*
X137983088Y-45738071D01*
X137983086Y-45738073D01*
X137939359Y-45798257D01*
X137881268Y-45878212D01*
X137802628Y-46032553D01*
X137749097Y-46197303D01*
X137722000Y-46368390D01*
X137722000Y-46541611D01*
X137748826Y-46710989D01*
X137749098Y-46712702D01*
X137802627Y-46877446D01*
X137881268Y-47031789D01*
X137983086Y-47171929D01*
X138105572Y-47294415D01*
X138245712Y-47396233D01*
X138400055Y-47474874D01*
X138564799Y-47528403D01*
X138735889Y-47555501D01*
X138735890Y-47555501D01*
X139209110Y-47555501D01*
X139209111Y-47555501D01*
X139380201Y-47528403D01*
X139544945Y-47474874D01*
X139699288Y-47396233D01*
X139839428Y-47294415D01*
X139961914Y-47171929D01*
X140063732Y-47031789D01*
X140130776Y-46900207D01*
X140178750Y-46849410D01*
X140241261Y-46832501D01*
X144703736Y-46832501D01*
X144770775Y-46852186D01*
X144814221Y-46900207D01*
X144881263Y-47031787D01*
X144897152Y-47053656D01*
X144983083Y-47171929D01*
X145105569Y-47294415D01*
X145245709Y-47396233D01*
X145400052Y-47474874D01*
X145564796Y-47528403D01*
X145735886Y-47555501D01*
X145735887Y-47555501D01*
X146209107Y-47555501D01*
X146209108Y-47555501D01*
X146380198Y-47528403D01*
X146544942Y-47474874D01*
X146699285Y-47396233D01*
X146839425Y-47294415D01*
X146961911Y-47171929D01*
X147063729Y-47031789D01*
X147142370Y-46877446D01*
X147195899Y-46712702D01*
X147222997Y-46541612D01*
X147222997Y-46368390D01*
X147207556Y-46270897D01*
X147216511Y-46201604D01*
X147261507Y-46148152D01*
X147328259Y-46127513D01*
X147330029Y-46127500D01*
X150743389Y-46127500D01*
X150810428Y-46147185D01*
X150856183Y-46199989D01*
X150866127Y-46269147D01*
X150837102Y-46332703D01*
X150833032Y-46337073D01*
X150832644Y-46337608D01*
X150776483Y-46447827D01*
X150776483Y-46447828D01*
X150762002Y-46539264D01*
X150762002Y-46880739D01*
X150776483Y-46972169D01*
X150776484Y-46972173D01*
X150776485Y-46972175D01*
X150804487Y-47027131D01*
X150818002Y-47083426D01*
X150818002Y-47455500D01*
X150798317Y-47522539D01*
X150745513Y-47568294D01*
X150694002Y-47579500D01*
X150547825Y-47579500D01*
X150474766Y-47594032D01*
X150474762Y-47594033D01*
X150391901Y-47649399D01*
X150336535Y-47732260D01*
X150336534Y-47732264D01*
X150322002Y-47805321D01*
X150322002Y-47805326D01*
X150322002Y-48854674D01*
X150322002Y-48854676D01*
X150322001Y-48854676D01*
X150336535Y-48927740D01*
X150338527Y-48932548D01*
X150345996Y-49002017D01*
X150338527Y-49027452D01*
X150336535Y-49032259D01*
X150322002Y-49105323D01*
X150322002Y-49128500D01*
X150302317Y-49195539D01*
X150249513Y-49241294D01*
X150198002Y-49252500D01*
X147346997Y-49252500D01*
X147279958Y-49232815D01*
X147234203Y-49180011D01*
X147222997Y-49128500D01*
X147222997Y-48307130D01*
X147222996Y-48307124D01*
X147222995Y-48307117D01*
X147216589Y-48247518D01*
X147212591Y-48236800D01*
X147166295Y-48112672D01*
X147166291Y-48112665D01*
X147080045Y-47997456D01*
X147080042Y-47997453D01*
X146964833Y-47911207D01*
X146964826Y-47911203D01*
X146829980Y-47860909D01*
X146829981Y-47860909D01*
X146770381Y-47854502D01*
X146770379Y-47854501D01*
X146770371Y-47854501D01*
X146770362Y-47854501D01*
X145174627Y-47854501D01*
X145174621Y-47854502D01*
X145115014Y-47860909D01*
X144980169Y-47911203D01*
X144980162Y-47911207D01*
X144864953Y-47997453D01*
X144864950Y-47997456D01*
X144778704Y-48112665D01*
X144778700Y-48112672D01*
X144728406Y-48247518D01*
X144723162Y-48296298D01*
X144721999Y-48307124D01*
X144721998Y-48307136D01*
X144721998Y-48453501D01*
X144702313Y-48520540D01*
X144649509Y-48566295D01*
X144597998Y-48577501D01*
X140346998Y-48577501D01*
X140279959Y-48557816D01*
X140234204Y-48505012D01*
X140222998Y-48453501D01*
X140222998Y-48307130D01*
X140222997Y-48307124D01*
X140222996Y-48307117D01*
X140216590Y-48247518D01*
X140212592Y-48236800D01*
X140166296Y-48112672D01*
X140166292Y-48112665D01*
X140080046Y-47997456D01*
X140080043Y-47997453D01*
X139964834Y-47911207D01*
X139964827Y-47911203D01*
X139829981Y-47860909D01*
X139829982Y-47860909D01*
X139770382Y-47854502D01*
X139770380Y-47854501D01*
X139770372Y-47854501D01*
X139770363Y-47854501D01*
X138174628Y-47854501D01*
X138174622Y-47854502D01*
X138115015Y-47860909D01*
X137980170Y-47911203D01*
X137980163Y-47911207D01*
X137864954Y-47997453D01*
X137864951Y-47997456D01*
X137778705Y-48112665D01*
X137778701Y-48112672D01*
X137728407Y-48247518D01*
X137723163Y-48296298D01*
X137722000Y-48307124D01*
X137721999Y-48307136D01*
X137721999Y-49602871D01*
X137722000Y-49602877D01*
X137728407Y-49662484D01*
X137778701Y-49797329D01*
X137778705Y-49797336D01*
X137864951Y-49912545D01*
X137864954Y-49912548D01*
X137980163Y-49998794D01*
X137980170Y-49998798D01*
X138115016Y-50049092D01*
X138115015Y-50049092D01*
X138116634Y-50049266D01*
X138174626Y-50055501D01*
X139770371Y-50055500D01*
X139829982Y-50049092D01*
X139964830Y-49998797D01*
X140080045Y-49912547D01*
X140166295Y-49797332D01*
X140216590Y-49662484D01*
X140222999Y-49602874D01*
X140222999Y-49456501D01*
X140242684Y-49389462D01*
X140295488Y-49343707D01*
X140346999Y-49332501D01*
X144597999Y-49332501D01*
X144665038Y-49352186D01*
X144710793Y-49404990D01*
X144721999Y-49456501D01*
X144721999Y-49602877D01*
X144728406Y-49662484D01*
X144778700Y-49797329D01*
X144778704Y-49797336D01*
X144864950Y-49912545D01*
X144864953Y-49912548D01*
X144980162Y-49998794D01*
X144980169Y-49998798D01*
X145115015Y-50049092D01*
X145115014Y-50049092D01*
X145116633Y-50049266D01*
X145174625Y-50055501D01*
X146770370Y-50055500D01*
X146829981Y-50049092D01*
X146829987Y-50049090D01*
X146920531Y-50015319D01*
X146963865Y-50007500D01*
X148586203Y-50007500D01*
X148653242Y-50027185D01*
X148698997Y-50079989D01*
X148709141Y-50147685D01*
X148708060Y-50155907D01*
X148698063Y-50231833D01*
X148669796Y-50295730D01*
X148662805Y-50303328D01*
X145879954Y-53086181D01*
X145818631Y-53119666D01*
X145792273Y-53122500D01*
X145457728Y-53122500D01*
X145390689Y-53102815D01*
X145370051Y-53086185D01*
X145231790Y-52947925D01*
X145145710Y-52898226D01*
X145049699Y-52872500D01*
X145049698Y-52872500D01*
X144707727Y-52872500D01*
X144640688Y-52852815D01*
X144620046Y-52836181D01*
X144094792Y-52310927D01*
X144094790Y-52310925D01*
X144008710Y-52261226D01*
X143912699Y-52235500D01*
X143912698Y-52235500D01*
X138957728Y-52235500D01*
X138890689Y-52215815D01*
X138870051Y-52199185D01*
X138731790Y-52060925D01*
X138645710Y-52011226D01*
X138549699Y-51985500D01*
X138549698Y-51985500D01*
X138524333Y-51985500D01*
X138457294Y-51965815D01*
X138436652Y-51949181D01*
X135742950Y-49255479D01*
X135742949Y-49255478D01*
X135652159Y-49203061D01*
X135627909Y-49189060D01*
X135499598Y-49154679D01*
X135499595Y-49154679D01*
X135391648Y-49154679D01*
X135354064Y-49148846D01*
X135325890Y-49139885D01*
X134425079Y-48989748D01*
X134362188Y-48959310D01*
X134357784Y-48955116D01*
X134319251Y-48916583D01*
X134319245Y-48916579D01*
X134209230Y-48865279D01*
X134209225Y-48865277D01*
X134209224Y-48865277D01*
X134209221Y-48865276D01*
X134209219Y-48865276D01*
X134159102Y-48858678D01*
X134159097Y-48858677D01*
X134159092Y-48858677D01*
X134159085Y-48858677D01*
X133890908Y-48858677D01*
X133840781Y-48865276D01*
X133840770Y-48865279D01*
X133730756Y-48916579D01*
X133730750Y-48916583D01*
X133644907Y-49002426D01*
X133644903Y-49002432D01*
X133593603Y-49112447D01*
X133593600Y-49112458D01*
X133587002Y-49162575D01*
X133587001Y-49162592D01*
X133587001Y-49455769D01*
X133593600Y-49505896D01*
X133593602Y-49505903D01*
X133620883Y-49564406D01*
X133632501Y-49616811D01*
X133632501Y-49651540D01*
X133620884Y-49703943D01*
X133593602Y-49762450D01*
X133593600Y-49762458D01*
X133587002Y-49812575D01*
X133587001Y-49812592D01*
X133587001Y-50105769D01*
X133593600Y-50155896D01*
X133593603Y-50155907D01*
X133644903Y-50265921D01*
X133644907Y-50265927D01*
X133730751Y-50351771D01*
X133730752Y-50351771D01*
X133730756Y-50351774D01*
X133840771Y-50403074D01*
X133840772Y-50403074D01*
X133840778Y-50403077D01*
X133890910Y-50409677D01*
X134159091Y-50409676D01*
X134159093Y-50409676D01*
X134175802Y-50407476D01*
X134209224Y-50403077D01*
X134272372Y-50373631D01*
X134322368Y-50350318D01*
X134354382Y-50340388D01*
X135188469Y-50201373D01*
X135257831Y-50209769D01*
X135296534Y-50236005D01*
X137723181Y-52662652D01*
X137756666Y-52723975D01*
X137759500Y-52750333D01*
X137759500Y-52813301D01*
X137759500Y-52912699D01*
X137785226Y-53008710D01*
X137834925Y-53094790D01*
X137834927Y-53094792D01*
X138086181Y-53346046D01*
X138119666Y-53407369D01*
X138122500Y-53433727D01*
X138122500Y-56460302D01*
X138122500Y-56559700D01*
X138130538Y-56589697D01*
X138148226Y-56655711D01*
X138172380Y-56697546D01*
X138188853Y-56765446D01*
X138187467Y-56778939D01*
X138179497Y-56829262D01*
X138179497Y-56829266D01*
X138179497Y-56829267D01*
X138179497Y-57230736D01*
X138193978Y-57322167D01*
X138193978Y-57322168D01*
X138250139Y-57432389D01*
X138250142Y-57432393D01*
X138260066Y-57442317D01*
X138293551Y-57503640D01*
X138288567Y-57573332D01*
X138260069Y-57617677D01*
X138250142Y-57627603D01*
X138250141Y-57627606D01*
X138250140Y-57627607D01*
X138237512Y-57652391D01*
X138193980Y-57737825D01*
X138193980Y-57737826D01*
X138179499Y-57829262D01*
X138179499Y-58230737D01*
X138193980Y-58322168D01*
X138193980Y-58322169D01*
X138250141Y-58432390D01*
X138255879Y-58440288D01*
X138253209Y-58442227D01*
X138278553Y-58488641D01*
X138273569Y-58558333D01*
X138254195Y-58588486D01*
X138255880Y-58589710D01*
X138250142Y-58597608D01*
X138193981Y-58707827D01*
X138193981Y-58707828D01*
X138179500Y-58799264D01*
X138179500Y-58799265D01*
X138179500Y-58999998D01*
X138179501Y-59135500D01*
X138159817Y-59202539D01*
X138107013Y-59248294D01*
X138055501Y-59259500D01*
X137320498Y-59259500D01*
X137253459Y-59239815D01*
X137222123Y-59210987D01*
X137173710Y-59147895D01*
X137142621Y-59107379D01*
X137027625Y-59019139D01*
X137027624Y-59019138D01*
X137027622Y-59019137D01*
X136893712Y-58963671D01*
X136893710Y-58963670D01*
X136893709Y-58963670D01*
X136821854Y-58954210D01*
X136750001Y-58944750D01*
X136749999Y-58944750D01*
X136606291Y-58963670D01*
X136606287Y-58963671D01*
X136472377Y-59019137D01*
X136357379Y-59107379D01*
X136269137Y-59222377D01*
X136213671Y-59356287D01*
X136213670Y-59356291D01*
X136194750Y-59500000D01*
X136213670Y-59643709D01*
X136231067Y-59685710D01*
X136237421Y-59701050D01*
X136244889Y-59770519D01*
X136213613Y-59832998D01*
X136153524Y-59868650D01*
X136122859Y-59872501D01*
X135197730Y-59872501D01*
X135130691Y-59852816D01*
X135110049Y-59836182D01*
X134856818Y-59582951D01*
X134823333Y-59521628D01*
X134820499Y-59495270D01*
X134820499Y-59338421D01*
X134820499Y-59338416D01*
X134809581Y-59263480D01*
X134789486Y-59222375D01*
X134753077Y-59147898D01*
X134753075Y-59147895D01*
X134692860Y-59087680D01*
X134659375Y-59026357D01*
X134664359Y-58956665D01*
X134692860Y-58912318D01*
X134753077Y-58852100D01*
X134753079Y-58852097D01*
X134781330Y-58794308D01*
X134809583Y-58736516D01*
X134820501Y-58661580D01*
X134820501Y-58318416D01*
X134809583Y-58243480D01*
X134803351Y-58230732D01*
X134762353Y-58146868D01*
X134750593Y-58077995D01*
X134777937Y-58013698D01*
X134835701Y-57974391D01*
X134849523Y-57971453D01*
X134849481Y-57971275D01*
X134857018Y-57969493D01*
X134857023Y-57969493D01*
X134983451Y-57922338D01*
X135091473Y-57841474D01*
X135172337Y-57733452D01*
X135219492Y-57607024D01*
X135224940Y-57556354D01*
X135225500Y-57551146D01*
X135225501Y-57551131D01*
X135225501Y-57023872D01*
X135225500Y-57023857D01*
X135222035Y-56991630D01*
X135219492Y-56967980D01*
X135215706Y-56957828D01*
X135172338Y-56841554D01*
X135172336Y-56841551D01*
X135172334Y-56841548D01*
X135091473Y-56733530D01*
X134983451Y-56652666D01*
X134983448Y-56652664D01*
X134857025Y-56605511D01*
X134801145Y-56599502D01*
X134801131Y-56599502D01*
X134198871Y-56599502D01*
X134198856Y-56599502D01*
X134142976Y-56605511D01*
X134016553Y-56652664D01*
X134016550Y-56652666D01*
X133908529Y-56733530D01*
X133849269Y-56812692D01*
X133793335Y-56854563D01*
X133723643Y-56859547D01*
X133662320Y-56826062D01*
X133650735Y-56812692D01*
X133644151Y-56803897D01*
X133591473Y-56733527D01*
X133483451Y-56652663D01*
X133483448Y-56652661D01*
X133357025Y-56605508D01*
X133301145Y-56599499D01*
X133301131Y-56599499D01*
X132698871Y-56599499D01*
X132698856Y-56599499D01*
X132642976Y-56605508D01*
X132516553Y-56652661D01*
X132516550Y-56652663D01*
X132408529Y-56733527D01*
X132327665Y-56841548D01*
X132327663Y-56841551D01*
X132280510Y-56967974D01*
X132274501Y-57023854D01*
X132274501Y-57551143D01*
X132280510Y-57607023D01*
X132327663Y-57733446D01*
X132327665Y-57733449D01*
X132408529Y-57841471D01*
X132483314Y-57897454D01*
X132516550Y-57922334D01*
X132516553Y-57922336D01*
X132604261Y-57955049D01*
X132642979Y-57969490D01*
X132642981Y-57969490D01*
X132650521Y-57971272D01*
X132650002Y-57973467D01*
X132704042Y-57995842D01*
X132743899Y-58053229D01*
X132746403Y-58123053D01*
X132737651Y-58146865D01*
X132690419Y-58243478D01*
X132690419Y-58243480D01*
X132679501Y-58318416D01*
X132679501Y-58661580D01*
X132690419Y-58736516D01*
X132690419Y-58736517D01*
X132690420Y-58736519D01*
X132746922Y-58852097D01*
X132746924Y-58852100D01*
X132807140Y-58912316D01*
X132840625Y-58973639D01*
X132835641Y-59043331D01*
X132807140Y-59087678D01*
X132746922Y-59147895D01*
X132746920Y-59147898D01*
X132690418Y-59263476D01*
X132690417Y-59263478D01*
X132690417Y-59263480D01*
X132679499Y-59338416D01*
X132679499Y-59681580D01*
X132690417Y-59756516D01*
X132690417Y-59756517D01*
X132690418Y-59756519D01*
X132746920Y-59872097D01*
X132746922Y-59872100D01*
X132837896Y-59963074D01*
X132837899Y-59963076D01*
X132942460Y-60014192D01*
X132953481Y-60019580D01*
X133028417Y-60030498D01*
X133185272Y-60030498D01*
X133252311Y-60050183D01*
X133272953Y-60066817D01*
X134258212Y-61052076D01*
X134344292Y-61101775D01*
X134440303Y-61127501D01*
X137725499Y-61127501D01*
X137792538Y-61147186D01*
X137838293Y-61199990D01*
X137849498Y-61251498D01*
X137849499Y-61363141D01*
X137849617Y-61364034D01*
X137855738Y-61410545D01*
X137855739Y-61410548D01*
X137873016Y-61447598D01*
X137883508Y-61516675D01*
X137873016Y-61552407D01*
X137855744Y-61589446D01*
X137855741Y-61589456D01*
X137849501Y-61636857D01*
X137849501Y-61863130D01*
X137849502Y-61863136D01*
X137855742Y-61910543D01*
X137855743Y-61910545D01*
X137855743Y-61910547D01*
X137873018Y-61947592D01*
X137883510Y-62016670D01*
X137873019Y-62052400D01*
X137855741Y-62089453D01*
X137855740Y-62089455D01*
X137849500Y-62136860D01*
X137849500Y-62363131D01*
X137849501Y-62363138D01*
X137855741Y-62410545D01*
X137873017Y-62447593D01*
X137883508Y-62516671D01*
X137873017Y-62552399D01*
X137855740Y-62589451D01*
X137855738Y-62589456D01*
X137849498Y-62636861D01*
X137849498Y-62863133D01*
X137849499Y-62863138D01*
X137849499Y-62863139D01*
X137855739Y-62910546D01*
X137855740Y-62910548D01*
X137855740Y-62910549D01*
X137873016Y-62947597D01*
X137883508Y-63016675D01*
X137873017Y-63052406D01*
X137855741Y-63089454D01*
X137855740Y-63089458D01*
X137849500Y-63136859D01*
X137849500Y-63363131D01*
X137849501Y-63363137D01*
X137849501Y-63363138D01*
X137855741Y-63410545D01*
X137873018Y-63447596D01*
X137883509Y-63516673D01*
X137873018Y-63552402D01*
X137855742Y-63589451D01*
X137855740Y-63589458D01*
X137849500Y-63636859D01*
X137849500Y-63863131D01*
X137849501Y-63863138D01*
X137855741Y-63910545D01*
X137855742Y-63910547D01*
X137873019Y-63947598D01*
X137883510Y-64016676D01*
X137873019Y-64052406D01*
X137855743Y-64089454D01*
X137855742Y-64089458D01*
X137849502Y-64136860D01*
X137849502Y-64179892D01*
X137829817Y-64246931D01*
X137777013Y-64292686D01*
X137707855Y-64302630D01*
X137671042Y-64291293D01*
X137546520Y-64230418D01*
X137534029Y-64228598D01*
X137471583Y-64219500D01*
X137028419Y-64219500D01*
X136953483Y-64230418D01*
X136953481Y-64230418D01*
X136953479Y-64230419D01*
X136837901Y-64286921D01*
X136837898Y-64286923D01*
X136788643Y-64336180D01*
X136727320Y-64369666D01*
X136700961Y-64372500D01*
X136077419Y-64372500D01*
X136010380Y-64352815D01*
X136001947Y-64346886D01*
X135900625Y-64269139D01*
X135900624Y-64269138D01*
X135900622Y-64269137D01*
X135766712Y-64213671D01*
X135766710Y-64213670D01*
X135766709Y-64213670D01*
X135694854Y-64204210D01*
X135623001Y-64194750D01*
X135622999Y-64194750D01*
X135479291Y-64213670D01*
X135479287Y-64213671D01*
X135345377Y-64269137D01*
X135230379Y-64357379D01*
X135142137Y-64472377D01*
X135086671Y-64606287D01*
X135086670Y-64606291D01*
X135076379Y-64684461D01*
X135067750Y-64750000D01*
X135080662Y-64848078D01*
X135086670Y-64893708D01*
X135086671Y-64893712D01*
X135142137Y-65027622D01*
X135142138Y-65027624D01*
X135142139Y-65027625D01*
X135230379Y-65142621D01*
X135345375Y-65230861D01*
X135479291Y-65286330D01*
X135606280Y-65303048D01*
X135622999Y-65305250D01*
X135623000Y-65305250D01*
X135623001Y-65305250D01*
X135637977Y-65303278D01*
X135766709Y-65286330D01*
X135900625Y-65230861D01*
X136001934Y-65153122D01*
X136067101Y-65127930D01*
X136077419Y-65127500D01*
X136720961Y-65127500D01*
X136788000Y-65147185D01*
X136808643Y-65163820D01*
X136837898Y-65193076D01*
X136837901Y-65193078D01*
X136948657Y-65247222D01*
X136953483Y-65249582D01*
X137028419Y-65260500D01*
X137028424Y-65260500D01*
X137471578Y-65260500D01*
X137471583Y-65260500D01*
X137546519Y-65249582D01*
X137662103Y-65193076D01*
X137662103Y-65193075D01*
X137671041Y-65188706D01*
X137739914Y-65176946D01*
X137804211Y-65204289D01*
X137843519Y-65262053D01*
X137849502Y-65300104D01*
X137849502Y-65363131D01*
X137849503Y-65363137D01*
X137849503Y-65363138D01*
X137855743Y-65410545D01*
X137855744Y-65410547D01*
X137855744Y-65410548D01*
X137873018Y-65447592D01*
X137883509Y-65516669D01*
X137873018Y-65552397D01*
X137855741Y-65589449D01*
X137855739Y-65589454D01*
X137849499Y-65636859D01*
X137849499Y-65863131D01*
X137849500Y-65863137D01*
X137855740Y-65910544D01*
X137855741Y-65910546D01*
X137855741Y-65910547D01*
X137880115Y-65962817D01*
X137904252Y-66014578D01*
X137985420Y-66095746D01*
X138089454Y-66144258D01*
X138136860Y-66150499D01*
X139538137Y-66150498D01*
X139585544Y-66144258D01*
X139689578Y-66095746D01*
X139770746Y-66014578D01*
X139819258Y-65910544D01*
X139825499Y-65863138D01*
X139825498Y-65636861D01*
X139819258Y-65589454D01*
X139801982Y-65552406D01*
X139791490Y-65483331D01*
X139801981Y-65447601D01*
X139819261Y-65410545D01*
X139825502Y-65363139D01*
X139825501Y-65136862D01*
X139819261Y-65089455D01*
X139801982Y-65052402D01*
X139791491Y-64983327D01*
X139801984Y-64947592D01*
X139819260Y-64910545D01*
X139825501Y-64863139D01*
X139825501Y-64751500D01*
X139845186Y-64684461D01*
X139897990Y-64638706D01*
X139949501Y-64627500D01*
X143937863Y-64627500D01*
X144004902Y-64647185D01*
X144025544Y-64663819D01*
X145324542Y-65962817D01*
X145358027Y-66024140D01*
X145353043Y-66093832D01*
X145311171Y-66149765D01*
X145245707Y-66174182D01*
X145236862Y-66174498D01*
X145136868Y-66174498D01*
X145124641Y-66176107D01*
X145089455Y-66180739D01*
X145089453Y-66180739D01*
X145089452Y-66180740D01*
X145052402Y-66198017D01*
X144983324Y-66208508D01*
X144947593Y-66198016D01*
X144942592Y-66195684D01*
X144910545Y-66180740D01*
X144910543Y-66180739D01*
X144910544Y-66180739D01*
X144863140Y-66174499D01*
X144636867Y-66174499D01*
X144621839Y-66176477D01*
X144589455Y-66180740D01*
X144589453Y-66180741D01*
X144589450Y-66180741D01*
X144552404Y-66198016D01*
X144483326Y-66208507D01*
X144447597Y-66198016D01*
X144410544Y-66180738D01*
X144410545Y-66180738D01*
X144363140Y-66174498D01*
X144136868Y-66174498D01*
X144126341Y-66175883D01*
X144089455Y-66180739D01*
X144089453Y-66180740D01*
X144089448Y-66180741D01*
X144052399Y-66198017D01*
X143983321Y-66208508D01*
X143947592Y-66198016D01*
X143910548Y-66180742D01*
X143910545Y-66180741D01*
X143910544Y-66180740D01*
X143910541Y-66180740D01*
X143863140Y-66174500D01*
X143636868Y-66174500D01*
X143626341Y-66175885D01*
X143589455Y-66180741D01*
X143589453Y-66180742D01*
X143589451Y-66180742D01*
X143552403Y-66198018D01*
X143483325Y-66208509D01*
X143447596Y-66198018D01*
X143410545Y-66180741D01*
X143410541Y-66180740D01*
X143363140Y-66174500D01*
X143136868Y-66174500D01*
X143124641Y-66176109D01*
X143089455Y-66180741D01*
X143089453Y-66180741D01*
X143089452Y-66180742D01*
X143052402Y-66198019D01*
X142983324Y-66208510D01*
X142947593Y-66198018D01*
X142910549Y-66180744D01*
X142910546Y-66180743D01*
X142910545Y-66180742D01*
X142910542Y-66180742D01*
X142863141Y-66174502D01*
X142636869Y-66174502D01*
X142626342Y-66175887D01*
X142589456Y-66180743D01*
X142589454Y-66180744D01*
X142552404Y-66198020D01*
X142483326Y-66208510D01*
X142447598Y-66198019D01*
X142410545Y-66180741D01*
X142410541Y-66180740D01*
X142363140Y-66174500D01*
X142136868Y-66174500D01*
X142126341Y-66175885D01*
X142089455Y-66180741D01*
X142089453Y-66180742D01*
X142089451Y-66180742D01*
X142052403Y-66198018D01*
X141983325Y-66208509D01*
X141947596Y-66198018D01*
X141910543Y-66180740D01*
X141910539Y-66180739D01*
X141863138Y-66174499D01*
X141636865Y-66174499D01*
X141589451Y-66180740D01*
X141552400Y-66198018D01*
X141483322Y-66208509D01*
X141447593Y-66198017D01*
X141410548Y-66180743D01*
X141410546Y-66180742D01*
X141410547Y-66180742D01*
X141363143Y-66174502D01*
X141136870Y-66174502D01*
X141121842Y-66176480D01*
X141089458Y-66180743D01*
X141089456Y-66180744D01*
X141089453Y-66180744D01*
X141052407Y-66198019D01*
X140983329Y-66208510D01*
X140947600Y-66198019D01*
X140910545Y-66180740D01*
X140910546Y-66180740D01*
X140863141Y-66174500D01*
X140636869Y-66174500D01*
X140624642Y-66176109D01*
X140589456Y-66180741D01*
X140589454Y-66180741D01*
X140589453Y-66180742D01*
X140552403Y-66198019D01*
X140483325Y-66208510D01*
X140447594Y-66198018D01*
X140442589Y-66195684D01*
X140410546Y-66180742D01*
X140410544Y-66180741D01*
X140410545Y-66180741D01*
X140363141Y-66174501D01*
X140136868Y-66174501D01*
X140121840Y-66176479D01*
X140089456Y-66180742D01*
X140089454Y-66180743D01*
X140089452Y-66180743D01*
X139985421Y-66229254D01*
X139904254Y-66310421D01*
X139855741Y-66414457D01*
X139849501Y-66461861D01*
X139849501Y-67863133D01*
X139849502Y-67863139D01*
X139855742Y-67910546D01*
X139855743Y-67910548D01*
X139855743Y-67910549D01*
X139889230Y-67982361D01*
X139904254Y-68014580D01*
X139985422Y-68095748D01*
X140089456Y-68144260D01*
X140136862Y-68150501D01*
X140363139Y-68150500D01*
X140410546Y-68144260D01*
X140447596Y-68126982D01*
X140516671Y-68116490D01*
X140552403Y-68126980D01*
X140589456Y-68144259D01*
X140636862Y-68150500D01*
X140863139Y-68150499D01*
X140910546Y-68144259D01*
X140947593Y-68126982D01*
X141016670Y-68116490D01*
X141052402Y-68126981D01*
X141089458Y-68144261D01*
X141136864Y-68150502D01*
X141248498Y-68150501D01*
X141315537Y-68170185D01*
X141361292Y-68222989D01*
X141372498Y-68274501D01*
X141372498Y-68297145D01*
X141352813Y-68364184D01*
X141300009Y-68409939D01*
X141264693Y-68420083D01*
X141262936Y-68420314D01*
X141262929Y-68420316D01*
X141129019Y-68475782D01*
X141014021Y-68564024D01*
X140925779Y-68679022D01*
X140870313Y-68812932D01*
X140870312Y-68812936D01*
X140851392Y-68956645D01*
X140861945Y-69036805D01*
X140870312Y-69100353D01*
X140870313Y-69100357D01*
X140925779Y-69234267D01*
X140925780Y-69234269D01*
X140925781Y-69234270D01*
X141014021Y-69349266D01*
X141129017Y-69437506D01*
X141129018Y-69437506D01*
X141129019Y-69437507D01*
X141173655Y-69455995D01*
X141262933Y-69492975D01*
X141389922Y-69509693D01*
X141406641Y-69511895D01*
X141406641Y-69511894D01*
X141406642Y-69511895D01*
X141517085Y-69497354D01*
X141586117Y-69508119D01*
X141638373Y-69554498D01*
X141646940Y-69574164D01*
X141648060Y-69573701D01*
X141706637Y-69715122D01*
X141706638Y-69715124D01*
X141706639Y-69715125D01*
X141794879Y-69830121D01*
X141909875Y-69918361D01*
X142043791Y-69973830D01*
X142170780Y-69990548D01*
X142187499Y-69992750D01*
X142187500Y-69992750D01*
X142187501Y-69992750D01*
X142202477Y-69990778D01*
X142331209Y-69973830D01*
X142465125Y-69918361D01*
X142580121Y-69830121D01*
X142668361Y-69715125D01*
X142723830Y-69581209D01*
X142742750Y-69437500D01*
X142723830Y-69293791D01*
X142668361Y-69159875D01*
X142668361Y-69159874D01*
X142653124Y-69140017D01*
X142627930Y-69074847D01*
X142627500Y-69064531D01*
X142627500Y-68274501D01*
X142647185Y-68207462D01*
X142699989Y-68161707D01*
X142751497Y-68150501D01*
X142863139Y-68150501D01*
X142910546Y-68144261D01*
X142947596Y-68126984D01*
X143016673Y-68116491D01*
X143052404Y-68126982D01*
X143089455Y-68144259D01*
X143136861Y-68150500D01*
X143363138Y-68150499D01*
X143410545Y-68144259D01*
X143447595Y-68126981D01*
X143516672Y-68116490D01*
X143552404Y-68126981D01*
X143589455Y-68144259D01*
X143636861Y-68150500D01*
X143863138Y-68150499D01*
X143910545Y-68144259D01*
X143947597Y-68126980D01*
X144016673Y-68116489D01*
X144052406Y-68126980D01*
X144089455Y-68144257D01*
X144136861Y-68150498D01*
X144363138Y-68150497D01*
X144410545Y-68144257D01*
X144447592Y-68126980D01*
X144516669Y-68116488D01*
X144552402Y-68126979D01*
X144589455Y-68144258D01*
X144636861Y-68150499D01*
X144748500Y-68150498D01*
X144815539Y-68170182D01*
X144861294Y-68222986D01*
X144872500Y-68274498D01*
X144872500Y-68937408D01*
X144872500Y-69036806D01*
X144898226Y-69132817D01*
X144947925Y-69218897D01*
X145511102Y-69782075D01*
X145511104Y-69782076D01*
X145511108Y-69782079D01*
X145594319Y-69830120D01*
X145597182Y-69831773D01*
X145693193Y-69857499D01*
X145792591Y-69857499D01*
X156706937Y-69857499D01*
X156773976Y-69877184D01*
X156819731Y-69929988D01*
X156829675Y-69999146D01*
X156800650Y-70062702D01*
X156794618Y-70069180D01*
X156794401Y-70069396D01*
X156739033Y-70152260D01*
X156739032Y-70152264D01*
X156724500Y-70225321D01*
X156724500Y-71274678D01*
X156739032Y-71347735D01*
X156739033Y-71347739D01*
X156739034Y-71347740D01*
X156794399Y-71430601D01*
X156849917Y-71467696D01*
X156877260Y-71485966D01*
X156877264Y-71485967D01*
X156950321Y-71500499D01*
X156950324Y-71500500D01*
X156950326Y-71500500D01*
X157999676Y-71500500D01*
X157999677Y-71500499D01*
X158072740Y-71485966D01*
X158155601Y-71430601D01*
X158210966Y-71347740D01*
X158225500Y-71274674D01*
X158225500Y-70264297D01*
X158245185Y-70197258D01*
X158297989Y-70151503D01*
X158367147Y-70141559D01*
X158410936Y-70157638D01*
X158411034Y-70157436D01*
X158413122Y-70158441D01*
X158415476Y-70159306D01*
X158416885Y-70160191D01*
X158417310Y-70160458D01*
X158522479Y-70197258D01*
X158576943Y-70216316D01*
X158744997Y-70235251D01*
X158745000Y-70235251D01*
X158745003Y-70235251D01*
X158913056Y-70216316D01*
X158931515Y-70209857D01*
X159072690Y-70160458D01*
X159072692Y-70160456D01*
X159072694Y-70160456D01*
X159072697Y-70160454D01*
X159215884Y-70070483D01*
X159215884Y-70070482D01*
X159215890Y-70070479D01*
X159292322Y-69994046D01*
X159353641Y-69960564D01*
X159423333Y-69965548D01*
X159467681Y-69994049D01*
X159544108Y-70070476D01*
X159544114Y-70070481D01*
X159687301Y-70160452D01*
X159687304Y-70160454D01*
X159687308Y-70160455D01*
X159687309Y-70160456D01*
X159687315Y-70160458D01*
X159846942Y-70216314D01*
X160014996Y-70235249D01*
X160014999Y-70235249D01*
X160015002Y-70235249D01*
X160183055Y-70216314D01*
X160183058Y-70216313D01*
X160342689Y-70160456D01*
X160350075Y-70155815D01*
X160364889Y-70146507D01*
X160430862Y-70127500D01*
X161213888Y-70127500D01*
X161280927Y-70147185D01*
X161301570Y-70163820D01*
X161347604Y-70209855D01*
X161347606Y-70209856D01*
X161347609Y-70209859D01*
X161457825Y-70266017D01*
X161457826Y-70266017D01*
X161457828Y-70266018D01*
X161492947Y-70271579D01*
X161549265Y-70280500D01*
X161950734Y-70280499D01*
X161950739Y-70280499D01*
X161950739Y-70280498D01*
X161996454Y-70273258D01*
X162042170Y-70266018D01*
X162042171Y-70266018D01*
X162042172Y-70266017D01*
X162042175Y-70266017D01*
X162152391Y-70209859D01*
X162239859Y-70122391D01*
X162265016Y-70073016D01*
X162312989Y-70022222D01*
X162380810Y-70005427D01*
X162446945Y-70027964D01*
X162490397Y-70082679D01*
X162499500Y-70129313D01*
X162499500Y-80995572D01*
X162499184Y-81004419D01*
X162484869Y-81204557D01*
X162482351Y-81222068D01*
X162440646Y-81413787D01*
X162435662Y-81430763D01*
X162367090Y-81614609D01*
X162359740Y-81630701D01*
X162265711Y-81802904D01*
X162256146Y-81817789D01*
X162138558Y-81974867D01*
X162126972Y-81988237D01*
X161988237Y-82126972D01*
X161974867Y-82138558D01*
X161817789Y-82256146D01*
X161802904Y-82265711D01*
X161630701Y-82359740D01*
X161614609Y-82367090D01*
X161430763Y-82435662D01*
X161413787Y-82440646D01*
X161222068Y-82482351D01*
X161204557Y-82484869D01*
X161023779Y-82497799D01*
X161004417Y-82499184D01*
X160995572Y-82499500D01*
X147379500Y-82499500D01*
X147312461Y-82479815D01*
X147266706Y-82427011D01*
X147255500Y-82375500D01*
X147255500Y-80401577D01*
X159249500Y-80401577D01*
X159249500Y-80598422D01*
X159280290Y-80792826D01*
X159341117Y-80980029D01*
X159428360Y-81151252D01*
X159430476Y-81155405D01*
X159546172Y-81314646D01*
X159685354Y-81453828D01*
X159844595Y-81569524D01*
X159927455Y-81611743D01*
X160019970Y-81658882D01*
X160019972Y-81658882D01*
X160019975Y-81658884D01*
X160120317Y-81691487D01*
X160207173Y-81719709D01*
X160401578Y-81750500D01*
X160401583Y-81750500D01*
X160598422Y-81750500D01*
X160792826Y-81719709D01*
X160980025Y-81658884D01*
X161155405Y-81569524D01*
X161314646Y-81453828D01*
X161453828Y-81314646D01*
X161569524Y-81155405D01*
X161658884Y-80980025D01*
X161719709Y-80792826D01*
X161750500Y-80598422D01*
X161750500Y-80401577D01*
X161719709Y-80207173D01*
X161658882Y-80019970D01*
X161569523Y-79844594D01*
X161453828Y-79685354D01*
X161314646Y-79546172D01*
X161155405Y-79430476D01*
X160980029Y-79341117D01*
X160792826Y-79280290D01*
X160598422Y-79249500D01*
X160598417Y-79249500D01*
X160401583Y-79249500D01*
X160401578Y-79249500D01*
X160207173Y-79280290D01*
X160019970Y-79341117D01*
X159844594Y-79430476D01*
X159753741Y-79496485D01*
X159685354Y-79546172D01*
X159685352Y-79546174D01*
X159685351Y-79546174D01*
X159546174Y-79685351D01*
X159546174Y-79685352D01*
X159546172Y-79685354D01*
X159496485Y-79753741D01*
X159430476Y-79844594D01*
X159341117Y-80019970D01*
X159280290Y-80207173D01*
X159249500Y-80401577D01*
X147255500Y-80401577D01*
X147255500Y-76848987D01*
X147255498Y-76848945D01*
X147254163Y-76822886D01*
X147254162Y-76822880D01*
X147254161Y-76822851D01*
X147251567Y-76797618D01*
X147222779Y-76703382D01*
X147189864Y-76641751D01*
X147164912Y-76603648D01*
X147155104Y-76595296D01*
X147089013Y-76539012D01*
X147028001Y-76504960D01*
X147028000Y-76504959D01*
X146960108Y-76478918D01*
X146960104Y-76478917D01*
X141590289Y-75258505D01*
X141568924Y-75251563D01*
X141346620Y-75156290D01*
X139903396Y-74537765D01*
X138167821Y-73793947D01*
X138128986Y-73767654D01*
X134291819Y-69930487D01*
X134258334Y-69869164D01*
X134255500Y-69842806D01*
X134255500Y-63585905D01*
X134255347Y-63577083D01*
X134255286Y-63575321D01*
X134255046Y-63568425D01*
X134239248Y-63488440D01*
X134239246Y-63488435D01*
X134239245Y-63488430D01*
X134214951Y-63422943D01*
X134214949Y-63422939D01*
X134214947Y-63422933D01*
X134195363Y-63381814D01*
X134128877Y-63307531D01*
X134073017Y-63265560D01*
X134073015Y-63265559D01*
X134073010Y-63265555D01*
X134009258Y-63230598D01*
X134009246Y-63230593D01*
X133254587Y-62947596D01*
X132110765Y-62518663D01*
X132066640Y-62506495D01*
X132066631Y-62506493D01*
X132066630Y-62506493D01*
X132066618Y-62506490D01*
X132023107Y-62498601D01*
X132023096Y-62498599D01*
X131977532Y-62494500D01*
X131977514Y-62494500D01*
X129573085Y-62494500D01*
X129527033Y-62485631D01*
X129357278Y-62417729D01*
X129302344Y-62374555D01*
X129279472Y-62308534D01*
X129295925Y-62240629D01*
X129300212Y-62233732D01*
X129340966Y-62172739D01*
X129355500Y-62099673D01*
X129355500Y-60500325D01*
X129355500Y-60500322D01*
X129355499Y-60500320D01*
X129340967Y-60427263D01*
X129340966Y-60427259D01*
X129323264Y-60400766D01*
X129285601Y-60344398D01*
X129202740Y-60289033D01*
X129202739Y-60289032D01*
X129202735Y-60289031D01*
X129129677Y-60274499D01*
X129129674Y-60274499D01*
X128480326Y-60274499D01*
X128480323Y-60274499D01*
X128407264Y-60289031D01*
X128407258Y-60289033D01*
X128337872Y-60335394D01*
X128271194Y-60356270D01*
X128203815Y-60337784D01*
X128181303Y-60319971D01*
X128042498Y-60181166D01*
X128042485Y-60181153D01*
X128022135Y-60162874D01*
X128022129Y-60162869D01*
X128022120Y-60162861D01*
X128001499Y-60146244D01*
X128001496Y-60146242D01*
X128001493Y-60146240D01*
X127913162Y-60100035D01*
X127902404Y-60096876D01*
X127846124Y-60080350D01*
X127846116Y-60080348D01*
X127774139Y-60070000D01*
X127774138Y-60070000D01*
X126043623Y-60070000D01*
X126039493Y-60070332D01*
X126002705Y-60073297D01*
X125963502Y-60079658D01*
X125923602Y-60089477D01*
X125549452Y-60214194D01*
X125536660Y-60218842D01*
X125524366Y-60223684D01*
X125524355Y-60223689D01*
X125450675Y-60268316D01*
X125450665Y-60268323D01*
X125397878Y-60314063D01*
X125397873Y-60314067D01*
X125366242Y-60346847D01*
X125320033Y-60435184D01*
X125320032Y-60435184D01*
X125300350Y-60502216D01*
X125300347Y-60502228D01*
X125289999Y-60574205D01*
X125289999Y-60574207D01*
X125289999Y-61238667D01*
X125292185Y-61272015D01*
X125296410Y-61304108D01*
X125296616Y-61305147D01*
X125296668Y-61305672D01*
X125296741Y-61306112D01*
X125296712Y-61306116D01*
X125298999Y-61329335D01*
X125298999Y-61380659D01*
X125296715Y-61403894D01*
X125296738Y-61403898D01*
X125296680Y-61404245D01*
X125296626Y-61404802D01*
X125296409Y-61405891D01*
X125292185Y-61437976D01*
X125292185Y-61437982D01*
X125289999Y-61471332D01*
X125289999Y-61471340D01*
X125289999Y-62056941D01*
X125278572Y-62108935D01*
X125274538Y-62117668D01*
X125274536Y-62117672D01*
X125254849Y-62184717D01*
X125254849Y-62184718D01*
X125244500Y-62256697D01*
X125244500Y-64206557D01*
X125224815Y-64273596D01*
X125172011Y-64319351D01*
X125132841Y-64329941D01*
X123636836Y-64479541D01*
X123568173Y-64466625D01*
X123517391Y-64418636D01*
X123500500Y-64356157D01*
X123500500Y-54760391D01*
X123520185Y-54693352D01*
X123572989Y-54647597D01*
X123642147Y-54637653D01*
X123665567Y-54643630D01*
X123667507Y-54644089D01*
X123667512Y-54644089D01*
X123667516Y-54644091D01*
X123727126Y-54650500D01*
X124366500Y-54650499D01*
X124433539Y-54670183D01*
X124479294Y-54722987D01*
X124490500Y-54774499D01*
X124490500Y-54942553D01*
X124470815Y-55009592D01*
X124469603Y-55011442D01*
X124459033Y-55027260D01*
X124444500Y-55100324D01*
X124444500Y-56699679D01*
X124459032Y-56772736D01*
X124459033Y-56772740D01*
X124477405Y-56800236D01*
X124514399Y-56855602D01*
X124580097Y-56899499D01*
X124597260Y-56910967D01*
X124597264Y-56910968D01*
X124670321Y-56925500D01*
X124670324Y-56925501D01*
X124670326Y-56925501D01*
X125319676Y-56925501D01*
X125319677Y-56925500D01*
X125392740Y-56910967D01*
X125475601Y-56855602D01*
X125526899Y-56778826D01*
X125580509Y-56734024D01*
X125649834Y-56725315D01*
X125712861Y-56755469D01*
X125733100Y-56778826D01*
X125784399Y-56855601D01*
X125833327Y-56888293D01*
X125867260Y-56910966D01*
X125867264Y-56910967D01*
X125940321Y-56925499D01*
X125940324Y-56925500D01*
X125940326Y-56925500D01*
X126589676Y-56925500D01*
X126589677Y-56925499D01*
X126662740Y-56910966D01*
X126745601Y-56855601D01*
X126796898Y-56778827D01*
X126850509Y-56734023D01*
X126919834Y-56725316D01*
X126982862Y-56755470D01*
X127003100Y-56778826D01*
X127054399Y-56855601D01*
X127103327Y-56888293D01*
X127137260Y-56910966D01*
X127137264Y-56910967D01*
X127210321Y-56925499D01*
X127210324Y-56925500D01*
X127210326Y-56925500D01*
X127859676Y-56925500D01*
X127859677Y-56925499D01*
X127932740Y-56910966D01*
X128015601Y-56855601D01*
X128066899Y-56778825D01*
X128120509Y-56734023D01*
X128189834Y-56725314D01*
X128252861Y-56755468D01*
X128273102Y-56778827D01*
X128323707Y-56854563D01*
X128324400Y-56855600D01*
X128390101Y-56899499D01*
X128407261Y-56910965D01*
X128407265Y-56910966D01*
X128480322Y-56925498D01*
X128480325Y-56925499D01*
X128480327Y-56925499D01*
X129129677Y-56925499D01*
X129129678Y-56925498D01*
X129202741Y-56910965D01*
X129285602Y-56855600D01*
X129340967Y-56772739D01*
X129355501Y-56699673D01*
X129355501Y-55100325D01*
X129355501Y-55100324D01*
X129355501Y-55100322D01*
X129355500Y-55100320D01*
X129340968Y-55027263D01*
X129340967Y-55027259D01*
X129285602Y-54944398D01*
X129285600Y-54944397D01*
X129285600Y-54944396D01*
X129237609Y-54912330D01*
X129192803Y-54858718D01*
X129182499Y-54809228D01*
X129182499Y-52774694D01*
X129202184Y-52707655D01*
X129254988Y-52661900D01*
X129324146Y-52651956D01*
X129347447Y-52657650D01*
X129390301Y-52672646D01*
X129396387Y-52673216D01*
X129420730Y-52675500D01*
X129420734Y-52675500D01*
X129929270Y-52675500D01*
X129959699Y-52672646D01*
X129959701Y-52672646D01*
X130046863Y-52642146D01*
X130087882Y-52627793D01*
X130197150Y-52547150D01*
X130277793Y-52437882D01*
X130303520Y-52364358D01*
X130322646Y-52309701D01*
X130322646Y-52309699D01*
X130325500Y-52279269D01*
X130325500Y-51620730D01*
X130322646Y-51590300D01*
X130322646Y-51590298D01*
X130277793Y-51462119D01*
X130277792Y-51462117D01*
X130266579Y-51446924D01*
X130197150Y-51352850D01*
X130087882Y-51272207D01*
X130087880Y-51272206D01*
X130008487Y-51244425D01*
X129979168Y-51223396D01*
X129960691Y-51227416D01*
X129957960Y-51227190D01*
X129929271Y-51224500D01*
X129929266Y-51224500D01*
X129420734Y-51224500D01*
X129420730Y-51224500D01*
X129390300Y-51227353D01*
X129390298Y-51227353D01*
X129262119Y-51272206D01*
X129262117Y-51272207D01*
X129152850Y-51352850D01*
X129152844Y-51352855D01*
X129121643Y-51395133D01*
X129065996Y-51437384D01*
X129021873Y-51445500D01*
X128897878Y-51445500D01*
X128843417Y-51432900D01*
X128756521Y-51390418D01*
X128735108Y-51387298D01*
X128681583Y-51379500D01*
X128338419Y-51379500D01*
X128263483Y-51390418D01*
X128263481Y-51390418D01*
X128263479Y-51390419D01*
X128147901Y-51446921D01*
X128147898Y-51446923D01*
X128087683Y-51507139D01*
X128026360Y-51540624D01*
X127956668Y-51535640D01*
X127912321Y-51507139D01*
X127852103Y-51446921D01*
X127852100Y-51446919D01*
X127736521Y-51390416D01*
X127736518Y-51390415D01*
X127668800Y-51380549D01*
X127605299Y-51351405D01*
X127598997Y-51345526D01*
X127474771Y-51221300D01*
X127474763Y-51221294D01*
X127383288Y-51168482D01*
X127383285Y-51168481D01*
X127383276Y-51168476D01*
X127359730Y-51154881D01*
X127346455Y-51151324D01*
X127231416Y-51120499D01*
X126046975Y-51120499D01*
X125979935Y-51100814D01*
X125934181Y-51048010D01*
X125930793Y-51039831D01*
X125918799Y-51007673D01*
X125918794Y-51007664D01*
X125832548Y-50892455D01*
X125832545Y-50892452D01*
X125717336Y-50806206D01*
X125717329Y-50806202D01*
X125582483Y-50755908D01*
X125582484Y-50755908D01*
X125522884Y-50749501D01*
X125522882Y-50749500D01*
X125522874Y-50749500D01*
X125522866Y-50749500D01*
X125128499Y-50749500D01*
X125061460Y-50729815D01*
X125015705Y-50677011D01*
X125004499Y-50625500D01*
X125004499Y-50010333D01*
X125024184Y-49943294D01*
X125040818Y-49922652D01*
X125722653Y-49240817D01*
X125783976Y-49207332D01*
X125810334Y-49204498D01*
X126053186Y-49204498D01*
X126120225Y-49224183D01*
X126152453Y-49254187D01*
X126154467Y-49256877D01*
X126160312Y-49264685D01*
X126236083Y-49321406D01*
X126265873Y-49343707D01*
X126269773Y-49346626D01*
X126397885Y-49394410D01*
X126454514Y-49400498D01*
X127045483Y-49400497D01*
X127102113Y-49394410D01*
X127230225Y-49346626D01*
X127230228Y-49346624D01*
X127346786Y-49259371D01*
X127347823Y-49260756D01*
X127399877Y-49232333D01*
X127426235Y-49229499D01*
X127553187Y-49229499D01*
X127620226Y-49249184D01*
X127652454Y-49279188D01*
X127660310Y-49289682D01*
X127660313Y-49289686D01*
X127769774Y-49371627D01*
X127897886Y-49419411D01*
X127954515Y-49425499D01*
X128545484Y-49425498D01*
X128602114Y-49419411D01*
X128730226Y-49371627D01*
X128839687Y-49289686D01*
X128847546Y-49279188D01*
X128903480Y-49237317D01*
X128946813Y-49229499D01*
X129105514Y-49229499D01*
X129172553Y-49249184D01*
X129218308Y-49301988D01*
X129225286Y-49321399D01*
X129230972Y-49342620D01*
X129233724Y-49352889D01*
X129244543Y-49371627D01*
X129283423Y-49438968D01*
X129283425Y-49438970D01*
X129634367Y-49789912D01*
X129667852Y-49851235D01*
X129667477Y-49893794D01*
X129669235Y-49893983D01*
X129661998Y-49961295D01*
X129661997Y-49961314D01*
X129661997Y-50557048D01*
X129661998Y-50557054D01*
X129668405Y-50616661D01*
X129718699Y-50751506D01*
X129718703Y-50751513D01*
X129804949Y-50866722D01*
X129804952Y-50866725D01*
X129920161Y-50952971D01*
X129920168Y-50952975D01*
X130012869Y-50987550D01*
X130039445Y-51007444D01*
X130055764Y-51003545D01*
X130062692Y-51004094D01*
X130114624Y-51009678D01*
X130932573Y-51009677D01*
X130999612Y-51029361D01*
X131045367Y-51082165D01*
X131055311Y-51151324D01*
X131026286Y-51214880D01*
X130973529Y-51250718D01*
X130912117Y-51272207D01*
X130802850Y-51352850D01*
X130722207Y-51462117D01*
X130722206Y-51462119D01*
X130677353Y-51590298D01*
X130677353Y-51590300D01*
X130674500Y-51620730D01*
X130674500Y-52279269D01*
X130677353Y-52309699D01*
X130677353Y-52309701D01*
X130715849Y-52419713D01*
X130722207Y-52437882D01*
X130802850Y-52547150D01*
X130912118Y-52627793D01*
X130953137Y-52642146D01*
X131040299Y-52672646D01*
X131070730Y-52675500D01*
X131070734Y-52675500D01*
X131579270Y-52675500D01*
X131609699Y-52672646D01*
X131609701Y-52672646D01*
X131696863Y-52642146D01*
X131737882Y-52627793D01*
X131847150Y-52547150D01*
X131866580Y-52520823D01*
X131878356Y-52504867D01*
X131934002Y-52462615D01*
X131978127Y-52454499D01*
X132490289Y-52454499D01*
X132490291Y-52454499D01*
X132546394Y-52454502D01*
X132546397Y-52454500D01*
X132546400Y-52454501D01*
X132546415Y-52454499D01*
X132546420Y-52454499D01*
X132546424Y-52454497D01*
X132554453Y-52453441D01*
X132554739Y-52453384D01*
X132554984Y-52453352D01*
X132555007Y-52453534D01*
X132577675Y-52450500D01*
X132721578Y-52450500D01*
X132721583Y-52450500D01*
X132796519Y-52439582D01*
X132892092Y-52392859D01*
X132912100Y-52383078D01*
X132912103Y-52383076D01*
X133003077Y-52292102D01*
X133003079Y-52292099D01*
X133048503Y-52199182D01*
X133059583Y-52176518D01*
X133070501Y-52101582D01*
X133070501Y-51758418D01*
X133059583Y-51683482D01*
X133057223Y-51678656D01*
X133003079Y-51567900D01*
X133003077Y-51567897D01*
X132912103Y-51476923D01*
X132912100Y-51476921D01*
X132796522Y-51420419D01*
X132796520Y-51420418D01*
X132796519Y-51420418D01*
X132721583Y-51409500D01*
X132278419Y-51409500D01*
X132215972Y-51418598D01*
X132203482Y-51420418D01*
X132203480Y-51420419D01*
X132177950Y-51432900D01*
X132123491Y-51445499D01*
X131978126Y-51445499D01*
X131911087Y-51425814D01*
X131878356Y-51395133D01*
X131874874Y-51390415D01*
X131847150Y-51352850D01*
X131737882Y-51272207D01*
X131737880Y-51272206D01*
X131609700Y-51227353D01*
X131579270Y-51224500D01*
X131579266Y-51224500D01*
X131314124Y-51224500D01*
X131247085Y-51204815D01*
X131201330Y-51152011D01*
X131191386Y-51082853D01*
X131220411Y-51019297D01*
X131270791Y-50984318D01*
X131354825Y-50952975D01*
X131354824Y-50952975D01*
X131354828Y-50952974D01*
X131470043Y-50866724D01*
X131509985Y-50813366D01*
X131565917Y-50771497D01*
X131609252Y-50763678D01*
X131858919Y-50763678D01*
X131858933Y-50763680D01*
X131883582Y-50763678D01*
X131883583Y-50763679D01*
X131894763Y-50763678D01*
X132016419Y-50763679D01*
X132144730Y-50729298D01*
X132144732Y-50729297D01*
X132259771Y-50662879D01*
X132587202Y-50335446D01*
X132615412Y-50286583D01*
X132624247Y-50275073D01*
X132623873Y-50274812D01*
X132630093Y-50265929D01*
X132630093Y-50265928D01*
X132630095Y-50265927D01*
X132639385Y-50246001D01*
X132644374Y-50236420D01*
X132644614Y-50236005D01*
X132653621Y-50220405D01*
X132653919Y-50219290D01*
X132661306Y-50198991D01*
X132681401Y-50155900D01*
X132688001Y-50105768D01*
X132688000Y-49812587D01*
X132687998Y-49812575D01*
X132684700Y-49787520D01*
X132681401Y-49762454D01*
X132681399Y-49762449D01*
X132681398Y-49762446D01*
X132630098Y-49652432D01*
X132630094Y-49652426D01*
X132544251Y-49566583D01*
X132544245Y-49566579D01*
X132434230Y-49515279D01*
X132434225Y-49515277D01*
X132434224Y-49515277D01*
X132434221Y-49515276D01*
X132434219Y-49515276D01*
X132384102Y-49508678D01*
X132384097Y-49508677D01*
X132384092Y-49508677D01*
X132384085Y-49508677D01*
X132115908Y-49508677D01*
X132065781Y-49515276D01*
X132065771Y-49515279D01*
X131955752Y-49566581D01*
X131955748Y-49566584D01*
X131948266Y-49574066D01*
X131922593Y-49593765D01*
X131882331Y-49617011D01*
X131873730Y-49621977D01*
X131777346Y-49718360D01*
X131716026Y-49751844D01*
X131689667Y-49754678D01*
X131609253Y-49754678D01*
X131542214Y-49734993D01*
X131509987Y-49704990D01*
X131483655Y-49669815D01*
X131470043Y-49651632D01*
X131470041Y-49651631D01*
X131470041Y-49651630D01*
X131354832Y-49565384D01*
X131354825Y-49565380D01*
X131219979Y-49515086D01*
X131219980Y-49515086D01*
X131160380Y-49508679D01*
X131160378Y-49508678D01*
X131160370Y-49508678D01*
X131160362Y-49508678D01*
X130472226Y-49508678D01*
X130405187Y-49488993D01*
X130384545Y-49472359D01*
X129999317Y-49087131D01*
X129965832Y-49025808D01*
X129962998Y-48999450D01*
X129962998Y-48070977D01*
X129982683Y-48003938D01*
X129999313Y-47983300D01*
X130409616Y-47572996D01*
X130470939Y-47539512D01*
X130497297Y-47536678D01*
X131179771Y-47536678D01*
X131246810Y-47556363D01*
X131267452Y-47572997D01*
X131639436Y-47944980D01*
X131639442Y-47944985D01*
X131836181Y-48141724D01*
X131869666Y-48203047D01*
X131872500Y-48229405D01*
X131872500Y-48319375D01*
X131860882Y-48371779D01*
X131818603Y-48462447D01*
X131818600Y-48462458D01*
X131812002Y-48512575D01*
X131812001Y-48512592D01*
X131812001Y-48805769D01*
X131818600Y-48855896D01*
X131818603Y-48855907D01*
X131869903Y-48965921D01*
X131869907Y-48965927D01*
X131955751Y-49051771D01*
X131955752Y-49051771D01*
X131955756Y-49051774D01*
X132065771Y-49103074D01*
X132065772Y-49103074D01*
X132065778Y-49103077D01*
X132115910Y-49109677D01*
X132384091Y-49109676D01*
X132384093Y-49109676D01*
X132400802Y-49107476D01*
X132434224Y-49103077D01*
X132434229Y-49103074D01*
X132434231Y-49103074D01*
X132544245Y-49051774D01*
X132544246Y-49051773D01*
X132544251Y-49051771D01*
X132630095Y-48965927D01*
X132647906Y-48927732D01*
X132660513Y-48900695D01*
X132681401Y-48855900D01*
X132688001Y-48805768D01*
X132688000Y-48523177D01*
X132707684Y-48456139D01*
X132760488Y-48410384D01*
X132812000Y-48399178D01*
X133634066Y-48399178D01*
X133701105Y-48418863D01*
X133709543Y-48424795D01*
X133721367Y-48433868D01*
X133729410Y-48440040D01*
X133783524Y-48462454D01*
X133863325Y-48495508D01*
X133990314Y-48512226D01*
X134007033Y-48514428D01*
X134007034Y-48514428D01*
X134007035Y-48514428D01*
X134022011Y-48512456D01*
X134150743Y-48495508D01*
X134284659Y-48440039D01*
X134399655Y-48351799D01*
X134487895Y-48236803D01*
X134543364Y-48102887D01*
X134562284Y-47959178D01*
X134543364Y-47815469D01*
X134487895Y-47681553D01*
X134399655Y-47566557D01*
X134284659Y-47478317D01*
X134284658Y-47478316D01*
X134284656Y-47478315D01*
X134150746Y-47422849D01*
X134150744Y-47422848D01*
X134150743Y-47422848D01*
X134061654Y-47411119D01*
X134007035Y-47403928D01*
X134007033Y-47403928D01*
X133863325Y-47422848D01*
X133863321Y-47422849D01*
X133729411Y-47478315D01*
X133692014Y-47507011D01*
X133623200Y-47559815D01*
X133614412Y-47566558D01*
X133592077Y-47595666D01*
X133535649Y-47636868D01*
X133493702Y-47644178D01*
X132457727Y-47644178D01*
X132390688Y-47624493D01*
X132370046Y-47607859D01*
X132173306Y-47411119D01*
X132173304Y-47411116D01*
X131619289Y-46857103D01*
X131619287Y-46857101D01*
X131533208Y-46807404D01*
X131532649Y-46807254D01*
X131530856Y-46806774D01*
X131437197Y-46781678D01*
X130239870Y-46781678D01*
X130159627Y-46803179D01*
X130143013Y-46805366D01*
X130129718Y-46815568D01*
X130057781Y-46857100D01*
X130057776Y-46857104D01*
X129452871Y-47462011D01*
X129397284Y-47494105D01*
X129263765Y-47529881D01*
X129148727Y-47596300D01*
X129148724Y-47596302D01*
X129054799Y-47690227D01*
X129054797Y-47690230D01*
X128988378Y-47805270D01*
X128953997Y-47933581D01*
X128953997Y-47933583D01*
X128953997Y-47998163D01*
X128934312Y-48065202D01*
X128881508Y-48110957D01*
X128812350Y-48120901D01*
X128755687Y-48097430D01*
X128730230Y-48078373D01*
X128730227Y-48078372D01*
X128730226Y-48078371D01*
X128602114Y-48030587D01*
X128602112Y-48030586D01*
X128602110Y-48030586D01*
X128545493Y-48024499D01*
X127954518Y-48024499D01*
X127954509Y-48024500D01*
X127897885Y-48030586D01*
X127769773Y-48078371D01*
X127660312Y-48160313D01*
X127660310Y-48160315D01*
X127652454Y-48170810D01*
X127596520Y-48212681D01*
X127553187Y-48220499D01*
X127465526Y-48220499D01*
X127398487Y-48200814D01*
X127366262Y-48170813D01*
X127339686Y-48135311D01*
X127339684Y-48135309D01*
X127339683Y-48135308D01*
X127339680Y-48135305D01*
X127230229Y-48053372D01*
X127230226Y-48053371D01*
X127230225Y-48053370D01*
X127102113Y-48005586D01*
X127102111Y-48005585D01*
X127102109Y-48005585D01*
X127045492Y-47999498D01*
X126454517Y-47999498D01*
X126454508Y-47999499D01*
X126397884Y-48005585D01*
X126269772Y-48053370D01*
X126160311Y-48135312D01*
X126160309Y-48135314D01*
X126152453Y-48145809D01*
X126096519Y-48187680D01*
X126053186Y-48195498D01*
X125483583Y-48195498D01*
X125355272Y-48229879D01*
X125355270Y-48229879D01*
X125355270Y-48229880D01*
X125240232Y-48296298D01*
X125240229Y-48296300D01*
X124096299Y-49440229D01*
X124096297Y-49440231D01*
X124077749Y-49472359D01*
X124068890Y-49487704D01*
X124029880Y-49555271D01*
X123995499Y-49683582D01*
X123995499Y-49683584D01*
X123995499Y-50625500D01*
X123975814Y-50692539D01*
X123923010Y-50738294D01*
X123871500Y-50749500D01*
X123727131Y-50749500D01*
X123727124Y-50749501D01*
X123667513Y-50755909D01*
X123659970Y-50757692D01*
X123659659Y-50756376D01*
X123598137Y-50760774D01*
X123536815Y-50727287D01*
X123503333Y-50665962D01*
X123500500Y-50639609D01*
X123500500Y-45401577D01*
X124249500Y-45401577D01*
X124249500Y-45598422D01*
X124280290Y-45792826D01*
X124341117Y-45980029D01*
X124390782Y-46077501D01*
X124430476Y-46155405D01*
X124546172Y-46314646D01*
X124685354Y-46453828D01*
X124844595Y-46569524D01*
X124927455Y-46611743D01*
X125019970Y-46658882D01*
X125019972Y-46658882D01*
X125019975Y-46658884D01*
X125120317Y-46691487D01*
X125207173Y-46719709D01*
X125401578Y-46750500D01*
X125401583Y-46750500D01*
X125598422Y-46750500D01*
X125792826Y-46719709D01*
X125814391Y-46712702D01*
X125980025Y-46658884D01*
X126155405Y-46569524D01*
X126314646Y-46453828D01*
X126453828Y-46314646D01*
X126569524Y-46155405D01*
X126658884Y-45980025D01*
X126719709Y-45792826D01*
X126728381Y-45738071D01*
X126750500Y-45598422D01*
X126750500Y-45401577D01*
X126719709Y-45207173D01*
X126658882Y-45019970D01*
X126569523Y-44844594D01*
X126453828Y-44685354D01*
X126314646Y-44546172D01*
X126155405Y-44430476D01*
X125980029Y-44341117D01*
X125792826Y-44280290D01*
X125598422Y-44249500D01*
X125598417Y-44249500D01*
X125401583Y-44249500D01*
X125401578Y-44249500D01*
X125207173Y-44280290D01*
X125019970Y-44341117D01*
X124844594Y-44430476D01*
X124753741Y-44496485D01*
X124685354Y-44546172D01*
X124685352Y-44546174D01*
X124685351Y-44546174D01*
X124546174Y-44685351D01*
X124546174Y-44685352D01*
X124546172Y-44685354D01*
X124496485Y-44753741D01*
X124430476Y-44844594D01*
X124341117Y-45019970D01*
X124280290Y-45207173D01*
X124249500Y-45401577D01*
X123500500Y-45401577D01*
X123500500Y-45004427D01*
X123500816Y-44995581D01*
X123515130Y-44795443D01*
X123515131Y-44795442D01*
X123515130Y-44795436D01*
X123517646Y-44777938D01*
X123559356Y-44586199D01*
X123564333Y-44569248D01*
X123632911Y-44385385D01*
X123640259Y-44369298D01*
X123705673Y-44249500D01*
X123734291Y-44197089D01*
X123743845Y-44182221D01*
X123861448Y-44025123D01*
X123873020Y-44011769D01*
X124011769Y-43873020D01*
X124025123Y-43861448D01*
X124182221Y-43743845D01*
X124197089Y-43734291D01*
X124369298Y-43640258D01*
X124385385Y-43632911D01*
X124569248Y-43564333D01*
X124586199Y-43559356D01*
X124777938Y-43517646D01*
X124795436Y-43515130D01*
X124995582Y-43500816D01*
X125004428Y-43500500D01*
X125065892Y-43500500D01*
X160934108Y-43500500D01*
X160995572Y-43500500D01*
X161004418Y-43500816D01*
G37*
%TD.AperFunction*%
%TA.AperFunction,Conductor*%
G36*
X153127653Y-65495013D02*
G01*
X153183586Y-65536885D01*
X153207258Y-65595008D01*
X153212768Y-65636861D01*
X153213670Y-65643708D01*
X153213671Y-65643712D01*
X153269137Y-65777622D01*
X153269138Y-65777624D01*
X153269139Y-65777625D01*
X153357379Y-65892621D01*
X153472375Y-65980861D01*
X153606291Y-66036330D01*
X153733280Y-66053048D01*
X153749999Y-66055250D01*
X153750000Y-66055250D01*
X153750001Y-66055250D01*
X153764977Y-66053278D01*
X153893709Y-66036330D01*
X154027625Y-65980861D01*
X154128934Y-65903122D01*
X154194101Y-65877930D01*
X154204419Y-65877500D01*
X155827272Y-65877500D01*
X155894311Y-65897185D01*
X155914953Y-65913819D01*
X157922172Y-67921038D01*
X157955657Y-67982361D01*
X157950673Y-68052053D01*
X157908801Y-68107986D01*
X157843337Y-68132403D01*
X157832824Y-68132091D01*
X157832824Y-68132500D01*
X148539039Y-68132500D01*
X148472000Y-68112815D01*
X148451357Y-68096180D01*
X148412101Y-68056923D01*
X148412098Y-68056921D01*
X148296520Y-68000419D01*
X148296518Y-68000418D01*
X148296517Y-68000418D01*
X148221581Y-67989500D01*
X147778417Y-67989500D01*
X147703481Y-68000418D01*
X147703479Y-68000418D01*
X147703477Y-68000419D01*
X147587899Y-68056921D01*
X147587896Y-68056923D01*
X147548641Y-68096180D01*
X147487318Y-68129666D01*
X147460959Y-68132500D01*
X146251499Y-68132500D01*
X146184460Y-68112815D01*
X146138705Y-68060011D01*
X146127499Y-68008500D01*
X146127499Y-67973975D01*
X146139117Y-67921570D01*
X146139365Y-67921038D01*
X146144258Y-67910546D01*
X146150499Y-67863140D01*
X146150498Y-66986743D01*
X146170182Y-66919705D01*
X146222986Y-66873950D01*
X146292145Y-66864006D01*
X146306577Y-66866966D01*
X146345891Y-66877500D01*
X146345894Y-66877500D01*
X151535985Y-66877500D01*
X151535987Y-66877500D01*
X151631998Y-66851774D01*
X151718078Y-66802075D01*
X152996640Y-65523512D01*
X153057961Y-65490029D01*
X153127653Y-65495013D01*
G37*
%TD.AperFunction*%
%TA.AperFunction,Conductor*%
G36*
X148321953Y-64100560D02*
G01*
X148324875Y-64101769D01*
X148324883Y-64101774D01*
X148420893Y-64127500D01*
X153025560Y-64127500D01*
X153092599Y-64147185D01*
X153138354Y-64199989D01*
X153148298Y-64269147D01*
X153119273Y-64332703D01*
X153113241Y-64339181D01*
X151366242Y-66086181D01*
X151304919Y-66119666D01*
X151278561Y-66122500D01*
X148240064Y-66122500D01*
X148173025Y-66102815D01*
X148127270Y-66050011D01*
X148117326Y-65980853D01*
X148127682Y-65946095D01*
X148144260Y-65910544D01*
X148150501Y-65863138D01*
X148150500Y-65636861D01*
X148144260Y-65589454D01*
X148126981Y-65552401D01*
X148116490Y-65483326D01*
X148126981Y-65447593D01*
X148144259Y-65410544D01*
X148150500Y-65363138D01*
X148150499Y-65136861D01*
X148144259Y-65089454D01*
X148126983Y-65052406D01*
X148116490Y-64983328D01*
X148126981Y-64947597D01*
X148144261Y-64910542D01*
X148150502Y-64863136D01*
X148150501Y-64636859D01*
X148144261Y-64589452D01*
X148126984Y-64552402D01*
X148116491Y-64483325D01*
X148126981Y-64447595D01*
X148144258Y-64410547D01*
X148150499Y-64363141D01*
X148150498Y-64215119D01*
X148170182Y-64148081D01*
X148222986Y-64102326D01*
X148292144Y-64092382D01*
X148321953Y-64100560D01*
G37*
%TD.AperFunction*%
%TA.AperFunction,Conductor*%
G36*
X142633687Y-59795186D02*
G01*
X142671927Y-59853662D01*
X142672482Y-59923529D01*
X142640912Y-59977222D01*
X142281954Y-60336181D01*
X142220631Y-60369666D01*
X142194273Y-60372500D01*
X140957727Y-60372500D01*
X140890688Y-60352815D01*
X140870046Y-60336181D01*
X140571047Y-60037182D01*
X140537562Y-59975859D01*
X140542546Y-59906167D01*
X140584418Y-59850234D01*
X140649882Y-59825817D01*
X140658702Y-59825501D01*
X140863138Y-59825501D01*
X140910545Y-59819261D01*
X140947595Y-59801983D01*
X141016670Y-59791491D01*
X141052402Y-59801981D01*
X141089455Y-59819260D01*
X141136861Y-59825501D01*
X141363138Y-59825500D01*
X141410545Y-59819260D01*
X141447592Y-59801983D01*
X141516669Y-59791491D01*
X141552402Y-59801982D01*
X141589455Y-59819261D01*
X141636861Y-59825502D01*
X141863138Y-59825501D01*
X141910545Y-59819261D01*
X141947597Y-59801982D01*
X142016673Y-59791491D01*
X142052406Y-59801982D01*
X142089455Y-59819259D01*
X142136861Y-59825500D01*
X142363138Y-59825499D01*
X142410545Y-59819259D01*
X142500830Y-59777158D01*
X142569902Y-59766667D01*
X142633687Y-59795186D01*
G37*
%TD.AperFunction*%
%TA.AperFunction,Conductor*%
G36*
X139886473Y-56582040D02*
G01*
X139935169Y-56632145D01*
X139949500Y-56690014D01*
X139949500Y-56974678D01*
X139964032Y-57047735D01*
X139964033Y-57047739D01*
X139967517Y-57052953D01*
X140019399Y-57130601D01*
X140102260Y-57185966D01*
X140102264Y-57185967D01*
X140175321Y-57200499D01*
X140175324Y-57200500D01*
X140175326Y-57200500D01*
X140404198Y-57200500D01*
X140471237Y-57220185D01*
X140516992Y-57272989D01*
X140526936Y-57342147D01*
X140518759Y-57371952D01*
X140481815Y-57461143D01*
X140481814Y-57461147D01*
X140462894Y-57604855D01*
X140462894Y-57604858D01*
X140476646Y-57709314D01*
X140465880Y-57778349D01*
X140419501Y-57830605D01*
X140353708Y-57849499D01*
X140136868Y-57849499D01*
X140121840Y-57851477D01*
X140089456Y-57855740D01*
X140089454Y-57855741D01*
X140089452Y-57855741D01*
X139985421Y-57904252D01*
X139904254Y-57985419D01*
X139855741Y-58089455D01*
X139849501Y-58136859D01*
X139849501Y-59016273D01*
X139829816Y-59083312D01*
X139777012Y-59129067D01*
X139707854Y-59139011D01*
X139644298Y-59109986D01*
X139637820Y-59103954D01*
X139226044Y-58692178D01*
X139227460Y-58690761D01*
X139201290Y-58659297D01*
X139169859Y-58597609D01*
X139169854Y-58597604D01*
X139164120Y-58589710D01*
X139166789Y-58587770D01*
X139141445Y-58541356D01*
X139146429Y-58471664D01*
X139165810Y-58441516D01*
X139164119Y-58440288D01*
X139169850Y-58432396D01*
X139169858Y-58432389D01*
X139226016Y-58322173D01*
X139226016Y-58322171D01*
X139226017Y-58322170D01*
X139226017Y-58322169D01*
X139229900Y-58297648D01*
X139240499Y-58230733D01*
X139240498Y-57829264D01*
X139240498Y-57829262D01*
X139240498Y-57829258D01*
X139226017Y-57737827D01*
X139226017Y-57737826D01*
X139226016Y-57737824D01*
X139226016Y-57737823D01*
X139169858Y-57627607D01*
X139169854Y-57627603D01*
X139169853Y-57627601D01*
X139159929Y-57617677D01*
X139126444Y-57556354D01*
X139131428Y-57486662D01*
X139159929Y-57442314D01*
X139169856Y-57432388D01*
X139226014Y-57322172D01*
X139226014Y-57322170D01*
X139226015Y-57322169D01*
X139226015Y-57322168D01*
X139233804Y-57272989D01*
X139240497Y-57230732D01*
X139240496Y-56829263D01*
X139240496Y-56829262D01*
X139240496Y-56829258D01*
X139236479Y-56803897D01*
X139245433Y-56734604D01*
X139290429Y-56681152D01*
X139357181Y-56660512D01*
X139358952Y-56660499D01*
X139550739Y-56660499D01*
X139550739Y-56660498D01*
X139596454Y-56653258D01*
X139642170Y-56646018D01*
X139642171Y-56646018D01*
X139642172Y-56646017D01*
X139642175Y-56646017D01*
X139752391Y-56589859D01*
X139752397Y-56589852D01*
X139752613Y-56589697D01*
X139752928Y-56589584D01*
X139761086Y-56585428D01*
X139761623Y-56586482D01*
X139818419Y-56566216D01*
X139886473Y-56582040D01*
G37*
%TD.AperFunction*%
%TA.AperFunction,Conductor*%
G36*
X150265041Y-50027185D02*
G01*
X150310796Y-50079989D01*
X150322002Y-50131500D01*
X150322002Y-50154678D01*
X150336534Y-50227735D01*
X150336535Y-50227739D01*
X150345467Y-50241107D01*
X150391901Y-50310601D01*
X150453522Y-50351774D01*
X150474762Y-50365966D01*
X150474766Y-50365967D01*
X150547823Y-50380499D01*
X150547826Y-50380500D01*
X150547828Y-50380500D01*
X151487775Y-50380500D01*
X151554814Y-50400185D01*
X151575456Y-50416819D01*
X151613551Y-50454914D01*
X151613557Y-50454919D01*
X151618308Y-50459670D01*
X151730788Y-50530347D01*
X151764578Y-50542171D01*
X151773766Y-50545386D01*
X151830542Y-50586108D01*
X151856289Y-50651061D01*
X151849858Y-50703367D01*
X151845285Y-50716441D01*
X151804570Y-50773222D01*
X151739620Y-50798977D01*
X151728238Y-50799501D01*
X151413481Y-50799501D01*
X151332980Y-50812251D01*
X151319695Y-50814355D01*
X151206657Y-50871951D01*
X151206656Y-50871952D01*
X151206651Y-50871955D01*
X151116953Y-50961653D01*
X151116950Y-50961658D01*
X151116949Y-50961659D01*
X151105404Y-50984318D01*
X151059351Y-51074699D01*
X151044499Y-51168476D01*
X151044499Y-52881518D01*
X151049438Y-52912699D01*
X151059353Y-52975305D01*
X151116949Y-53088343D01*
X151181181Y-53152575D01*
X151214665Y-53213896D01*
X151217499Y-53240255D01*
X151217499Y-54092863D01*
X151197814Y-54159902D01*
X151181180Y-54180544D01*
X146362179Y-58999545D01*
X146300856Y-59033030D01*
X146231164Y-59028046D01*
X146175231Y-58986174D01*
X146150814Y-58920710D01*
X146150498Y-58911864D01*
X146150498Y-58136866D01*
X146150498Y-58136861D01*
X146144258Y-58089454D01*
X146095746Y-57985420D01*
X146014578Y-57904252D01*
X145910544Y-57855740D01*
X145910542Y-57855739D01*
X145910543Y-57855739D01*
X145863139Y-57849499D01*
X145636867Y-57849499D01*
X145624640Y-57851108D01*
X145589454Y-57855740D01*
X145589452Y-57855740D01*
X145589451Y-57855741D01*
X145552401Y-57873018D01*
X145483323Y-57883509D01*
X145447592Y-57873017D01*
X145410544Y-57855741D01*
X145410542Y-57855740D01*
X145410543Y-57855740D01*
X145363139Y-57849500D01*
X145330014Y-57849500D01*
X145262975Y-57829815D01*
X145217220Y-57777011D01*
X145207276Y-57707853D01*
X145226115Y-57661436D01*
X145225428Y-57661086D01*
X145229508Y-57653078D01*
X145229697Y-57652613D01*
X145229852Y-57652397D01*
X145229859Y-57652391D01*
X145286017Y-57542175D01*
X145286017Y-57542173D01*
X145286018Y-57542172D01*
X145286018Y-57542171D01*
X145292120Y-57503640D01*
X145300500Y-57450735D01*
X145300499Y-57049266D01*
X145300499Y-57049260D01*
X145286018Y-56957829D01*
X145286018Y-56957828D01*
X145286017Y-56957826D01*
X145286017Y-56957825D01*
X145229859Y-56847609D01*
X145209930Y-56827680D01*
X145176446Y-56766360D01*
X145181429Y-56696669D01*
X145204590Y-56660631D01*
X145204120Y-56660290D01*
X145209851Y-56652398D01*
X145209859Y-56652391D01*
X145266017Y-56542175D01*
X145266017Y-56542173D01*
X145266018Y-56542172D01*
X145266018Y-56542171D01*
X145271509Y-56507500D01*
X145280500Y-56450735D01*
X145280499Y-56049266D01*
X145280499Y-56049260D01*
X145266018Y-55957829D01*
X145266018Y-55957828D01*
X145266017Y-55957826D01*
X145266017Y-55957825D01*
X145209859Y-55847609D01*
X145209857Y-55847607D01*
X145209854Y-55847603D01*
X145195233Y-55832982D01*
X145161748Y-55771659D01*
X145166732Y-55701967D01*
X145195231Y-55657621D01*
X145248502Y-55604351D01*
X145305739Y-55492018D01*
X145305739Y-55492016D01*
X145305740Y-55492015D01*
X145320499Y-55398824D01*
X145320500Y-55398819D01*
X145320499Y-55041174D01*
X145305739Y-54947974D01*
X145248502Y-54835641D01*
X145248498Y-54835637D01*
X145248497Y-54835635D01*
X145235541Y-54822679D01*
X145202056Y-54761356D01*
X145207040Y-54691664D01*
X145235541Y-54647317D01*
X145248497Y-54634360D01*
X145248502Y-54634355D01*
X145305739Y-54522022D01*
X145305739Y-54522020D01*
X145305740Y-54522019D01*
X145320499Y-54428828D01*
X145320500Y-54428823D01*
X145320499Y-54071178D01*
X145320499Y-54071174D01*
X145315642Y-54040510D01*
X145324596Y-53971216D01*
X145350434Y-53933429D01*
X145370051Y-53913814D01*
X145431376Y-53880332D01*
X145457728Y-53877500D01*
X146049697Y-53877500D01*
X146049699Y-53877500D01*
X146145710Y-53851774D01*
X146231790Y-53802075D01*
X149187547Y-50846316D01*
X149248868Y-50812833D01*
X149259024Y-50811062D01*
X149393709Y-50793331D01*
X149527625Y-50737862D01*
X149642621Y-50649622D01*
X149730861Y-50534626D01*
X149786330Y-50400710D01*
X149805250Y-50257001D01*
X149803157Y-50241107D01*
X149791940Y-50155907D01*
X149790858Y-50147685D01*
X149801623Y-50078650D01*
X149848003Y-50026395D01*
X149913797Y-50007500D01*
X150198002Y-50007500D01*
X150265041Y-50027185D01*
G37*
%TD.AperFunction*%
%TA.AperFunction,Conductor*%
G36*
X142122539Y-53010185D02*
G01*
X142168294Y-53062989D01*
X142179500Y-53114500D01*
X142179500Y-53450739D01*
X142193981Y-53542170D01*
X142193981Y-53542171D01*
X142250142Y-53652392D01*
X142250145Y-53652396D01*
X142261074Y-53663325D01*
X142294559Y-53724648D01*
X142289575Y-53794340D01*
X142247703Y-53850273D01*
X142242284Y-53854108D01*
X142219399Y-53869398D01*
X142164033Y-53952260D01*
X142164032Y-53952264D01*
X142149500Y-54025321D01*
X142149500Y-55274678D01*
X142164032Y-55347735D01*
X142164033Y-55347739D01*
X142164034Y-55347740D01*
X142219399Y-55430601D01*
X142298257Y-55483291D01*
X142302260Y-55485966D01*
X142302264Y-55485967D01*
X142375321Y-55500499D01*
X142375324Y-55500500D01*
X142375326Y-55500500D01*
X143625501Y-55500500D01*
X143692540Y-55520185D01*
X143738295Y-55572989D01*
X143749501Y-55624500D01*
X143749501Y-56775499D01*
X143729816Y-56842538D01*
X143677012Y-56888293D01*
X143625501Y-56899499D01*
X142673302Y-56899499D01*
X142577292Y-56925225D01*
X142540909Y-56946230D01*
X142540908Y-56946230D01*
X142491213Y-56974922D01*
X142491207Y-56974926D01*
X142237089Y-57229044D01*
X142175766Y-57262529D01*
X142106074Y-57257545D01*
X142059021Y-57222758D01*
X142057823Y-57223957D01*
X141886819Y-57052953D01*
X141853334Y-56991630D01*
X141850500Y-56965272D01*
X141850500Y-55725323D01*
X141850499Y-55725321D01*
X141835967Y-55652264D01*
X141835966Y-55652260D01*
X141819018Y-55626895D01*
X141780601Y-55569399D01*
X141697740Y-55514034D01*
X141697739Y-55514033D01*
X141697735Y-55514032D01*
X141624677Y-55499500D01*
X141624674Y-55499500D01*
X140175326Y-55499500D01*
X140175323Y-55499500D01*
X140102264Y-55514032D01*
X140102260Y-55514033D01*
X140019399Y-55569399D01*
X139989610Y-55613983D01*
X139957249Y-55662415D01*
X139954012Y-55660252D01*
X139923944Y-55697536D01*
X139857642Y-55719575D01*
X139789949Y-55702269D01*
X139765581Y-55683331D01*
X139752395Y-55670144D01*
X139752393Y-55670143D01*
X139752391Y-55670141D01*
X139642175Y-55613983D01*
X139642174Y-55613982D01*
X139642171Y-55613981D01*
X139550735Y-55599500D01*
X139149260Y-55599500D01*
X139149260Y-55599501D01*
X139057829Y-55613981D01*
X139057825Y-55613983D01*
X139057794Y-55613999D01*
X139057751Y-55614006D01*
X139048547Y-55616998D01*
X139048160Y-55615808D01*
X138989124Y-55626895D01*
X138924384Y-55600618D01*
X138884128Y-55543511D01*
X138877500Y-55503514D01*
X138877500Y-53114500D01*
X138897185Y-53047461D01*
X138949989Y-53001706D01*
X139001500Y-52990500D01*
X142055500Y-52990500D01*
X142122539Y-53010185D01*
G37*
%TD.AperFunction*%
%TA.AperFunction,Conductor*%
G36*
X143722312Y-53010185D02*
G01*
X143742954Y-53026819D01*
X144086181Y-53370046D01*
X144119666Y-53431369D01*
X144122500Y-53457727D01*
X144122500Y-53732225D01*
X144102815Y-53799264D01*
X144050011Y-53845019D01*
X143980853Y-53854963D01*
X143929611Y-53835329D01*
X143918150Y-53827671D01*
X143897740Y-53814034D01*
X143897739Y-53814033D01*
X143897738Y-53814033D01*
X143897735Y-53814032D01*
X143824677Y-53799500D01*
X143824674Y-53799500D01*
X143297253Y-53799500D01*
X143230214Y-53779815D01*
X143184459Y-53727011D01*
X143174515Y-53657853D01*
X143186768Y-53619205D01*
X143200430Y-53592392D01*
X143226017Y-53542175D01*
X143226017Y-53542173D01*
X143226018Y-53542172D01*
X143226018Y-53542171D01*
X143235520Y-53482176D01*
X143240500Y-53450735D01*
X143240499Y-53114499D01*
X143260183Y-53047461D01*
X143312987Y-53001706D01*
X143364499Y-52990500D01*
X143655273Y-52990500D01*
X143722312Y-53010185D01*
G37*
%TD.AperFunction*%
%TD*%
%TA.AperFunction,NonConductor*%
G36*
X149456126Y-60725247D02*
G01*
X149512060Y-60767118D01*
X149518079Y-60776242D01*
X149519137Y-60777621D01*
X149519139Y-60777625D01*
X149607379Y-60892621D01*
X149722375Y-60980861D01*
X149722376Y-60980861D01*
X149722377Y-60980862D01*
X149728804Y-60983524D01*
X149856291Y-61036330D01*
X149983280Y-61053048D01*
X149999999Y-61055250D01*
X150000000Y-61055250D01*
X150000001Y-61055250D01*
X150014977Y-61053278D01*
X150143709Y-61036330D01*
X150277625Y-60980861D01*
X150378934Y-60903122D01*
X150444101Y-60877930D01*
X150454419Y-60877500D01*
X153733887Y-60877500D01*
X153800926Y-60897185D01*
X153821568Y-60913819D01*
X153847603Y-60939854D01*
X153847605Y-60939855D01*
X153847609Y-60939859D01*
X153957825Y-60996017D01*
X153957826Y-60996017D01*
X153957828Y-60996018D01*
X153992947Y-61001579D01*
X154049265Y-61010500D01*
X154450734Y-61010499D01*
X154450739Y-61010499D01*
X154450739Y-61010498D01*
X154542175Y-60996017D01*
X154542180Y-60996014D01*
X154551456Y-60993001D01*
X154551923Y-60994440D01*
X154610050Y-60983524D01*
X154674791Y-61009799D01*
X154685359Y-61019224D01*
X155036013Y-61369878D01*
X155069498Y-61431201D01*
X155065288Y-61490058D01*
X155066416Y-61490283D01*
X155064631Y-61499256D01*
X155064514Y-61500893D01*
X155064092Y-61501964D01*
X155049500Y-61575323D01*
X155049500Y-61748499D01*
X155029815Y-61815538D01*
X154977011Y-61861293D01*
X154925500Y-61872499D01*
X154829418Y-61872499D01*
X154829402Y-61872500D01*
X148274497Y-61872500D01*
X148207458Y-61852815D01*
X148161703Y-61800011D01*
X148150497Y-61748500D01*
X148150497Y-61636867D01*
X148150497Y-61636865D01*
X148150497Y-61636862D01*
X148144257Y-61589455D01*
X148144254Y-61589449D01*
X148126981Y-61552407D01*
X148116488Y-61483329D01*
X148126979Y-61447597D01*
X148144258Y-61410545D01*
X148150499Y-61363139D01*
X148150499Y-61251500D01*
X148170184Y-61184461D01*
X148222988Y-61138706D01*
X148274499Y-61127500D01*
X148844694Y-61127500D01*
X148844696Y-61127500D01*
X148940707Y-61101774D01*
X149026787Y-61052075D01*
X149325116Y-60753745D01*
X149386434Y-60720263D01*
X149456126Y-60725247D01*
G37*
%TD.AperFunction*%
%TA.AperFunction,NonConductor*%
G36*
X145052398Y-59801979D02*
G01*
X145089454Y-59819259D01*
X145136860Y-59825500D01*
X145236862Y-59825499D01*
X145303900Y-59845183D01*
X145349656Y-59897986D01*
X145359600Y-59967145D01*
X145330576Y-60030701D01*
X145324543Y-60037180D01*
X143025543Y-62336182D01*
X142964220Y-62369667D01*
X142937862Y-62372501D01*
X139949499Y-62372501D01*
X139882460Y-62352816D01*
X139836705Y-62300012D01*
X139825499Y-62248501D01*
X139825499Y-62136867D01*
X139825499Y-62136862D01*
X139819259Y-62089455D01*
X139812291Y-62074512D01*
X139801982Y-62052404D01*
X139791490Y-61983326D01*
X139801981Y-61947598D01*
X139819260Y-61910543D01*
X139825501Y-61863137D01*
X139825500Y-61636860D01*
X139819260Y-61589453D01*
X139801983Y-61552403D01*
X139791490Y-61483326D01*
X139801982Y-61447593D01*
X139819257Y-61410548D01*
X139825498Y-61363142D01*
X139825497Y-61136865D01*
X139819257Y-61089458D01*
X139819254Y-61089452D01*
X139801981Y-61052410D01*
X139791488Y-60983332D01*
X139801979Y-60947601D01*
X139819259Y-60910546D01*
X139825500Y-60863140D01*
X139825499Y-60658726D01*
X139845183Y-60591687D01*
X139897987Y-60545932D01*
X139967145Y-60535988D01*
X140030701Y-60565013D01*
X140037180Y-60571045D01*
X140518210Y-61052075D01*
X140604290Y-61101774D01*
X140700301Y-61127500D01*
X140700303Y-61127500D01*
X142451697Y-61127500D01*
X142451699Y-61127500D01*
X142547710Y-61101774D01*
X142633790Y-61052075D01*
X143370046Y-60315819D01*
X143431369Y-60282334D01*
X143457727Y-60279500D01*
X143549699Y-60279500D01*
X143742897Y-60279500D01*
X143809936Y-60299185D01*
X143820650Y-60307819D01*
X143820837Y-60307577D01*
X143827282Y-60312522D01*
X143827284Y-60312525D01*
X143942280Y-60400765D01*
X144076196Y-60456234D01*
X144203185Y-60472952D01*
X144219904Y-60475154D01*
X144219905Y-60475154D01*
X144219906Y-60475154D01*
X144234882Y-60473182D01*
X144363614Y-60456234D01*
X144497530Y-60400765D01*
X144612526Y-60312525D01*
X144700766Y-60197529D01*
X144756235Y-60063613D01*
X144773832Y-59929949D01*
X144802097Y-59866057D01*
X144860421Y-59827585D01*
X144880575Y-59823201D01*
X144910542Y-59819257D01*
X144947589Y-59801980D01*
X145016666Y-59791488D01*
X145052398Y-59801979D01*
G37*
%TD.AperFunction*%
%TA.AperFunction,NonConductor*%
G36*
X146112206Y-60419761D02*
G01*
X146168139Y-60461633D01*
X146192556Y-60527097D01*
X146182767Y-60580162D01*
X146183394Y-60580345D01*
X146181594Y-60586519D01*
X146181259Y-60588338D01*
X146180740Y-60589451D01*
X146180738Y-60589455D01*
X146174498Y-60636860D01*
X146174498Y-60863132D01*
X146174499Y-60863138D01*
X146180739Y-60910545D01*
X146180739Y-60910546D01*
X146198016Y-60947596D01*
X146208507Y-61016674D01*
X146198016Y-61052403D01*
X146180740Y-61089452D01*
X146180739Y-61089454D01*
X146174499Y-61136859D01*
X146174499Y-61363132D01*
X146180740Y-61410546D01*
X146184869Y-61419399D01*
X146198016Y-61447593D01*
X146208508Y-61516670D01*
X146198017Y-61552401D01*
X146198015Y-61552407D01*
X146180739Y-61589454D01*
X146180738Y-61589458D01*
X146174498Y-61636859D01*
X146174498Y-61863131D01*
X146174499Y-61863136D01*
X146174499Y-61863138D01*
X146180739Y-61910545D01*
X146180740Y-61910547D01*
X146198017Y-61947598D01*
X146208508Y-62016676D01*
X146198017Y-62052406D01*
X146180741Y-62089454D01*
X146180740Y-62089458D01*
X146174500Y-62136859D01*
X146174500Y-62363131D01*
X146174501Y-62363138D01*
X146180741Y-62410545D01*
X146198018Y-62447596D01*
X146208509Y-62516673D01*
X146198018Y-62552402D01*
X146180742Y-62589451D01*
X146180740Y-62589458D01*
X146174500Y-62636859D01*
X146174500Y-62863132D01*
X146174501Y-62863138D01*
X146180741Y-62910545D01*
X146180742Y-62910547D01*
X146180742Y-62910548D01*
X146198018Y-62947596D01*
X146208510Y-63016674D01*
X146198019Y-63052405D01*
X146180743Y-63089453D01*
X146180742Y-63089457D01*
X146174502Y-63136858D01*
X146174502Y-63363130D01*
X146174503Y-63363137D01*
X146180743Y-63410544D01*
X146186525Y-63422943D01*
X146198019Y-63447592D01*
X146208510Y-63516670D01*
X146198019Y-63552398D01*
X146180742Y-63589450D01*
X146180740Y-63589455D01*
X146174500Y-63636860D01*
X146174500Y-63863132D01*
X146174501Y-63863138D01*
X146180741Y-63910545D01*
X146180742Y-63910547D01*
X146180742Y-63910549D01*
X146198017Y-63947594D01*
X146208509Y-64016672D01*
X146198018Y-64052402D01*
X146180740Y-64089455D01*
X146180739Y-64089457D01*
X146174499Y-64136862D01*
X146174499Y-64363134D01*
X146180740Y-64410548D01*
X146187329Y-64424678D01*
X146198017Y-64447597D01*
X146208509Y-64516674D01*
X146198017Y-64552406D01*
X146180745Y-64589445D01*
X146180742Y-64589455D01*
X146174502Y-64636856D01*
X146174502Y-64863129D01*
X146180743Y-64910542D01*
X146198019Y-64947590D01*
X146208511Y-65016667D01*
X146198019Y-65052399D01*
X146180743Y-65089447D01*
X146180740Y-65089457D01*
X146174500Y-65136858D01*
X146174500Y-65363131D01*
X146174501Y-65363137D01*
X146180741Y-65410544D01*
X146180742Y-65410546D01*
X146180744Y-65410553D01*
X146181261Y-65411662D01*
X146181471Y-65413049D01*
X146183397Y-65419656D01*
X146182513Y-65419913D01*
X146191748Y-65480740D01*
X146163223Y-65544522D01*
X146104743Y-65582757D01*
X146034876Y-65583306D01*
X145981196Y-65551740D01*
X144377380Y-63947925D01*
X144291300Y-63898226D01*
X144195289Y-63872500D01*
X144195288Y-63872500D01*
X139949499Y-63872500D01*
X139882460Y-63852815D01*
X139836705Y-63800011D01*
X139825499Y-63748500D01*
X139825499Y-63636867D01*
X139825499Y-63636862D01*
X139819259Y-63589455D01*
X139813475Y-63577052D01*
X139801982Y-63552404D01*
X139791490Y-63483326D01*
X139801980Y-63447599D01*
X139819259Y-63410545D01*
X139825500Y-63363139D01*
X139825500Y-63251501D01*
X139845185Y-63184462D01*
X139897989Y-63138707D01*
X139949500Y-63127501D01*
X143195286Y-63127501D01*
X143195288Y-63127501D01*
X143291299Y-63101775D01*
X143377379Y-63052076D01*
X145981193Y-60448260D01*
X146042514Y-60414777D01*
X146112206Y-60419761D01*
G37*
%TD.AperFunction*%
M02*
