M48
; DRILL file {KiCad 8.0.2} date 2024-11-04T12:24:55+0200
; FORMAT={-:-/ absolute / inch / decimal}
; #@! TF.CreationDate,2024-11-04T12:24:55+02:00
; #@! TF.GenerationSoftware,Kicad,Pcbnew,8.0.2
; #@! TF.FileFunction,Plated,1,4,PTH
FMAT,2
INCH
; #@! TA.AperFunction,Plated,PTH,ComponentDrill
T1C0.0079
; #@! TA.AperFunction,Plated,PTH,ViaDrill
T2C0.0118
; #@! TA.AperFunction,Plated,PTH,ComponentDrill
T3C0.0118
; #@! TA.AperFunction,Plated,PTH,ComponentDrill
T4C0.0256
; #@! TA.AperFunction,Plated,PTH,ComponentDrill
T5C0.0394
; #@! TA.AperFunction,Plated,PTH,ComponentDrill
T6C0.0689
; #@! TA.AperFunction,Plated,PTH,ComponentDrill
T7C0.0709
%
G90
G05
T1
X5.2416Y-1.9197
X5.2416Y-1.963
T2
X4.8819Y-2.4508
X4.9409Y-1.9803
X4.9409Y-3.0217
X4.9705Y-2.8248
X4.9705Y-2.8642
X4.9705Y-2.9035
X4.9902Y-2.8445
X4.9902Y-2.8839
X5.0Y-2.7067
X5.0098Y-2.8248
X5.0098Y-2.8642
X5.0098Y-2.9035
X5.0098Y-3.0413
X5.0295Y-2.8445
X5.0295Y-2.8839
X5.0394Y-2.0177
X5.0492Y-2.8248
X5.0492Y-2.8642
X5.0492Y-2.9035
X5.0492Y-3.0167
X5.0689Y-2.8445
X5.0689Y-2.8839
X5.0886Y-1.9882
X5.1063Y-2.1654
X5.1283Y-2.9236
X5.1378Y-2.9646
X5.1476Y-2.3799
X5.1575Y-2.9921
X5.1772Y-1.939
X5.1772Y-2.9528
X5.2362Y-2.1516
X5.2759Y-1.8882
X5.2972Y-2.1516
X5.3105Y-1.8862
X5.3395Y-2.5492
X5.3839Y-2.3425
X5.3937Y-2.2461
X5.3937Y-2.2854
X5.3976Y-2.311
X5.4035Y-2.6181
X5.4823Y-2.1358
X5.4921Y-2.2638
X5.5512Y-2.0965
X5.5519Y-2.2679
X5.5672Y-2.7148
X5.5807Y-2.367
X5.5864Y-2.179
X5.5979Y-2.7338
X5.6594Y-2.1063
X5.6779Y-2.3591
X5.7382Y-2.1654
X5.8661Y-2.6476
X5.876Y-1.9786
X5.9055Y-2.3819
X5.9724Y-2.4134
X6.0039Y-2.4134
X6.0236Y-2.3031
X6.0433Y-2.19
X6.0531Y-2.5787
X6.0709Y-2.315
X6.1024Y-1.9587
X6.189Y-1.9665
X6.2303Y-2.2933
X6.2303Y-2.5492
X6.2598Y-2.2933
X6.2598Y-2.5492
X6.2697Y-2.6575
X6.2894Y-2.2933
X6.2894Y-2.5492
X6.2992Y-2.6575
X6.3189Y-2.2933
X6.3189Y-2.5492
X6.3287Y-2.5787
X6.3287Y-2.6083
X6.3287Y-2.6378
X6.378Y-2.815
T3
X4.9193Y-2.3327
X4.9193Y-2.2815
X4.9705Y-2.2815
X4.9705Y-2.3327
X5.0217Y-2.2815
X5.0217Y-2.3327
X5.0728Y-2.3327
X5.0728Y-2.2815
T4
X6.1998Y-2.7354
X6.1998Y-2.7854
X6.2498Y-2.7354
X6.2498Y-2.7854
X6.2998Y-2.7354
X6.2998Y-2.7854
T5
X5.4714Y-1.9274
X5.4714Y-1.8289
X5.7469Y-1.8289
X5.7469Y-1.9274
T6
X4.9311Y-2.6181
X5.0984Y-2.6181
T7
X5.2657Y-3.1201
X5.4626Y-3.1201
X5.7067Y-3.1201
X5.9035Y-3.1201
M30
