M48
; DRILL file {KiCad 8.0.4} date 2024-12-20T14:54:36+0200
; FORMAT={-:-/ absolute / inch / decimal}
; #@! TF.CreationDate,2024-12-20T14:54:36+02:00
; #@! TF.GenerationSoftware,Kicad,Pcbnew,8.0.4
; #@! TF.FileFunction,Plated,1,4,PTH
FMAT,2
INCH
; #@! TA.AperFunction,Plated,PTH,ViaDrill
T1C0.0118
; #@! TA.AperFunction,Plated,PTH,ComponentDrill
T2C0.0118
; #@! TA.AperFunction,Plated,PTH,ComponentDrill
T3C0.0256
; #@! TA.AperFunction,Plated,PTH,ComponentDrill
T4C0.0315
; #@! TA.AperFunction,Plated,PTH,ComponentDrill
T5C0.0394
; #@! TA.AperFunction,Plated,PTH,ComponentDrill
T6C0.0689
; #@! TA.AperFunction,Plated,PTH,ComponentDrill
T7C0.0709
%
G90
G05
T1
X4.8819Y-1.8504
X4.8819Y-1.8898
X4.8819Y-1.9291
X4.8819Y-2.1654
X4.8819Y-2.2047
X4.8819Y-2.2441
X4.8819Y-2.2835
X4.8819Y-2.3228
X4.8819Y-2.3622
X4.8819Y-2.4016
X4.8819Y-2.4508
X4.8819Y-2.7067
X4.8819Y-2.7362
X4.8819Y-2.8346
X4.8819Y-2.874
X4.8819Y-2.9134
X4.8819Y-2.9528
X4.8819Y-2.9921
X4.8819Y-3.0315
X4.8819Y-3.0709
X4.8819Y-3.1102
X4.8898Y-1.7402
X4.8898Y-3.2205
X4.9094Y-2.7362
X4.9311Y-2.7067
X4.9409Y-1.9803
X4.9409Y-3.0217
X4.9606Y-2.7067
X4.9705Y-2.8248
X4.9705Y-2.8642
X4.9705Y-2.9035
X4.9902Y-2.8445
X4.9902Y-2.8839
X4.9998Y-3.1095
X5.0Y-1.7323
X5.0Y-1.8504
X5.0Y-3.2283
X5.0098Y-2.8248
X5.0098Y-2.8642
X5.0098Y-2.9035
X5.0098Y-3.0413
X5.0295Y-2.8445
X5.0295Y-2.8839
X5.0394Y-1.7323
X5.0394Y-3.2283
X5.0492Y-2.8248
X5.0492Y-2.8642
X5.0492Y-2.9035
X5.0492Y-3.0167
X5.0571Y-1.8681
X5.061Y-1.9547
X5.0689Y-2.8839
X5.0751Y-2.8513
X5.0787Y-1.7323
X5.0787Y-3.2283
X5.0984Y-3.0807
X5.1063Y-2.1654
X5.1181Y-1.7323
X5.1181Y-3.2283
X5.122Y-2.3642
X5.128Y-2.9232
X5.1315Y-3.0235
X5.1398Y-3.0728
X5.1413Y-2.9518
X5.1476Y-2.7657
X5.1516Y-2.0866
X5.1575Y-1.7323
X5.1575Y-3.2283
X5.1772Y-1.939
X5.1772Y-2.5787
X5.1772Y-2.6083
X5.1772Y-2.6378
X5.1772Y-2.6673
X5.1772Y-2.7362
X5.1772Y-2.7657
X5.1795Y-2.9669
X5.1969Y-1.7323
X5.1969Y-2.4508
X5.1969Y-2.4803
X5.1969Y-3.2283
X5.1988Y-2.3051
X5.2067Y-2.5787
X5.2067Y-2.6083
X5.2067Y-2.6378
X5.2067Y-2.6673
X5.2067Y-2.7362
X5.2067Y-2.7657
X5.2205Y-2.0059
X5.2264Y-2.4213
X5.2264Y-2.4508
X5.2264Y-2.4803
X5.2362Y-1.7323
X5.2362Y-2.1516
X5.2362Y-2.7461
X5.2362Y-2.7756
X5.2362Y-2.8051
X5.2362Y-3.2283
X5.2386Y-2.1051
X5.248Y-2.3858
X5.2558Y-2.4503
X5.2559Y-2.4803
X5.2736Y-3.2279
X5.2756Y-1.7323
X5.2759Y-1.8882
X5.2972Y-2.1516
X5.3042Y-3.0231
X5.315Y-1.7323
X5.315Y-3.2283
X5.3169Y-2.3248
X5.3228Y-2.4469
X5.3287Y-1.876
X5.3386Y-2.0315
X5.3543Y-1.7323
X5.3543Y-3.2283
X5.3642Y-2.1594
X5.3642Y-2.7227
X5.3893Y-2.3474
X5.3937Y-1.7323
X5.3937Y-2.2461
X5.3937Y-2.2854
X5.3937Y-3.2283
X5.3976Y-2.311
X5.3996Y-1.9311
X5.4035Y-1.8268
X5.4075Y-2.4961
X5.4094Y-2.4213
X5.4114Y-2.6811
X5.4331Y-1.7323
X5.4331Y-2.0236
X5.4331Y-3.2283
X5.4409Y-2.6201
X5.4409Y-2.6535
X5.4724Y-1.7323
X5.4724Y-3.2283
X5.4823Y-2.1358
X5.4921Y-2.2638
X5.4941Y-2.687
X5.5118Y-1.7323
X5.5118Y-3.2283
X5.5177Y-2.2657
X5.5197Y-2.5571
X5.5217Y-2.4252
X5.5236Y-2.5
X5.5374Y-1.9311
X5.5413Y-2.1063
X5.5433Y-1.8228
X5.5433Y-2.9232
X5.5453Y-2.689
X5.5512Y-1.7323
X5.5512Y-3.2283
X5.5517Y-2.2677
X5.5551Y-2.3661
X5.5672Y-2.7148
X5.5823Y-2.8898
X5.5898Y-2.7375
X5.5906Y-1.7323
X5.5906Y-3.2283
X5.5949Y-2.1912
X5.622Y-2.7362
X5.6299Y-1.7323
X5.6299Y-3.2283
X5.6339Y-2.9528
X5.6496Y-2.1063
X5.6496Y-2.7953
X5.6516Y-2.752
X5.6516Y-2.872
X5.6594Y-2.3957
X5.6693Y-1.7323
X5.6693Y-3.2283
X5.6795Y-2.3606
X5.6831Y-1.8228
X5.685Y-1.9311
X5.6988Y-2.5925
X5.7087Y-1.7323
X5.7087Y-3.2283
X5.7126Y-2.0571
X5.7362Y-2.4114
X5.7402Y-2.5492
X5.7465Y-2.1669
X5.748Y-1.7323
X5.748Y-3.2283
X5.7579Y-2.8169
X5.7638Y-2.9469
X5.7677Y-1.9843
X5.7776Y-2.7165
X5.7835Y-2.6555
X5.7874Y-1.7323
X5.7874Y-3.2283
X5.8043Y-2.3374
X5.8047Y-2.2579
X5.8189Y-2.8012
X5.8228Y-2.1535
X5.8232Y-2.1957
X5.8268Y-1.7323
X5.8268Y-3.2283
X5.8289Y-2.7713
X5.8465Y-2.4173
X5.8465Y-2.5886
X5.8632Y-2.3433
X5.8661Y-1.7323
X5.8661Y-3.2283
X5.8858Y-2.7815
X5.8878Y-2.9508
X5.8957Y-2.3819
X5.8976Y-2.4193
X5.9055Y-1.7323
X5.9055Y-3.2283
X5.9217Y-2.2579
X5.9291Y-2.3504
X5.9311Y-2.9055
X5.9449Y-1.7323
X5.9449Y-2.0571
X5.9449Y-2.1118
X5.9449Y-2.1654
X5.9449Y-2.2146
X5.9449Y-3.2283
X5.9646Y-2.5354
X5.9744Y-2.6476
X5.9764Y-2.4094
X5.9843Y-1.7323
X5.9843Y-3.2283
X6.0138Y-2.1673
X6.0157Y-2.2185
X6.0157Y-3.0177
X6.0209Y-2.1098
X6.0236Y-1.7323
X6.0236Y-3.2283
X6.0433Y-2.7894
X6.0472Y-1.9921
X6.0472Y-2.874
X6.0475Y-2.6116
X6.063Y-1.7323
X6.063Y-2.6634
X6.063Y-3.2283
X6.0728Y-2.311
X6.0742Y-2.5641
X6.0747Y-2.5956
X6.0807Y-2.4213
X6.1004Y-2.9488
X6.1024Y-1.7323
X6.1024Y-3.2283
X6.1102Y-1.937
X6.1181Y-1.8102
X6.1181Y-2.0
X6.1217Y-2.6622
X6.126Y-2.7795
X6.1319Y-2.2539
X6.1339Y-1.8819
X6.1358Y-2.561
X6.1398Y-2.6299
X6.1417Y-1.7323
X6.1417Y-3.2283
X6.1457Y-2.8839
X6.1575Y-1.7795
X6.1575Y-1.9843
X6.1752Y-2.75
X6.1811Y-1.7323
X6.1811Y-3.2283
X6.1831Y-2.9843
X6.189Y-1.8819
X6.1909Y-2.4902
X6.1969Y-1.8189
X6.2047Y-2.1496
X6.2205Y-1.7323
X6.2205Y-3.2283
X6.248Y-2.7382
X6.2598Y-1.7323
X6.2598Y-1.8504
X6.2598Y-3.1102
X6.2598Y-3.2283
X6.2697Y-2.4114
X6.2697Y-2.5492
X6.2795Y-2.0118
X6.2795Y-2.0866
X6.3169Y-2.7638
X6.3701Y-1.7402
X6.3701Y-3.2205
X6.378Y-1.8504
X6.378Y-1.8898
X6.378Y-1.9291
X6.378Y-1.9685
X6.378Y-2.0079
X6.378Y-2.0472
X6.378Y-2.0866
X6.378Y-2.126
X6.378Y-2.1654
X6.378Y-2.2047
X6.378Y-2.2441
X6.378Y-2.2835
X6.378Y-2.3228
X6.378Y-2.3622
X6.378Y-2.4016
X6.378Y-2.4409
X6.378Y-2.4803
X6.378Y-2.5197
X6.378Y-2.5591
X6.378Y-2.5984
X6.378Y-2.6378
X6.378Y-2.6772
X6.378Y-2.7165
X6.378Y-2.7559
X6.378Y-2.9134
X6.378Y-2.9528
X6.378Y-2.9921
X6.378Y-3.0315
X6.378Y-3.0709
X6.378Y-3.1102
X6.3781Y-2.874
T2
X4.9193Y-2.3327
X4.9193Y-2.2815
X4.9705Y-2.2815
X4.9705Y-2.3327
X5.0217Y-2.2815
X5.0217Y-2.3327
X5.0728Y-2.3327
X5.0728Y-2.2815
X5.2416Y-1.9197
X5.2416Y-1.963
T3
X6.1803Y-2.7945
X6.1803Y-2.8445
X6.2303Y-2.7945
X6.2303Y-2.8445
X6.2803Y-2.7945
X6.2803Y-2.8445
T4
X5.2941Y-2.8642
X5.4134Y-2.7953
T5
X5.4714Y-1.9274
X5.4714Y-1.8289
X5.7469Y-1.8289
X5.7469Y-1.9274
T6
X4.9311Y-2.6181
X5.0984Y-2.6181
T7
X5.2461Y-3.1201
X5.4429Y-3.1201
X5.7185Y-3.1201
X5.9154Y-3.1201
M30
