%TF.GenerationSoftware,KiCad,Pcbnew,8.0.4*%
%TF.CreationDate,2024-12-20T14:54:41+02:00*%
%TF.ProjectId,Little Boy - External,4c697474-6c65-4204-926f-79202d204578,rev?*%
%TF.SameCoordinates,Original*%
%TF.FileFunction,Copper,L4,Bot*%
%TF.FilePolarity,Positive*%
%FSLAX46Y46*%
G04 Gerber Fmt 4.6, Leading zero omitted, Abs format (unit mm)*
G04 Created by KiCad (PCBNEW 8.0.4) date 2024-12-20 14:54:41*
%MOMM*%
%LPD*%
G01*
G04 APERTURE LIST*
G04 Aperture macros list*
%AMRoundRect*
0 Rectangle with rounded corners*
0 $1 Rounding radius*
0 $2 $3 $4 $5 $6 $7 $8 $9 X,Y pos of 4 corners*
0 Add a 4 corners polygon primitive as box body*
4,1,4,$2,$3,$4,$5,$6,$7,$8,$9,$2,$3,0*
0 Add four circle primitives for the rounded corners*
1,1,$1+$1,$2,$3*
1,1,$1+$1,$4,$5*
1,1,$1+$1,$6,$7*
1,1,$1+$1,$8,$9*
0 Add four rect primitives between the rounded corners*
20,1,$1+$1,$2,$3,$4,$5,0*
20,1,$1+$1,$4,$5,$6,$7,0*
20,1,$1+$1,$6,$7,$8,$9,0*
20,1,$1+$1,$8,$9,$2,$3,0*%
%AMRotRect*
0 Rectangle, with rotation*
0 The origin of the aperture is its center*
0 $1 length*
0 $2 width*
0 $3 Rotation angle, in degrees counterclockwise*
0 Add horizontal line*
21,1,$1,$2,0,0,$3*%
G04 Aperture macros list end*
%TA.AperFunction,ComponentPad*%
%ADD10C,0.600000*%
%TD*%
%TA.AperFunction,SMDPad,CuDef*%
%ADD11R,4.900000X2.950000*%
%TD*%
%TA.AperFunction,ComponentPad*%
%ADD12RoundRect,0.250000X-1.125000X-1.125000X1.125000X-1.125000X1.125000X1.125000X-1.125000X1.125000X0*%
%TD*%
%TA.AperFunction,ComponentPad*%
%ADD13RotRect,1.600000X1.600000X30.000000*%
%TD*%
%TA.AperFunction,ComponentPad*%
%ADD14C,1.600000*%
%TD*%
%TA.AperFunction,HeatsinkPad*%
%ADD15C,0.500000*%
%TD*%
%TA.AperFunction,HeatsinkPad*%
%ADD16R,0.500000X1.600000*%
%TD*%
%TA.AperFunction,ComponentPad*%
%ADD17R,3.000000X3.000000*%
%TD*%
%TA.AperFunction,ComponentPad*%
%ADD18C,3.000000*%
%TD*%
%TA.AperFunction,ComponentPad*%
%ADD19R,1.000000X1.000000*%
%TD*%
%TA.AperFunction,ComponentPad*%
%ADD20O,1.000000X1.000000*%
%TD*%
%TA.AperFunction,ComponentPad*%
%ADD21RoundRect,0.250000X0.750000X-0.600000X0.750000X0.600000X-0.750000X0.600000X-0.750000X-0.600000X0*%
%TD*%
%TA.AperFunction,ComponentPad*%
%ADD22O,2.000000X1.700000*%
%TD*%
%TA.AperFunction,SMDPad,CuDef*%
%ADD23RotRect,1.500000X1.500000X135.000000*%
%TD*%
%TA.AperFunction,SMDPad,CuDef*%
%ADD24RotRect,1.500000X1.500000X45.000000*%
%TD*%
%TA.AperFunction,SMDPad,CuDef*%
%ADD25RoundRect,0.250000X0.159099X-0.512652X0.512652X-0.159099X-0.159099X0.512652X-0.512652X0.159099X0*%
%TD*%
%TA.AperFunction,ViaPad*%
%ADD26C,0.600000*%
%TD*%
%TA.AperFunction,Conductor*%
%ADD27C,0.254000*%
%TD*%
%TA.AperFunction,Conductor*%
%ADD28C,0.400000*%
%TD*%
%TA.AperFunction,Conductor*%
%ADD29C,0.350000*%
%TD*%
%TA.AperFunction,Conductor*%
%ADD30C,0.200000*%
%TD*%
G04 APERTURE END LIST*
D10*
%TO.P,U2,9,GND*%
%TO.N,GND*%
X128850001Y-59250001D03*
X126250000Y-59250000D03*
X127550000Y-59250000D03*
X124949998Y-59249999D03*
D11*
X126900000Y-58600000D03*
D10*
X128850002Y-57950001D03*
X126250000Y-57950000D03*
X127550000Y-57950000D03*
X124949999Y-57949999D03*
%TD*%
D12*
%TO.P,J11,1,Pin_1*%
%TO.N,Net-(J11-Pin_1)*%
X129500000Y-66500000D03*
%TD*%
D13*
%TO.P,C8,1*%
%TO.N,+12V*%
X134468912Y-72749999D03*
D14*
%TO.P,C8,2*%
%TO.N,GND*%
X137500000Y-71000000D03*
%TD*%
D15*
%TO.P,U4,7,PAD*%
%TO.N,GND*%
X133137501Y-49859176D03*
D16*
X133137501Y-49309177D03*
D15*
X133137501Y-48759178D03*
%TD*%
D17*
%TO.P,J9,1,Pin_1*%
%TO.N,GND*%
X150249999Y-79250002D03*
D18*
%TO.P,J9,2,Pin_2*%
%TO.N,+12V*%
X145249999Y-79250002D03*
%TD*%
D19*
%TO.P,SWD,1,Pin_1*%
%TO.N,+3V3*%
X156979999Y-72250000D03*
D20*
%TO.P,SWD,2,Pin_2*%
%TO.N,SWDIO*%
X156979999Y-70979999D03*
%TO.P,SWD,3,Pin_3*%
%TO.N,GND*%
X158250000Y-72250000D03*
%TO.P,SWD,4,Pin_4*%
%TO.N,SWCLK*%
X158249999Y-70980002D03*
%TO.P,SWD,5,Pin_5*%
%TO.N,GND*%
X159520000Y-72250001D03*
%TO.P,SWD,6,Pin_6*%
%TO.N,NRST*%
X159519998Y-70980000D03*
%TD*%
D17*
%TO.P,J8,1,Pin_1*%
%TO.N,GND*%
X133250000Y-79250000D03*
D18*
%TO.P,J8,2,Pin_2*%
%TO.N,+12V*%
X138250000Y-79250000D03*
%TD*%
D21*
%TO.P,J13,1,Pin_1*%
%TO.N,Net-(J13-Pin_1)*%
X138972499Y-48955001D03*
D22*
%TO.P,J13,2,Pin_2*%
%TO.N,Net-(J13-Pin_2)*%
X138972500Y-46455001D03*
%TD*%
D12*
%TO.P,J10,2*%
%TO.N,N/C*%
X125250000Y-66500000D03*
%TD*%
D21*
%TO.P,J14,1,Pin_1*%
%TO.N,Net-(J13-Pin_1)*%
X145972498Y-48955001D03*
D22*
%TO.P,J14,2,Pin_2*%
%TO.N,Net-(J13-Pin_2)*%
X145972497Y-46455001D03*
%TD*%
D23*
%TO.P,J6,1,Pin_1*%
%TO.N,DRV_IN2*%
X141185353Y-71985841D03*
%TD*%
D24*
%TO.P,J3,1,Pin_1*%
%TO.N,+3V3*%
X131250000Y-73250000D03*
%TD*%
D25*
%TO.P,C11,1*%
%TO.N,GND*%
X128906496Y-72421752D03*
%TO.P,C11,2*%
%TO.N,+12V*%
X130250000Y-71078248D03*
%TD*%
D23*
%TO.P,J7,1,Pin_1*%
%TO.N,DRV_IN1*%
X139530000Y-70040000D03*
%TD*%
D26*
%TO.N,GND*%
X151500000Y-64400000D03*
X139000000Y-44000000D03*
X156100000Y-73250000D03*
X129000000Y-82000000D03*
X146500000Y-50400000D03*
X162000000Y-52000000D03*
X143500000Y-71000000D03*
X140000000Y-82000000D03*
X162000000Y-48000000D03*
X124000000Y-47000000D03*
X136000000Y-44000000D03*
X125500000Y-50300000D03*
X142000000Y-44000000D03*
X131560000Y-75360000D03*
X124000000Y-76000000D03*
X161800000Y-44200000D03*
X142109258Y-55656780D03*
X132000000Y-44000000D03*
X128906496Y-72421752D03*
X141980921Y-69532367D03*
X152930000Y-53590000D03*
X128450000Y-47450000D03*
X153500000Y-70850000D03*
X162000000Y-64000000D03*
X147000000Y-44000000D03*
X152750000Y-55050000D03*
X155000000Y-44000000D03*
X148500000Y-65750000D03*
X136000000Y-82000000D03*
X162004999Y-73000000D03*
X126250000Y-73750000D03*
X133060000Y-53470000D03*
X155200000Y-49200000D03*
X162000000Y-74000000D03*
X157400000Y-46200000D03*
X149000000Y-44000000D03*
X145000000Y-44000000D03*
X127000000Y-82000000D03*
X124000000Y-56000000D03*
X139500000Y-57500000D03*
X159000000Y-82000000D03*
X155400000Y-50800000D03*
X160450000Y-70200000D03*
X143550000Y-69900000D03*
X148500000Y-61400000D03*
X130250000Y-74250000D03*
X141000000Y-44000000D03*
X154950000Y-74900000D03*
X154000000Y-82000000D03*
X144000000Y-82000000D03*
X149800000Y-61450000D03*
X138200000Y-67400000D03*
X146750000Y-69000000D03*
X162000000Y-76000000D03*
X145100000Y-52250000D03*
X152800000Y-56350000D03*
X154000000Y-44000000D03*
X162000000Y-67000000D03*
X151000000Y-82000000D03*
X153607712Y-66333822D03*
X135600000Y-51600000D03*
X152000000Y-44000000D03*
X135350000Y-47650000D03*
X157200000Y-47800000D03*
X144400000Y-49050000D03*
X128550000Y-49650000D03*
X128000000Y-82000000D03*
X130000000Y-82000000D03*
X138000000Y-44000000D03*
X129000000Y-44000000D03*
X137150000Y-49050000D03*
X124000000Y-58000000D03*
X134726644Y-76786644D03*
X158000000Y-44000000D03*
X124000000Y-49000000D03*
X150650000Y-73800000D03*
X162000000Y-56000000D03*
X132000000Y-82000000D03*
X159500000Y-53000000D03*
X130340000Y-76796000D03*
X159000000Y-79000000D03*
X147000000Y-82000000D03*
X132600000Y-50950000D03*
X136250000Y-54850000D03*
X149500000Y-70650000D03*
X154450000Y-61500000D03*
X155600000Y-70600000D03*
X128250000Y-73750000D03*
X148925449Y-59520000D03*
X144750000Y-65850000D03*
X140200000Y-64950000D03*
X146000000Y-44000000D03*
X139250000Y-54250000D03*
X130850000Y-53000000D03*
X130100000Y-60050000D03*
X162000000Y-61000000D03*
X147910000Y-55770000D03*
X127250000Y-72750000D03*
X159000000Y-47000000D03*
X162000000Y-51000000D03*
X159250000Y-64750000D03*
X156000000Y-44000000D03*
X135000000Y-82000000D03*
X162000000Y-78000000D03*
X162000000Y-62000000D03*
X156850000Y-69850000D03*
X162000000Y-55000000D03*
X126750000Y-73250000D03*
X127250000Y-73750000D03*
X143550000Y-72950000D03*
X140000000Y-44000000D03*
X132050000Y-58550000D03*
X147430000Y-59370000D03*
X155399999Y-45980001D03*
X148000000Y-44000000D03*
X145800000Y-64750000D03*
X152800000Y-76650000D03*
X157000000Y-82000000D03*
X137250000Y-46400000D03*
X137100000Y-58700000D03*
X137350000Y-63400000D03*
X127750000Y-72250000D03*
X145960000Y-55040000D03*
X143000000Y-44000000D03*
X161800000Y-81800000D03*
X151000000Y-53640000D03*
X127000000Y-47000000D03*
X137000000Y-57050000D03*
X129500000Y-78250000D03*
X143500000Y-53500000D03*
X146900000Y-67450000D03*
X124000000Y-59000000D03*
X139550000Y-68250000D03*
X124000000Y-57000000D03*
X138000000Y-82000000D03*
X126250000Y-72750000D03*
X148000000Y-82000000D03*
X141000000Y-82000000D03*
X146000000Y-82000000D03*
X126750000Y-72250000D03*
X157050000Y-75800000D03*
X127000000Y-44000000D03*
X154000000Y-67650000D03*
X162000000Y-70000000D03*
X162000000Y-59000000D03*
X134000000Y-44000000D03*
X149000000Y-82000000D03*
X146250000Y-71550000D03*
X162000000Y-57000000D03*
X131000000Y-82000000D03*
X162000000Y-77000000D03*
X141100000Y-60100000D03*
X144000000Y-44000000D03*
X151800000Y-61200000D03*
X130550000Y-78050000D03*
X137000000Y-44000000D03*
X158700000Y-69550000D03*
X135000000Y-44000000D03*
X124000000Y-60000000D03*
X137000000Y-58050000D03*
X157600000Y-54600000D03*
X128250000Y-72750000D03*
X162000000Y-79000000D03*
X162000000Y-75000000D03*
X133000000Y-82000000D03*
X124000000Y-62250000D03*
X137400000Y-61500000D03*
X159250000Y-61250000D03*
X127250000Y-71750000D03*
X144350000Y-46300000D03*
X149550000Y-74950000D03*
X155750000Y-57250000D03*
X143750000Y-60850000D03*
X145000000Y-82000000D03*
X124200000Y-81800000D03*
X141790000Y-73400000D03*
X140300000Y-63500000D03*
X162000000Y-47000000D03*
X151750000Y-67250000D03*
X137450000Y-68100000D03*
X162000000Y-53000000D03*
X151000000Y-55000000D03*
X159500000Y-51100000D03*
X133000000Y-54650000D03*
X124000000Y-73000000D03*
X156400000Y-45200000D03*
X124000000Y-77000000D03*
X143000000Y-82000000D03*
X155000000Y-82000000D03*
X138000000Y-51400000D03*
X140800000Y-46300000D03*
X126994049Y-78981861D03*
X124000000Y-48000000D03*
X156000000Y-82000000D03*
X153600000Y-73000000D03*
X150410000Y-57350000D03*
X162000000Y-60000000D03*
X125500000Y-76750000D03*
X128000000Y-44000000D03*
X142000000Y-82000000D03*
X124000000Y-75000000D03*
X133949692Y-81989056D03*
X124000000Y-55000000D03*
X140150000Y-57550000D03*
X162000000Y-49000000D03*
X151000000Y-56250000D03*
X158000000Y-82000000D03*
X155950000Y-66800000D03*
X162000000Y-58000000D03*
X155850000Y-65050000D03*
X152000000Y-82000000D03*
X162000000Y-69000000D03*
X147440000Y-57350000D03*
X138200000Y-66550000D03*
X135050000Y-59050000D03*
X126250000Y-71750000D03*
X162000000Y-68000000D03*
X124000000Y-78000000D03*
X124000000Y-74000000D03*
X154250000Y-58700000D03*
X145700000Y-61250000D03*
X159000000Y-44000000D03*
X143100000Y-75000000D03*
X124000000Y-61000000D03*
X151000000Y-52250000D03*
X156400000Y-50400000D03*
X157250000Y-63250000D03*
X162000000Y-63000000D03*
X124200000Y-44200000D03*
X153000000Y-82000000D03*
X124000000Y-79000000D03*
X140650000Y-49050000D03*
X140250000Y-61600000D03*
X151000000Y-44000000D03*
X155800000Y-47800000D03*
X157000000Y-44000000D03*
X162000000Y-54000000D03*
X140800000Y-74250000D03*
X133000000Y-44000000D03*
X127750000Y-73250000D03*
X162000000Y-50000000D03*
X155490000Y-67620000D03*
X124000000Y-72000000D03*
X128250000Y-71750000D03*
X146400000Y-74850000D03*
X133300000Y-60600000D03*
X129700000Y-55000000D03*
X162000000Y-66000000D03*
X147800000Y-71150000D03*
X128750000Y-73250000D03*
X131500000Y-49250000D03*
X139000000Y-82000000D03*
X150000000Y-82000000D03*
X150600000Y-59700000D03*
X150000000Y-44000000D03*
X140750000Y-53500000D03*
X153600000Y-50600000D03*
X153000000Y-44000000D03*
X134550000Y-54650000D03*
X137000000Y-82000000D03*
X131000000Y-44000000D03*
X130000000Y-44000000D03*
X162000000Y-65000000D03*
X154283911Y-65127865D03*
%TO.N,+3V3*%
X149750000Y-60500000D03*
X136250000Y-69156714D03*
X136887000Y-59623001D03*
X130588081Y-74975056D03*
X144259953Y-59959952D03*
%TO.N,NRST*%
X141013288Y-57600000D03*
X154297000Y-65927761D03*
%TO.N,+12V*%
X132250000Y-70250000D03*
X133500000Y-63000000D03*
X132750000Y-62250000D03*
X133000000Y-70500000D03*
X132750000Y-63000000D03*
X133000000Y-71250000D03*
X131500000Y-69500000D03*
X130750000Y-70250000D03*
X132000000Y-62250000D03*
X131500000Y-70250000D03*
X132000000Y-63000000D03*
X133498327Y-62237619D03*
X132250000Y-69500000D03*
X132750000Y-61500000D03*
X133000000Y-69750000D03*
%TO.N,Net-(J10-Pin_1)*%
X124000000Y-69500000D03*
X124700000Y-69500000D03*
X125250000Y-68750000D03*
X126000000Y-68750000D03*
X124000000Y-68750000D03*
%TO.N,+5V*%
X134007034Y-47959178D03*
X147900000Y-54700000D03*
%TO.N,DRV_IN2*%
X127250000Y-77250000D03*
X142800000Y-69500000D03*
%TO.N,ISEN*%
X135200000Y-62150000D03*
%TO.N,DRV_IN1*%
X141406642Y-68956645D03*
X128250000Y-76623000D03*
%TO.N,Net-(J11-Pin_1)*%
X132250000Y-67750000D03*
X132250000Y-67000000D03*
X131500000Y-67000000D03*
X132250000Y-66250000D03*
X131500000Y-66250000D03*
X131500000Y-65500000D03*
X132250000Y-65500000D03*
X131500000Y-67750000D03*
%TO.N,FLASH_MISO*%
X148052983Y-70391051D03*
X140850001Y-68299388D03*
%TD*%
D27*
%TO.N,+3V3*%
X130588081Y-74975056D02*
X130588081Y-74818633D01*
D28*
X154723000Y-67340288D02*
X154723000Y-70973000D01*
D27*
X134076535Y-71330179D02*
X136250000Y-69156714D01*
X133049092Y-72321731D02*
X134040644Y-71330179D01*
D28*
X154997000Y-67066288D02*
X154723000Y-67340288D01*
D27*
X156000000Y-72250000D02*
X156979999Y-72250000D01*
X130588081Y-74818633D02*
X133049092Y-72357622D01*
D28*
X149750000Y-60500000D02*
X149839950Y-60500000D01*
D27*
X136887000Y-59623001D02*
X136250000Y-60260001D01*
X134040644Y-71330179D02*
X134076535Y-71330179D01*
D29*
X144800001Y-60500000D02*
X144259953Y-59959952D01*
X149750000Y-60500000D02*
X144800001Y-60500000D01*
D28*
X149839950Y-60500000D02*
X151266950Y-61927000D01*
D27*
X133049092Y-72357622D02*
X133049092Y-72321731D01*
D28*
X154723000Y-70973000D02*
X156000000Y-72250000D01*
X152677000Y-61927000D02*
X154997000Y-64247000D01*
X154997000Y-64247000D02*
X154997000Y-67066288D01*
D27*
X136250000Y-60260001D02*
X136250000Y-69156714D01*
D28*
X151266950Y-61927000D02*
X152677000Y-61927000D01*
D27*
%TO.N,NRST*%
X144100000Y-62100000D02*
X141013288Y-59013288D01*
X141013288Y-59013288D02*
X141013288Y-57600000D01*
X154297000Y-65927761D02*
X154177761Y-65927761D01*
X154177761Y-65927761D02*
X150350000Y-62100000D01*
X150350000Y-62100000D02*
X144100000Y-62100000D01*
%TO.N,+5V*%
X136500000Y-50500000D02*
X134007034Y-48007034D01*
X147900000Y-54700000D02*
X147900000Y-52900000D01*
X145500000Y-50500000D02*
X136500000Y-50500000D01*
X147900000Y-52900000D02*
X145500000Y-50500000D01*
X134007034Y-48007034D02*
X134007034Y-47959178D01*
%TO.N,DRV_IN2*%
X127423000Y-77423000D02*
X127250000Y-77250000D01*
X138400000Y-74000000D02*
X134977000Y-77423000D01*
X134977000Y-77423000D02*
X127423000Y-77423000D01*
X138400000Y-73450000D02*
X138400000Y-74000000D01*
X142800000Y-69500000D02*
X142800000Y-69600000D01*
X142800000Y-69600000D02*
X138950000Y-73450000D01*
X138950000Y-73450000D02*
X138400000Y-73450000D01*
%TO.N,DRV_IN1*%
X130600712Y-76170000D02*
X134570000Y-76170000D01*
X141406642Y-69219934D02*
X141406642Y-68956645D01*
X130599712Y-76169000D02*
X130600712Y-76170000D01*
X141353921Y-69386079D02*
X141353921Y-69272655D01*
X128250000Y-76623000D02*
X128704000Y-76169000D01*
X134570000Y-76170000D02*
X141353921Y-69386079D01*
X141353921Y-69272655D02*
X141406642Y-69219934D01*
X128704000Y-76169000D02*
X130599712Y-76169000D01*
D30*
%TO.N,FLASH_MISO*%
X140907258Y-68356645D02*
X140850001Y-68299388D01*
X143856645Y-68356645D02*
X140907258Y-68356645D01*
X145891051Y-70391051D02*
X143856645Y-68356645D01*
X148052983Y-70391051D02*
X145891051Y-70391051D01*
%TD*%
%TA.AperFunction,Conductor*%
%TO.N,GND*%
G36*
X137941834Y-73434545D02*
G01*
X137997767Y-73476417D01*
X138022184Y-73541881D01*
X138022500Y-73550727D01*
X138022500Y-73792273D01*
X138002815Y-73859312D01*
X137986181Y-73879954D01*
X134856954Y-77009181D01*
X134795631Y-77042666D01*
X134769273Y-77045500D01*
X128857826Y-77045500D01*
X128790787Y-77025815D01*
X128745032Y-76973011D01*
X128735088Y-76903853D01*
X128756877Y-76854049D01*
X128754770Y-76852658D01*
X128758125Y-76847575D01*
X128799486Y-76769139D01*
X128881998Y-76612662D01*
X128930680Y-76562543D01*
X128991683Y-76546500D01*
X130535291Y-76546500D01*
X130550547Y-76547500D01*
X130551013Y-76547500D01*
X134619697Y-76547500D01*
X134619699Y-76547500D01*
X134715710Y-76521774D01*
X134801790Y-76472075D01*
X137810819Y-73463046D01*
X137872142Y-73429561D01*
X137941834Y-73434545D01*
G37*
%TD.AperFunction*%
%TA.AperFunction,Conductor*%
G36*
X152506074Y-62397185D02*
G01*
X152526716Y-62413819D01*
X154510181Y-64397284D01*
X154543666Y-64458607D01*
X154546500Y-64484965D01*
X154546500Y-65257623D01*
X154526815Y-65324662D01*
X154474011Y-65370417D01*
X154404853Y-65380361D01*
X154392927Y-65378045D01*
X154387648Y-65376748D01*
X154387642Y-65376747D01*
X154383955Y-65376150D01*
X154383958Y-65376150D01*
X154367617Y-65374836D01*
X154343113Y-65372865D01*
X154343107Y-65372865D01*
X154307816Y-65372865D01*
X154302416Y-65372511D01*
X154291584Y-65372511D01*
X154286184Y-65372865D01*
X154266514Y-65372865D01*
X154231579Y-65367842D01*
X154198190Y-65358038D01*
X154166090Y-65343379D01*
X154116899Y-65311765D01*
X154101915Y-65300443D01*
X154081991Y-65282865D01*
X154076844Y-65279426D01*
X154076842Y-65279424D01*
X154068856Y-65275516D01*
X154035688Y-65251822D01*
X152722545Y-63938679D01*
X151373045Y-62589180D01*
X151339561Y-62527858D01*
X151344545Y-62458166D01*
X151386417Y-62402233D01*
X151451881Y-62377816D01*
X151460727Y-62377500D01*
X152439035Y-62377500D01*
X152506074Y-62397185D01*
G37*
%TD.AperFunction*%
%TA.AperFunction,Conductor*%
G36*
X161004418Y-43500816D02*
G01*
X161204561Y-43515130D01*
X161222063Y-43517647D01*
X161413797Y-43559355D01*
X161430755Y-43564334D01*
X161614609Y-43632909D01*
X161630701Y-43640259D01*
X161802904Y-43734288D01*
X161817784Y-43743849D01*
X161974867Y-43861441D01*
X161988237Y-43873027D01*
X162126972Y-44011762D01*
X162138558Y-44025132D01*
X162256146Y-44182210D01*
X162265711Y-44197095D01*
X162359740Y-44369298D01*
X162367090Y-44385390D01*
X162435662Y-44569236D01*
X162440646Y-44586212D01*
X162482351Y-44777931D01*
X162484869Y-44795442D01*
X162499184Y-44995580D01*
X162499500Y-45004427D01*
X162499500Y-80995572D01*
X162499184Y-81004419D01*
X162484869Y-81204557D01*
X162482351Y-81222068D01*
X162440646Y-81413787D01*
X162435662Y-81430763D01*
X162367090Y-81614609D01*
X162359740Y-81630701D01*
X162265711Y-81802904D01*
X162256146Y-81817789D01*
X162138558Y-81974867D01*
X162126972Y-81988237D01*
X161988237Y-82126972D01*
X161974867Y-82138558D01*
X161817789Y-82256146D01*
X161802904Y-82265711D01*
X161630701Y-82359740D01*
X161614609Y-82367090D01*
X161430763Y-82435662D01*
X161413787Y-82440646D01*
X161222068Y-82482351D01*
X161204557Y-82484869D01*
X161023779Y-82497799D01*
X161004417Y-82499184D01*
X160995572Y-82499500D01*
X125004428Y-82499500D01*
X124995582Y-82499184D01*
X124973622Y-82497613D01*
X124795442Y-82484869D01*
X124777931Y-82482351D01*
X124586212Y-82440646D01*
X124569236Y-82435662D01*
X124385390Y-82367090D01*
X124369298Y-82359740D01*
X124197095Y-82265711D01*
X124182210Y-82256146D01*
X124025132Y-82138558D01*
X124011762Y-82126972D01*
X123873027Y-81988237D01*
X123861441Y-81974867D01*
X123820007Y-81919518D01*
X123743849Y-81817784D01*
X123734288Y-81802904D01*
X123640259Y-81630701D01*
X123632909Y-81614609D01*
X123611552Y-81557349D01*
X123564334Y-81430755D01*
X123559355Y-81413797D01*
X123517647Y-81222063D01*
X123515130Y-81204556D01*
X123500816Y-81004418D01*
X123500500Y-80995572D01*
X123500500Y-80393713D01*
X124149500Y-80393713D01*
X124149500Y-80606287D01*
X124182754Y-80816243D01*
X124243896Y-81004419D01*
X124248444Y-81018414D01*
X124344951Y-81207820D01*
X124469890Y-81379786D01*
X124620213Y-81530109D01*
X124792179Y-81655048D01*
X124792181Y-81655049D01*
X124792184Y-81655051D01*
X124981588Y-81751557D01*
X125183757Y-81817246D01*
X125393713Y-81850500D01*
X125393714Y-81850500D01*
X125606286Y-81850500D01*
X125606287Y-81850500D01*
X125816243Y-81817246D01*
X126018412Y-81751557D01*
X126207816Y-81655051D01*
X126263480Y-81614609D01*
X126379786Y-81530109D01*
X126379788Y-81530106D01*
X126379792Y-81530104D01*
X126530104Y-81379792D01*
X126530106Y-81379788D01*
X126530109Y-81379786D01*
X126655048Y-81207820D01*
X126655047Y-81207820D01*
X126655051Y-81207816D01*
X126751557Y-81018412D01*
X126817246Y-80816243D01*
X126850500Y-80606287D01*
X126850500Y-80393713D01*
X126817246Y-80183757D01*
X126751557Y-79981588D01*
X126655051Y-79792184D01*
X126655049Y-79792181D01*
X126655048Y-79792179D01*
X126530109Y-79620213D01*
X126379786Y-79469890D01*
X126207820Y-79344951D01*
X126018414Y-79248444D01*
X126018413Y-79248443D01*
X126018412Y-79248443D01*
X125816243Y-79182754D01*
X125816241Y-79182753D01*
X125816240Y-79182753D01*
X125654957Y-79157208D01*
X125606287Y-79149500D01*
X125393713Y-79149500D01*
X125345042Y-79157208D01*
X125183760Y-79182753D01*
X124981585Y-79248444D01*
X124792179Y-79344951D01*
X124620213Y-79469890D01*
X124469890Y-79620213D01*
X124344951Y-79792179D01*
X124248444Y-79981585D01*
X124182753Y-80183760D01*
X124149500Y-80393713D01*
X123500500Y-80393713D01*
X123500500Y-77250000D01*
X126694750Y-77250000D01*
X126708107Y-77351458D01*
X126713670Y-77393708D01*
X126713671Y-77393712D01*
X126769137Y-77527622D01*
X126769138Y-77527624D01*
X126769139Y-77527625D01*
X126857379Y-77642621D01*
X126972375Y-77730861D01*
X127106291Y-77786330D01*
X127250000Y-77805250D01*
X127250008Y-77805249D01*
X127253004Y-77805249D01*
X127258106Y-77805500D01*
X127261661Y-77805500D01*
X127776585Y-77805500D01*
X127789741Y-77802882D01*
X127813934Y-77800500D01*
X135026697Y-77800500D01*
X135026699Y-77800500D01*
X135122710Y-77774774D01*
X135208790Y-77725075D01*
X135407464Y-77526400D01*
X135468785Y-77492917D01*
X135538476Y-77497901D01*
X135594410Y-77539772D01*
X135618827Y-77605237D01*
X135614532Y-77647583D01*
X135604627Y-77682883D01*
X135604624Y-77682893D01*
X135595144Y-77754982D01*
X135595144Y-77754989D01*
X135595144Y-77754992D01*
X135595521Y-77786330D01*
X135638165Y-81326568D01*
X135638165Y-81326582D01*
X135641198Y-81362876D01*
X135646635Y-81397723D01*
X135648200Y-81406699D01*
X135648201Y-81406702D01*
X135685798Y-81499024D01*
X135720192Y-81551168D01*
X135724270Y-81557351D01*
X135752638Y-81592987D01*
X135834186Y-81650330D01*
X135898082Y-81678597D01*
X135968100Y-81698254D01*
X136038512Y-81707524D01*
X136060820Y-81710461D01*
X136092084Y-81718837D01*
X136097467Y-81721066D01*
X136133691Y-81736070D01*
X136161722Y-81752253D01*
X136203049Y-81783965D01*
X136213952Y-81794242D01*
X136214343Y-81793841D01*
X136218173Y-81797558D01*
X136218184Y-81797571D01*
X136286171Y-81853030D01*
X136347091Y-81887243D01*
X136388632Y-81905917D01*
X136487391Y-81919518D01*
X136557137Y-81915364D01*
X136602184Y-81908614D01*
X136692618Y-81866662D01*
X136749046Y-81825459D01*
X136766396Y-81808514D01*
X136777530Y-81798866D01*
X136804179Y-81778418D01*
X136804182Y-81778417D01*
X136813075Y-81771592D01*
X136820416Y-81765960D01*
X136820417Y-81765960D01*
X136838281Y-81752251D01*
X136866307Y-81736069D01*
X136907911Y-81718837D01*
X136939168Y-81710462D01*
X136983813Y-81704585D01*
X137016183Y-81704585D01*
X137038503Y-81707524D01*
X137038504Y-81707524D01*
X137060833Y-81710463D01*
X137092092Y-81718839D01*
X137133688Y-81736069D01*
X137161720Y-81752252D01*
X137203050Y-81783965D01*
X137213952Y-81794242D01*
X137214343Y-81793841D01*
X137218173Y-81797558D01*
X137218184Y-81797571D01*
X137286171Y-81853030D01*
X137347091Y-81887243D01*
X137388632Y-81905917D01*
X137487391Y-81919518D01*
X137557137Y-81915364D01*
X137602184Y-81908614D01*
X137692618Y-81866662D01*
X137749046Y-81825459D01*
X137766396Y-81808514D01*
X137777530Y-81798866D01*
X137804179Y-81778418D01*
X137804182Y-81778417D01*
X137813075Y-81771592D01*
X137820416Y-81765960D01*
X137820417Y-81765960D01*
X137838281Y-81752251D01*
X137866307Y-81736069D01*
X137907911Y-81718837D01*
X137939168Y-81710462D01*
X137983813Y-81704585D01*
X138016183Y-81704585D01*
X138038503Y-81707524D01*
X138038504Y-81707524D01*
X138060833Y-81710463D01*
X138092092Y-81718839D01*
X138133688Y-81736069D01*
X138161720Y-81752252D01*
X138203050Y-81783965D01*
X138213952Y-81794242D01*
X138214343Y-81793841D01*
X138218173Y-81797558D01*
X138218184Y-81797571D01*
X138286171Y-81853030D01*
X138347091Y-81887243D01*
X138388632Y-81905917D01*
X138487391Y-81919518D01*
X138557137Y-81915364D01*
X138602184Y-81908614D01*
X138692618Y-81866662D01*
X138749046Y-81825459D01*
X138766396Y-81808514D01*
X138777530Y-81798866D01*
X138804179Y-81778418D01*
X138804182Y-81778417D01*
X138813075Y-81771592D01*
X138820416Y-81765960D01*
X138820417Y-81765960D01*
X138838281Y-81752251D01*
X138866307Y-81736069D01*
X138907911Y-81718837D01*
X138939168Y-81710462D01*
X138983813Y-81704585D01*
X139016183Y-81704585D01*
X139038503Y-81707524D01*
X139038504Y-81707524D01*
X139060833Y-81710463D01*
X139092092Y-81718839D01*
X139133688Y-81736069D01*
X139161720Y-81752252D01*
X139203050Y-81783965D01*
X139213952Y-81794242D01*
X139214343Y-81793841D01*
X139218173Y-81797558D01*
X139218184Y-81797571D01*
X139286171Y-81853030D01*
X139347091Y-81887243D01*
X139388632Y-81905917D01*
X139487391Y-81919518D01*
X139557137Y-81915364D01*
X139602184Y-81908614D01*
X139692618Y-81866662D01*
X139749046Y-81825459D01*
X139766396Y-81808514D01*
X139777530Y-81798866D01*
X139804179Y-81778418D01*
X139804182Y-81778417D01*
X139813075Y-81771592D01*
X139820416Y-81765960D01*
X139820417Y-81765960D01*
X139838281Y-81752251D01*
X139866307Y-81736069D01*
X139907911Y-81718837D01*
X139939168Y-81710462D01*
X139983813Y-81704585D01*
X140016183Y-81704585D01*
X140038503Y-81707524D01*
X140038504Y-81707524D01*
X140060833Y-81710463D01*
X140092092Y-81718839D01*
X140133688Y-81736069D01*
X140161720Y-81752252D01*
X140203050Y-81783965D01*
X140213952Y-81794242D01*
X140214343Y-81793841D01*
X140218173Y-81797558D01*
X140218184Y-81797571D01*
X140286171Y-81853030D01*
X140347091Y-81887243D01*
X140388632Y-81905917D01*
X140487391Y-81919518D01*
X140557137Y-81915364D01*
X140602184Y-81908614D01*
X140692618Y-81866662D01*
X140749046Y-81825459D01*
X140766396Y-81808514D01*
X140777530Y-81798866D01*
X140804179Y-81778418D01*
X140804182Y-81778417D01*
X140813075Y-81771592D01*
X140820416Y-81765960D01*
X140820417Y-81765960D01*
X140838281Y-81752251D01*
X140866307Y-81736069D01*
X140907911Y-81718837D01*
X140939168Y-81710462D01*
X140983813Y-81704585D01*
X141016183Y-81704585D01*
X141038503Y-81707524D01*
X141038504Y-81707524D01*
X141060833Y-81710463D01*
X141092092Y-81718839D01*
X141133688Y-81736069D01*
X141161720Y-81752252D01*
X141203050Y-81783965D01*
X141213952Y-81794242D01*
X141214343Y-81793841D01*
X141218173Y-81797558D01*
X141218184Y-81797571D01*
X141286171Y-81853030D01*
X141347091Y-81887243D01*
X141388632Y-81905917D01*
X141487391Y-81919518D01*
X141557137Y-81915364D01*
X141602184Y-81908614D01*
X141692618Y-81866662D01*
X141749046Y-81825459D01*
X141766396Y-81808514D01*
X141777530Y-81798866D01*
X141804179Y-81778418D01*
X141804182Y-81778417D01*
X141813075Y-81771592D01*
X141820416Y-81765960D01*
X141820417Y-81765960D01*
X141838281Y-81752251D01*
X141866307Y-81736069D01*
X141907911Y-81718837D01*
X141939168Y-81710462D01*
X141983813Y-81704585D01*
X142016183Y-81704585D01*
X142038503Y-81707524D01*
X142038504Y-81707524D01*
X142060833Y-81710463D01*
X142092092Y-81718839D01*
X142133688Y-81736069D01*
X142161720Y-81752252D01*
X142203050Y-81783965D01*
X142213952Y-81794242D01*
X142214343Y-81793841D01*
X142218173Y-81797558D01*
X142218184Y-81797571D01*
X142286171Y-81853030D01*
X142347091Y-81887243D01*
X142388632Y-81905917D01*
X142487391Y-81919518D01*
X142557137Y-81915364D01*
X142602184Y-81908614D01*
X142692618Y-81866662D01*
X142749046Y-81825459D01*
X142766396Y-81808514D01*
X142777530Y-81798866D01*
X142804179Y-81778418D01*
X142804182Y-81778417D01*
X142813075Y-81771592D01*
X142820416Y-81765960D01*
X142820417Y-81765960D01*
X142838281Y-81752251D01*
X142866307Y-81736069D01*
X142907911Y-81718837D01*
X142939168Y-81710462D01*
X142983813Y-81704585D01*
X143016183Y-81704585D01*
X143038503Y-81707524D01*
X143038504Y-81707524D01*
X143060833Y-81710463D01*
X143092092Y-81718839D01*
X143133688Y-81736069D01*
X143161720Y-81752252D01*
X143203050Y-81783965D01*
X143213952Y-81794242D01*
X143214343Y-81793841D01*
X143218173Y-81797558D01*
X143218184Y-81797571D01*
X143286171Y-81853030D01*
X143347091Y-81887243D01*
X143388632Y-81905917D01*
X143487391Y-81919518D01*
X143557137Y-81915364D01*
X143602184Y-81908614D01*
X143692618Y-81866662D01*
X143749046Y-81825459D01*
X143766396Y-81808514D01*
X143777530Y-81798866D01*
X143804179Y-81778418D01*
X143804182Y-81778417D01*
X143813075Y-81771592D01*
X143820416Y-81765960D01*
X143820417Y-81765960D01*
X143838281Y-81752251D01*
X143866307Y-81736069D01*
X143907911Y-81718837D01*
X143939168Y-81710462D01*
X143983813Y-81704585D01*
X144016183Y-81704585D01*
X144038503Y-81707524D01*
X144038504Y-81707524D01*
X144060833Y-81710463D01*
X144092092Y-81718839D01*
X144133688Y-81736069D01*
X144161720Y-81752252D01*
X144203050Y-81783965D01*
X144213952Y-81794242D01*
X144214343Y-81793841D01*
X144218173Y-81797558D01*
X144218184Y-81797571D01*
X144286171Y-81853030D01*
X144347091Y-81887243D01*
X144388632Y-81905917D01*
X144487391Y-81919518D01*
X144557137Y-81915364D01*
X144602184Y-81908614D01*
X144692618Y-81866662D01*
X144749046Y-81825459D01*
X144766396Y-81808514D01*
X144777530Y-81798866D01*
X144804179Y-81778418D01*
X144804182Y-81778417D01*
X144813075Y-81771592D01*
X144820416Y-81765960D01*
X144820417Y-81765960D01*
X144838281Y-81752251D01*
X144866307Y-81736069D01*
X144907911Y-81718837D01*
X144939168Y-81710462D01*
X144983813Y-81704585D01*
X145016183Y-81704585D01*
X145038503Y-81707524D01*
X145038504Y-81707524D01*
X145060833Y-81710463D01*
X145092092Y-81718839D01*
X145133688Y-81736069D01*
X145161720Y-81752252D01*
X145203050Y-81783965D01*
X145213952Y-81794242D01*
X145214343Y-81793841D01*
X145218173Y-81797558D01*
X145218184Y-81797571D01*
X145286171Y-81853030D01*
X145347091Y-81887243D01*
X145388632Y-81905917D01*
X145487391Y-81919518D01*
X145557137Y-81915364D01*
X145602184Y-81908614D01*
X145692618Y-81866662D01*
X145749046Y-81825459D01*
X145766396Y-81808514D01*
X145777530Y-81798866D01*
X145804179Y-81778418D01*
X145804182Y-81778417D01*
X145813075Y-81771592D01*
X145820416Y-81765960D01*
X145820417Y-81765960D01*
X145838281Y-81752251D01*
X145866307Y-81736069D01*
X145907911Y-81718837D01*
X145939168Y-81710462D01*
X145983813Y-81704585D01*
X146016183Y-81704585D01*
X146038503Y-81707524D01*
X146038504Y-81707524D01*
X146060833Y-81710463D01*
X146092092Y-81718839D01*
X146133688Y-81736069D01*
X146161720Y-81752252D01*
X146203050Y-81783965D01*
X146213952Y-81794242D01*
X146214343Y-81793841D01*
X146218173Y-81797558D01*
X146218184Y-81797571D01*
X146286171Y-81853030D01*
X146347091Y-81887243D01*
X146388632Y-81905917D01*
X146487391Y-81919518D01*
X146557137Y-81915364D01*
X146602184Y-81908614D01*
X146692618Y-81866662D01*
X146749046Y-81825459D01*
X146766396Y-81808514D01*
X146777530Y-81798866D01*
X146804179Y-81778418D01*
X146804182Y-81778417D01*
X146813075Y-81771592D01*
X146820416Y-81765960D01*
X146820417Y-81765960D01*
X146838281Y-81752251D01*
X146866307Y-81736069D01*
X146907911Y-81718837D01*
X146939167Y-81710462D01*
X147013316Y-81700700D01*
X147028382Y-81699645D01*
X147053043Y-81699426D01*
X147120740Y-81689281D01*
X147163561Y-81679028D01*
X147250191Y-81629697D01*
X147302995Y-81583942D01*
X147334620Y-81551168D01*
X147380828Y-81462833D01*
X147400513Y-81395794D01*
X147410863Y-81323809D01*
X147410863Y-80393713D01*
X159149500Y-80393713D01*
X159149500Y-80606287D01*
X159182754Y-80816243D01*
X159243896Y-81004419D01*
X159248444Y-81018414D01*
X159344951Y-81207820D01*
X159469890Y-81379786D01*
X159620213Y-81530109D01*
X159792179Y-81655048D01*
X159792181Y-81655049D01*
X159792184Y-81655051D01*
X159981588Y-81751557D01*
X160183757Y-81817246D01*
X160393713Y-81850500D01*
X160393714Y-81850500D01*
X160606286Y-81850500D01*
X160606287Y-81850500D01*
X160816243Y-81817246D01*
X161018412Y-81751557D01*
X161207816Y-81655051D01*
X161263480Y-81614609D01*
X161379786Y-81530109D01*
X161379788Y-81530106D01*
X161379792Y-81530104D01*
X161530104Y-81379792D01*
X161530106Y-81379788D01*
X161530109Y-81379786D01*
X161655048Y-81207820D01*
X161655047Y-81207820D01*
X161655051Y-81207816D01*
X161751557Y-81018412D01*
X161817246Y-80816243D01*
X161850500Y-80606287D01*
X161850500Y-80393713D01*
X161817246Y-80183757D01*
X161751557Y-79981588D01*
X161655051Y-79792184D01*
X161655049Y-79792181D01*
X161655048Y-79792179D01*
X161530109Y-79620213D01*
X161379786Y-79469890D01*
X161207820Y-79344951D01*
X161018414Y-79248444D01*
X161018413Y-79248443D01*
X161018412Y-79248443D01*
X160816243Y-79182754D01*
X160816241Y-79182753D01*
X160816240Y-79182753D01*
X160654957Y-79157208D01*
X160606287Y-79149500D01*
X160393713Y-79149500D01*
X160345042Y-79157208D01*
X160183760Y-79182753D01*
X159981585Y-79248444D01*
X159792179Y-79344951D01*
X159620213Y-79469890D01*
X159469890Y-79620213D01*
X159344951Y-79792179D01*
X159248444Y-79981585D01*
X159182753Y-80183760D01*
X159149500Y-80393713D01*
X147410863Y-80393713D01*
X147410863Y-77610007D01*
X147406280Y-77561833D01*
X147397464Y-77515914D01*
X147392637Y-77495387D01*
X147347614Y-77406442D01*
X147337630Y-77393708D01*
X147304504Y-77351457D01*
X147251944Y-77301196D01*
X147180268Y-77249999D01*
X145584705Y-76110311D01*
X145584684Y-76110296D01*
X145582272Y-76108593D01*
X145580058Y-76107050D01*
X145580054Y-76107047D01*
X145580050Y-76107045D01*
X145512335Y-76073464D01*
X145512332Y-76073463D01*
X145512327Y-76073461D01*
X145445834Y-76052021D01*
X145374146Y-76039782D01*
X145374147Y-76039782D01*
X137509339Y-75832814D01*
X137509320Y-75832815D01*
X137478107Y-75833906D01*
X137478082Y-75833907D01*
X137447977Y-75836810D01*
X137444038Y-75837220D01*
X137420153Y-75844815D01*
X137350300Y-75846368D01*
X137290697Y-75809910D01*
X137260267Y-75747015D01*
X137268670Y-75677652D01*
X137294898Y-75638966D01*
X138702075Y-74231790D01*
X138751774Y-74145710D01*
X138777500Y-74049699D01*
X138777500Y-73951500D01*
X138797185Y-73884461D01*
X138849989Y-73838706D01*
X138901500Y-73827500D01*
X138999697Y-73827500D01*
X138999699Y-73827500D01*
X139095710Y-73801774D01*
X139181790Y-73752075D01*
X140271548Y-72662316D01*
X140332869Y-72628833D01*
X140402561Y-72633817D01*
X140446908Y-72662318D01*
X141025667Y-73241077D01*
X141025670Y-73241079D01*
X141087612Y-73282467D01*
X141185353Y-73301910D01*
X141283094Y-73282467D01*
X141345036Y-73241079D01*
X142440591Y-72145524D01*
X142481979Y-72083582D01*
X142501422Y-71985841D01*
X142481979Y-71888100D01*
X142440591Y-71826158D01*
X142440589Y-71826155D01*
X141861830Y-71247396D01*
X141828345Y-71186073D01*
X141833329Y-71116381D01*
X141861828Y-71072036D01*
X142659121Y-70274742D01*
X142675500Y-70260975D01*
X142680428Y-70257511D01*
X142680434Y-70257509D01*
X143057849Y-69992281D01*
X143070736Y-69985199D01*
X143070580Y-69984928D01*
X143077616Y-69980864D01*
X143077625Y-69980861D01*
X143113903Y-69953022D01*
X143118074Y-69949960D01*
X143147672Y-69929161D01*
X143147685Y-69929152D01*
X143164817Y-69915997D01*
X143166336Y-69914725D01*
X143175775Y-69906112D01*
X143183860Y-69899343D01*
X143192621Y-69892621D01*
X143280861Y-69777625D01*
X143336330Y-69643709D01*
X143355250Y-69500000D01*
X143336330Y-69356291D01*
X143299350Y-69267013D01*
X143280862Y-69222377D01*
X143280861Y-69222376D01*
X143280861Y-69222375D01*
X143192621Y-69107379D01*
X143077625Y-69019139D01*
X143077624Y-69019138D01*
X143077622Y-69019137D01*
X142943712Y-68963671D01*
X142943710Y-68963670D01*
X142943709Y-68963670D01*
X142870896Y-68954083D01*
X142807001Y-68925817D01*
X142800651Y-68916190D01*
X142747852Y-68950122D01*
X142729103Y-68954083D01*
X142667616Y-68962179D01*
X142656291Y-68963670D01*
X142656287Y-68963671D01*
X142522377Y-69019137D01*
X142407379Y-69107379D01*
X142319136Y-69222378D01*
X142319135Y-69222381D01*
X142296378Y-69277320D01*
X142287963Y-69293970D01*
X142278411Y-69309785D01*
X142242467Y-69409179D01*
X142228567Y-69470045D01*
X142228566Y-69470051D01*
X142227988Y-69475688D01*
X142227988Y-69475694D01*
X142228850Y-69517940D01*
X142227614Y-69538115D01*
X142220952Y-69584450D01*
X142211007Y-69618316D01*
X142196550Y-69649971D01*
X142177474Y-69679656D01*
X142160357Y-69699411D01*
X142159011Y-69701680D01*
X142140057Y-69726076D01*
X141225693Y-70640440D01*
X141164370Y-70673925D01*
X141162206Y-70674376D01*
X141087612Y-70689215D01*
X141025667Y-70730604D01*
X139930116Y-71826155D01*
X139888727Y-71888100D01*
X139873888Y-71962694D01*
X139841501Y-72024604D01*
X139839952Y-72026181D01*
X138829954Y-73036181D01*
X138768631Y-73069666D01*
X138742273Y-73072500D01*
X138500727Y-73072500D01*
X138433688Y-73052815D01*
X138387933Y-73000011D01*
X138377989Y-72930853D01*
X138407014Y-72867297D01*
X138413046Y-72860819D01*
X140026469Y-71247396D01*
X141655996Y-69617869D01*
X141705695Y-69531789D01*
X141705696Y-69531786D01*
X141711130Y-69511505D01*
X141726693Y-69476397D01*
X141727153Y-69475684D01*
X141752030Y-69437105D01*
X141761457Y-69421256D01*
X141762266Y-69419777D01*
X141766818Y-69410692D01*
X141781155Y-69388402D01*
X141788039Y-69379867D01*
X141789029Y-69378547D01*
X141799355Y-69363714D01*
X141855463Y-69276701D01*
X141861298Y-69268419D01*
X141862962Y-69266249D01*
X141887503Y-69234270D01*
X141893806Y-69219050D01*
X141901297Y-69203956D01*
X141902335Y-69202181D01*
X141903298Y-69200351D01*
X141912948Y-69179855D01*
X141913332Y-69177953D01*
X141920316Y-69155048D01*
X141942972Y-69100354D01*
X141961892Y-68956645D01*
X141947500Y-68847330D01*
X141958265Y-68778296D01*
X142004645Y-68726040D01*
X142070439Y-68707145D01*
X142712917Y-68707145D01*
X142779956Y-68726830D01*
X142798569Y-68748311D01*
X142804771Y-68738405D01*
X142867977Y-68708626D01*
X142887083Y-68707145D01*
X143660101Y-68707145D01*
X143727140Y-68726830D01*
X143747782Y-68743464D01*
X145675839Y-70671521D01*
X145675840Y-70671522D01*
X145675842Y-70671523D01*
X145680784Y-70674376D01*
X145755763Y-70717665D01*
X145844907Y-70741551D01*
X145844908Y-70741551D01*
X145937195Y-70741551D01*
X147372174Y-70741551D01*
X147414705Y-70749073D01*
X147706296Y-70855545D01*
X147706297Y-70855545D01*
X147840044Y-70904381D01*
X147849008Y-70905875D01*
X147876062Y-70913623D01*
X147909274Y-70927381D01*
X147981128Y-70936841D01*
X148052982Y-70946301D01*
X148052983Y-70946301D01*
X148052984Y-70946301D01*
X148067960Y-70944329D01*
X148196692Y-70927381D01*
X148330608Y-70871912D01*
X148445604Y-70783672D01*
X148533844Y-70668676D01*
X148589313Y-70534760D01*
X148608233Y-70391051D01*
X148608031Y-70389520D01*
X148596186Y-70299549D01*
X148589313Y-70247342D01*
X148544942Y-70140219D01*
X148533845Y-70113428D01*
X148533844Y-70113427D01*
X148533844Y-70113426D01*
X148445604Y-69998430D01*
X148330608Y-69910190D01*
X148330607Y-69910189D01*
X148330605Y-69910188D01*
X148196695Y-69854722D01*
X148196693Y-69854721D01*
X148196692Y-69854721D01*
X148124837Y-69845261D01*
X148052984Y-69835801D01*
X148052982Y-69835801D01*
X147909272Y-69854721D01*
X147875691Y-69868630D01*
X147847243Y-69876602D01*
X147840055Y-69877716D01*
X147840048Y-69877718D01*
X147414702Y-70033029D01*
X147372171Y-70040551D01*
X146087595Y-70040551D01*
X146020556Y-70020866D01*
X145999914Y-70004232D01*
X144071858Y-68076176D01*
X144071853Y-68076172D01*
X143991935Y-68030032D01*
X143991934Y-68030031D01*
X143991933Y-68030031D01*
X143902789Y-68006145D01*
X143902788Y-68006145D01*
X141537466Y-68006145D01*
X141482478Y-67993286D01*
X141089271Y-67798742D01*
X141088682Y-67798462D01*
X141081907Y-67795244D01*
X141081547Y-67795080D01*
X141081206Y-67794924D01*
X141073793Y-67791689D01*
X141073794Y-67791689D01*
X141064175Y-67789745D01*
X141041292Y-67782765D01*
X140993712Y-67763058D01*
X140993714Y-67763058D01*
X140850002Y-67744138D01*
X140850000Y-67744138D01*
X140706292Y-67763058D01*
X140706288Y-67763059D01*
X140572378Y-67818525D01*
X140457380Y-67906767D01*
X140369138Y-68021765D01*
X140313672Y-68155675D01*
X140313671Y-68155679D01*
X140294751Y-68299387D01*
X140294751Y-68299388D01*
X140313671Y-68443096D01*
X140313672Y-68443100D01*
X140369138Y-68577010D01*
X140369139Y-68577012D01*
X140369140Y-68577013D01*
X140457380Y-68692009D01*
X140572376Y-68780249D01*
X140572377Y-68780249D01*
X140572378Y-68780250D01*
X140583274Y-68784763D01*
X140706292Y-68835718D01*
X140743578Y-68840626D01*
X140807473Y-68868891D01*
X140845945Y-68927216D01*
X140849170Y-68948739D01*
X140850331Y-68948587D01*
X140870312Y-69100355D01*
X140879880Y-69123456D01*
X140886945Y-69151307D01*
X140887338Y-69151227D01*
X140888562Y-69157201D01*
X140904352Y-69208184D01*
X140905382Y-69278046D01*
X140873584Y-69332549D01*
X140643208Y-69562925D01*
X140581885Y-69596410D01*
X140512193Y-69591426D01*
X140467846Y-69562925D01*
X139689686Y-68784764D01*
X139689685Y-68784763D01*
X139668943Y-68770904D01*
X139627741Y-68743374D01*
X139530000Y-68723931D01*
X139432259Y-68743374D01*
X139370314Y-68784763D01*
X138274763Y-69880314D01*
X138233374Y-69942259D01*
X138224989Y-69984413D01*
X138213931Y-70040000D01*
X138233374Y-70137741D01*
X138260162Y-70177833D01*
X138274763Y-70199685D01*
X139052925Y-70977847D01*
X139086410Y-71039170D01*
X139081426Y-71108862D01*
X139052925Y-71153209D01*
X134449954Y-75756181D01*
X134388631Y-75789666D01*
X134362273Y-75792500D01*
X130665133Y-75792500D01*
X130649877Y-75791500D01*
X130649411Y-75791500D01*
X128753699Y-75791500D01*
X128654301Y-75791500D01*
X128558287Y-75817226D01*
X128472209Y-75866925D01*
X128459329Y-75879805D01*
X128429490Y-75901804D01*
X128025430Y-76114870D01*
X128025418Y-76114877D01*
X128023709Y-76116198D01*
X127995386Y-76132607D01*
X127972376Y-76142138D01*
X127857379Y-76230379D01*
X127769137Y-76345377D01*
X127713671Y-76479287D01*
X127713670Y-76479291D01*
X127694750Y-76622999D01*
X127696705Y-76637852D01*
X127685937Y-76706887D01*
X127639556Y-76759142D01*
X127572286Y-76778025D01*
X127526313Y-76768595D01*
X127393712Y-76713671D01*
X127393710Y-76713670D01*
X127393709Y-76713670D01*
X127321854Y-76704210D01*
X127250001Y-76694750D01*
X127249999Y-76694750D01*
X127106291Y-76713670D01*
X127106287Y-76713671D01*
X126972377Y-76769137D01*
X126857379Y-76857379D01*
X126769137Y-76972377D01*
X126713671Y-77106287D01*
X126713670Y-77106291D01*
X126694750Y-77250000D01*
X123500500Y-77250000D01*
X123500500Y-70629500D01*
X123520185Y-70562461D01*
X123572989Y-70516706D01*
X123624500Y-70505500D01*
X126206485Y-70505500D01*
X126206503Y-70505500D01*
X126219723Y-70505158D01*
X126232539Y-70504494D01*
X126316254Y-70485734D01*
X126380900Y-70459226D01*
X126443575Y-70422340D01*
X127416839Y-69643727D01*
X127439774Y-69622982D01*
X127444344Y-69618316D01*
X127460646Y-69601669D01*
X127460649Y-69601665D01*
X127460738Y-69601575D01*
X127463224Y-69599000D01*
X127497766Y-69544460D01*
X127550262Y-69498360D01*
X127606643Y-69486879D01*
X127611023Y-69487024D01*
X127665483Y-69488836D01*
X127665491Y-69488836D01*
X127665491Y-69488835D01*
X127665494Y-69488836D01*
X130466158Y-69180762D01*
X130534945Y-69192999D01*
X130586199Y-69240483D01*
X130603645Y-69308140D01*
X130581743Y-69374488D01*
X130573033Y-69385674D01*
X129993776Y-70047682D01*
X129951968Y-70078821D01*
X129817528Y-70140218D01*
X129817523Y-70140221D01*
X129770848Y-70177833D01*
X129349591Y-70599093D01*
X129311970Y-70645777D01*
X129311969Y-70645779D01*
X129252182Y-70776692D01*
X129231701Y-70919149D01*
X129252182Y-71061605D01*
X129311970Y-71192521D01*
X129311973Y-71192526D01*
X129349586Y-71239202D01*
X129349593Y-71239210D01*
X129537710Y-71427326D01*
X129542708Y-71432626D01*
X130438173Y-72440025D01*
X130449053Y-72449612D01*
X130486335Y-72508703D01*
X130485753Y-72578570D01*
X130454752Y-72630325D01*
X129994763Y-73090314D01*
X129953374Y-73152259D01*
X129934444Y-73247423D01*
X129933931Y-73250000D01*
X129953374Y-73347741D01*
X129980904Y-73388943D01*
X129994763Y-73409685D01*
X129994764Y-73409686D01*
X130635069Y-74049990D01*
X130668554Y-74111313D01*
X130663570Y-74181004D01*
X130625153Y-74234256D01*
X130518395Y-74320211D01*
X130516088Y-74322559D01*
X130506844Y-74327710D01*
X130423763Y-74423590D01*
X130397090Y-74446702D01*
X130358654Y-74471403D01*
X130338030Y-74482072D01*
X130315093Y-74491330D01*
X130315084Y-74491335D01*
X130311064Y-74493435D01*
X130269195Y-74520854D01*
X130269191Y-74520857D01*
X130225810Y-74555784D01*
X130215628Y-74564430D01*
X130214741Y-74565224D01*
X130205587Y-74573857D01*
X130196017Y-74582006D01*
X130195464Y-74582430D01*
X130107218Y-74697433D01*
X130051752Y-74831343D01*
X130051751Y-74831347D01*
X130032831Y-74975055D01*
X130032831Y-74975056D01*
X130051751Y-75118764D01*
X130051752Y-75118768D01*
X130107218Y-75252678D01*
X130107219Y-75252680D01*
X130107220Y-75252681D01*
X130195460Y-75367677D01*
X130310456Y-75455917D01*
X130444372Y-75511386D01*
X130571361Y-75528104D01*
X130588080Y-75530306D01*
X130588081Y-75530306D01*
X130588082Y-75530306D01*
X130603058Y-75528334D01*
X130731790Y-75511386D01*
X130865706Y-75455917D01*
X130980702Y-75367677D01*
X131068942Y-75252681D01*
X131068943Y-75252678D01*
X131103644Y-75168902D01*
X131107587Y-75160322D01*
X131114850Y-75145990D01*
X131116406Y-75140425D01*
X131121266Y-75126356D01*
X131124411Y-75118765D01*
X131124996Y-75114316D01*
X131128512Y-75097125D01*
X131230396Y-74732731D01*
X131262133Y-74678444D01*
X133117723Y-72822854D01*
X133179044Y-72789371D01*
X133248736Y-72794355D01*
X133304669Y-72836227D01*
X133312789Y-72848537D01*
X133948893Y-73950301D01*
X133971489Y-73989438D01*
X134020609Y-74045448D01*
X134109987Y-74089525D01*
X134209429Y-74096042D01*
X134279973Y-74072096D01*
X135708351Y-73247422D01*
X135764361Y-73198302D01*
X135808438Y-73108924D01*
X135814955Y-73009482D01*
X135791009Y-72938938D01*
X134966335Y-71510560D01*
X134917215Y-71454550D01*
X134827837Y-71410473D01*
X134827835Y-71410472D01*
X134821504Y-71410057D01*
X134755896Y-71386029D01*
X134713693Y-71330345D01*
X134708296Y-71260684D01*
X134741416Y-71199163D01*
X134741611Y-71198966D01*
X136040672Y-69899906D01*
X136070508Y-69877907D01*
X136474574Y-69664840D01*
X136476264Y-69663534D01*
X136504616Y-69647105D01*
X136527625Y-69637575D01*
X136642621Y-69549335D01*
X136730861Y-69434339D01*
X136786330Y-69300423D01*
X136805250Y-69156714D01*
X136786330Y-69013005D01*
X136776777Y-68989943D01*
X136769721Y-68962096D01*
X136769319Y-68962179D01*
X136768099Y-68956221D01*
X136768098Y-68956212D01*
X136633043Y-68519832D01*
X136627500Y-68483171D01*
X136627500Y-60467728D01*
X136647185Y-60400689D01*
X136663816Y-60380050D01*
X136677667Y-60366198D01*
X136707507Y-60344194D01*
X137111574Y-60131127D01*
X137113264Y-60129821D01*
X137141616Y-60113392D01*
X137164625Y-60103862D01*
X137279621Y-60015622D01*
X137367861Y-59900626D01*
X137423330Y-59766710D01*
X137442250Y-59623001D01*
X137423330Y-59479292D01*
X137367861Y-59345376D01*
X137279621Y-59230380D01*
X137164625Y-59142140D01*
X137164624Y-59142139D01*
X137164622Y-59142138D01*
X137030712Y-59086672D01*
X137030710Y-59086671D01*
X137030709Y-59086671D01*
X136958854Y-59077211D01*
X136887001Y-59067751D01*
X136886999Y-59067751D01*
X136743291Y-59086671D01*
X136743287Y-59086672D01*
X136609377Y-59142138D01*
X136494379Y-59230380D01*
X136406138Y-59345377D01*
X136396585Y-59368439D01*
X136381889Y-59393118D01*
X136382229Y-59393342D01*
X136378870Y-59398429D01*
X136165804Y-59802491D01*
X136143801Y-59832334D01*
X135947924Y-60028212D01*
X135898224Y-60114293D01*
X135890205Y-60144225D01*
X135890205Y-60144226D01*
X135872500Y-60210302D01*
X135872500Y-61120500D01*
X135852815Y-61187539D01*
X135800011Y-61233294D01*
X135748500Y-61244500D01*
X134342408Y-61244500D01*
X134321899Y-61245324D01*
X134302073Y-61246920D01*
X134302068Y-61246920D01*
X134212307Y-61271115D01*
X134212302Y-61271117D01*
X134149269Y-61301274D01*
X134149267Y-61301276D01*
X134110101Y-61324515D01*
X134103197Y-61330080D01*
X134101469Y-61327936D01*
X134053528Y-61356361D01*
X133983704Y-61353847D01*
X133935217Y-61323885D01*
X133716998Y-61105666D01*
X133716985Y-61105653D01*
X133696635Y-61087374D01*
X133696629Y-61087369D01*
X133696620Y-61087361D01*
X133675999Y-61070744D01*
X133675996Y-61070742D01*
X133675993Y-61070740D01*
X133587662Y-61024535D01*
X133570648Y-61019539D01*
X133520624Y-61004850D01*
X133520616Y-61004848D01*
X133448639Y-60994500D01*
X133448638Y-60994500D01*
X132992804Y-60994500D01*
X132945352Y-60985061D01*
X132893709Y-60963670D01*
X132821854Y-60954210D01*
X132750001Y-60944750D01*
X132749999Y-60944750D01*
X132606291Y-60963670D01*
X132606290Y-60963670D01*
X132580398Y-60974394D01*
X132554647Y-60985061D01*
X132507196Y-60994500D01*
X132320206Y-60994500D01*
X132300825Y-60996734D01*
X132262062Y-61001204D01*
X132262060Y-61001204D01*
X132262053Y-61001205D01*
X132207112Y-61014045D01*
X132207102Y-61014048D01*
X132177143Y-61023016D01*
X132092073Y-61074987D01*
X132092068Y-61074991D01*
X132040702Y-61122344D01*
X132040698Y-61122348D01*
X131994789Y-61178745D01*
X131293792Y-62347073D01*
X131287430Y-62360561D01*
X131272106Y-62393045D01*
X131272103Y-62393050D01*
X131272101Y-62393057D01*
X131272100Y-62393060D01*
X131255686Y-62439287D01*
X131243527Y-62488647D01*
X131015288Y-64086321D01*
X130986320Y-64149903D01*
X130927576Y-64187731D01*
X130876874Y-64191792D01*
X130864387Y-64190202D01*
X130864381Y-64190202D01*
X127617878Y-64242565D01*
X127617874Y-64242565D01*
X127617864Y-64242566D01*
X127565669Y-64248817D01*
X127516177Y-64260004D01*
X127516165Y-64260007D01*
X127516162Y-64260008D01*
X127514311Y-64260524D01*
X127491802Y-64266797D01*
X127491800Y-64266798D01*
X127452749Y-64289035D01*
X127384751Y-64305101D01*
X127327174Y-64287355D01*
X127282854Y-64260524D01*
X127282853Y-64260523D01*
X127282852Y-64260523D01*
X127217174Y-64236695D01*
X127217172Y-64236694D01*
X127217168Y-64236693D01*
X127217160Y-64236691D01*
X127145983Y-64221876D01*
X127145977Y-64221875D01*
X127145974Y-64221875D01*
X123648170Y-64003262D01*
X123648168Y-64003262D01*
X123641336Y-64003674D01*
X123631970Y-64004239D01*
X123563867Y-63988630D01*
X123515014Y-63938679D01*
X123500500Y-63880465D01*
X123500500Y-57599999D01*
X140458038Y-57599999D01*
X140458038Y-57600000D01*
X140476958Y-57743708D01*
X140476958Y-57743709D01*
X140486509Y-57766769D01*
X140493568Y-57794612D01*
X140493966Y-57794531D01*
X140495186Y-57800492D01*
X140630245Y-58236880D01*
X140635788Y-58273541D01*
X140635788Y-58963589D01*
X140635788Y-59062987D01*
X140661514Y-59158998D01*
X140711213Y-59245078D01*
X143868210Y-62402075D01*
X143954290Y-62451774D01*
X144050301Y-62477500D01*
X150142273Y-62477500D01*
X150209312Y-62497185D01*
X150229953Y-62513818D01*
X151903825Y-64187691D01*
X153516906Y-65800772D01*
X153531531Y-65819582D01*
X153531750Y-65819422D01*
X153782582Y-66160217D01*
X153788783Y-66168301D01*
X153789357Y-66169018D01*
X153795831Y-66176798D01*
X153799477Y-66181006D01*
X153813141Y-66200194D01*
X153816137Y-66205383D01*
X153816138Y-66205385D01*
X153816139Y-66205386D01*
X153828347Y-66221296D01*
X153833466Y-66228485D01*
X153838967Y-66236825D01*
X153871054Y-66280421D01*
X153882739Y-66295133D01*
X153883817Y-66296393D01*
X153883839Y-66296417D01*
X153883840Y-66296418D01*
X153892838Y-66306174D01*
X153900056Y-66314749D01*
X153904378Y-66320382D01*
X153992618Y-66388090D01*
X154019375Y-66408622D01*
X154153291Y-66464091D01*
X154269451Y-66479384D01*
X154296999Y-66483011D01*
X154297000Y-66483011D01*
X154297001Y-66483011D01*
X154332679Y-66478313D01*
X154406314Y-66468619D01*
X154475349Y-66479384D01*
X154527605Y-66525764D01*
X154546500Y-66591558D01*
X154546500Y-66828323D01*
X154526815Y-66895362D01*
X154510181Y-66916004D01*
X154362513Y-67063671D01*
X154362509Y-67063677D01*
X154303201Y-67166400D01*
X154303201Y-67166401D01*
X154303201Y-67166402D01*
X154272500Y-67280979D01*
X154272500Y-71032309D01*
X154283145Y-71072034D01*
X154289269Y-71094890D01*
X154289269Y-71094891D01*
X154303199Y-71146885D01*
X154329551Y-71192526D01*
X154362511Y-71249614D01*
X155723386Y-72610490D01*
X155723388Y-72610491D01*
X155723392Y-72610494D01*
X155826110Y-72669798D01*
X155826114Y-72669800D01*
X155896233Y-72688587D01*
X155940691Y-72700499D01*
X155940694Y-72700499D01*
X156059306Y-72700499D01*
X156059309Y-72700499D01*
X156078999Y-72695223D01*
X156148847Y-72696886D01*
X156206709Y-72736049D01*
X156232707Y-72790806D01*
X156244031Y-72847736D01*
X156244032Y-72847739D01*
X156252772Y-72860819D01*
X156299398Y-72930601D01*
X156382259Y-72985966D01*
X156382263Y-72985967D01*
X156455320Y-73000499D01*
X156455323Y-73000500D01*
X156455325Y-73000500D01*
X157504675Y-73000500D01*
X157504676Y-73000499D01*
X157577739Y-72985966D01*
X157660600Y-72930601D01*
X157715965Y-72847740D01*
X157730499Y-72774674D01*
X157730499Y-71764297D01*
X157750184Y-71697258D01*
X157802988Y-71651503D01*
X157872146Y-71641559D01*
X157915935Y-71657638D01*
X157916033Y-71657436D01*
X157918121Y-71658441D01*
X157920475Y-71659306D01*
X157921884Y-71660191D01*
X157922309Y-71660458D01*
X158027478Y-71697258D01*
X158081942Y-71716316D01*
X158249996Y-71735251D01*
X158249999Y-71735251D01*
X158250002Y-71735251D01*
X158418055Y-71716316D01*
X158456590Y-71702832D01*
X158577689Y-71660458D01*
X158577691Y-71660456D01*
X158577693Y-71660456D01*
X158577696Y-71660454D01*
X158720883Y-71570483D01*
X158720883Y-71570482D01*
X158720889Y-71570479D01*
X158797321Y-71494046D01*
X158858640Y-71460564D01*
X158928332Y-71465548D01*
X158972680Y-71494049D01*
X159049107Y-71570476D01*
X159049113Y-71570481D01*
X159192300Y-71660452D01*
X159192303Y-71660454D01*
X159192307Y-71660455D01*
X159192308Y-71660456D01*
X159192314Y-71660458D01*
X159351941Y-71716314D01*
X159519995Y-71735249D01*
X159519998Y-71735249D01*
X159520001Y-71735249D01*
X159688054Y-71716314D01*
X159688057Y-71716313D01*
X159847688Y-71660456D01*
X159847690Y-71660454D01*
X159847692Y-71660454D01*
X159847695Y-71660452D01*
X159990882Y-71570481D01*
X159990883Y-71570480D01*
X159990888Y-71570477D01*
X160110475Y-71450890D01*
X160123659Y-71429908D01*
X160200450Y-71307697D01*
X160200452Y-71307694D01*
X160200452Y-71307692D01*
X160200454Y-71307690D01*
X160256311Y-71148059D01*
X160256311Y-71148058D01*
X160256312Y-71148056D01*
X160275247Y-70980002D01*
X160275247Y-70979997D01*
X160256312Y-70811943D01*
X160223322Y-70717663D01*
X160200454Y-70652310D01*
X160200453Y-70652309D01*
X160200452Y-70652305D01*
X160200450Y-70652302D01*
X160110479Y-70509115D01*
X160110474Y-70509109D01*
X159990888Y-70389523D01*
X159990882Y-70389518D01*
X159847695Y-70299547D01*
X159847692Y-70299545D01*
X159688054Y-70243685D01*
X159520001Y-70224751D01*
X159519995Y-70224751D01*
X159351941Y-70243685D01*
X159192303Y-70299545D01*
X159192300Y-70299547D01*
X159049113Y-70389518D01*
X158972678Y-70465953D01*
X158911354Y-70499437D01*
X158841663Y-70494452D01*
X158797316Y-70465952D01*
X158720889Y-70389525D01*
X158720883Y-70389520D01*
X158577696Y-70299549D01*
X158577693Y-70299547D01*
X158418055Y-70243687D01*
X158250002Y-70224753D01*
X158249996Y-70224753D01*
X158081942Y-70243687D01*
X157922304Y-70299547D01*
X157922301Y-70299549D01*
X157779114Y-70389520D01*
X157702681Y-70465953D01*
X157641357Y-70499437D01*
X157571666Y-70494452D01*
X157527319Y-70465952D01*
X157450889Y-70389522D01*
X157450883Y-70389517D01*
X157307696Y-70299546D01*
X157307693Y-70299544D01*
X157148055Y-70243684D01*
X156980002Y-70224750D01*
X156979996Y-70224750D01*
X156811942Y-70243684D01*
X156652304Y-70299544D01*
X156652301Y-70299546D01*
X156509114Y-70389517D01*
X156509108Y-70389522D01*
X156389522Y-70509108D01*
X156389517Y-70509114D01*
X156299546Y-70652301D01*
X156299544Y-70652304D01*
X156243684Y-70811942D01*
X156224750Y-70979996D01*
X156224750Y-70980001D01*
X156243684Y-71148055D01*
X156299544Y-71307693D01*
X156299546Y-71307696D01*
X156351170Y-71389854D01*
X156370171Y-71457090D01*
X156349804Y-71523925D01*
X156315070Y-71558926D01*
X156299400Y-71569396D01*
X156299399Y-71569397D01*
X156245997Y-71649320D01*
X156192385Y-71694125D01*
X156123060Y-71702832D01*
X156060033Y-71672678D01*
X156055214Y-71668110D01*
X155209819Y-70822715D01*
X155176334Y-70761392D01*
X155173500Y-70735034D01*
X155173500Y-67578253D01*
X155193185Y-67511214D01*
X155209819Y-67490572D01*
X155357490Y-67342901D01*
X155416799Y-67240174D01*
X155436566Y-67166402D01*
X155447500Y-67125597D01*
X155447500Y-64187691D01*
X155416799Y-64073114D01*
X155376470Y-64003262D01*
X155357489Y-63970386D01*
X152953614Y-61566511D01*
X152850887Y-61507201D01*
X152824012Y-61500000D01*
X152824009Y-61499999D01*
X152786942Y-61490067D01*
X152736309Y-61476500D01*
X152736308Y-61476500D01*
X151504916Y-61476500D01*
X151437877Y-61456815D01*
X151417235Y-61440181D01*
X150557539Y-60580486D01*
X150538053Y-60555185D01*
X150535926Y-60551530D01*
X150161855Y-60128038D01*
X150161839Y-60128020D01*
X150156881Y-60122568D01*
X150156413Y-60122068D01*
X150151134Y-60116593D01*
X150148914Y-60114290D01*
X150145087Y-60109845D01*
X150142621Y-60107379D01*
X150027626Y-60019139D01*
X150027623Y-60019138D01*
X149893712Y-59963671D01*
X149893710Y-59963670D01*
X149893709Y-59963670D01*
X149821854Y-59954210D01*
X149750001Y-59944750D01*
X149749999Y-59944750D01*
X149606288Y-59963670D01*
X149596550Y-59967704D01*
X149574654Y-59974479D01*
X149112281Y-60071839D01*
X149086731Y-60074500D01*
X145058884Y-60074500D01*
X144991845Y-60054815D01*
X144955018Y-60018233D01*
X144755543Y-59712347D01*
X144744848Y-59692067D01*
X144740814Y-59682327D01*
X144652574Y-59567331D01*
X144537578Y-59479091D01*
X144537577Y-59479090D01*
X144537575Y-59479089D01*
X144403665Y-59423623D01*
X144403663Y-59423622D01*
X144403662Y-59423622D01*
X144331807Y-59414162D01*
X144259954Y-59404702D01*
X144259952Y-59404702D01*
X144116244Y-59423622D01*
X144116240Y-59423623D01*
X143982330Y-59479089D01*
X143867332Y-59567331D01*
X143779090Y-59682329D01*
X143723624Y-59816239D01*
X143723623Y-59816243D01*
X143712514Y-59900626D01*
X143704703Y-59959952D01*
X143719433Y-60071839D01*
X143723623Y-60103660D01*
X143723624Y-60103664D01*
X143779090Y-60237574D01*
X143779091Y-60237576D01*
X143779092Y-60237577D01*
X143867332Y-60352573D01*
X143982328Y-60440813D01*
X143992070Y-60444848D01*
X144012348Y-60455542D01*
X144408134Y-60713643D01*
X144428082Y-60729828D01*
X144455175Y-60756921D01*
X144455185Y-60756932D01*
X144459515Y-60761262D01*
X144459516Y-60761263D01*
X144538738Y-60840485D01*
X144629040Y-60892621D01*
X144635764Y-60896503D01*
X144743982Y-60925500D01*
X144743983Y-60925500D01*
X149086737Y-60925500D01*
X149112285Y-60928160D01*
X149528641Y-61015830D01*
X149562084Y-61028102D01*
X149914048Y-61218499D01*
X149942729Y-61239882D01*
X150213665Y-61510819D01*
X150247150Y-61572142D01*
X150242166Y-61641834D01*
X150200294Y-61697767D01*
X150134830Y-61722184D01*
X150125984Y-61722500D01*
X144307727Y-61722500D01*
X144240688Y-61702815D01*
X144220046Y-61686181D01*
X141427107Y-58893242D01*
X141393622Y-58831919D01*
X141390788Y-58805561D01*
X141390788Y-58273541D01*
X141396331Y-58236880D01*
X141531384Y-57800506D01*
X141531386Y-57800501D01*
X141531657Y-57798385D01*
X141540087Y-57766716D01*
X141549618Y-57743709D01*
X141568538Y-57600000D01*
X141549618Y-57456291D01*
X141494149Y-57322375D01*
X141405909Y-57207379D01*
X141290913Y-57119139D01*
X141290912Y-57119138D01*
X141290910Y-57119137D01*
X141157000Y-57063671D01*
X141156998Y-57063670D01*
X141156997Y-57063670D01*
X141085142Y-57054210D01*
X141013289Y-57044750D01*
X141013287Y-57044750D01*
X140869579Y-57063670D01*
X140869575Y-57063671D01*
X140735665Y-57119137D01*
X140620667Y-57207379D01*
X140532425Y-57322377D01*
X140476959Y-57456287D01*
X140476958Y-57456291D01*
X140458038Y-57599999D01*
X123500500Y-57599999D01*
X123500500Y-47959178D01*
X133451784Y-47959178D01*
X133456823Y-47997456D01*
X133470704Y-48102886D01*
X133470705Y-48102890D01*
X133526171Y-48236800D01*
X133526172Y-48236802D01*
X133526173Y-48236803D01*
X133614413Y-48351799D01*
X133729409Y-48440039D01*
X133729410Y-48440039D01*
X133729411Y-48440040D01*
X133742146Y-48445315D01*
X133762485Y-48456929D01*
X133762686Y-48456601D01*
X133887951Y-48532869D01*
X133887968Y-48532880D01*
X134159176Y-48698005D01*
X134182371Y-48716236D01*
X136268209Y-50802075D01*
X136268210Y-50802076D01*
X136268212Y-50802077D01*
X136317905Y-50830766D01*
X136317907Y-50830768D01*
X136317908Y-50830768D01*
X136354291Y-50851774D01*
X136450301Y-50877500D01*
X145292273Y-50877500D01*
X145359312Y-50897185D01*
X145379954Y-50913819D01*
X147486181Y-53020046D01*
X147519666Y-53081369D01*
X147522500Y-53107727D01*
X147522500Y-54026456D01*
X147516957Y-54063117D01*
X147381899Y-54499503D01*
X147381626Y-54501635D01*
X147373200Y-54533282D01*
X147363670Y-54556290D01*
X147363670Y-54556291D01*
X147344750Y-54699999D01*
X147344750Y-54700000D01*
X147363670Y-54843708D01*
X147363671Y-54843712D01*
X147419137Y-54977622D01*
X147419138Y-54977624D01*
X147419139Y-54977625D01*
X147507379Y-55092621D01*
X147622375Y-55180861D01*
X147756291Y-55236330D01*
X147883280Y-55253048D01*
X147899999Y-55255250D01*
X147900000Y-55255250D01*
X147900001Y-55255250D01*
X147914977Y-55253278D01*
X148043709Y-55236330D01*
X148177625Y-55180861D01*
X148292621Y-55092621D01*
X148380861Y-54977625D01*
X148436330Y-54843709D01*
X148455250Y-54700000D01*
X148436330Y-54556291D01*
X148426777Y-54533229D01*
X148419721Y-54505382D01*
X148419319Y-54505465D01*
X148418099Y-54499507D01*
X148418098Y-54499498D01*
X148283043Y-54063117D01*
X148277500Y-54026457D01*
X148277500Y-52850303D01*
X148277500Y-52850301D01*
X148251774Y-52754291D01*
X148251774Y-52754290D01*
X148251774Y-52754289D01*
X148202078Y-52668213D01*
X148202074Y-52668208D01*
X145801046Y-50267181D01*
X145767561Y-50205858D01*
X145772545Y-50136166D01*
X145814417Y-50080233D01*
X145879881Y-50055816D01*
X145888711Y-50055500D01*
X146770370Y-50055500D01*
X146829981Y-50049092D01*
X146964829Y-49998797D01*
X147080044Y-49912547D01*
X147166294Y-49797332D01*
X147216589Y-49662484D01*
X147222998Y-49602874D01*
X147222997Y-48307129D01*
X147216589Y-48247518D01*
X147212591Y-48236800D01*
X147166295Y-48112672D01*
X147166291Y-48112665D01*
X147080045Y-47997456D01*
X147080042Y-47997453D01*
X146964833Y-47911207D01*
X146964826Y-47911203D01*
X146829980Y-47860909D01*
X146829981Y-47860909D01*
X146770381Y-47854502D01*
X146770379Y-47854501D01*
X146770371Y-47854501D01*
X146770362Y-47854501D01*
X145174627Y-47854501D01*
X145174621Y-47854502D01*
X145115014Y-47860909D01*
X144980169Y-47911203D01*
X144980162Y-47911207D01*
X144864953Y-47997453D01*
X144864950Y-47997456D01*
X144778704Y-48112665D01*
X144778700Y-48112672D01*
X144728406Y-48247518D01*
X144721999Y-48307117D01*
X144721999Y-48307124D01*
X144721998Y-48307136D01*
X144721998Y-49602871D01*
X144721999Y-49602877D01*
X144728406Y-49662484D01*
X144778700Y-49797329D01*
X144778704Y-49797336D01*
X144870266Y-49919646D01*
X144868688Y-49920826D01*
X144896709Y-49972142D01*
X144891725Y-50041834D01*
X144849853Y-50097767D01*
X144784389Y-50122184D01*
X144775543Y-50122500D01*
X140169454Y-50122500D01*
X140102415Y-50102815D01*
X140056660Y-50050011D01*
X140046716Y-49980853D01*
X140075741Y-49917297D01*
X140079558Y-49913196D01*
X140080042Y-49912548D01*
X140080045Y-49912547D01*
X140166295Y-49797332D01*
X140216590Y-49662484D01*
X140222999Y-49602874D01*
X140222998Y-48307129D01*
X140216590Y-48247518D01*
X140212592Y-48236800D01*
X140166296Y-48112672D01*
X140166292Y-48112665D01*
X140080046Y-47997456D01*
X140080043Y-47997453D01*
X139964834Y-47911207D01*
X139964827Y-47911203D01*
X139829981Y-47860909D01*
X139829982Y-47860909D01*
X139770382Y-47854502D01*
X139770380Y-47854501D01*
X139770372Y-47854501D01*
X139770363Y-47854501D01*
X138174628Y-47854501D01*
X138174622Y-47854502D01*
X138115015Y-47860909D01*
X137980170Y-47911203D01*
X137980163Y-47911207D01*
X137864954Y-47997453D01*
X137864951Y-47997456D01*
X137778705Y-48112665D01*
X137778701Y-48112672D01*
X137728407Y-48247518D01*
X137722000Y-48307117D01*
X137722000Y-48307124D01*
X137721999Y-48307136D01*
X137721999Y-49602871D01*
X137722000Y-49602877D01*
X137728407Y-49662484D01*
X137778701Y-49797329D01*
X137778705Y-49797336D01*
X137870267Y-49919646D01*
X137868689Y-49920826D01*
X137896710Y-49972142D01*
X137891726Y-50041834D01*
X137849854Y-50097767D01*
X137784390Y-50122184D01*
X137775544Y-50122500D01*
X136707728Y-50122500D01*
X136640689Y-50102815D01*
X136620047Y-50086181D01*
X134728559Y-48194694D01*
X134702929Y-48157379D01*
X134522290Y-47750984D01*
X134515967Y-47741887D01*
X134503228Y-47718572D01*
X134487895Y-47681553D01*
X134399655Y-47566557D01*
X134284659Y-47478317D01*
X134284658Y-47478316D01*
X134284656Y-47478315D01*
X134150746Y-47422849D01*
X134150744Y-47422848D01*
X134150743Y-47422848D01*
X134078888Y-47413388D01*
X134007035Y-47403928D01*
X134007033Y-47403928D01*
X133863325Y-47422848D01*
X133863321Y-47422849D01*
X133729411Y-47478315D01*
X133614413Y-47566557D01*
X133526171Y-47681555D01*
X133470705Y-47815465D01*
X133470704Y-47815469D01*
X133451784Y-47959178D01*
X123500500Y-47959178D01*
X123500500Y-45393713D01*
X124149500Y-45393713D01*
X124149500Y-45606286D01*
X124170372Y-45738070D01*
X124182754Y-45816243D01*
X124202889Y-45878213D01*
X124248444Y-46018414D01*
X124344951Y-46207820D01*
X124469890Y-46379786D01*
X124620213Y-46530109D01*
X124792179Y-46655048D01*
X124792181Y-46655049D01*
X124792184Y-46655051D01*
X124981588Y-46751557D01*
X125183757Y-46817246D01*
X125393713Y-46850500D01*
X125393714Y-46850500D01*
X125606286Y-46850500D01*
X125606287Y-46850500D01*
X125816243Y-46817246D01*
X126018412Y-46751557D01*
X126207816Y-46655051D01*
X126229789Y-46639086D01*
X126379786Y-46530109D01*
X126379788Y-46530106D01*
X126379792Y-46530104D01*
X126530104Y-46379792D01*
X126530106Y-46379788D01*
X126530109Y-46379786D01*
X126538389Y-46368390D01*
X137722000Y-46368390D01*
X137722000Y-46541611D01*
X137739966Y-46655048D01*
X137749098Y-46712702D01*
X137802627Y-46877446D01*
X137881268Y-47031789D01*
X137983086Y-47171929D01*
X138105572Y-47294415D01*
X138245712Y-47396233D01*
X138400055Y-47474874D01*
X138564799Y-47528403D01*
X138735889Y-47555501D01*
X138735890Y-47555501D01*
X139209110Y-47555501D01*
X139209111Y-47555501D01*
X139380201Y-47528403D01*
X139544945Y-47474874D01*
X139699288Y-47396233D01*
X139839428Y-47294415D01*
X139961914Y-47171929D01*
X140063732Y-47031789D01*
X140142373Y-46877446D01*
X140195902Y-46712702D01*
X140223000Y-46541612D01*
X140223000Y-46368390D01*
X144721997Y-46368390D01*
X144721997Y-46541611D01*
X144739963Y-46655048D01*
X144749095Y-46712702D01*
X144802624Y-46877446D01*
X144881265Y-47031789D01*
X144983083Y-47171929D01*
X145105569Y-47294415D01*
X145245709Y-47396233D01*
X145400052Y-47474874D01*
X145564796Y-47528403D01*
X145735886Y-47555501D01*
X145735887Y-47555501D01*
X146209107Y-47555501D01*
X146209108Y-47555501D01*
X146380198Y-47528403D01*
X146544942Y-47474874D01*
X146699285Y-47396233D01*
X146839425Y-47294415D01*
X146961911Y-47171929D01*
X147063729Y-47031789D01*
X147142370Y-46877446D01*
X147195899Y-46712702D01*
X147222997Y-46541612D01*
X147222997Y-46368390D01*
X147195899Y-46197300D01*
X147142370Y-46032556D01*
X147063729Y-45878213D01*
X146961911Y-45738073D01*
X146839425Y-45615587D01*
X146699285Y-45513769D01*
X146544942Y-45435128D01*
X146417481Y-45393713D01*
X159149500Y-45393713D01*
X159149500Y-45606286D01*
X159170372Y-45738070D01*
X159182754Y-45816243D01*
X159202889Y-45878213D01*
X159248444Y-46018414D01*
X159344951Y-46207820D01*
X159469890Y-46379786D01*
X159620213Y-46530109D01*
X159792179Y-46655048D01*
X159792181Y-46655049D01*
X159792184Y-46655051D01*
X159981588Y-46751557D01*
X160183757Y-46817246D01*
X160393713Y-46850500D01*
X160393714Y-46850500D01*
X160606286Y-46850500D01*
X160606287Y-46850500D01*
X160816243Y-46817246D01*
X161018412Y-46751557D01*
X161207816Y-46655051D01*
X161229789Y-46639086D01*
X161379786Y-46530109D01*
X161379788Y-46530106D01*
X161379792Y-46530104D01*
X161530104Y-46379792D01*
X161530106Y-46379788D01*
X161530109Y-46379786D01*
X161655048Y-46207820D01*
X161655047Y-46207820D01*
X161655051Y-46207816D01*
X161751557Y-46018412D01*
X161817246Y-45816243D01*
X161850500Y-45606287D01*
X161850500Y-45393713D01*
X161817246Y-45183757D01*
X161751557Y-44981588D01*
X161655051Y-44792184D01*
X161655049Y-44792181D01*
X161655048Y-44792179D01*
X161530109Y-44620213D01*
X161379786Y-44469890D01*
X161207820Y-44344951D01*
X161018414Y-44248444D01*
X161018413Y-44248443D01*
X161018412Y-44248443D01*
X160816243Y-44182754D01*
X160816241Y-44182753D01*
X160816240Y-44182753D01*
X160654957Y-44157208D01*
X160606287Y-44149500D01*
X160393713Y-44149500D01*
X160345042Y-44157208D01*
X160183760Y-44182753D01*
X159981585Y-44248444D01*
X159792179Y-44344951D01*
X159620213Y-44469890D01*
X159469890Y-44620213D01*
X159344951Y-44792179D01*
X159248444Y-44981585D01*
X159182753Y-45183760D01*
X159149500Y-45393713D01*
X146417481Y-45393713D01*
X146380198Y-45381599D01*
X146380196Y-45381598D01*
X146380195Y-45381598D01*
X146248768Y-45360782D01*
X146209108Y-45354501D01*
X145735886Y-45354501D01*
X145696225Y-45360782D01*
X145564799Y-45381598D01*
X145400049Y-45435129D01*
X145245708Y-45513769D01*
X145165753Y-45571860D01*
X145105569Y-45615587D01*
X145105567Y-45615589D01*
X145105566Y-45615589D01*
X144983085Y-45738070D01*
X144983085Y-45738071D01*
X144983083Y-45738073D01*
X144939356Y-45798257D01*
X144881265Y-45878212D01*
X144802625Y-46032553D01*
X144749094Y-46197303D01*
X144721997Y-46368390D01*
X140223000Y-46368390D01*
X140195902Y-46197300D01*
X140142373Y-46032556D01*
X140063732Y-45878213D01*
X139961914Y-45738073D01*
X139839428Y-45615587D01*
X139699288Y-45513769D01*
X139544945Y-45435128D01*
X139380201Y-45381599D01*
X139380199Y-45381598D01*
X139380198Y-45381598D01*
X139248771Y-45360782D01*
X139209111Y-45354501D01*
X138735889Y-45354501D01*
X138696228Y-45360782D01*
X138564802Y-45381598D01*
X138400052Y-45435129D01*
X138245711Y-45513769D01*
X138165756Y-45571860D01*
X138105572Y-45615587D01*
X138105570Y-45615589D01*
X138105569Y-45615589D01*
X137983088Y-45738070D01*
X137983088Y-45738071D01*
X137983086Y-45738073D01*
X137939359Y-45798257D01*
X137881268Y-45878212D01*
X137802628Y-46032553D01*
X137749097Y-46197303D01*
X137722000Y-46368390D01*
X126538389Y-46368390D01*
X126655048Y-46207820D01*
X126655047Y-46207820D01*
X126655051Y-46207816D01*
X126751557Y-46018412D01*
X126817246Y-45816243D01*
X126850500Y-45606287D01*
X126850500Y-45393713D01*
X126817246Y-45183757D01*
X126751557Y-44981588D01*
X126655051Y-44792184D01*
X126655049Y-44792181D01*
X126655048Y-44792179D01*
X126530109Y-44620213D01*
X126379786Y-44469890D01*
X126207820Y-44344951D01*
X126018414Y-44248444D01*
X126018413Y-44248443D01*
X126018412Y-44248443D01*
X125816243Y-44182754D01*
X125816241Y-44182753D01*
X125816240Y-44182753D01*
X125654957Y-44157208D01*
X125606287Y-44149500D01*
X125393713Y-44149500D01*
X125345042Y-44157208D01*
X125183760Y-44182753D01*
X124981585Y-44248444D01*
X124792179Y-44344951D01*
X124620213Y-44469890D01*
X124469890Y-44620213D01*
X124344951Y-44792179D01*
X124248444Y-44981585D01*
X124182753Y-45183760D01*
X124149500Y-45393713D01*
X123500500Y-45393713D01*
X123500500Y-45004427D01*
X123500816Y-44995581D01*
X123515130Y-44795443D01*
X123515131Y-44795442D01*
X123515130Y-44795436D01*
X123517646Y-44777938D01*
X123559356Y-44586199D01*
X123564333Y-44569248D01*
X123632911Y-44385385D01*
X123640259Y-44369298D01*
X123653553Y-44344951D01*
X123734291Y-44197089D01*
X123743845Y-44182221D01*
X123861448Y-44025123D01*
X123873020Y-44011769D01*
X124011769Y-43873020D01*
X124025123Y-43861448D01*
X124182221Y-43743845D01*
X124197089Y-43734291D01*
X124369298Y-43640258D01*
X124385385Y-43632911D01*
X124569248Y-43564333D01*
X124586199Y-43559356D01*
X124777938Y-43517646D01*
X124795436Y-43515130D01*
X124995582Y-43500816D01*
X125004428Y-43500500D01*
X125065892Y-43500500D01*
X160934108Y-43500500D01*
X160995572Y-43500500D01*
X161004418Y-43500816D01*
G37*
%TD.AperFunction*%
%TD*%
%TA.AperFunction,Conductor*%
%TO.N,+12V*%
G36*
X145367431Y-76295195D02*
G01*
X145433927Y-76316636D01*
X145436199Y-76318220D01*
X147103437Y-77509104D01*
X147146547Y-77564088D01*
X147155363Y-77610007D01*
X147155363Y-81323809D01*
X147135678Y-81390848D01*
X147082874Y-81436603D01*
X147015177Y-81446748D01*
X147000001Y-81444750D01*
X146999999Y-81444750D01*
X146856291Y-81463670D01*
X146856287Y-81463671D01*
X146722377Y-81519137D01*
X146664877Y-81563259D01*
X146607379Y-81607379D01*
X146607378Y-81607380D01*
X146607377Y-81607381D01*
X146598375Y-81619113D01*
X146541947Y-81660316D01*
X146472201Y-81664470D01*
X146411281Y-81630257D01*
X146401625Y-81619113D01*
X146399782Y-81616711D01*
X146392621Y-81607379D01*
X146277625Y-81519139D01*
X146277624Y-81519138D01*
X146277622Y-81519137D01*
X146143712Y-81463671D01*
X146143710Y-81463670D01*
X146143709Y-81463670D01*
X146071854Y-81454210D01*
X146000001Y-81444750D01*
X145999999Y-81444750D01*
X145856291Y-81463670D01*
X145856287Y-81463671D01*
X145722377Y-81519137D01*
X145664877Y-81563259D01*
X145607379Y-81607379D01*
X145607378Y-81607380D01*
X145607377Y-81607381D01*
X145598375Y-81619113D01*
X145541947Y-81660316D01*
X145472201Y-81664470D01*
X145411281Y-81630257D01*
X145401625Y-81619113D01*
X145399782Y-81616711D01*
X145392621Y-81607379D01*
X145277625Y-81519139D01*
X145277624Y-81519138D01*
X145277622Y-81519137D01*
X145143712Y-81463671D01*
X145143710Y-81463670D01*
X145143709Y-81463670D01*
X145071854Y-81454210D01*
X145000001Y-81444750D01*
X144999999Y-81444750D01*
X144856291Y-81463670D01*
X144856287Y-81463671D01*
X144722377Y-81519137D01*
X144664877Y-81563259D01*
X144607379Y-81607379D01*
X144607378Y-81607380D01*
X144607377Y-81607381D01*
X144598375Y-81619113D01*
X144541947Y-81660316D01*
X144472201Y-81664470D01*
X144411281Y-81630257D01*
X144401625Y-81619113D01*
X144399782Y-81616711D01*
X144392621Y-81607379D01*
X144277625Y-81519139D01*
X144277624Y-81519138D01*
X144277622Y-81519137D01*
X144143712Y-81463671D01*
X144143710Y-81463670D01*
X144143709Y-81463670D01*
X144071854Y-81454210D01*
X144000001Y-81444750D01*
X143999999Y-81444750D01*
X143856291Y-81463670D01*
X143856287Y-81463671D01*
X143722377Y-81519137D01*
X143664877Y-81563259D01*
X143607379Y-81607379D01*
X143607378Y-81607380D01*
X143607377Y-81607381D01*
X143598375Y-81619113D01*
X143541947Y-81660316D01*
X143472201Y-81664470D01*
X143411281Y-81630257D01*
X143401625Y-81619113D01*
X143399782Y-81616711D01*
X143392621Y-81607379D01*
X143277625Y-81519139D01*
X143277624Y-81519138D01*
X143277622Y-81519137D01*
X143143712Y-81463671D01*
X143143710Y-81463670D01*
X143143709Y-81463670D01*
X143071854Y-81454210D01*
X143000001Y-81444750D01*
X142999999Y-81444750D01*
X142856291Y-81463670D01*
X142856287Y-81463671D01*
X142722377Y-81519137D01*
X142664877Y-81563259D01*
X142607379Y-81607379D01*
X142607378Y-81607380D01*
X142607377Y-81607381D01*
X142598375Y-81619113D01*
X142541947Y-81660316D01*
X142472201Y-81664470D01*
X142411281Y-81630257D01*
X142401625Y-81619113D01*
X142399782Y-81616711D01*
X142392621Y-81607379D01*
X142277625Y-81519139D01*
X142277624Y-81519138D01*
X142277622Y-81519137D01*
X142143712Y-81463671D01*
X142143710Y-81463670D01*
X142143709Y-81463670D01*
X142071854Y-81454210D01*
X142000001Y-81444750D01*
X141999999Y-81444750D01*
X141856291Y-81463670D01*
X141856287Y-81463671D01*
X141722377Y-81519137D01*
X141664877Y-81563259D01*
X141607379Y-81607379D01*
X141607378Y-81607380D01*
X141607377Y-81607381D01*
X141598375Y-81619113D01*
X141541947Y-81660316D01*
X141472201Y-81664470D01*
X141411281Y-81630257D01*
X141401625Y-81619113D01*
X141399782Y-81616711D01*
X141392621Y-81607379D01*
X141277625Y-81519139D01*
X141277624Y-81519138D01*
X141277622Y-81519137D01*
X141143712Y-81463671D01*
X141143710Y-81463670D01*
X141143709Y-81463670D01*
X141071854Y-81454210D01*
X141000001Y-81444750D01*
X140999999Y-81444750D01*
X140856291Y-81463670D01*
X140856287Y-81463671D01*
X140722377Y-81519137D01*
X140664877Y-81563259D01*
X140607379Y-81607379D01*
X140607378Y-81607380D01*
X140607377Y-81607381D01*
X140598375Y-81619113D01*
X140541947Y-81660316D01*
X140472201Y-81664470D01*
X140411281Y-81630257D01*
X140401625Y-81619113D01*
X140399782Y-81616711D01*
X140392621Y-81607379D01*
X140277625Y-81519139D01*
X140277624Y-81519138D01*
X140277622Y-81519137D01*
X140143712Y-81463671D01*
X140143710Y-81463670D01*
X140143709Y-81463670D01*
X140071854Y-81454210D01*
X140000001Y-81444750D01*
X139999999Y-81444750D01*
X139856291Y-81463670D01*
X139856287Y-81463671D01*
X139722377Y-81519137D01*
X139664877Y-81563259D01*
X139607379Y-81607379D01*
X139607378Y-81607380D01*
X139607377Y-81607381D01*
X139598375Y-81619113D01*
X139541947Y-81660316D01*
X139472201Y-81664470D01*
X139411281Y-81630257D01*
X139401625Y-81619113D01*
X139399782Y-81616711D01*
X139392621Y-81607379D01*
X139277625Y-81519139D01*
X139277624Y-81519138D01*
X139277622Y-81519137D01*
X139143712Y-81463671D01*
X139143710Y-81463670D01*
X139143709Y-81463670D01*
X139071854Y-81454210D01*
X139000001Y-81444750D01*
X138999999Y-81444750D01*
X138856291Y-81463670D01*
X138856287Y-81463671D01*
X138722377Y-81519137D01*
X138664877Y-81563259D01*
X138607379Y-81607379D01*
X138607378Y-81607380D01*
X138607377Y-81607381D01*
X138598375Y-81619113D01*
X138541947Y-81660316D01*
X138472201Y-81664470D01*
X138411281Y-81630257D01*
X138401625Y-81619113D01*
X138399782Y-81616711D01*
X138392621Y-81607379D01*
X138277625Y-81519139D01*
X138277624Y-81519138D01*
X138277622Y-81519137D01*
X138143712Y-81463671D01*
X138143710Y-81463670D01*
X138143709Y-81463670D01*
X138071854Y-81454210D01*
X138000001Y-81444750D01*
X137999999Y-81444750D01*
X137856291Y-81463670D01*
X137856287Y-81463671D01*
X137722377Y-81519137D01*
X137664877Y-81563259D01*
X137607379Y-81607379D01*
X137607378Y-81607380D01*
X137607377Y-81607381D01*
X137598375Y-81619113D01*
X137541947Y-81660316D01*
X137472201Y-81664470D01*
X137411281Y-81630257D01*
X137401625Y-81619113D01*
X137399782Y-81616711D01*
X137392621Y-81607379D01*
X137277625Y-81519139D01*
X137277624Y-81519138D01*
X137277622Y-81519137D01*
X137143712Y-81463671D01*
X137143710Y-81463670D01*
X137143709Y-81463670D01*
X137071854Y-81454210D01*
X137000001Y-81444750D01*
X136999999Y-81444750D01*
X136856291Y-81463670D01*
X136856287Y-81463671D01*
X136722377Y-81519137D01*
X136664877Y-81563259D01*
X136607379Y-81607379D01*
X136607378Y-81607380D01*
X136607377Y-81607381D01*
X136598375Y-81619113D01*
X136541947Y-81660316D01*
X136472201Y-81664470D01*
X136411281Y-81630257D01*
X136401625Y-81619113D01*
X136399782Y-81616711D01*
X136392621Y-81607379D01*
X136277625Y-81519139D01*
X136277624Y-81519138D01*
X136277622Y-81519137D01*
X136143712Y-81463671D01*
X136143710Y-81463670D01*
X136143709Y-81463670D01*
X136125547Y-81461278D01*
X136001450Y-81444940D01*
X135937554Y-81416673D01*
X135899084Y-81358348D01*
X135893646Y-81323495D01*
X135850625Y-77751915D01*
X135869501Y-77684643D01*
X135886546Y-77663129D01*
X137411293Y-76124888D01*
X137472466Y-76091135D01*
X137502618Y-76088227D01*
X145367431Y-76295195D01*
G37*
%TD.AperFunction*%
%TD*%
%TA.AperFunction,Conductor*%
%TO.N,+12V*%
G36*
X133515677Y-61269685D02*
G01*
X133536319Y-61286319D01*
X133963681Y-61713681D01*
X133997166Y-61775004D01*
X134000000Y-61801362D01*
X134000000Y-65750000D01*
X135626000Y-65750000D01*
X135693039Y-65769685D01*
X135738794Y-65822489D01*
X135750000Y-65874000D01*
X135750000Y-68878978D01*
X135744455Y-68915644D01*
X135739169Y-68932721D01*
X135730399Y-68953893D01*
X135636501Y-69131962D01*
X135622075Y-69153507D01*
X135139362Y-69732763D01*
X135131784Y-69741061D01*
X133905316Y-70967531D01*
X133879638Y-70987235D01*
X133858552Y-70999410D01*
X133808856Y-71028101D01*
X133808850Y-71028106D01*
X132747019Y-72089937D01*
X132735748Y-72109457D01*
X132712155Y-72138856D01*
X132195303Y-72612637D01*
X132132583Y-72643427D01*
X132063174Y-72635420D01*
X132023832Y-72608911D01*
X131409686Y-71994764D01*
X131409685Y-71994763D01*
X131388943Y-71980904D01*
X131347741Y-71953374D01*
X131250000Y-71933931D01*
X131152257Y-71953374D01*
X131090318Y-71994760D01*
X131090311Y-71994766D01*
X130809497Y-72275580D01*
X130748174Y-72309065D01*
X130678482Y-72304081D01*
X130629138Y-72270281D01*
X129572652Y-71081734D01*
X129542827Y-71018551D01*
X129551895Y-70949273D01*
X129572008Y-70917704D01*
X131250000Y-69000000D01*
X131250000Y-68413731D01*
X131269685Y-68346692D01*
X131322489Y-68300937D01*
X131390184Y-68290792D01*
X131467240Y-68300937D01*
X131499999Y-68305250D01*
X131500000Y-68305250D01*
X131500001Y-68305250D01*
X131514977Y-68303278D01*
X131643709Y-68286330D01*
X131777625Y-68230861D01*
X131799514Y-68214065D01*
X131864683Y-68188871D01*
X131933128Y-68202909D01*
X131950487Y-68214065D01*
X131972375Y-68230861D01*
X132106291Y-68286330D01*
X132233280Y-68303048D01*
X132249999Y-68305250D01*
X132250000Y-68305250D01*
X132250001Y-68305250D01*
X132264977Y-68303278D01*
X132393709Y-68286330D01*
X132527625Y-68230861D01*
X132642621Y-68142621D01*
X132730861Y-68027625D01*
X132786330Y-67893709D01*
X132805250Y-67750000D01*
X132786330Y-67606291D01*
X132730861Y-67472375D01*
X132714065Y-67450486D01*
X132688871Y-67385317D01*
X132702909Y-67316872D01*
X132714065Y-67299514D01*
X132716135Y-67296815D01*
X132730861Y-67277625D01*
X132786330Y-67143709D01*
X132805250Y-67000000D01*
X132786330Y-66856291D01*
X132730861Y-66722375D01*
X132714065Y-66700486D01*
X132688871Y-66635317D01*
X132702909Y-66566872D01*
X132714065Y-66549514D01*
X132716135Y-66546815D01*
X132730861Y-66527625D01*
X132786330Y-66393709D01*
X132805250Y-66250000D01*
X132786330Y-66106291D01*
X132730861Y-65972375D01*
X132714065Y-65950486D01*
X132688871Y-65885317D01*
X132702909Y-65816872D01*
X132714065Y-65799514D01*
X132716135Y-65796815D01*
X132730861Y-65777625D01*
X132786330Y-65643709D01*
X132805250Y-65500000D01*
X132786330Y-65356291D01*
X132730861Y-65222375D01*
X132642621Y-65107379D01*
X132527625Y-65019139D01*
X132527624Y-65019138D01*
X132527622Y-65019137D01*
X132393712Y-64963671D01*
X132393710Y-64963670D01*
X132393709Y-64963670D01*
X132321854Y-64954210D01*
X132250001Y-64944750D01*
X132249999Y-64944750D01*
X132106291Y-64963670D01*
X132106287Y-64963671D01*
X131972375Y-65019138D01*
X131950485Y-65035935D01*
X131885315Y-65061128D01*
X131816871Y-65047089D01*
X131799515Y-65035935D01*
X131777624Y-65019138D01*
X131777625Y-65019138D01*
X131643712Y-64963671D01*
X131643710Y-64963670D01*
X131643709Y-64963670D01*
X131571854Y-64954210D01*
X131500001Y-64944750D01*
X131499998Y-64944750D01*
X131390185Y-64959207D01*
X131321150Y-64948441D01*
X131268894Y-64902061D01*
X131250000Y-64836268D01*
X131250000Y-64258814D01*
X131251246Y-64241278D01*
X131496459Y-62524782D01*
X131512880Y-62478533D01*
X132213879Y-61310200D01*
X132265249Y-61262844D01*
X132320207Y-61250000D01*
X133448638Y-61250000D01*
X133515677Y-61269685D01*
G37*
%TD.AperFunction*%
%TD*%
%TA.AperFunction,Conductor*%
%TO.N,+3V3*%
G36*
X135982670Y-69045947D02*
G01*
X136246184Y-69154150D01*
X136252536Y-69160462D01*
X136252563Y-69160529D01*
X136360766Y-69424043D01*
X136360739Y-69432998D01*
X136355400Y-69438836D01*
X135923169Y-69666756D01*
X135914253Y-69667584D01*
X135909439Y-69664680D01*
X135742033Y-69497274D01*
X135738606Y-69489001D01*
X135739956Y-69483547D01*
X135967877Y-69051312D01*
X135974767Y-69045593D01*
X135982670Y-69045947D01*
G37*
%TD.AperFunction*%
%TD*%
%TA.AperFunction,Conductor*%
%TO.N,+3V3*%
G36*
X149634522Y-60226479D02*
G01*
X149638927Y-60231768D01*
X149749115Y-60495489D01*
X149749142Y-60504444D01*
X149749115Y-60504511D01*
X149638927Y-60768231D01*
X149632575Y-60774543D01*
X149625720Y-60775169D01*
X149159289Y-60676955D01*
X149151900Y-60671897D01*
X149150000Y-60665506D01*
X149150000Y-60334493D01*
X149153427Y-60326220D01*
X149159289Y-60323044D01*
X149625722Y-60224830D01*
X149634522Y-60226479D01*
G37*
%TD.AperFunction*%
%TD*%
%TA.AperFunction,Conductor*%
%TO.N,NRST*%
G36*
X153921633Y-65487454D02*
G01*
X153934899Y-65491869D01*
X153940046Y-65495308D01*
X153952783Y-65510008D01*
X154073858Y-65587818D01*
X154180605Y-65619161D01*
X154211949Y-65628365D01*
X154343113Y-65628365D01*
X154346806Y-65628963D01*
X154399919Y-65646641D01*
X154406685Y-65652504D01*
X154407324Y-65661436D01*
X154407046Y-65662185D01*
X154298606Y-65926277D01*
X154296029Y-65930134D01*
X154094493Y-66130331D01*
X154086208Y-66133730D01*
X154077946Y-66130276D01*
X154076829Y-66128971D01*
X154044746Y-66085381D01*
X154043532Y-66083317D01*
X154033089Y-66060449D01*
X153988941Y-66009499D01*
X153988360Y-66008772D01*
X153741133Y-65672875D01*
X153738989Y-65664181D01*
X153742281Y-65657669D01*
X153909668Y-65490282D01*
X153917940Y-65486856D01*
X153921633Y-65487454D01*
G37*
%TD.AperFunction*%
%TD*%
%TA.AperFunction,Conductor*%
%TO.N,+5V*%
G36*
X134282635Y-47848718D02*
G01*
X134288815Y-47854762D01*
X134489148Y-48305463D01*
X134489377Y-48314415D01*
X134486730Y-48318488D01*
X134319309Y-48485909D01*
X134311036Y-48489336D01*
X134304951Y-48487629D01*
X134027148Y-48318488D01*
X133900760Y-48241536D01*
X133895477Y-48234308D01*
X133896022Y-48227102D01*
X134004470Y-47962992D01*
X134010780Y-47956642D01*
X134273682Y-47848691D01*
X134282635Y-47848718D01*
G37*
%TD.AperFunction*%
%TD*%
%TA.AperFunction,Conductor*%
%TO.N,+3V3*%
G36*
X149969877Y-60296666D02*
G01*
X149970345Y-60297166D01*
X150344433Y-60720678D01*
X150347342Y-60729148D01*
X150343937Y-60736697D01*
X150075039Y-61005595D01*
X150066766Y-61009022D01*
X150061199Y-61007613D01*
X149644446Y-60782168D01*
X149638800Y-60775217D01*
X149639189Y-60767434D01*
X149748394Y-60501480D01*
X149750967Y-60497629D01*
X149953330Y-60296610D01*
X149961615Y-60293212D01*
X149969877Y-60296666D01*
G37*
%TD.AperFunction*%
%TD*%
%TA.AperFunction,Conductor*%
%TO.N,NRST*%
G36*
X141280642Y-57710706D02*
G01*
X141286954Y-57717058D01*
X141287308Y-57724961D01*
X141142839Y-58191759D01*
X141137119Y-58198649D01*
X141131662Y-58200000D01*
X140894914Y-58200000D01*
X140886641Y-58196573D01*
X140883737Y-58191759D01*
X140739267Y-57724961D01*
X140740095Y-57716045D01*
X140745931Y-57710707D01*
X141008778Y-57600883D01*
X141017732Y-57600857D01*
X141280642Y-57710706D01*
G37*
%TD.AperFunction*%
%TD*%
%TA.AperFunction,Conductor*%
%TO.N,Net-(J10-Pin_1)*%
G36*
X127130036Y-64476877D02*
G01*
X127195714Y-64500705D01*
X127238086Y-64556260D01*
X127245038Y-64618267D01*
X127244500Y-64622007D01*
X127244500Y-69111610D01*
X127253687Y-69179510D01*
X127253687Y-69179512D01*
X127271193Y-69243019D01*
X127271200Y-69243042D01*
X127285365Y-69281859D01*
X127289260Y-69289187D01*
X127303344Y-69357622D01*
X127278193Y-69422808D01*
X127257229Y-69444215D01*
X126283965Y-70222828D01*
X126219319Y-70249336D01*
X126206503Y-70250000D01*
X123624500Y-70250000D01*
X123557461Y-70230315D01*
X123511706Y-70177511D01*
X123500500Y-70126000D01*
X123500500Y-67998498D01*
X123520185Y-67931459D01*
X123572989Y-67885704D01*
X123642147Y-67875760D01*
X123705703Y-67904785D01*
X123723764Y-67924183D01*
X123767454Y-67982546D01*
X123788763Y-67998498D01*
X123882664Y-68068793D01*
X123882671Y-68068797D01*
X124017517Y-68119091D01*
X124017516Y-68119091D01*
X124024444Y-68119835D01*
X124077127Y-68125500D01*
X126422872Y-68125499D01*
X126482483Y-68119091D01*
X126617331Y-68068796D01*
X126732546Y-67982546D01*
X126818796Y-67867331D01*
X126869091Y-67732483D01*
X126875500Y-67672873D01*
X126875499Y-65327128D01*
X126869091Y-65267517D01*
X126858290Y-65238559D01*
X126818797Y-65132671D01*
X126818793Y-65132664D01*
X126732547Y-65017455D01*
X126732544Y-65017452D01*
X126617335Y-64931206D01*
X126617328Y-64931202D01*
X126482482Y-64880908D01*
X126482483Y-64880908D01*
X126422883Y-64874501D01*
X126422881Y-64874500D01*
X126422873Y-64874500D01*
X126422864Y-64874500D01*
X124077129Y-64874500D01*
X124077123Y-64874501D01*
X124017516Y-64880908D01*
X123882671Y-64931202D01*
X123882664Y-64931206D01*
X123767455Y-65017452D01*
X123723766Y-65075813D01*
X123667832Y-65117683D01*
X123598140Y-65122667D01*
X123536817Y-65089181D01*
X123503333Y-65027857D01*
X123500500Y-65001501D01*
X123500500Y-64382023D01*
X123520185Y-64314984D01*
X123572989Y-64269229D01*
X123632232Y-64258264D01*
X127130036Y-64476877D01*
G37*
%TD.AperFunction*%
%TD*%
%TA.AperFunction,Conductor*%
%TO.N,+3V3*%
G36*
X136376647Y-68560141D02*
G01*
X136379551Y-68564955D01*
X136524020Y-69031752D01*
X136523192Y-69040668D01*
X136517354Y-69046007D01*
X136254511Y-69155829D01*
X136245556Y-69155856D01*
X136245489Y-69155829D01*
X135982645Y-69046007D01*
X135976333Y-69039655D01*
X135975979Y-69031753D01*
X136120449Y-68564954D01*
X136126169Y-68558065D01*
X136131626Y-68556714D01*
X136368374Y-68556714D01*
X136376647Y-68560141D01*
G37*
%TD.AperFunction*%
%TD*%
%TA.AperFunction,Conductor*%
%TO.N,ISEN*%
G36*
X135815539Y-61519685D02*
G01*
X135861294Y-61572489D01*
X135872500Y-61624000D01*
X135872500Y-65390447D01*
X135852815Y-65457486D01*
X135800011Y-65503241D01*
X135730853Y-65513185D01*
X135713567Y-65509425D01*
X135697986Y-65504850D01*
X135697978Y-65504848D01*
X135626001Y-65494500D01*
X135626000Y-65494500D01*
X134379500Y-65494500D01*
X134312461Y-65474815D01*
X134266706Y-65422011D01*
X134255500Y-65370500D01*
X134255500Y-61801360D01*
X134255345Y-61798486D01*
X134254036Y-61774048D01*
X134251202Y-61747690D01*
X134224074Y-61661054D01*
X134222826Y-61591196D01*
X134259545Y-61531752D01*
X134322572Y-61501597D01*
X134342408Y-61500000D01*
X135748500Y-61500000D01*
X135815539Y-61519685D01*
G37*
%TD.AperFunction*%
%TD*%
%TA.AperFunction,Conductor*%
%TO.N,DRV_IN2*%
G36*
X142534109Y-69389824D02*
G01*
X142798517Y-69498393D01*
X142802372Y-69500969D01*
X143002355Y-69702290D01*
X143005754Y-69710574D01*
X143002300Y-69718836D01*
X143000781Y-69720108D01*
X142533530Y-70048465D01*
X142524791Y-70050418D01*
X142518530Y-70047165D01*
X142354023Y-69882658D01*
X142350596Y-69874385D01*
X142353452Y-69866727D01*
X142406298Y-69805740D01*
X142466086Y-69674824D01*
X142486568Y-69532367D01*
X142482160Y-69501710D01*
X142482737Y-69496075D01*
X142518684Y-69396674D01*
X142524720Y-69390061D01*
X142533665Y-69389652D01*
X142534109Y-69389824D01*
G37*
%TD.AperFunction*%
%TD*%
%TA.AperFunction,Conductor*%
%TO.N,FLASH_MISO*%
G36*
X147936624Y-70118101D02*
G01*
X147942486Y-70124199D01*
X148052098Y-70386540D01*
X148052125Y-70395495D01*
X148052098Y-70395562D01*
X147942486Y-70657902D01*
X147936134Y-70664214D01*
X147927677Y-70664380D01*
X147793930Y-70615544D01*
X147460670Y-70493857D01*
X147454074Y-70487801D01*
X147452983Y-70482867D01*
X147452983Y-70299234D01*
X147456410Y-70290961D01*
X147460670Y-70288244D01*
X147927680Y-70117720D01*
X147936624Y-70118101D01*
G37*
%TD.AperFunction*%
%TD*%
%TA.AperFunction,Conductor*%
%TO.N,DRV_IN1*%
G36*
X128590560Y-76115033D02*
G01*
X128757966Y-76282439D01*
X128761393Y-76290712D01*
X128760042Y-76296169D01*
X128532122Y-76728400D01*
X128525232Y-76734120D01*
X128517329Y-76733766D01*
X128253815Y-76625563D01*
X128247463Y-76619251D01*
X128247436Y-76619184D01*
X128139233Y-76355670D01*
X128139260Y-76346715D01*
X128144599Y-76340877D01*
X128576832Y-76112956D01*
X128585746Y-76112129D01*
X128590560Y-76115033D01*
G37*
%TD.AperFunction*%
%TD*%
%TA.AperFunction,Conductor*%
%TO.N,+3V3*%
G36*
X144537116Y-59848851D02*
G01*
X144542405Y-59853256D01*
X144802774Y-60252520D01*
X144804423Y-60261322D01*
X144801247Y-60267184D01*
X144567185Y-60501246D01*
X144558912Y-60504673D01*
X144552521Y-60502773D01*
X144153257Y-60242404D01*
X144148199Y-60235015D01*
X144148825Y-60228160D01*
X144257389Y-59963767D01*
X144263699Y-59957416D01*
X144528162Y-59848824D01*
X144537116Y-59848851D01*
G37*
%TD.AperFunction*%
%TD*%
%TA.AperFunction,Conductor*%
%TO.N,FLASH_MISO*%
G36*
X140975305Y-68027444D02*
G01*
X140975970Y-68027747D01*
X141432100Y-68253423D01*
X141437996Y-68260164D01*
X141438612Y-68263910D01*
X141438612Y-68444445D01*
X141435185Y-68452718D01*
X141426912Y-68456145D01*
X141334680Y-68456145D01*
X141196590Y-68496691D01*
X141196588Y-68496692D01*
X141143770Y-68530635D01*
X141140316Y-68532134D01*
X140974584Y-68574077D01*
X140965722Y-68572785D01*
X140960918Y-68567247D01*
X140850884Y-68303897D01*
X140850858Y-68294944D01*
X140850863Y-68294930D01*
X140959999Y-68033727D01*
X140966350Y-68027417D01*
X140975305Y-68027444D01*
G37*
%TD.AperFunction*%
%TD*%
%TA.AperFunction,Conductor*%
%TO.N,+3V3*%
G36*
X130836200Y-74405763D02*
G01*
X131003541Y-74573104D01*
X131006968Y-74581377D01*
X131006536Y-74584527D01*
X130868787Y-75077191D01*
X130863259Y-75084236D01*
X130854369Y-75085309D01*
X130853075Y-75084864D01*
X130834388Y-75077191D01*
X130740355Y-75038579D01*
X130589564Y-74976662D01*
X130585707Y-74974085D01*
X130385100Y-74772136D01*
X130381702Y-74763853D01*
X130385156Y-74755591D01*
X130386053Y-74754788D01*
X130429424Y-74719868D01*
X130433449Y-74717764D01*
X130460053Y-74709953D01*
X130581128Y-74632143D01*
X130675377Y-74523373D01*
X130675380Y-74523366D01*
X130675830Y-74522668D01*
X130675914Y-74522722D01*
X130678636Y-74519217D01*
X130820592Y-74404922D01*
X130829183Y-74402404D01*
X130836200Y-74405763D01*
G37*
%TD.AperFunction*%
%TD*%
%TA.AperFunction,Conductor*%
%TO.N,+3V3*%
G36*
X136619670Y-59512234D02*
G01*
X136883184Y-59620437D01*
X136889536Y-59626749D01*
X136889563Y-59626816D01*
X136997766Y-59890330D01*
X136997739Y-59899285D01*
X136992400Y-59905123D01*
X136560169Y-60133043D01*
X136551253Y-60133871D01*
X136546439Y-60130967D01*
X136379033Y-59963561D01*
X136375606Y-59955288D01*
X136376956Y-59949834D01*
X136604877Y-59517599D01*
X136611767Y-59511880D01*
X136619670Y-59512234D01*
G37*
%TD.AperFunction*%
%TD*%
%TA.AperFunction,Conductor*%
%TO.N,Net-(J11-Pin_1)*%
G36*
X130935848Y-64464270D02*
G01*
X130982449Y-64516329D01*
X130994500Y-64569653D01*
X130994500Y-64836268D01*
X131004426Y-64906790D01*
X131004427Y-64906796D01*
X131004428Y-64906798D01*
X131023319Y-64972582D01*
X131039073Y-65013699D01*
X131039074Y-65013700D01*
X131039075Y-65013701D01*
X131099292Y-65093151D01*
X131099294Y-65093153D01*
X131099293Y-65093153D01*
X131132042Y-65122219D01*
X131151548Y-65139531D01*
X131151551Y-65139533D01*
X131151559Y-65139540D01*
X131188163Y-65166602D01*
X131188170Y-65166607D01*
X131281781Y-65200890D01*
X131350816Y-65211656D01*
X131365359Y-65211829D01*
X131423530Y-65212521D01*
X131423530Y-65212520D01*
X131423534Y-65212521D01*
X131483811Y-65204585D01*
X131516182Y-65204585D01*
X131538503Y-65207524D01*
X131538504Y-65207524D01*
X131560832Y-65210463D01*
X131592091Y-65218839D01*
X131596711Y-65220752D01*
X131637180Y-65237515D01*
X131659137Y-65249591D01*
X131659209Y-65249480D01*
X131660834Y-65250524D01*
X131661057Y-65250647D01*
X131661397Y-65250886D01*
X131678733Y-65262027D01*
X131678735Y-65262027D01*
X131678737Y-65262029D01*
X131765533Y-65297378D01*
X131833977Y-65311417D01*
X131879228Y-65316556D01*
X131879228Y-65316555D01*
X131879229Y-65316556D01*
X131977441Y-65299441D01*
X132042611Y-65274248D01*
X132088098Y-65248703D01*
X132101355Y-65242264D01*
X132157906Y-65218840D01*
X132189170Y-65210462D01*
X132233813Y-65204585D01*
X132266183Y-65204585D01*
X132288503Y-65207524D01*
X132288504Y-65207524D01*
X132310833Y-65210463D01*
X132342092Y-65218839D01*
X132383687Y-65236068D01*
X132411721Y-65252254D01*
X132447447Y-65279668D01*
X132470333Y-65302553D01*
X132497743Y-65338274D01*
X132513929Y-65366309D01*
X132531160Y-65407912D01*
X132539536Y-65439175D01*
X132545413Y-65483813D01*
X132545413Y-65516184D01*
X132539536Y-65560824D01*
X132531158Y-65592091D01*
X132512483Y-65637177D01*
X132500412Y-65659142D01*
X132500519Y-65659211D01*
X132499524Y-65660758D01*
X132499394Y-65660996D01*
X132499133Y-65661367D01*
X132487974Y-65678731D01*
X132487972Y-65678733D01*
X132478702Y-65701495D01*
X132452619Y-65765538D01*
X132438581Y-65833983D01*
X132433443Y-65879236D01*
X132442291Y-65930003D01*
X132450559Y-65977445D01*
X132450559Y-65977446D01*
X132475753Y-66042614D01*
X132501291Y-66088090D01*
X132507729Y-66101343D01*
X132531159Y-66157908D01*
X132539536Y-66189174D01*
X132545413Y-66233814D01*
X132545413Y-66266184D01*
X132539536Y-66310824D01*
X132531158Y-66342091D01*
X132512483Y-66387177D01*
X132500412Y-66409142D01*
X132500519Y-66409211D01*
X132499524Y-66410758D01*
X132499394Y-66410996D01*
X132499133Y-66411367D01*
X132487974Y-66428731D01*
X132487972Y-66428733D01*
X132462246Y-66491900D01*
X132452619Y-66515538D01*
X132438581Y-66583983D01*
X132433443Y-66629236D01*
X132442291Y-66680003D01*
X132450559Y-66727445D01*
X132450559Y-66727446D01*
X132475753Y-66792614D01*
X132501291Y-66838090D01*
X132507729Y-66851343D01*
X132531159Y-66907908D01*
X132539536Y-66939174D01*
X132545413Y-66983814D01*
X132545413Y-67016184D01*
X132539536Y-67060824D01*
X132531158Y-67092091D01*
X132512483Y-67137177D01*
X132500412Y-67159142D01*
X132500519Y-67159211D01*
X132499524Y-67160758D01*
X132499394Y-67160996D01*
X132499133Y-67161367D01*
X132487974Y-67178731D01*
X132487972Y-67178733D01*
X132462246Y-67241900D01*
X132452619Y-67265538D01*
X132438581Y-67333983D01*
X132433443Y-67379236D01*
X132442291Y-67430003D01*
X132450559Y-67477445D01*
X132450559Y-67477446D01*
X132475753Y-67542614D01*
X132501291Y-67588090D01*
X132507729Y-67601343D01*
X132531159Y-67657908D01*
X132539536Y-67689174D01*
X132545413Y-67733814D01*
X132545413Y-67766185D01*
X132539536Y-67810823D01*
X132531160Y-67842086D01*
X132513929Y-67883689D01*
X132497741Y-67911727D01*
X132470333Y-67947445D01*
X132447445Y-67970333D01*
X132411727Y-67997741D01*
X132383690Y-68013928D01*
X132342088Y-68031159D01*
X132310824Y-68039536D01*
X132266186Y-68045413D01*
X132233815Y-68045413D01*
X132189173Y-68039536D01*
X132157906Y-68031158D01*
X132112825Y-68012485D01*
X132090866Y-68000410D01*
X132090795Y-68000522D01*
X132089170Y-67999477D01*
X132088956Y-67999360D01*
X132088627Y-67999128D01*
X132071262Y-67987969D01*
X131984465Y-67952620D01*
X131984463Y-67952619D01*
X131984462Y-67952619D01*
X131935587Y-67942594D01*
X131916008Y-67938579D01*
X131870767Y-67933443D01*
X131870765Y-67933443D01*
X131870764Y-67933443D01*
X131832688Y-67940079D01*
X131772554Y-67950559D01*
X131772553Y-67950559D01*
X131707386Y-67975752D01*
X131707376Y-67975757D01*
X131661904Y-68001293D01*
X131648641Y-68007735D01*
X131633691Y-68013928D01*
X131592090Y-68031159D01*
X131560827Y-68039536D01*
X131526683Y-68044031D01*
X131516185Y-68045414D01*
X131483813Y-68045414D01*
X131467436Y-68043257D01*
X131423530Y-68037477D01*
X131354100Y-68038098D01*
X131352317Y-68038114D01*
X131291274Y-68047262D01*
X131284615Y-68048260D01*
X131284604Y-68048262D01*
X131241806Y-68058510D01*
X131241800Y-68058512D01*
X131155177Y-68107839D01*
X131155173Y-68107842D01*
X131102371Y-68153594D01*
X131070743Y-68186371D01*
X131024534Y-68274708D01*
X131024533Y-68274708D01*
X131004851Y-68341740D01*
X131004848Y-68341752D01*
X130994500Y-68413729D01*
X130994500Y-68754496D01*
X130974815Y-68821535D01*
X130922011Y-68867290D01*
X130884058Y-68877753D01*
X127637558Y-69234868D01*
X127568768Y-69222631D01*
X127517514Y-69175147D01*
X127500000Y-69111611D01*
X127500000Y-64622016D01*
X127519685Y-64554977D01*
X127572489Y-64509222D01*
X127621998Y-64498032D01*
X130868501Y-64445669D01*
X130935848Y-64464270D01*
G37*
%TD.AperFunction*%
%TD*%
%TA.AperFunction,Conductor*%
%TO.N,+5V*%
G36*
X148026647Y-54103427D02*
G01*
X148029551Y-54108241D01*
X148174020Y-54575038D01*
X148173192Y-54583954D01*
X148167354Y-54589293D01*
X147904511Y-54699115D01*
X147895556Y-54699142D01*
X147895489Y-54699115D01*
X147632645Y-54589293D01*
X147626333Y-54582941D01*
X147625979Y-54575039D01*
X147770449Y-54108240D01*
X147776169Y-54101351D01*
X147781626Y-54100000D01*
X148018374Y-54100000D01*
X148026647Y-54103427D01*
G37*
%TD.AperFunction*%
%TD*%
%TA.AperFunction,Conductor*%
%TO.N,DRV_IN2*%
G36*
X127470279Y-77044316D02*
G01*
X127783840Y-77292487D01*
X127788201Y-77300307D01*
X127788279Y-77301660D01*
X127788279Y-77538300D01*
X127784852Y-77546573D01*
X127776579Y-77550000D01*
X127261661Y-77550000D01*
X127253388Y-77546573D01*
X127249961Y-77538339D01*
X127249172Y-77301660D01*
X127249016Y-77254884D01*
X127252414Y-77246601D01*
X127454768Y-77045196D01*
X127463048Y-77041791D01*
X127470279Y-77044316D01*
G37*
%TD.AperFunction*%
%TD*%
%TA.AperFunction,Conductor*%
%TO.N,DRV_IN1*%
G36*
X141653154Y-69058643D02*
G01*
X141670908Y-69066061D01*
X141677220Y-69072413D01*
X141677193Y-69081368D01*
X141676230Y-69083198D01*
X141584629Y-69225247D01*
X141583639Y-69226567D01*
X141555542Y-69258996D01*
X141538109Y-69297165D01*
X141537300Y-69298644D01*
X141484377Y-69380719D01*
X141477014Y-69385815D01*
X141474544Y-69386079D01*
X141235545Y-69386079D01*
X141227272Y-69382652D01*
X141224369Y-69377840D01*
X141132623Y-69081605D01*
X141133449Y-69072691D01*
X141139285Y-69067352D01*
X141402132Y-68957528D01*
X141411086Y-68957502D01*
X141653154Y-69058643D01*
G37*
%TD.AperFunction*%
%TD*%
M02*
